<svg id="圖層_1" data-name="圖層 1" xmlns="http://www.w3.org/2000/svg" viewBox="0 0 933.05 122.27"><defs><style>.cls-1{fill:#2ca0e0;}.cls-2{fill:#12242e;}</style></defs><rect class="cls-1" x="11.55" y="10.54" width="909.94" height="100.18"/><path class="cls-2" d="M1135.19,463.92H242.26V382h892.93Zm-889.88-3.05h886.83V385.05H245.31Z" transform="translate(-222.2 -362.33)"/><path class="cls-2" d="M245.3,474.56H222.21V374.14H245.3Zm-20.07-3h17V377.16h-17Z" transform="translate(-222.2 -362.33)"/><path class="cls-2" d="M1155.08,473.14h-23V376h23Zm-20.06-3h17.09V379H1135Z" transform="translate(-222.2 -362.33)"/><path class="cls-1" d="M233.75,483.08h0a10,10,0,0,1-10-10h0a10,10,0,0,1,10-10h10v10A10,10,0,0,1,233.75,483.08Z" transform="translate(-222.2 -362.33)"/><path class="cls-2" d="M233.75,484.6a11.56,11.56,0,0,1,0-23.11h11.56v11.56A11.56,11.56,0,0,1,233.75,484.6Zm0-20.06a8.51,8.51,0,1,0,8.51,8.51v-8.51Z" transform="translate(-222.2 -362.33)"/><path class="cls-1" d="M223.72,373.88h0a10,10,0,0,1,10-10h0a10,10,0,0,1,10,10v10h-10A10,10,0,0,1,223.72,373.88Z" transform="translate(-222.2 -362.33)"/><path class="cls-2" d="M245.31,385.44H233.75a11.56,11.56,0,1,1,11.56-11.56Zm-11.56-20.06a8.51,8.51,0,0,0,0,17h8.51v-8.51A8.51,8.51,0,0,0,233.75,365.38Z" transform="translate(-222.2 -362.33)"/><path class="cls-1" d="M1143.69,363.85h0a10,10,0,0,1,10,10h0a10,10,0,0,1-10,10h-10v-10A10,10,0,0,1,1143.69,363.85Z" transform="translate(-222.2 -362.33)"/><path class="cls-2" d="M1143.69,385.44h-11.55V373.88a11.56,11.56,0,1,1,11.55,11.56Zm-8.5-3.05h8.5a8.51,8.51,0,1,0-8.5-8.51Z" transform="translate(-222.2 -362.33)"/><path class="cls-1" d="M1153.72,473.05h0a10,10,0,0,1-10,10h0a10,10,0,0,1-10-10V463h10A10,10,0,0,1,1153.72,473.05Z" transform="translate(-222.2 -362.33)"/><path class="cls-2" d="M1143.69,484.6a11.56,11.56,0,0,1-11.55-11.55V461.49h11.55a11.56,11.56,0,1,1,0,23.11Zm-8.5-20.06v8.51a8.51,8.51,0,1,0,8.5-8.51Z" transform="translate(-222.2 -362.33)"/></svg>