<svg id="圖層_1" data-name="圖層 1" xmlns="http://www.w3.org/2000/svg" viewBox="0 0 149.54 153.93"><defs><style>.cls-1{fill:#fff;}.cls-2{fill:#12242e;}.cls-3{fill:#2ca0e0;}</style></defs><polygon class="cls-1" points="54.71 45.56 64.02 42.89 70.64 42.89 66.84 29.72 71.86 27.68 67.05 15.04 85.26 32.3 108.4 70.9 108.4 79.91 100.39 98.67 92.98 118.89 92.98 123.52 92.98 125.29 55.54 125.29 51.55 108.66 54.71 92.34 56.84 84.54 65.75 78.21 62.84 76.75 62.48 69.44 51.55 78.44 42.42 75.57 37.75 71.87 42.42 65.29 43.84 56.28 46.28 48.24 54.71 45.56"/><path class="cls-2" d="M730.09,627.27a28.73,28.73,0,0,1-9.2,1.83c-.7,0-.9.37-1.08.91-1.59,4.72-3.17,9.44-4.8,14.15a1.39,1.39,0,0,0,.43,1.67,5.75,5.75,0,0,0,7.71.61,3.21,3.21,0,0,1,2.31-.88,2.37,2.37,0,0,1,2.11,1.7,2.43,2.43,0,0,1-.61,2.65A10.74,10.74,0,0,1,710.21,647a4.91,4.91,0,0,1-.21-4c1.46-4.21,2.83-8.44,4.31-12.64.41-1.16.57-1.69-1-2.09a28.07,28.07,0,1,1,34-33.92,26.55,26.55,0,0,1-1.42,17.43,1.43,1.43,0,0,0,.65,2.15c3,2,4.35,4.9,4.77,8.41.61,5.15,1.34,10.29,2,15.43.46,3.46,1,6.92,1.41,10.38a2.62,2.62,0,0,1-2.07,3,2.47,2.47,0,0,1-3-2.2c-.79-5.5-1.5-11-2.26-16.53-.5-3.68-.91-7.37-1.59-11a5.53,5.53,0,0,0-10.9,1.48c.33,4,.92,7.89,1.44,11.83.57,4.41,1.19,8.82,1.79,13.22.05.42.14.83.21,1.25a4.29,4.29,0,0,1-1.77,4.77,21.82,21.82,0,0,0-8.33,14.23,38.08,38.08,0,0,0,.9,18.06,2.64,2.64,0,0,1-1.72,3.46c-1.34.39-2.55-.33-3.13-2a38,38,0,0,1-1.73-15.08c.35-5.67,1.6-11.12,4.73-16a26.31,26.31,0,0,1,4.65-5.44,2.79,2.79,0,0,0,1.12-2.82c-1-6.71-1.84-13.44-2.75-20.16A7,7,0,0,0,730.09,627.27Z" transform="translate(-673.22 -573)"/><path class="cls-2" d="M771.2,709.76H724.93a2.39,2.39,0,0,1-2.39-2.39v-3.78c0-1.59,0-3.19,0-4.79,0-2.51.78-3.27,3.35-3.27,11.91,0,23.83,0,35.74,0,1.51,0,2-.44,1.8-1.86-.45-4.26,1.88-7.77,3.28-11.5,3.55-9.52,7.44-18.91,10.93-28.46a18.6,18.6,0,0,0-1.77-16.38c-6.37-10-12.94-19.85-19.42-29.77a7.74,7.74,0,0,0-1.78-2c-1.6-1.17-1.89-2.68-.87-4a2.6,2.6,0,0,1,3.69-.27,11.15,11.15,0,0,1,3,3.22c6.55,10,13.22,19.93,19.61,30a23,23,0,0,1,2.2,21.19c-4.36,11.61-8.92,23.14-13.44,34.7-.57,1.46-.32,2.93-.37,4.4,0,.88.69.63,1.17.64a4.38,4.38,0,0,1,2.61.48,2.74,2.74,0,0,1,1.29,2.41c0,2,0,4.05,0,6.07v2.89A2.39,2.39,0,0,1,771.2,709.76Zm-23.09-9.13H731.06c-3.44,0-3.37,0-3.45,3.52,0,1.35.39,1.64,1.68,1.63,11.85,0,23.7,0,35.55,0,3.72,0,3.67,0,3.69-3.75,0-1.17-.38-1.39-1.45-1.38C760.76,700.65,754.44,700.63,748.11,700.63Z" transform="translate(-673.22 -573)"/><path class="cls-3" d="M820.92,694.06l-18.08-23.74c-3-1.89-6.77.47-6.77,4.23v11.81h-96V674.55c0-3.76-3.76-6.12-6.76-4.23l-18.08,23.74c-2.6,3.31-2.74,4.84,0,8.47l18.08,23.74c3,1.88,6.76-.47,6.76-4.23V710.23h96V722c0,3.76,3.77,6.11,6.77,4.23l18.08-23.74C823.34,699.64,823.39,696.75,820.92,694.06Z" transform="translate(-673.22 -573)"/><path class="cls-1" d="M723.11,597.53h-7.66v4.77h6.08v13.59H718.4V614h-8.9v1.94h-3.2V602.3h6v-4.77h-7.56v-3h7.56v-4.38q-2.87.4-5.84.63l-1-2.89a86.09,86.09,0,0,0,15.27-2.41l1.42,2.75c-1.92.52-4.16,1-6.7,1.43v4.87h7.66ZM718.4,611v-5.71h-8.9V611Zm9.53-1.36h-3.16V588h3.16Zm6.23,2.92a3.67,3.67,0,0,1-.79,2.4c-.53.65-2,1-4.27,1-.76,0-1.5,0-2.21-.08l-.93-3.1q1.42.06,2.85.06a4,4,0,0,0,1.82-.26.87.87,0,0,0,.4-.8v-26.2h3.13Z" transform="translate(-673.22 -573)"/></svg>