<svg id="圖層_1" data-name="圖層 1" xmlns="http://www.w3.org/2000/svg" viewBox="0 0 332.82 59.6"><defs><style>.cls-1{fill:#c6351d;}</style></defs><path class="cls-1" d="M344.49,429.26c-.88-7.94-6.63-12.65-15.37-15.36,7.89-1.43,13.4-6,15.37-15.37,2.89,9.34,8.29,13.94,15.36,15.37C350,417.27,345,422.41,344.49,429.26Z" transform="translate(-329.12 -376.48)"/><path class="cls-1" d="M362.29,403.63c-.58-5.22-4.35-8.31-10.09-10.09,5.18-.93,8.79-4,10.09-10.08,1.89,6.12,5.44,9.15,10.08,10.08C365.92,395.76,362.59,399.13,362.29,403.63Z" transform="translate(-329.12 -376.48)"/><path class="cls-1" d="M634.06,429.26c-.88-7.94-6.63-12.65-15.37-15.36,7.89-1.43,13.4-6,15.37-15.37,2.89,9.34,8.29,13.94,15.36,15.37C639.59,417.27,634.53,422.41,634.06,429.26Z" transform="translate(-329.12 -376.48)"/><path class="cls-1" d="M651.86,403.63c-.58-5.22-4.35-8.31-10.09-10.09,5.18-.93,8.79-4,10.09-10.08,1.89,6.12,5.44,9.15,10.08,10.08C655.49,395.76,652.16,399.13,651.86,403.63Z" transform="translate(-329.12 -376.48)"/><path d="M384.82,436.07a85.18,85.18,0,0,0,17.63-5A42.91,42.91,0,0,0,416,422.36a2.65,2.65,0,0,1,.73-.57l.57-.29.5.4a67.28,67.28,0,0,0,30.43,14.18,47.77,47.77,0,0,1,2.08-9.2,36.62,36.62,0,0,1,3.94-7.91,66,66,0,0,1-9-.54,34.79,34.79,0,0,1-7.91-2,58.2,58.2,0,0,1-7.44-3.52l-3-1.85h23.26v-13.2H426v-5h25v-14H382.08v14h25v5H382.88V411h23.34l-2.75,1.83a31,31,0,0,1-5,2.65,39.52,39.52,0,0,1-9,2.67,66.41,66.41,0,0,1-10.73.78,36.4,36.4,0,0,1,3.94,7.91A47.83,47.83,0,0,1,384.82,436.07Z" transform="translate(-329.12 -376.48)"/><path d="M464.82,436.07a85.18,85.18,0,0,0,17.63-5A42.91,42.91,0,0,0,496,422.36a2.65,2.65,0,0,1,.73-.57l.57-.29.5.4a67.28,67.28,0,0,0,30.43,14.18,47.77,47.77,0,0,1,2.08-9.2,36.62,36.62,0,0,1,3.94-7.91,66,66,0,0,1-9-.54,34.79,34.79,0,0,1-7.91-2,58.2,58.2,0,0,1-7.44-3.52l-3-1.85h23.26v-13.2H506v-5h25v-14H462.08v14h25v5H462.88V411h23.34l-2.75,1.83a31,31,0,0,1-5,2.65,39.52,39.52,0,0,1-9,2.67,66.41,66.41,0,0,1-10.73.78,36.4,36.4,0,0,1,3.94,7.91A47.83,47.83,0,0,1,464.82,436.07Z" transform="translate(-329.12 -376.48)"/><path d="M577.76,435.2V407.28H566.64v-3.76h12.08v-9H566.64v-4l1,0c4-.09,7.11-.18,9.35-.28V377.62l-5.94.14c-1.22.05-3.29.11-6.13.16s-6.55.13-11.11.24c-4.18.1-8.54.17-13,.23a49.33,49.33,0,0,1,.5,5.49c.08,1.94.12,4.34.12,7.15L552,391v3.61H539.6v9H552v3.76H540.64V435.2H555v-1h8.4v1ZM555,423.76v-7.44h8.4v7.44Z" transform="translate(-329.12 -376.48)"/><rect x="253.11" y="1.44" width="12.88" height="38.64"/><path d="M611.24,433.37c.49-.74,1.08-2.54,1.08-6.85v-50H599v42.84c0,.5-.24,1.39-1.78,1.81-1.91.51-6.49.36-13-.08a21.33,21.33,0,0,1,3.17,6,25,25,0,0,1,1.42,8c0,.25,0,.47,0,.68,8.66,0,14.51-.16,17.39-.43C609.55,434.92,610.79,434.05,611.24,433.37Z" transform="translate(-329.12 -376.48)"/></svg>