<svg id="圖層_1" data-name="圖層 1" xmlns="http://www.w3.org/2000/svg" xmlns:xlink="http://www.w3.org/1999/xlink" viewBox="0 0 1040 234.81"><defs><style>.cls-1{fill:none;}.cls-2{fill:#835635;}.cls-3{clip-path:url(#clip-path);}.cls-4{fill:#08baad;}.cls-5{fill:#14998c;}.cls-6{fill:#75af19;}</style><clipPath id="clip-path" transform="translate(0 0)"><rect class="cls-1" width="1040" height="234.81"/></clipPath></defs><polygon class="cls-2" points="734.05 64.68 728.2 64.86 729.74 17.95 732.97 17.85 734.05 64.68"/><g class="cls-3"><path class="cls-4" d="M744.65,34.24c.22,7-5.45,8.61-12.51,8.83s-12.81-1-13-8,5.18-17.29,12.24-17.51,13.08,9.66,13.3,16.72" transform="translate(0 0)"/><path class="cls-5" d="M741.43,23.37c.17,5.46-4.19,7.77-9.65,7.94s-10-1.86-10.14-7.33,4.05-12.29,9.52-12.46,10.1,6.38,10.27,11.85" transform="translate(0 0)"/><path class="cls-4" d="M737.08,11.33c.11,3.28-2.5,4.73-5.78,4.83s-6-1.18-6.07-4.46S727.53.1,730.8,0s6.18,8.06,6.28,11.33" transform="translate(0 0)"/><path class="cls-5" d="M729.77,5.69c0,.44-.25.79-.57.79s-.58-.35-.58-.78a4.11,4.11,0,0,1,.57-1.36,4,4,0,0,1,.58,1.35" transform="translate(0 0)"/><path class="cls-5" d="M731.44,7.37c0,.43-.26.79-.58.79s-.57-.35-.58-.78A4.11,4.11,0,0,1,730.85,6a4.18,4.18,0,0,1,.59,1.35" transform="translate(0 0)"/><path class="cls-5" d="M728.13,7.37c0,.43-.26.79-.57.79s-.58-.35-.59-.79A4.14,4.14,0,0,1,727.54,6a4.18,4.18,0,0,1,.59,1.35" transform="translate(0 0)"/><path class="cls-4" d="M726.58,18a.71.71,0,0,1-.57.8c-.32,0-.58-.35-.58-.79a.8.8,0,1,1,1.15,0" transform="translate(0 0)"/><path class="cls-4" d="M728.25,19.71c0,.44-.26.79-.57.79s-.58-.35-.59-.78a4.11,4.11,0,0,1,.57-1.36,4.18,4.18,0,0,1,.59,1.35" transform="translate(0 0)"/><path class="cls-4" d="M724.94,19.71c0,.43-.26.79-.57.79s-.58-.35-.58-.78a3.94,3.94,0,0,1,.56-1.36,4.18,4.18,0,0,1,.59,1.35" transform="translate(0 0)"/><path class="cls-5" d="M723.76,32.18c0,.43-.26.79-.57.79s-.58-.35-.59-.79a4.14,4.14,0,0,1,.57-1.35,4.18,4.18,0,0,1,.59,1.35" transform="translate(0 0)"/><path class="cls-5" d="M725.42,33.85c0,.44-.25.8-.57.8s-.58-.35-.58-.79a4.14,4.14,0,0,1,.57-1.35,4,4,0,0,1,.58,1.34" transform="translate(0 0)"/><path class="cls-5" d="M722.11,33.85c0,.44-.25.79-.57.79s-.58-.35-.58-.78a4.11,4.11,0,0,1,.57-1.36,4,4,0,0,1,.58,1.35" transform="translate(0 0)"/><path class="cls-6" d="M0,121.55V234.81H1040V100C892.76,65.3,731,46.09,561.25,46.09,359.16,46.09,168.42,73.31,0,121.55" transform="translate(0 0)"/><path class="cls-4" d="M899.91,53.18a25.32,25.32,0,0,0-1.16-8.78,25.83,25.83,0,0,0-1.93-4.52,26.84,26.84,0,0,0-2-3.07,25.32,25.32,0,0,0-19.14-10.07,25.79,25.79,0,0,0-2.64,0,22.14,22.14,0,0,0,.31-2.86,21.72,21.72,0,0,0-1-7.55,21.31,21.31,0,0,0-1.67-3.89,20.43,20.43,0,0,0-1.1-1.79A21.82,21.82,0,0,0,829.75,22a23.35,23.35,0,0,0,0,2.37c-.85-.12-1.7-.2-2.57-.24a25.35,25.35,0,0,0-8,49.71,20.54,20.54,0,0,0,29.55,13.85A20.55,20.55,0,0,0,879.21,77,25.36,25.36,0,0,0,899.91,53.18Z" transform="translate(0 0)"/><rect class="cls-2" x="845.96" y="72.83" width="15.86" height="3.93" transform="matrix(0.56, -0.83, 0.83, 0.56, 314.24, 740.75)"/><rect class="cls-2" x="842.64" y="66.82" width="3.93" height="20.36" transform="translate(32.6 321.84) rotate(-21.99)"/><polygon class="cls-2" points="853.44 147.9 842.32 147.41 847.14 67.91 852.03 68.12 853.44 147.9"/><path class="cls-5" d="M853.72,19c-.06,1.48-1,2.64-2.07,2.59s-1.9-1.28-1.84-2.76,2.16-4.5,2.16-4.5,1.82,3.19,1.75,4.67" transform="translate(0 0)"/><path class="cls-5" d="M866.5,44.28c-.07,1.48-1,2.64-2.07,2.59s-1.9-1.28-1.84-2.76,2.15-4.49,2.15-4.49,1.82,3.18,1.76,4.66" transform="translate(0 0)"/><path class="cls-5" d="M837.28,35.73c-.07,1.48-1,2.64-2.07,2.59s-1.9-1.28-1.84-2.76,2.16-4.49,2.16-4.49,1.81,3.18,1.75,4.66" transform="translate(0 0)"/><path class="cls-5" d="M878.76,59.9c-.07,1.48-1,2.64-2.08,2.6s-1.9-1.29-1.83-2.77S877,55.24,877,55.24s1.82,3.18,1.76,4.66" transform="translate(0 0)"/><path class="cls-5" d="M830,69.77c-.06,1.48-1,2.64-2.07,2.59s-1.9-1.28-1.84-2.76,2.16-4.49,2.16-4.49,1.82,3.18,1.75,4.66" transform="translate(0 0)"/><path class="cls-5" d="M888.41,45.24c-.07,1.48-1,2.64-2.07,2.59s-1.91-1.28-1.84-2.76,2.15-4.5,2.15-4.5,1.82,3.19,1.76,4.67" transform="translate(0 0)"/><path class="cls-5" d="M866.91,79.5c-.06,1.48-1,2.64-2.07,2.6s-1.9-1.29-1.83-2.77,2.15-4.49,2.15-4.49S867,78,866.91,79.5" transform="translate(0 0)"/><path class="cls-5" d="M818.65,50.06c-.07,1.48-1,2.64-2.07,2.59s-1.9-1.28-1.84-2.76,2.15-4.49,2.15-4.49,1.82,3.18,1.76,4.66" transform="translate(0 0)"/><path class="cls-5" d="M850.27,53.19c-.07,1.48-1,2.65-2.07,2.6s-1.9-1.29-1.84-2.77,2.15-4.49,2.15-4.49,1.82,3.18,1.76,4.66" transform="translate(0 0)"/><polygon class="cls-2" points="422.2 84.3 416.35 84.48 417.89 37.57 421.12 37.47 422.2 84.3"/><path class="cls-4" d="M432.8,53.85c.22,7-5.46,8.62-12.51,8.84s-12.82-1-13-8,5.19-17.29,12.24-17.51,13.09,9.65,13.31,16.71" transform="translate(0 0)"/><path class="cls-5" d="M429.58,43c.17,5.47-4.19,7.78-9.66,8s-10-1.87-10.13-7.33,4-12.3,9.51-12.47S429.41,37.51,429.58,43" transform="translate(0 0)"/><path class="cls-4" d="M425.23,31c.1,3.27-2.51,4.73-5.78,4.83s-6-1.19-6.07-4.46,2.29-11.6,5.57-11.71,6.18,8.07,6.28,11.34" transform="translate(0 0)"/><path class="cls-5" d="M417.92,25.3c0,.44-.26.8-.57.8s-.58-.35-.58-.79a4,4,0,0,1,.56-1.35,4.21,4.21,0,0,1,.59,1.34" transform="translate(0 0)"/><path class="cls-5" d="M419.58,27c0,.44-.25.79-.57.8s-.58-.35-.58-.79a4,4,0,0,1,.57-1.35,4,4,0,0,1,.58,1.34" transform="translate(0 0)"/><path class="cls-5" d="M416.27,27c0,.44-.25.79-.57.79s-.58-.35-.58-.78a4.11,4.11,0,0,1,.57-1.36,4,4,0,0,1,.58,1.35" transform="translate(0 0)"/><path class="cls-4" d="M414.73,37.65c0,.43-.25.79-.57.79s-.58-.35-.58-.79a4,4,0,0,1,.56-1.35,4,4,0,0,1,.59,1.35" transform="translate(0 0)"/><path class="cls-4" d="M416.39,39.32c0,.44-.25.8-.57.8s-.58-.35-.58-.79a4.14,4.14,0,0,1,.57-1.35,4,4,0,0,1,.58,1.34" transform="translate(0 0)"/><path class="cls-4" d="M413.08,39.32a.71.71,0,0,1-.57.8c-.31,0-.57-.35-.58-.79A4,4,0,0,1,412.5,38a4,4,0,0,1,.58,1.34" transform="translate(0 0)"/><path class="cls-5" d="M411.9,51.79c0,.44-.25.79-.57.79s-.58-.35-.58-.78a4.11,4.11,0,0,1,.57-1.36,4,4,0,0,1,.58,1.35" transform="translate(0 0)"/><path class="cls-5" d="M413.57,53.47c0,.43-.26.79-.57.79s-.58-.35-.58-.78a3.94,3.94,0,0,1,.56-1.36,4.18,4.18,0,0,1,.59,1.35" transform="translate(0 0)"/><path class="cls-5" d="M410.26,53.46c0,.44-.25.8-.57.8s-.58-.35-.58-.79a4,4,0,0,1,.56-1.35,4,4,0,0,1,.59,1.34" transform="translate(0 0)"/><path class="cls-2" d="M232,86.24S210.06,87.67,209.93,75l0-1.61,2.67,0,0,1.61c.09,8.61,19.37,7.22,19.37,7.22Z" transform="translate(0 0)"/><path class="cls-2" d="M231.94,79.69s22,1,21.84-11.69l0-1.62-2.67,0,0,1.62c.09,8.61-19.21,7.63-19.21,7.63Z" transform="translate(0 0)"/><polygon class="cls-2" points="237.92 117.73 227.81 117.84 230.33 32.48 234.73 32.43 237.92 117.73"/><path class="cls-5" d="M256.58,47.75c.12,10.92-10.45,19.88-23.62,20S209,59.18,208.91,48.27s10.25-39,23.42-39.18,24.14,27.75,24.25,38.66" transform="translate(0 0)"/><path class="cls-4" d="M224.89,64.06c.07,6.29-6,11.46-13.62,11.54s-13.8-4.95-13.87-11.24,5.91-22.5,13.5-22.59,13.92,16,14,22.29" transform="translate(0 0)"/><path class="cls-4" d="M261.63,62.73c.05,4.83-4.62,8.79-10.44,8.85s-10.57-3.8-10.63-8.62,4.53-17.25,10.35-17.31,10.67,12.26,10.72,17.08" transform="translate(0 0)"/><path class="cls-4" d="M221.75,29.62h0a3.65,3.65,0,0,1-.07-5.83,3.65,3.65,0,0,1,.07,5.83" transform="translate(0 0)"/><path class="cls-4" d="M235,29.47h0a3.64,3.64,0,0,1-.06-5.83,3.65,3.65,0,0,1,.06,5.83" transform="translate(0 0)"/><path class="cls-4" d="M228.32,21.11h0a3.65,3.65,0,0,1-.07-5.83,3.65,3.65,0,0,1,.07,5.83" transform="translate(0 0)"/><path class="cls-4" d="M239.79,21h0a3.65,3.65,0,0,1-.07-5.83,3.65,3.65,0,0,1,.07,5.83" transform="translate(0 0)"/><path class="cls-4" d="M228.49,37.46h0a3.65,3.65,0,0,1-.06-5.83,3.64,3.64,0,0,1,.06,5.83" transform="translate(0 0)"/><path class="cls-4" d="M245.3,34.09h0a3.64,3.64,0,0,1-.06-5.83,3.64,3.64,0,0,1,.06,5.83" transform="translate(0 0)"/><path class="cls-4" d="M236.35,46.23h0a3.64,3.64,0,0,1-.06-5.83,3.64,3.64,0,0,1,.06,5.83" transform="translate(0 0)"/><path class="cls-5" d="M209,52.41h0a3.64,3.64,0,0,1-.06-5.83,3.65,3.65,0,0,1,.06,5.83" transform="translate(0 0)"/><path class="cls-5" d="M217.1,57.6h0a3.64,3.64,0,0,1-.06-5.83,3.64,3.64,0,0,1,.06,5.83" transform="translate(0 0)"/><path class="cls-5" d="M250.68,55h0a3.64,3.64,0,0,1-.06-5.83,3.65,3.65,0,0,1,.06,5.83" transform="translate(0 0)"/><path class="cls-5" d="M245.38,61.59h0a3.65,3.65,0,0,1-.07-5.83,3.65,3.65,0,0,1,.07,5.83" transform="translate(0 0)"/><path class="cls-5" d="M250.82,67.78h0a3.65,3.65,0,0,1-.07-5.83,3.65,3.65,0,0,1,.07,5.83" transform="translate(0 0)"/><path class="cls-5" d="M255.69,61.91h0a3.65,3.65,0,0,1-.07-5.83,3.65,3.65,0,0,1,.07,5.83" transform="translate(0 0)"/><path class="cls-5" d="M203.36,60.16h0a3.65,3.65,0,0,1-.06-5.83,3.64,3.64,0,0,1,.06,5.83" transform="translate(0 0)"/><path class="cls-5" d="M211.3,66.84h0a3.65,3.65,0,0,1-.07-5.83,3.65,3.65,0,0,1,.07,5.83" transform="translate(0 0)"/><path class="cls-5" d="M219.78,70.09h0a3.65,3.65,0,0,1-.06-5.83,3.64,3.64,0,0,1,.06,5.83" transform="translate(0 0)"/><path class="cls-5" d="M203.47,69.84h0a3.64,3.64,0,0,1-.06-5.83,3.65,3.65,0,0,1,.06,5.83" transform="translate(0 0)"/><path class="cls-4" d="M219.5,43.48h0a3.65,3.65,0,0,1-.07-5.83,3.65,3.65,0,0,1,.07,5.83" transform="translate(0 0)"/><path class="cls-4" d="M228.69,56h0a3.65,3.65,0,0,1-.06-5.83,3.64,3.64,0,0,1,.06,5.83" transform="translate(0 0)"/><path class="cls-4" d="M245.89,43.85h0a3.64,3.64,0,0,1-.06-5.83,3.65,3.65,0,0,1,.06,5.83" transform="translate(0 0)"/><path class="cls-4" d="M235.3,65.05h0a3.64,3.64,0,0,1-.06-5.83,3.65,3.65,0,0,1,.06,5.83" transform="translate(0 0)"/><path class="cls-4" d="M207,94.54a9.35,9.35,0,0,0-.79-3.22,9.71,9.71,0,0,0-.91-1.6,8.75,8.75,0,0,0-.87-1.06,9.48,9.48,0,0,0-7.55-3,8,8,0,0,0-1,.12,9.73,9.73,0,0,0,0-1.08,8.41,8.41,0,0,0-.68-2.77,7.83,7.83,0,0,0-.79-1.38A7.47,7.47,0,0,0,194,80a8.18,8.18,0,0,0-14.38,5.88,8.46,8.46,0,0,0,.11.88c-.32,0-.64,0-1,0a9.5,9.5,0,0,0-.93,18.85,7.71,7.71,0,0,0,7.81,5.22,7.59,7.59,0,0,0,3.77-1.29,7.69,7.69,0,0,0,10.92-5.25A9.5,9.5,0,0,0,207,94.54Z" transform="translate(0 0)"/><rect class="cls-2" x="187.82" y="103.77" width="5.94" height="1.47" transform="translate(9.62 224.92) rotate(-62.32)"/><rect class="cls-2" x="186.69" y="101.9" width="1.47" height="7.63" transform="translate(-27.72 101.64) rotate(-28.34)"/><polygon class="cls-2" points="192.46 123.92 188.29 124.2 188 102.22 189.82 102.1 192.46 123.92"/><path class="cls-5" d="M188.42,83.72c0,.56-.26,1-.67,1s-.76-.4-.8-1a5.31,5.31,0,0,1,.62-1.76,5.21,5.21,0,0,1,.85,1.66" transform="translate(0 0)"/><path class="cls-5" d="M194.23,92.62c0,.55-.26,1-.67,1s-.76-.4-.8-1a5.31,5.31,0,0,1,.62-1.76,5.17,5.17,0,0,1,.85,1.67" transform="translate(0 0)"/><path class="cls-5" d="M183,90.64c0,.56-.26,1-.67,1s-.76-.4-.8-1a5.31,5.31,0,0,1,.62-1.76,5.21,5.21,0,0,1,.85,1.66" transform="translate(0 0)"/><path class="cls-5" d="M199.44,97.93c0,.55-.26,1-.66,1s-.77-.4-.8-1a5.12,5.12,0,0,1,.61-1.77,5.17,5.17,0,0,1,.85,1.67" transform="translate(0 0)"/><path class="cls-5" d="M181.69,103.62c0,.56-.26,1-.66,1.06s-.77-.4-.8-1a5.13,5.13,0,0,1,.61-1.76,5.21,5.21,0,0,1,.85,1.66" transform="translate(0 0)"/><path class="cls-5" d="M202.43,92.06c0,.56-.26,1-.67,1.06s-.76-.4-.79-1a5.13,5.13,0,0,1,.61-1.76,5.21,5.21,0,0,1,.85,1.66" transform="translate(0 0)"/><path class="cls-5" d="M195.84,105.72c0,.55-.26,1-.66,1s-.76-.4-.8-1a5,5,0,0,1,.61-1.76,5.21,5.21,0,0,1,.85,1.66" transform="translate(0 0)"/><path class="cls-5" d="M176.64,96.75c0,.56-.26,1-.66,1s-.77-.4-.8-1a5.13,5.13,0,0,1,.61-1.76,5.21,5.21,0,0,1,.85,1.66" transform="translate(0 0)"/><path class="cls-5" d="M188.55,96.61c0,.55-.26,1-.66,1s-.77-.4-.8-1a5.12,5.12,0,0,1,.61-1.77,5.29,5.29,0,0,1,.85,1.67" transform="translate(0 0)"/></g></svg>