<svg id="圖層_1" data-name="圖層 1" xmlns="http://www.w3.org/2000/svg" xmlns:xlink="http://www.w3.org/1999/xlink" viewBox="0 0 332.82 60.62"><defs><style>.cls-1{fill:none;}.cls-2{clip-path:url(#clip-path);}.cls-3{fill:#c6351d;}</style><clipPath id="clip-path" transform="translate(0 0)"><rect class="cls-1" width="332.82" height="60.62"/></clipPath></defs><g class="cls-2"><path class="cls-3" d="M15.37,53C14.49,45,8.74,40.29,0,37.58c7.89-1.43,13.4-6,15.37-15.36,2.89,9.33,8.28,13.93,15.36,15.36C20.9,41,15.83,46.09,15.37,53" transform="translate(0 0)"/><path class="cls-3" d="M33.16,27.31c-.57-5.21-4.35-8.3-10.08-10.08,5.17-.94,8.79-4,10.08-10.09,1.9,6.13,5.44,9.15,10.09,10.09-6.45,2.21-9.78,5.58-10.09,10.08" transform="translate(0 0)"/><path class="cls-3" d="M304.94,53c-.88-8-6.63-12.66-15.37-15.37,7.89-1.43,13.4-6,15.37-15.36,2.89,9.33,8.28,13.93,15.36,15.36C310.47,41,305.4,46.09,304.94,53" transform="translate(0 0)"/><path class="cls-3" d="M322.73,27.31c-.57-5.21-4.35-8.3-10.08-10.08,5.17-.94,8.79-4,10.08-10.09,1.9,6.13,5.44,9.15,10.09,10.09-6.45,2.21-9.78,5.58-10.09,10.08" transform="translate(0 0)"/><path d="M110.74,12.6l-.47.49-.53-.44L109,12l0,.06-1-1,.47-.53.13-.14c2-2.24,3.61-4.22,4.86-5.9L103.65,0c-.71,1-1.5,2.1-2.37,3.15l-.57.69L98.52,1.12,89.18,4.55l-1.26-3H60.51V11H76.42L75,12.24a26.41,26.41,0,0,1-3.57,2.44l-.38.23L64.9,11,54.82,16q1.4.87,3.27,1.86l1.78.94-2,.42c-2.63.55-5.47,1.05-8.46,1.48a33,33,0,0,1,3.32,5.41,47,47,0,0,1,2.42,6.48c1.16-.33,2.44-.74,3.82-1.21l1-.33V45h10.7l.64,3.73H54.87V59H125V48.74H108.64l.64-3.73h10.79V30.61l1,.32c.34.11.82.24,1.42.38a48.85,48.85,0,0,1,5.76-11.16,49.21,49.21,0,0,1-8.13-2l-1.2-.42,1-.82a75.41,75.41,0,0,0,9.56-9.74L119,2.72a96.66,96.66,0,0,1-8.27,9.88M86.61,16.3A28.67,28.67,0,0,0,89.29,13l.17-.18.51-.52.52.52a49.91,49.91,0,0,0,3.72,3.4l1.56,1.3H85.49Zm8,32.44H85.32L84.93,45H95Zm7.76-9.49H77.64V35.91h24.75ZM63.23,30.08l3.41-1.41c1.76-.72,3.1-1.3,4-1.71l.15-.07h40l.14.06,3.84,1.73,3.11,1.4Z" transform="translate(0 0)"/><path d="M137.25,58q.39.91,1,2.67a50.92,50.92,0,0,0,16.56-8.18,45.32,45.32,0,0,0,12.93-14.82l.65-1.18.63,1.19a44.06,44.06,0,0,0,12.81,14.85,50.47,50.47,0,0,0,16.67,8.14c.42-1.15.77-2.06,1-2.7,1.34-3.67,2.58-6.82,3.69-9.34a59.39,59.39,0,0,1,3.34-6.49c-9.51-2-16.72-5.26-21.44-9.62-4.95-4.57-7.43-10.92-7.37-18.89L177.86.43h-1.33V.28h-28.1V15H158.9l0,.77c-.43,7.29-3.14,13.13-8.06,17.38-4.68,4-11.61,7.05-20.61,9a56.14,56.14,0,0,1,3.35,6.49c1.1,2.5,2.34,5.66,3.71,9.37" transform="translate(0 0)"/><path d="M240.93,56.22l.34-.17.33.18a50.36,50.36,0,0,1,6.87,4.38,64.57,64.57,0,0,0,15.77-6.79l.39-.24.38.24c4.42,2.75,7.91,5,10.38,6.67a41.93,41.93,0,0,1,4.55-3.6c1.24-.82,2.75-1.77,4.51-2.82-3-1.35-6-2.77-8.86-4.23l-2.72-1.38h9.53V13.14H268.8l1.4-3H283V1.37H245.44V8.78l-1-.4a64.53,64.53,0,0,1-8-3.73l-.62-.37.35-.62c.55-1,1-1.81,1.34-2.44H224a20.92,20.92,0,0,1-6.77,5.94,32,32,0,0,1-10.59,3.51A22.73,22.73,0,0,1,209.07,15c.63,1.5,1.4,3.59,2.28,6.22l2.72-1.05v2.93h27.24V17.12l.88.29,2.63-4.27h0l1.2-1.91v0l.67-1.06h12l-1.39,3H246V48.46h10.23l-3.39,1.4a55.63,55.63,0,0,1-9.22,2.94l-.89.2V25.84H210.15V36.46h4.54V60h12.74V36.46h4.44v7.63a2.17,2.17,0,0,1-.46,1.5,2,2,0,0,1-1.6.56l-1.15-.1.21,1c.58,2.71,1.08,5.47,1.5,8.2l.37,2.08c.59,0,1.32,0,2.2,0,3.74,0,6.43-.4,8-1.18m-16.4-41.36,2.05-1.34A22.21,22.21,0,0,0,229.77,11l.46-.43.5.39a41.12,41.12,0,0,0,3.53,2.54l2.22,1.35ZM258.33,20H270v3.18H258.33Zm0,8.7H270v3.19H258.33Zm0,8.71H270v3.18H258.33Zm14.39,11.06-6.63,3.9-9.23-3.9Z" transform="translate(0 0)"/></g></svg>