<?xml version="1.0" encoding="UTF-8"?>
<svg id="_圖層_1" data-name="圖層 1" xmlns="http://www.w3.org/2000/svg" version="1.1" viewBox="0 0 210.51 211.98">
  <defs>
    <style>
      .cls-1 {
        fill: #f9ede4;
      }

      .cls-1, .cls-2, .cls-3, .cls-4, .cls-5, .cls-6, .cls-7, .cls-8, .cls-9 {
        stroke-width: 0px;
      }

      .cls-2 {
        fill: #040000;
      }

      .cls-3 {
        fill: none;
      }

      .cls-4 {
        fill: #e8e8de;
      }

      .cls-5 {
        fill: #c10614;
      }

      .cls-6 {
        fill: #fff;
      }

      .cls-7 {
        fill: #ffc271;
      }

      .cls-8 {
        fill: #d82027;
      }

      .cls-9 {
        fill: #000;
        opacity: .3;
      }
    </style>
  </defs>
  <g>
    <path class="cls-9" d="M109.66,10.29C54.06,10.29,8.82,55.53,8.82,111.13s45.24,100.85,100.85,100.85,100.85-45.24,100.85-100.85S165.27,10.29,109.66,10.29Z"/>
    <g>
      <path class="cls-8" d="M100.84,198.75c-53.99,0-97.91-43.92-97.91-97.91S46.86,2.94,100.84,2.94s97.91,43.92,97.91,97.91-43.92,97.91-97.91,97.91Z"/>
      <path class="cls-1" d="M100.85,5.88c52.45,0,94.97,42.52,94.97,94.97s-42.52,94.97-94.97,94.97S5.88,153.29,5.88,100.85,48.4,5.88,100.85,5.88M100.85,0C45.24,0,0,45.24,0,100.85s45.24,100.85,100.85,100.85,100.85-45.24,100.85-100.85S156.45,0,100.85,0h0Z"/>
    </g>
  </g>
  <path class="cls-4" d="M100.85,5.88c52.45,0,94.97,42.52,94.97,94.97s-42.52,94.97-94.97,94.97S5.88,153.29,5.88,100.85,48.4,5.88,100.85,5.88M100.85,0C45.24,0,0,45.24,0,100.85s45.24,100.85,100.85,100.85,100.85-45.24,100.85-100.85S156.45,0,100.85,0h0Z"/>
  <path class="cls-3" d="M100.85,5.88C48.4,5.88,5.88,48.4,5.88,100.85h189.93c0-52.45-42.52-94.97-94.97-94.97Z"/>
  <path class="cls-5" d="M100.85,195.81c52.45,0,94.97-42.52,94.97-94.97H5.88c0,52.45,42.52,94.97,94.97,94.97Z"/>
  <g>
    <path class="cls-6" d="M88.89,73.82h0c4.05-.2,7.37,2.96,7.71,7l1.76,20.58c1.27-1.46,3.11-2.42,5.19-2.52h0c3.69-.18,6.89,2.42,7.58,5.94,1.25-1.92,3.37-3.23,5.81-3.35h0c3.69-.18,6.89,2.42,7.58,5.94,1.25-1.92,3.37-3.23,5.81-3.35h0c4.05-.2,7.73,2.95,7.71,7l-.14,29.8c-.11,24.23-32.99,37.24-47.59,16.99l-25.32-35.13c-2.37-3.29-1.62-7.91,1.67-10.28,4.01-.19,10.91,2.54,13.29,5.84l4.8,6.65-2.87-43.4c-.27-4.04,2.95-7.52,7-7.71h0Z"/>
    <path class="cls-2" d="M109.75,170.79c-8.65,0-16.54-3.94-21.8-11.23l-25.32-35.13c-1.61-2.23-2.25-4.95-1.8-7.67.44-2.72,1.91-5.1,4.14-6.71.46-.33,1.01-.52,1.58-.55,4.29-.2,11.04,2.18,14.64,5.71l-2.21-33.48c-.18-2.71.73-5.33,2.56-7.38,1.84-2.06,4.47-3.33,7.23-3.46h0c5.57-.28,10.3,3.98,10.79,9.68l1.35,15.81c.81-.25,1.65-.4,2.52-.44,3.46-.17,6.65,1.42,8.66,4.02,1.43-.85,3.05-1.35,4.74-1.43.04,0,.08,0,.11,0,3.43-.12,6.56,1.46,8.55,4.03,1.43-.85,3.05-1.35,4.74-1.43,2.85-.13,5.68.92,7.75,2.9,1.97,1.89,3.05,4.39,3.04,7.05l-.14,29.79c-.07,14.85-10.96,24.97-21.71,28.41-3.17,1.02-6.34,1.51-9.4,1.51ZM67.75,115.39c-.59.63-.98,1.43-1.13,2.31-.19,1.17.08,2.34.77,3.29l25.32,35.13c6.67,9.26,17.11,9.97,24.64,7.56,8.73-2.8,17.57-10.94,17.63-22.84l.14-29.79c0-1.03-.43-2.01-1.23-2.77-.91-.87-2.15-1.33-3.4-1.28-1.41.07-2.71.82-3.49,2.02-.65,1-1.84,1.51-3.02,1.28-1.17-.23-2.09-1.15-2.32-2.32-.42-2.14-2.39-3.68-4.56-3.57-.02,0-.05,0-.07,0-1.38.09-2.65.84-3.42,2.02-.65,1-1.84,1.5-3.02,1.28-1.17-.23-2.09-1.15-2.32-2.32-.42-2.14-2.41-3.69-4.56-3.57-1.2.06-2.31.6-3.11,1.52-.78.89-2.01,1.23-3.13.86-1.12-.37-1.91-1.37-2.01-2.54l-1.76-20.58c-.22-2.53-2.25-4.43-4.64-4.31-1.19.06-2.33.6-3.12,1.5-.77.87-1.16,1.96-1.08,3.08l2.87,43.4c.09,1.31-.7,2.52-1.94,2.96-1.23.44-2.61.02-3.38-1.05l-4.8-6.65c-1.5-2.08-6.48-4.34-9.83-4.61Z"/>
  </g>
  <g>
    <path class="cls-7" d="M57.53,74.9c-.17-.33-.34-.67-.54-1.04-.49-.89-1-1.81-1.52-2.75l-2.84,2.7,3.33-4.94-8.21-5.53-12.11,17.99c0-.08,0-.16,0-.24-.04-1.8-.24-3.62-.6-5.44-.02-.11-.05-.23-.08-.34l1.29.87,7.23-10.75-1.26-.85c.98-.16,1.95-.36,2.91-.62,2.45-.66,4.77-1.64,6.95-2.95-.2-.37-.38-.8-.56-1.28-.17-.49-.33-.98-.46-1.49-.13-.5-.22-.95-.26-1.33-1.94,1.3-4.04,2.32-6.29,3.06-.17.05-.33.1-.5.15,0-.71-.03-1.47-.08-2.29-.08-1.5-.22-2.93-.41-4.27l-3.33,1.26c.2.72.36,1.55.5,2.49.14.94.24,1.88.31,2.83.02.25.03.48.05.72-.95.18-1.9.29-2.86.37,0-.81-.03-1.65-.08-2.58-.08-1.41-.21-2.79-.38-4.11l-3.4,1.3c.19.69.35,1.48.49,2.37s.25,1.8.34,2.72c.01.13.02.25.03.38-1.52-.04-3.01-.2-4.48-.49l-1.04,3.52c2.64.51,5.27.74,7.88.69.78-.01,1.54-.07,2.31-.13l-5.47,8.13c-.28-.92-.6-1.83-.98-2.73-.73-1.75-1.67-3.41-2.83-4.99l-2.53,1.45-.27.66-.39.58h0s-5.77,8.58-5.77,8.58l2.69,1.81,5.11-7.59c.27.54.54,1.09.77,1.68.4,1.01.7,2.07.96,3.14-.33.06-.69.15-1.08.26-.67.2-1.34.44-2.03.72-.69.28-1.33.57-1.92.88l.61,2.98c.62-.26,1.29-.52,2.01-.78s1.41-.48,2.08-.66c.33-.09.63-.16.91-.21.13,1.08.23,2.17.24,3.25.02,1.62-.11,3.17-.39,4.64.35-.09.76-.16,1.23-.21.47-.06.93-.1,1.38-.14.45-.04.84-.03,1.17,0,.22-1.59.3-3.23.28-4.91l8.16,5.49,3.13-4.65-.91,3.13c.78.02,1.6.12,2.47.29.58.11,1.08.24,1.52.38l-5.23,7.77,2.78,1.87,18.16-26.99-2.78-1.87-5.41,8.03ZM43.42,81.9l-2.99-2.01,7.58-11.27,2.99,2.01-7.58,11.27ZM49.49,82c-.78-.12-1.53-.17-2.26-.17l5.39-8.01c.31.42.65.91,1.02,1.48.37.57.72,1.15,1.05,1.73.23.4.43.78.62,1.15l-4.22,6.27.52-1.96c-.57-.21-1.28-.37-2.13-.5Z"/>
    <path class="cls-7" d="M86.74,47.49c-1.6-1.31-2.99-2.7-4.16-4.18-1.18-1.48-2.19-2.96-3.03-4.45-.84-1.49-1.55-2.92-2.12-4.29-.57-1.37-1.04-2.61-1.41-3.7l-2.48.85-9.4,3.2,1.29,3.8,8.17-2.78c.04.1.08.2.13.31.48,1.13,1.04,2.3,1.69,3.51l-2.1.32c.62,5.02.41,9.6-.62,13.72-1.03,4.12-3.08,7.77-6.15,10.94.4.12.89.3,1.46.53.57.23,1.13.47,1.68.71.55.24.98.45,1.3.63,1.96-2.3,3.51-4.84,4.64-7.62,1.13-2.78,1.88-5.8,2.24-9.06.21-1.83.28-3.74.26-5.73.46.66.94,1.32,1.46,1.97,1.32,1.69,2.86,3.29,4.59,4.81s3.7,2.85,5.88,3.98c2.19,1.13,4.63,2.01,7.32,2.62.12-.4.29-.88.51-1.42.22-.54.46-1.08.72-1.6.26-.53.49-.95.7-1.25-2.65-.55-5.01-1.33-7.07-2.33-2.07-1.01-3.9-2.17-5.5-3.48Z"/>
    <path class="cls-7" d="M120.99,57.66c-.93.29-1.9.54-2.91.74-1.01.2-1.99.32-2.94.37.29.46.58,1,.88,1.64.3.63.54,1.17.7,1.61.98-.06,2-.2,3.07-.42,1.07-.22,2.12-.49,3.15-.82s1.93-.68,2.71-1.07l-2.36-3.01c-.61.34-1.38.66-2.3.95Z"/>
    <path class="cls-7" d="M118.22,50.35c1.17-1.09,2.23-2.22,3.16-3.38l-1.82-2.21h-.55s-10.95-3.69-10.95-3.69l-1.05,3.1,9.4,3.18c-.66.65-1.35,1.28-2.09,1.9-.77.65-1.55,1.24-2.33,1.79-.33.23-.64.44-.95.63-.63-1.13-1.25-2.14-1.85-3.04l-2.95,1.26c.59.95,1.19,2.02,1.83,3.22.63,1.2,1.21,2.37,1.72,3.52.52,1.15.9,2.16,1.15,3.05l3.25-1.46c-.33-.94-.78-1.98-1.34-3.11-.05-.1-.1-.2-.15-.3.63-.42,1.28-.9,1.96-1.42,1.19-.93,2.38-1.94,3.55-3.03Z"/>
    <path class="cls-7" d="M132.24,61.55c-.53-.77-1.04-1.48-1.52-2.11l-3.36.96c.48.65.98,1.39,1.49,2.19.52.81.99,1.59,1.42,2.35.43.75.77,1.42,1.02,1.99l3.56-1.13c-.27-.58-.64-1.25-1.11-1.99-.47-.74-.98-1.5-1.5-2.28Z"/>
    <path class="cls-7" d="M132.17,36.44c-.32.64-.65,1.28-.99,1.9-.04.07-.08.14-.12.21l-5.08-1.72-6.23,18.44,15.1,5.1,6.23-18.44-6.4-2.16c.1-.13.19-.25.29-.39.47-.64.94-1.3,1.4-1.95l6.54,2.21,1.06-3.14-17.22-5.82-1.06,3.14,6.67,2.25c-.06.12-.11.24-.18.37ZM132.29,56.4l-8.3-2.8.87-2.58,8.3,2.8-.87,2.58ZM134.05,51.21l-8.3-2.8.86-2.54,8.3,2.8-.86,2.54ZM135.78,46.09l-8.3-2.8.86-2.54,8.3,2.8-.86,2.54Z"/>
    <path class="cls-7" d="M109.17,39.08c1.01-.47,2.04-1.03,3.09-1.67l-.67,1.98,8.09,2.73,1.08-3.2c.32.87.56,1.65.73,2.33l2.86-2.37c-.23-.85-.6-1.86-1.12-3.02-.51-1.16-1.09-2.36-1.71-3.61-.28-.56-.56-1.1-.83-1.62.48-.5.96-.99,1.41-1.52l-2.21-2.65c-1.05,1.28-2.25,2.48-3.59,3.6-1.34,1.13-2.7,2.12-4.09,2.97s-2.72,1.53-4,2.03c.25.58.45,1.24.62,2,.17.76.29,1.43.35,2.02ZM117.99,33.22c.08-.07.15-.14.23-.21.21.44.42.89.63,1.35.58,1.27,1.11,2.51,1.6,3.72.11.28.22.56.32.83l-7.1-2.4c1.46-.98,2.91-2.07,4.33-3.29Z"/>
    <path class="cls-7" d="M177.43,79.93l-.87-2.48-.48-.52-.12-.17-.27-.41h0s-6.01-8.91-6.01-8.91l2.23-1.5-10.29-15.25-3.05,2.06,1.48,2.2-16.59,11.2c-.85-.96-1.62-1.86-2.27-2.64l-2.85,2.81c1.31,1.42,2.82,3.04,4.52,4.85,1.33,1.42,2.66,2.82,4,4.23l-5.09,3.44,2.12,3.14,2.71-1.83c-.09.48-.22,1.01-.43,1.64-.26.78-.51,1.43-.75,1.95,2.75,1.29,5.66,2.05,8.73,2.32,0,.02-.02.04-.02.06-.98,2.85-1.38,5.78-1.2,8.8.41,0,.87,0,1.37.03.51.03,1.02.08,1.55.15.52.07.97.17,1.34.27-.29-2.71,0-5.39.85-8.05.13-.41.29-.81.44-1.22,2.14-.15,4.38-.53,6.72-1.15,3.76-1,7.84-2.67,12.24-5.02ZM165.39,62.89l-3.23,2.18-3.25-4.82,3.23-2.18,3.25,4.82ZM155.81,69.35l-3.25-4.82,3.42-2.31,3.25,4.82-3.42,2.31ZM147.27,70.44c-.45-.5-.87-.97-1.3-1.45l3.67-2.48,3.25,4.82-2.99,2.02c-.87-.97-1.75-1.94-2.62-2.91ZM160.48,81.84c.45-.78.92-1.55,1.44-2.31,1.75-2.54,3.8-4.98,6.16-7.31l-2.73-2.73c-2.65,2.74-4.94,5.48-6.87,8.24-1.01,1.45-1.89,2.91-2.64,4.38-.36-.01-.73,0-1.08-.03-2.88-.21-5.49-.93-7.84-2.15l20.58-13.89.78,1.16-2.38,1.61,6.35,9.41c-2.7,1.27-5.34,2.24-7.91,2.89-1.33.34-2.62.57-3.88.74Z"/>
  </g>
</svg>