<svg id="圖層_1" data-name="圖層 1" xmlns="http://www.w3.org/2000/svg" xmlns:xlink="http://www.w3.org/1999/xlink" viewBox="0 0 230 115.82"><defs><style>.cls-1{fill:none;}.cls-2{clip-path:url(#clip-path);}.cls-3{fill:#fbdfc3;}.cls-3,.cls-4,.cls-5,.cls-6,.cls-7,.cls-8,.cls-9{fill-rule:evenodd;}.cls-4{fill:#f9ede4;}.cls-5{fill:#5c9e35;}.cls-6{fill:#338635;}.cls-7{fill:#fb961d;}.cls-8{fill:#f05f1e;}.cls-9{fill:#fdc038;}</style><clipPath id="clip-path" transform="translate(0 0)"><rect class="cls-1" width="230" height="115.82"/></clipPath></defs><g class="cls-2"><path class="cls-3" d="M115,115.82c63.34,0,115-18.21,115-40.53S178.34,34.75,115,34.75,0,53,0,75.29s51.66,40.53,115,40.53" transform="translate(0 0)"/><path class="cls-4" d="M115,109.41c63.34,0,115-16.77,115-37.33S178.34,34.75,115,34.75,0,51.52,0,72.08s51.66,37.33,115,37.33" transform="translate(0 0)"/><path class="cls-3" d="M115,95.3c47.32,0,85.91-10.43,85.91-23.22S162.32,48.86,115,48.86,29.09,59.29,29.09,72.08,67.68,95.3,115,95.3" transform="translate(0 0)"/><path class="cls-5" d="M65.87,55.54S37,73.5,21.31,30.62c22.48-5.32,35.91,7.3,44.56,24.92" transform="translate(0 0)"/><path class="cls-6" d="M21.19,31.18a.58.58,0,0,1-.56-.64.7.7,0,0,1,.79-.48s3.48.4,9,3.44a58.73,58.73,0,0,1,9.66,6.74,89.14,89.14,0,0,0,13.5,9.43l0,0A50.59,50.59,0,0,0,66.05,55a.55.55,0,0,1,.45.7.72.72,0,0,1-.85.39,51.74,51.74,0,0,1-12.8-5.41l0,0a89.78,89.78,0,0,1-13.7-9.56,56.47,56.47,0,0,0-9.45-6.6c-5.28-2.9-8.45-3.27-8.47-3.27" transform="translate(0 0)"/><path class="cls-5" d="M84.2,75.05s-6.13,33.41-48.43,16.16C47,71,65.35,69.58,84.2,75.05" transform="translate(0 0)"/><path class="cls-6" d="M36.08,91.71a.52.52,0,0,1-.81-.06.73.73,0,0,1,.18-.93s2.64-2.3,8.59-4.34a58.37,58.37,0,0,1,11.48-2.59,90.5,90.5,0,0,0,16.07-3.64A50.14,50.14,0,0,0,83.9,74.48a.52.52,0,0,1,.79.19.77.77,0,0,1-.28.91,51.62,51.62,0,0,1-12.65,5.83A90.91,90.91,0,0,1,55.48,85.1a57.23,57.23,0,0,0-11.25,2.54c-5.72,2-8.14,4.06-8.15,4.07" transform="translate(0 0)"/><path class="cls-5" d="M115.71,45.84s34-.61,23.84-45.16c-21.75,7.77-26.16,25.66-23.84,45.16" transform="translate(0 0)"/><path class="cls-6" d="M139.12.15a.69.69,0,0,1,1,.1.68.68,0,0,1-.09,1s-2.49,2.05-5.35,7.36a58.21,58.21,0,0,0-4.33,10.67A90.84,90.84,0,0,1,124,34.73a51.94,51.94,0,0,1-7.81,11.53.68.68,0,0,1-1,0,.67.67,0,0,1,0-1,50.25,50.25,0,0,0,7.59-11.23A88.09,88.09,0,0,0,129,18.85a59,59,0,0,1,4.44-10.92c3-5.55,5.67-7.77,5.68-7.78" transform="translate(0 0)"/><path class="cls-5" d="M149.81,64.84s-.37,34,44.45,25.13c-7.14-22-24.9-26.89-44.45-25.13" transform="translate(0 0)"/><path class="cls-6" d="M194.8,89.55a.68.68,0,0,1-.12,1,.69.69,0,0,1-1-.12s-2-2.55-7.2-5.56A57.51,57.51,0,0,0,176,80.2a91.29,91.29,0,0,1-15.3-6.74,52.06,52.06,0,0,1-11.31-8.15.68.68,0,0,1,0-1,.67.67,0,0,1,1,0,50.93,50.93,0,0,0,11,7.9A88.73,88.73,0,0,0,176.4,78.9a58.66,58.66,0,0,1,10.79,4.75c5.47,3.15,7.6,5.89,7.61,5.9" transform="translate(0 0)"/><path class="cls-7" d="M77.84,18.42c-24.37,2.09-37.06,9-36.66,31s18.38,30.71,40.33,30.3,39.59-9.82,39.18-31.77S102.2,16.32,77.84,18.42" transform="translate(0 0)"/><path class="cls-8" d="M88.64,24S87,28.23,81,28.23s-7-4.47-7-4.47c7,1.41,7.62,1.41,14.62.26" transform="translate(0 0)"/><path class="cls-9" d="M98.11,25.56c7.75,4.34,13.17,13.91,15.08,22.16,1,4.34,4,1.79,4.36-.43,0-.16,0-.33.07-.49l0-.49c.17-5.59-3.91-13.56-9.11-17.78-3.08-2.49-6.55-4.31-9.76-3.27-.3-.08-.67-.1-.67.3" transform="translate(0 0)"/><path class="cls-8" d="M81.51,79.68c-22,.41-39.92-8.34-40.32-30.3-.13-6.54,1.13-11.89,3.53-16.2-4.56,16.21,6,29.6,20.77,28.06,15.53-1.62,6.2-22,53.89-21.47.27,0,10,39-37.87,39.91" transform="translate(0 0)"/><path class="cls-7" d="M162.31,15c-24.37,2.1-37.06,9-36.65,31S144,76.71,166,76.3s39.58-9.82,39.18-31.77S186.68,12.94,162.31,15" transform="translate(0 0)"/><path class="cls-8" d="M173.12,20.64s-1.67,4.21-7.61,4.21-7-4.47-7-4.47c6.95,1.42,7.62,1.41,14.62.26" transform="translate(0 0)"/><path class="cls-9" d="M182.59,22.18c7.75,4.34,13.17,13.91,15.07,22.16,1,4.34,4,1.79,4.37-.43,0-.16.05-.33.06-.49a4,4,0,0,0,0-.49c.17-5.59-3.91-13.56-9.11-17.77-3.07-2.5-6.54-4.32-9.75-3.28-.3-.08-.67-.09-.67.3" transform="translate(0 0)"/><path class="cls-8" d="M204,54.23C199.74,69.3,184.38,76,166,76.3,144,76.71,126.07,68,125.66,46c-.12-6.54,1.14-11.89,3.54-16.2-1.92,6.81,17.87,5.47,23.94,15.05,15,23.71,40.57,28,50.86,9.38" transform="translate(0 0)"/><path class="cls-7" d="M118.87,40.62c-24.37,2.1-37.06,9-36.65,31s18.37,30.7,40.32,30.29,39.59-9.81,39.18-31.77-18.48-31.58-42.85-29.49" transform="translate(0 0)"/><path class="cls-8" d="M129.67,46.23s-1.67,4.2-7.61,4.2-7-4.46-7-4.46c7,1.41,7.62,1.41,14.62.26" transform="translate(0 0)"/><path class="cls-9" d="M139.14,47.76c7.75,4.35,13.17,13.91,15.08,22.16,1,4.35,4,1.8,4.36-.43,0-.16,0-.32.07-.48l0-.5c.17-5.58-3.91-13.55-9.11-17.77-3.08-2.5-6.55-4.32-9.76-3.28-.3-.08-.67-.09-.67.3" transform="translate(0 0)"/><path class="cls-8" d="M160.56,79.81c-4.26,15.07-19.62,21.73-38,22.07-22,.41-39.92-8.34-40.32-30.29-.12-6.54,1.13-11.9,3.54-16.21-10.28,36.45,62.14,47.31,74.8,24.43" transform="translate(0 0)"/></g></svg>