<svg id="bg" xmlns="http://www.w3.org/2000/svg" viewBox="0 0 862.97 165.48"><defs><style>.cls-1{fill:#1b1b1b;}</style></defs><path class="cls-1" d="M1313.47,334.32H497a23.28,23.28,0,0,1-23.25-23.25V213.3A23.28,23.28,0,0,1,497,190.05h191.9a36,36,0,0,0,25.45-10.44l10.49-10.35a1.48,1.48,0,0,1,2.08,2.12l-10.48,10.34A39,39,0,0,1,688.89,193H497a20.3,20.3,0,0,0-20.27,20.28v97.77A20.29,20.29,0,0,0,497,331.34h816.48a20.29,20.29,0,0,0,20.27-20.27V213.3A20.3,20.3,0,0,0,1313.47,193H1085a1.49,1.49,0,0,1,0-3h228.44a23.28,23.28,0,0,1,23.25,23.25v97.77A23.28,23.28,0,0,1,1313.47,334.32Z" transform="translate(-473.74 -168.84)"/></svg>