<?xml version="1.0" encoding="UTF-8"?>
<svg id="_圖層_3" data-name="圖層 3" xmlns="http://www.w3.org/2000/svg" viewBox="0 0 388.99 379.14">
  <defs>
    <style>
      .cls-1 {
        fill: #fff;
      }

      .cls-2 {
        fill: #bdea00;
      }

      .cls-3 {
        fill: none;
        stroke: #000;
        stroke-miterlimit: 10;
        stroke-width: 10px;
      }
    </style>
  </defs>
  <g>
    <path class="cls-2" d="M22.5,376.39H2.75V73.75C2.75,34.54,34.54,2.75,73.75,2.75h312.49v9.9c0,200.89-162.85,363.74-363.74,363.74Z"/>
    <path d="M22.5,379.14H0V73.75C0,33.08,33.08,0,73.75,0h315.24v12.65c0,49.47-9.69,97.47-28.8,142.66-18.46,43.64-44.88,82.84-78.54,116.49-33.66,33.66-72.85,60.08-116.49,78.54-45.18,19.11-93.18,28.8-142.66,28.8ZM5.5,373.64h17c199.05,0,360.99-161.94,360.99-360.99v-7.15H73.75C36.12,5.5,5.5,36.12,5.5,73.75v299.89Z"/>
  </g>
  <g>
    <path class="cls-3" d="M74.28,216.8l50.37-146.75h34.92l44.2,146.75h-31.13l-19.34-76.44c-2.1-7.66-4.1-15.61-5.98-23.87-1.89-8.25-3.88-16.27-5.98-24.06h-.8c-2.03,7.92-4.23,15.98-6.59,24.16-2.37,8.19-4.7,16.11-6.98,23.77l-22.76,76.44h-29.93ZM104.4,179.17l.48-22.78h70.23l-.48,22.78h-70.23Z"/>
    <path class="cls-1" d="M74.28,216.8l50.37-146.75h34.92l44.2,146.75h-31.13l-19.34-76.44c-2.1-7.66-4.1-15.61-5.98-23.87-1.89-8.25-3.88-16.27-5.98-24.06h-.8c-2.03,7.92-4.23,15.98-6.59,24.16-2.37,8.19-4.7,16.11-6.98,23.77l-22.76,76.44h-29.93ZM104.4,179.17l.48-22.78h70.23l-.48,22.78h-70.23Z"/>
  </g>
</svg>