<?xml version="1.0" encoding="UTF-8"?>
<svg id="_圖層_3" data-name="圖層 3" xmlns="http://www.w3.org/2000/svg" viewBox="0 0 371.1 68.94">
  <g>
    <g>
      <path d="M101.18,68.38c-.13,0-.26,0-.39-.01l-2.64-.14c-1.12-.06-2.08-.53-2.77-1.37-.42-.51-.68-1.1-.78-1.75l-15.47-.81c-.29.66-.76,1.25-1.38,1.73-.91.7-1.91,1.03-2.98.97l-2.51-.13c-1.85-.1-3.35-.85-4.44-2.25-1.09-1.38-1.47-3.04-1.14-4.92l3.04-17.28c.34-1.95,1.34-3.59,2.97-4.88,1.63-1.29,3.42-1.89,5.33-1.79l6.8.36.54-3.09-10.26-.54c-1.65-.09-3.04-.78-4.01-2.02-.96-1.23-1.32-2.74-1.04-4.35.28-1.57,1.07-2.9,2.37-3.94,1.3-1.05,2.78-1.53,4.38-1.45l10.62.56.36-2.04c-1.81.01-4.28-.03-7.5-.13-1.66-.03-3.07-.7-4.08-1.94-.98-1.22-1.4-2.64-1.24-4.24.16-1.57.88-2.94,2.14-4.05,1.26-1.11,2.69-1.63,4.27-1.64,10.83.31,20.73-.35,29.44-1.95,1.67-.32,3.19-.04,4.52.83,1.36.89,2.18,2.26,2.37,3.94.18,1.63-.25,3.16-1.26,4.55-1.02,1.4-2.38,2.28-4.05,2.59-2.74.51-6.18.96-10.25,1.35l-.6,3.44,10.79.57c1.66.09,3.04.79,3.99,2.04.95,1.25,1.28,2.7,1,4.33-.28,1.57-1.07,2.9-2.37,3.94-1.3,1.05-2.75,1.53-4.32,1.46l-11.15-.58-.54,3.09,6.5.34c2.03.11,3.67.94,4.87,2.47,1.19,1.52,1.62,3.31,1.27,5.33l-3.01,17.15c-.32,1.81-1.24,3.34-2.74,4.55-1.4,1.13-2.95,1.7-4.63,1.7ZM78.3,61.26s.07,0,.11,0l17.5.92c.54.03,1.01.26,1.33.66.32.4.44.91.34,1.45-.08.44.05.59.12.67.11.13.26.26.61.28l2.64.14c1.08.06,2.06-.28,2.98-1.03.93-.75,1.48-1.65,1.67-2.74l3.01-17.15c.21-1.17,0-2.11-.67-2.96-.66-.84-1.51-1.26-2.66-1.32l-7.46-.39c-.86-.04-1.35-.44-1.61-.77-.26-.33-.54-.9-.39-1.75l.8-4.55c.23-1.28,1.19-2.04,2.42-1.99l11.75.62c.82.04,1.56-.22,2.28-.79.72-.58,1.15-1.28,1.29-2.12.14-.8,0-1.43-.43-2-.41-.54-.97-.82-1.76-.86l-11.75-.62c-.85-.04-1.35-.44-1.61-.77-.26-.33-.54-.9-.39-1.75l.83-4.75c.2-1.12.97-1.89,2.07-2.05,4.25-.4,7.76-.86,10.51-1.37.9-.17,1.61-.63,2.18-1.41.57-.79.8-1.59.71-2.47-.09-.81-.41-1.35-1.03-1.76-.66-.44-1.42-.56-2.32-.39-8.93,1.63-19.03,2.31-30.05,2-.78-.03-1.53.28-2.22.89-.69.6-1.06,1.29-1.14,2.1-.08.8.11,1.46.59,2.05.45.56,1.01.82,1.81.83,3.83.11,6.67.15,8.45.11h.05s.05,0,.05,0c.85.04,1.34.44,1.6.77.26.33.54.9.39,1.75l-.64,3.63c-.22,1.23-1.18,1.98-2.41,1.93l-11.22-.59c-.86-.04-1.62.21-2.34.79-.72.58-1.15,1.28-1.29,2.12-.14.79,0,1.42.45,1.98.44.56,1.01.83,1.81.88h0l11.22.59c.84.04,1.33.44,1.59.77.27.34.55.92.4,1.82l-.8,4.55c-.22,1.24-1.18,2-2.41,1.93l-7.39-.39c-1.19-.06-2.26.32-3.31,1.15-1.05.83-1.67,1.83-1.88,3.05l-3.04,17.28c-.18,1.04,0,1.85.55,2.55.55.7,1.26,1.05,2.24,1.1l2.51.13c.22,0,.55-.01.99-.35.32-.25.49-.51.55-.84.17-.93.91-1.55,1.83-1.55ZM94.62,63.77s0,0,0,0c0,0,0,0,0,0ZM100.56,21.96h0,0ZM53.77,64.21c-1.37,0-2.61-.44-3.64-1.3-1.39-1.02-2.19-2.51-2.31-4.3-.12-1.76.41-3.38,1.55-4.83,2.56-3.59,5.15-7.73,7.64-12.23.82-1.47,2.03-2.53,3.59-3.15,1.62-.64,3.21-.63,4.7.05h.01c1.58.74,2.65,1.93,3.17,3.57.5,1.6.36,3.22-.44,4.83-2.68,5.28-5.6,10.15-8.69,14.47-1.05,1.52-2.53,2.46-4.37,2.79-.42.07-.82.11-1.22.11ZM62.96,40.94c-.39,0-.8.09-1.24.26-.92.36-1.6.96-2.08,1.82-2.55,4.6-5.2,8.83-7.87,12.58-.73.92-1.02,1.82-.96,2.83.06.93.41,1.6,1.11,2.1l.09.07c.66.56,1.44.74,2.44.56,1.04-.19,1.84-.7,2.45-1.56,3.02-4.22,5.86-8.95,8.46-14.08.44-.89.53-1.74.26-2.58-.26-.81-.75-1.37-1.56-1.74-.37-.16-.74-.25-1.12-.25ZM96.8,57.24s-.09,0-.13,0l-16.64-.87c-.84-.04-1.33-.44-1.59-.77-.27-.34-.55-.92-.4-1.82l1.39-7.91c.22-1.23,1.17-2,2.41-1.93l16.64.87c.9.05,1.4.46,1.67.79.26.33.54.89.4,1.73l-1.39,7.92c-.1.57-.4,1.08-.86,1.45-.44.36-.96.54-1.5.54ZM96.2,54.73h0s0,0,0,0ZM81.16,53.42l15.14.79,1.13-6.45-15.14-.79-1.13,6.46ZM98.33,47.81h0l.07-1.5-.08,1.5ZM62.73,35.3c-1.67,0-3.06-.57-4.11-1.71-2.05-2.14-3.63-3.75-4.68-4.77-1.2-1.1-1.78-2.58-1.69-4.3.09-1.68.77-3.11,2.02-4.27,1.26-1.2,2.76-1.86,4.45-1.94,1.73-.09,3.23.44,4.45,1.57,1.84,1.7,3.43,3.23,4.73,4.56,1.17,1.2,1.7,2.77,1.53,4.54-.16,1.71-.89,3.2-2.17,4.42-1.22,1.23-2.71,1.87-4.4,1.9-.04,0-.08,0-.12,0ZM59.06,21.3c-.07,0-.14,0-.21,0-.96.05-1.79.42-2.54,1.13-.69.64-1.03,1.35-1.07,2.24-.05.83.18,1.44.73,1.93l.04.04c1.07,1.04,2.68,2.69,4.78,4.88.51.54,1.12.8,2.01.77.9-.01,1.67-.36,2.36-1.05.78-.74,1.18-1.57,1.28-2.55.08-.91-.14-1.59-.69-2.17-1.26-1.29-2.81-2.79-4.61-4.45-.58-.53-1.24-.78-2.06-.78ZM67.03,19.28c-1.64,0-3.04-.59-4.18-1.75-1.74-1.74-2.93-2.91-3.52-3.46-1.21-1.1-1.79-2.58-1.67-4.3.12-1.65.8-3.06,2.04-4.21,1.25-1.2,2.75-1.87,4.43-1.98,1.72-.12,3.23.37,4.46,1.44l.13.13c.21.24.97,1.01,3.39,3.37l.03.03c1.16,1.19,1.7,2.73,1.58,4.45-.12,1.69-.87,3.18-2.22,4.4-1.2,1.2-2.68,1.85-4.34,1.88-.04,0-.08,0-.13,0ZM64.61,6.57c-.09,0-.18,0-.28,0-.97.06-1.81.44-2.57,1.17-.7.64-1.04,1.35-1.1,2.23-.06.8.16,1.38.7,1.87.64.59,1.83,1.76,3.63,3.57.59.61,1.21.89,2.11.86.88-.01,1.64-.36,2.33-1.05.82-.75,1.23-1.54,1.3-2.45.06-.87-.17-1.54-.72-2.12-2.43-2.37-3.16-3.11-3.44-3.42-.54-.45-1.19-.67-1.96-.67Z"/>
      <path d="M170,67.54c-.57,0-1.2-.02-1.91-.06-1.13-.06-2.66-.21-4.69-.45-1.78-.21-3.18-1.02-4.19-2.41-.67-.92-1.05-1.95-1.15-3.06-.44.66-.89,1.29-1.35,1.91-.99,1.43-2.4,2.29-4.15,2.53-1.71.22-3.23-.22-4.41-1.3-.33.09-.75.17-1.36.24h-.11c-10.11.41-19.24.58-27.15.52h-.01c-1.58-.02-2.91-.63-3.85-1.74-.93-1.11-1.32-2.43-1.18-3.94.21-1.57.9-2.84,2.04-3.84,1.03-.9,2.22-1.39,3.53-1.47-.84-.28-1.56-.78-2.11-1.48-.82-1.04-1.12-2.35-.87-3.78.24-1.38.93-2.53,2.06-3.41,1.11-.87,2.35-1.26,3.67-1.21-.52-.36-1-.81-1.41-1.34-1.2-1.52-1.62-3.32-1.27-5.33l1.55-8.84c.34-1.94,1.33-3.58,2.93-4.88.53-.43,1.09-.78,1.66-1.06-1.32-.14-2.42-.74-3.19-1.76-.81-1.06-1.1-2.36-.86-3.76.24-1.37.93-2.5,2.06-3.35.7-.53,1.45-.88,2.25-1.05-.19-.16-.37-.33-.53-.51-.96-1.06-1.37-2.37-1.18-3.77.12-1.34.74-2.55,1.85-3.55,1.1-.99,2.37-1.47,3.77-1.47,7.58,0,15.99-.27,24.96-.82,1.47-.1,2.8.35,3.82,1.31,1.04.98,1.55,2.27,1.48,3.75-.07,1.42-.65,2.69-1.72,3.78-1.09,1.1-2.36,1.69-3.78,1.73l-6.17.29-.04.24,5.64.29c1.76.09,3.07.87,3.81,2.22.76-.28,1.6-.4,2.46-.36l.6.03c.64-3.21,1.13-5.73,1.46-7.66.29-1.64,1.1-3.01,2.42-4.07,1.33-1.07,2.83-1.56,4.45-1.48,1.68.09,3.08.8,4.07,2.06,1,1.27,1.35,2.78,1.05,4.49-.03.18-.29,1.49-1.46,7.29l6.8.36c2.03.11,3.67.94,4.87,2.47,1.19,1.52,1.62,3.31,1.27,5.33l-.12.66c-1.24,7.08-2.24,12.57-3.04,16.77-.81,4.21-1.67,8.03-2.57,11.36-.91,3.37-1.66,5.76-2.28,7.33-.68,1.71-1.63,3.12-2.83,4.2-1.27,1.14-2.45,1.77-3.61,1.92-.55.07-1.21.11-2.01.11ZM164.14,57.74c-.63,0-1.21.21-1.8.63-.74.53-1.13,1.16-1.25,1.99-.14.98.04,1.8.56,2.52.5.7,1.18,1.07,2.11,1.18,1.93.23,3.44.38,4.49.43,1.48.08,2.61.07,3.37-.03.36-.05,1.01-.29,2-1.18.85-.76,1.54-1.8,2.04-3.07.57-1.44,1.3-3.8,2.17-7.01.88-3.25,1.72-7,2.52-11.14.8-4.19,1.8-9.66,3.04-16.72l.12-.66c.21-1.17,0-2.11-.67-2.96-.66-.84-1.51-1.26-2.66-1.32l-7.72-.4c-.9-.05-1.4-.46-1.67-.79-.26-.33-.54-.9-.39-1.74.74-3.71,1.59-7.95,1.64-8.23.15-.86,0-1.53-.46-2.12-.46-.58-1.05-.87-1.87-.92-.88-.03-1.67.22-2.41.82-.75.6-1.19,1.34-1.35,2.25-.36,2.03-.87,4.71-1.58,8.21-.34,1.3-1.25,2.03-2.48,1.95l-1.12-.06c-.64-.03-1.21.1-1.75.41-.98.49-1.65.33-2.05.12-.3-.15-.81-.53-.97-1.33-.18-.61-.5-1-1.49-1.05l-6.74-.36c-.8-.12-1.25-.53-1.49-.86-.25-.34-.5-.92-.35-1.78l.25-1.45c.2-1.14,1.01-1.9,2.17-2.05h.12s6.65-.33,6.65-.33c.67-.02,1.22-.29,1.76-.84.55-.56.83-1.15.86-1.81.03-.6-.14-1.04-.54-1.42-.41-.39-.91-.54-1.57-.5-9.05.55-17.51.82-25.17.82-.65-.01-1.21.22-1.75.7-.54.48-.81,1-.87,1.64-.08.6.06,1.02.44,1.44.39.44.85.63,1.5.64.82,0,2.1-.01,3.8-.03,2.33-.03,2.9-.02,3.13,0,.89.05,1.4.46,1.67.79.26.33.54.9.39,1.73l-.12.66c-.1.54-.41,1.03-.93,1.45-.53.43-1.07.63-1.63.6l-8.26-.43c-.62-.05-1.16.14-1.7.55-.52.39-.81.87-.92,1.48-.1.58-.01,1.02.29,1.43.2.26.51.56,1.24.6l8.25.43c.94.05,1.46.47,1.73.81.37.46.51,1.07.4,1.72l-.08.46c-.12.67-.5,1.25-1.08,1.62-.49.31-.98.47-1.48.43l-4.62-.24c-1.22-.07-2.31.31-3.34,1.14-1.04.83-1.64,1.84-1.86,3.06l-1.55,8.84c-.21,1.17,0,2.11.67,2.96.66.84,1.51,1.26,2.66,1.32l4.62.24c.4.02,1,.17,1.55.78.65.72.63,1.45.57,1.81l-.11.58c-.32,1.22-1.3,1.94-2.53,1.87l-7.86-.41c-.61-.04-1.14.15-1.68.57-.54.42-.84.92-.95,1.56-.13.76.08,1.15.28,1.41.2.25.52.54,1.26.58l7.98.42c.9.12,1.39.55,1.64.9.24.33.5.89.36,1.69l-.18.98c-.31,1.17-1.25,1.85-2.51,1.79-.45-.03-2.81-.03-3.58-.02-2.09,0-3.7,0-4.82-.02h-.04c-.72,0-1.33.24-1.91.74-.59.51-.93,1.14-1.03,1.92-.06.64.1,1.19.5,1.67.23.28.66.66,1.59.67,7.84.05,16.9-.12,26.94-.51.6-.07.79-.12.82-.14,1.04-.39,2.08-.17,2.8.61l.06.06c.52.47,1.16.64,1.98.53.9-.12,1.57-.53,2.1-1.3,2.91-3.93,5.47-8.57,7.65-13.82,2.2-5.29,4.3-12.09,6.25-20.21.21-1.22,1.19-2.04,2.48-1.96l2.84.15c.9.05,1.4.46,1.67.79.26.33.54.9.39,1.73l-.79,4.49c-1.25,7.11-2.31,12.52-3.16,16.07-1.18,4.94-1.81,6.36-2.19,7-1.01,1.71-2.23,2.02-3.12,1.98-.64-.03-1.18-.09-1.66-.16-.17-.03-.34-.04-.5-.04ZM171,28.77c-1.96,8.12-4.08,14.95-6.31,20.3-.89,2.15-1.85,4.2-2.86,6.15,1.04-.45,2.14-.58,3.28-.4.36.06.82.1,1.34.13,0,0,.15-.11.38-.5.24-.41.8-1.76,1.86-6.17.83-3.49,1.88-8.84,3.12-15.89l.62-3.54-1.43-.08ZM130.89,45.97h0,0ZM148.78,57.65c-.22,0-.46-.03-.73-.09-.05-.01-.23-.05-.74-.08-1.34.02-3.46.04-6.37.06-.99-.05-1.5-.46-1.76-.79-.26-.33-.54-.89-.39-1.73l.05-.27c.22-1.27,1.18-2.07,2.42-1.99l5.61.29c.64.03,1.19-.14,1.7-.56.52-.42.82-.92.93-1.58.13-.76-.08-1.15-.28-1.41-.2-.25-.52-.54-1.26-.58l-5.74-.31c-.81-.12-1.27-.53-1.5-.86-.24-.33-.5-.89-.35-1.71l.08-.47c.22-1.27,1.2-2.04,2.42-1.99l4.09.21c1.22.07,2.31-.31,3.34-1.14,1.04-.84,1.64-1.84,1.86-3.06l1.55-8.84c.21-1.17,0-2.11-.67-2.96-.66-.84-1.51-1.26-2.66-1.32l-4.23-.23c-.8-.11-1.25-.53-1.49-.86-.25-.34-.5-.92-.35-1.78l.08-.46c.22-1.24,1.15-1.99,2.41-1.93l6.6.34c.06,0,.34,0,1.02-.23.97-.32,1.61,0,1.91.21.29.21.76.69.8,1.61.07.59.28,1.03.66,1.38.41.38.93.57,1.59.61l.79.04c.88.05,1.37.45,1.63.77.36.45.5,1.05.39,1.68-3.04,12.7-6.88,22.44-11.43,29.03-.27.35-.88.97-1.96.97ZM149.88,46.34c.67.29,1.24.74,1.7,1.32.18.23.33.47.46.72,2.61-5.41,4.93-12.19,6.92-20.25-1.1-.1-2.06-.46-2.87-1.08.65,1.27.84,2.69.57,4.24l-1.55,8.84c-.34,1.94-1.33,3.58-2.93,4.88-.73.58-1.49,1.03-2.3,1.33ZM153.88,24.55c.22.15.43.31.64.49-.08-.18-.14-.37-.2-.56-.15.03-.3.05-.44.07ZM146.53,23.54l.55.1h0l-.55-.1ZM145.86,23.42l.56.1-.56-.1ZM145.32,41.2s-.09,0-.13,0l-1.91-.1c-.66-.04-1.24-.33-1.63-.84-.38-.48-.54-1.11-.42-1.75l.2-1.12c.22-1.23,1.19-1.99,2.47-1.92l1.92.1c.9.05,1.4.46,1.67.79.26.33.54.9.39,1.73l-.2,1.12c-.1.58-.4,1.08-.87,1.46-.43.35-.95.53-1.49.53ZM144.18,39.02h0s0,0,0,0ZM132.45,40.53s-.09,0-.14,0h0l-1.91-.1c-.37-.02-.94-.15-1.49-.68-.52-.5-.76-1.2-.63-1.91l.22-1.25c.31-1.17,1.3-1.86,2.51-1.79l1.91.1c.9.05,1.4.46,1.67.79.26.33.54.89.39,1.73l-.22,1.24c-.3,1.17-1.18,1.88-2.32,1.88ZM131.24,38.34h0s0,0,0,0ZM130.55,37.43h0,0ZM146.47,34.54s-.08,0-.12,0l-1.91-.1c-.72-.04-1.35-.42-1.73-1.07-.38-.65-.38-1.22-.31-1.59l.19-1.06c.09-.51.36-.96.79-1.36.49-.44,1.08-.65,1.7-.62l1.91.1c.69.04,1.29.37,1.68.95.43.65.44,1.25.38,1.64l-.18,1.06c-.09.49-.34.94-.74,1.35-.46.46-1.04.71-1.64.71ZM145.36,32.29h0s0,0,0,0ZM144.59,31.44h0,0ZM133.63,33.86s-.1,0-.15,0l-1.91-.1c-.43-.02-1.06-.2-1.61-.9-.54-.69-.57-1.34-.49-1.76l.18-1.05c.07-.4.29-.97.99-1.47.51-.37,1.04-.54,1.56-.52l1.92.1c.88.04,1.38.45,1.65.79.27.34.56.92.4,1.8l-.21,1.17c-.31,1.21-1.19,1.95-2.33,1.95ZM132.42,31.62h0s0,0,0,0ZM133.64,30.86h0,0Z"/>
      <path d="M235.55,68.94c-.12,0-.24,0-.37,0-1.74-.09-3.21-.84-4.25-2.17-1.05-1.34-1.43-2.91-1.12-4.66l1.53-8.69h-.29c-1.58-.1-2.92-.76-3.86-1.93-1.88,8.19-3.04,10.41-3.75,11.36-.95,1.25-1.88,2.12-2.86,2.68-.94.53-1.98.9-3.11,1.1l-.69.12c-.39.03-.79.04-1.21.02-1.5-.08-2.81-.71-3.9-1.89-.69-.74-1.24-1.59-1.65-2.55-.17.27-.35.54-.53.8-.85,1.35-2.15,2.15-3.76,2.25-.23.03-.52.05-.78.04-1.28-.07-2.38-.6-3.19-1.55-1.07-1.16-1.61-2.57-1.62-4.18-.02-.44,0-.93.09-1.39.19-1.06.61-2.06,1.27-2.96,1.08-1.59,2.13-3.39,3.1-5.36-.04,0-.09.01-.13.02-.8.08-1.39.14-1.83.2-1.05,3.07-2.5,5.89-4.3,8.35-1.29,1.82-2.79,3.49-4.45,4.95-1.27,1.03-2.6,1.49-3.98,1.42-.26-.01-.52-.06-.78-.13-1.57-.28-2.86-1.12-3.82-2.48-.83-1.13-1.14-2.5-.89-3.95.28-1.57,1.05-2.93,2.31-4.03.82-.79,1.57-1.74,2.23-2.81-.75-.2-1.44-.57-2.07-1.11-1.13-.99-1.73-2.33-1.76-3.9v-.33c-.04-.39-.03-.8.05-1.22.21-1.19.78-2.25,1.71-3.15,1.08-1.15,2.48-1.84,4.12-1.98.52-.04,1.01-.08,1.49-.12l.34-1.92-.42-.02c-1.61-.08-2.96-.76-3.89-1.95-.93-1.18-1.27-2.65-.99-4.25l.24-1.39c.2-1.15.78-2.12,1.71-2.88.65-.53,1.37-.86,2.13-.99.24-1.93.28-3.95.13-6.01-.05-.87.17-1.67.65-2.4-.1-.1-.2-.2-.29-.31-.75-.92-1.04-2.04-.82-3.27l.24-1.39c.27-1.55,1.05-2.86,2.32-3.88,1.27-1.03,2.68-1.52,4.21-1.43h.06s.33-1.85.33-1.85c.29-1.63,1.13-3.03,2.5-4.16,1.39-1.14,2.94-1.66,4.62-1.58,1.72.09,3.18.84,4.22,2.17,1.05,1.34,1.43,2.88,1.13,4.59l-.27,1.52c1.36.2,2.51.86,3.35,1.93.6.76.96,1.64,1.07,2.58l.03-.18,1.14-6.85c.25-1.43.97-2.63,2.14-3.57,1.16-.98,2.52-1.45,4-1.37,1.54.08,2.82.75,3.71,1.93.88,1.16,1.21,2.54.95,4-.59,3.36-1.14,6.32-1.65,8.81l1.38.07c1.86.1,3.36.79,4.48,2.07-.08-.48-.08-.99.01-1.51l.22-1.25c.27-1.55,1.05-2.85,2.32-3.88,1.27-1.03,2.73-1.51,4.28-1.42l.92.05.3-1.72c.3-1.68,1.16-3.11,2.55-4.23,1.4-1.13,2.97-1.66,4.67-1.57,1.74.09,3.21.84,4.25,2.17,1.05,1.34,1.43,2.91,1.12,4.66l-.24,1.37c1.53.12,2.83.8,3.74,1.97.95,1.21,1.3,2.69,1.02,4.29l-.66,3.76c-.04.24-.12.46-.22.65-.03.21-.09.44-.22.69-.67,1.33-1.63,3.27-2.88,5.81l-.12.25c-.33.67-.62,1.25-.86,1.75.71.3,1.33.78,1.84,1.42.86,1.09,1.18,2.4.94,3.78l-.1.59c-.27,1.55-1.04,2.84-2.28,3.85-1.25,1.01-2.68,1.47-4.24,1.39l-1.25-.07-.38,2.17h.16c1.56.09,2.89.76,3.85,1.94.96,1.19,1.32,2.66,1.04,4.24-.27,1.53-1.05,2.82-2.32,3.84-1.27,1.03-2.69,1.5-4.21,1.43l-.52-.03-1.59,9.05c-.29,1.68-1.15,3.1-2.55,4.23h0c-1.3,1.05-2.75,1.58-4.3,1.58ZM232.35,44.95c-.75,0-1.42.25-2.06.75-.69.54-1.09,1.19-1.23,1.98-.13.74,0,1.34.43,1.88.42.53.96.8,1.72.84l1.32.07c.83.04,1.3.43,1.56.75s.53.88.38,1.7l-1.7,9.69c-.16.9,0,1.63.53,2.29.51.65,1.16.98,2.05,1.02.97.06,1.81-.25,2.63-.91.83-.67,1.31-1.46,1.48-2.41l1.7-9.7c.21-1.18,1.15-1.91,2.33-1.86l1.18.06c.78.04,1.48-.21,2.17-.77.7-.56,1.1-1.23,1.25-2.03.13-.73,0-1.32-.42-1.83-.42-.52-.95-.78-1.67-.82l-1.19-.06c-.83-.04-1.31-.43-1.56-.75-.25-.32-.53-.87-.38-1.7l.67-3.83c.21-1.19,1.11-1.93,2.33-1.86l1.92.1c.81.04,1.53-.2,2.2-.73.67-.54,1.07-1.21,1.21-2.03l.1-.59c.1-.55-.01-.98-.35-1.41-.33-.42-.74-.62-1.31-.65-.92-.05-1.35-.57-1.53-.88-.14-.25-.42-.9.01-1.73.31-.63.82-1.67,1.52-3.09l.12-.25c1.25-2.55,2.21-4.5,2.89-5.85-.1.21-.16.61.03,1.01.18.38.52.6.77.65l.37-2.97c-.42-.04-.94.36-1.02.8l.66-3.76c.13-.76,0-1.37-.43-1.92-.42-.53-.96-.8-1.71-.84l-.92-.05c-.84-.04-1.31-.48-1.51-.73-.25-.31-.52-.85-.38-1.65l.43-2.44c.16-.9,0-1.63-.53-2.29-.51-.65-1.16-.97-2.05-1.02-.97-.05-1.81.25-2.63.91-.83.67-1.31,1.46-1.48,2.42l-.42,2.37c-.21,1.2-1.14,1.94-2.33,1.86l-1.58-.08c-.82-.05-1.55.21-2.24.76-.7.56-1.11,1.24-1.25,2.06l-.22,1.25c-.09.51.05.76.2.95.16.19.39.4.91.42l1.8.11-.44,2.7-1.07.25c-.22.04-.37.13-.52.32-.16.2-.17.35-.15.5.19,2.71.12,5.28-.22,7.71-.18,1.02-.92,1.67-1.88,1.61-.37-.02-.7.09-1.04.36-.44.36-.54.68-.58.9l-.28,1.58c-.13.76,0,1.35.42,1.86.42.52.97.79,1.73.82l1.79.09c.82.04,1.3.43,1.56.75.26.32.53.88.39,1.7l-.67,3.83c-.21,1.18-1.14,1.92-2.33,1.86l-1.32-.07c-.06,0-.13,0-.19,0ZM212.29,59.42c.23,1.41.75,2.53,1.58,3.41.56.61,1.16.9,1.87.94.25.01.5.01.72,0l.48-.09c.8-.14,1.53-.4,2.16-.76.61-.34,1.26-.97,1.94-1.87.47-.64,1.54-2.84,3.25-10.36.62-2.76,1.33-6.22,2.19-10.56,1.67-8.49,2.78-14.34,3.32-17.37.2-1.14,0-2.05-.61-2.88-.6-.8-1.41-1.2-2.55-1.26l-2.44-.13c-.57-.03-1.06-.26-1.44-.65-.26-.27-.67-.86-.5-1.8.57-2.72,1.19-6.01,1.86-9.82.11-.64-.01-1.17-.39-1.66-.36-.48-.82-.71-1.48-.74-.74-.04-1.34.18-1.93.69-.63.51-.97,1.06-1.09,1.76l-1.75,10.36c-.15.89-.94,1.48-1.86,1.42-.14,0-.31.01-.57.22-.3.24-.33.41-.34.48l-.87,4.95c-.02.13,0,.16.03.2.03.04.04.05.16.06.49.03.93.25,1.23.62.3.37.42.85.33,1.34-1.58,7.21-3.32,13.39-5.2,18.44l-.14.38-.32.26c-.35.28-.72.42-1.12.39-.27-.01-.8-.11-1.22-.67l-.35-.47.06-.58c.07-.7-.09-1.21-.53-1.64-.32-.29-.73-.46-1.26-.48l-.54-.03-.62.07c-.67.13-1.34-.13-1.77-.68-.35-.44-.5-1-.4-1.56l.37-2.11c.21-1.18,1.15-1.92,2.26-1.87l.99.05c.83.03,1.55-.2,2.24-.74.69-.54,1.09-1.2,1.23-2.02l.23-1.32c.07-.37,0-.64-.2-.91-.14-.18-.35-.37-.86-.4-.01,0-.03,0-.04,0l-11.43-.6.48-2.69,1.02-.26c.23-.04.41-.15.58-.33.16-.18.25-.35.27-.56.22-2.45.2-4.81-.04-7.02-.08-.5.09-1.07.49-1.54.42-.48,1.01-.72,1.65-.69l2.57.13c.66.03,1.24.37,1.58.92.33.53.39,1.16.17,1.75-.74,2.55-1.65,5.21-2.69,7.91l3.77,1.54c-.04-.31,0-.72.26-1.16.42-.82,1.19-2.4,2.23-4.62.78-1.69,1.39-2.97,1.81-3.84-.02.05-.05.22,0,.39.06.16.18.3.33.4l.27-1.56c.05-.31.15-.61.28-.89v-.42c-.11,0-.3.07-.39.16-.02.02-.11.14-.14.33l.6-3.43c.13-.77,0-1.37-.42-1.92-.42-.53-.96-.8-1.71-.84l-.59-.03c-.81-.04-1.27-.47-1.47-.71s-.51-.79-.37-1.6l.46-2.64c.15-.85-.02-1.56-.54-2.22-.51-.65-1.15-.98-2.02-1.02-.92-.06-1.75.25-2.55.9-.81.67-1.29,1.44-1.45,2.36l-.45,2.57c-.2,1.14-1.11,1.84-2.26,1.8l-.79-.04c-.79-.03-1.48.21-2.17.77-.7.56-1.1,1.23-1.25,2.06l-.24,1.38c-.08.45.04.67.19.85.15.18.36.36.82.39l1.67.09-.37,2.71-1.07.25c-.16.03-.32.08-.51.33-.22.3-.24.51-.23.67.19,2.57.09,5.12-.29,7.55-.18.99-.99,1.64-1.94,1.58-.42-.03-.79.1-1.14.39-.36.29-.57.63-.64,1.06l-.24,1.39c-.13.76,0,1.36.4,1.88.4.51.94.77,1.69.8l1.45.08c.83.04,1.3.43,1.56.75.26.32.53.88.38,1.7l-.59,3.36c-.19,1.08-.96,1.83-2.07,1.98-.71.07-1.37.12-2.05.17-.88.08-1.61.44-2.23,1.09-.52.5-.79,1-.89,1.56-.03.15-.03.27-.01.37l.02.12v.53c0,.69.24,1.23.73,1.65.4.34.82.52,1.33.55.15,0,.3,0,.46,0,.63-.13,1.27.1,1.69.62.45.58.5,1.3.17,1.95-.97,2.02-2.24,3.81-3.75,5.27-.79.7-1.23,1.45-1.39,2.35-.11.65,0,1.19.37,1.68.53.76,1.15,1.16,1.96,1.29l.21.05s.09.02.14.03c.64.03,1.26-.2,1.9-.71,1.43-1.26,2.78-2.75,3.94-4.4,1.67-2.27,3-4.88,3.97-7.78.38-.99,1.15-1.61,2.14-1.76.48-.07,1.18-.15,2.11-.23.9-.12,1.63-.22,2.13-.28.7-.13,1.44.17,1.84.82.2.34.45.98.09,1.82-1.28,2.87-2.71,5.45-4.24,7.69-.42.58-.66,1.14-.77,1.76-.04.24-.06.51-.04.8,0,.92.28,1.64.84,2.24l.04.05c.28.33.62.49,1.08.52.09,0,.2,0,.33-.02.74-.05,1.17-.32,1.54-.9.73-1.08,1.4-2.17,2.02-3.29l.07-.12c.31-.45.79-.72,1.32-.77-.01-.02-.02-.05-.03-.07-.21-.55-.19-1.15.08-1.66,3.69-7.15,6.97-17.13,9.74-29.67l.05-.16c.31-.89,1.09-1.42,2-1.38.55.03,1.03.27,1.35.67.19.24.48.75.35,1.5-2.05,10.89-3.5,18.23-4.45,22.46-1.28,5.72-2.01,7.3-2.5,7.99-.97,1.5-2.26,1.68-2.95,1.63-.71-.04-1.33-.09-1.84-.15.03.1.06.2.07.3.03.18.05.38.05.63ZM213.78,55.61c.12,0,.25.01.38.02.04,0,.11,0,.29-.28l.07-.11c.1-.13.57-.91,1.51-4.74-.73,1.82-1.48,3.52-2.25,5.1ZM232.37,53.47h0,0ZM189.84,49.9s-.01.02-.02.04c0-.01.01-.02.02-.04ZM206.74,49.69s-.06,0-.1.01c.03,0,.07,0,.1-.01ZM229.83,38.63c-.13.68-.27,1.37-.41,2.08-.15.78-.3,1.52-.44,2.24,1.13-.73,2.38-1.06,3.72-.99l.65.03.38-2.17-.75-.04c-1.21-.06-2.28-.46-3.14-1.16ZM192.43,40.11s0,0,0,0h0ZM234.76,39.88h0,0ZM205.12,39.87h0s0,0,0,0ZM205.35,38.53h.29c1.21.08,2.26.5,3.13,1.28.27-.82.53-1.66.79-2.53-1.18.83-2.5,1.21-3.93,1.14h-.26s-.02.11-.02.11ZM193.88,37.81h0,0ZM250.82,30.88s0,.01-.01.02c0,0,0-.01.01-.02ZM209.73,28.85s-.02.04-.03.05c0-.01.02-.03.03-.05ZM210.39,27.53c.49.26.91.61,1.26,1.06.06.08.11.15.17.23.18-.76.36-1.53.54-2.32-.33-.19-.62-.45-.87-.77-.05-.06-.09-.13-.14-.19-.36.76-.68,1.43-.96,1.99ZM231.98,27.47c-.06.29-.11.59-.17.9.03,0,.06-.01.09-.02.03-.29.06-.59.08-.88ZM208.58,27.06h.01-.01ZM213.84,26.94h0,0ZM202.36,19.42c.01.15.02.3.03.46.05-.15.09-.3.14-.45h-.17ZM203.82,19.49h0,0ZM201.25,19.36h0,0ZM202.24,18.18s0,.08.01.12c0-.04,0-.08-.01-.12ZM215.75,15.05h.01-.01ZM250.58,10.28h0,0ZM198.87,7.64h0,0ZM244.77,31.82h-1.34s-6.25-.33-6.25-.33l.47-2.64.96-.3c.31-.07.55-.22.76-.46.21-.23.31-.46.34-.71.18-2.2.12-4.48-.16-6.73-.09-.57.13-1.2.63-1.67.42-.4.93-.62,1.5-.58l3.24.17c.61.03,1.16.32,1.53.8.33.43.46.97.37,1.52-.12.69-.54,2.25-2.82,7.88,0,.02-.01.04-.01.05l1.24.32-.47,2.67ZM242.66,21.46c.07.73.11,1.46.14,2.19.35-.95.6-1.64.76-2.14l-.89-.05ZM244.77,21.57h0,0ZM243.87,20.37h0s0,0,0,0ZM242.53,20.23s0,.06,0,.08c0-.03,0-.06,0-.08Z"/>
      <path d="M309.97,67.66c-1.04,0-2.02-.25-2.94-.75-1.32-.72-2.26-1.76-2.79-3.1-10.22.54-20.36.73-30.16.56-.04,0-.07,0-.1,0-1.62,0-3.06-.62-4.12-1.79-1.09-1.21-1.54-2.75-1.3-4.46.1-.69.29-1.34.57-1.94-1.12,1.78-2.26,3.5-3.43,5.13-1.05,1.52-2.53,2.46-4.37,2.79-1.85.33-3.53-.08-4.86-1.18-1.39-1.02-2.19-2.51-2.31-4.3-.12-1.76.41-3.38,1.56-4.83,2.57-3.64,5.16-7.78,7.64-12.24.82-1.47,2.03-2.53,3.59-3.15,1.63-.64,3.21-.62,4.7.05,1.6.74,2.66,1.94,3.18,3.57.5,1.6.36,3.22-.44,4.83-1.43,2.83-2.93,5.53-4.49,8.1.26-.33.55-.64.88-.93,1.24-1.1,2.71-1.67,4.36-1.7h.05s.05,0,.05,0c.24.01.61.01,1.11,0,.52-.01.92-.02,1.21,0,0,0,0-.01.02-.02,2.43-3.95,5.08-8.61,7.88-13.87l-6.48-.34c-1.71-.09-3.12-.81-4.08-2.08-.58-.76-.94-1.61-1.06-2.53-.15.17-.32.34-.49.51-1.23,1.23-2.73,1.87-4.42,1.87h0c-1.72,0-3.15-.61-4.26-1.81-.85-.98-2.38-2.6-4.55-4.85-1.2-1.11-1.75-2.59-1.6-4.3.14-1.62.83-3.04,2.06-4.23,1.28-1.22,2.78-1.88,4.47-1.96,1.77-.08,3.25.48,4.47,1.67,1.9,1.88,3.41,3.4,4.62,4.67.84.87,1.34,1.93,1.47,3.13.22-.23.46-.45.71-.65,1.33-1.07,2.83-1.57,4.42-1.48l11.42.6.97-5.53-8.21-.43c-1.66-.09-3.04-.79-3.99-2.04-.94-1.25-1.28-2.7-.99-4.33.28-1.57,1.07-2.9,2.37-3.94,1.3-1.05,2.76-1.53,4.32-1.46l8.58.45h0c.32-1.86,1.25-3.42,2.75-4.65,1.51-1.24,3.23-1.82,5.1-1.72,1.94.1,3.51.9,4.66,2.36,1.07,1.36,1.5,2.96,1.26,4.74l9.41.49c1.66.09,3.04.79,3.99,2.04.93,1.23,1.28,2.73,1,4.33-.28,1.57-1.07,2.9-2.37,3.94-1.3,1.05-2.76,1.54-4.31,1.46l-9.77-.51-.97,5.53,12.3.64c1.71.09,3.12.81,4.09,2.08.96,1.27,1.3,2.76,1.01,4.43-.28,1.62-1.1,2.97-2.42,4.04-1.32,1.07-2.8,1.56-4.42,1.48l-16.27-.85c-2,3.87-4.38,8.26-7.12,13.06,3.36-.07,6-.14,8.01-.2-.12-.39-.25-.84-.4-1.34-.33-1.07-.53-1.8-.62-2.23-.44-1.69-.19-3.33.74-4.88.91-1.52,2.26-2.58,4.03-3.15,1.87-.53,3.6-.39,5.2.39,1.67.82,2.75,2.11,3.21,3.85,1.22,4.25,2.54,9.12,3.93,14.46.4,1.73.1,3.4-.88,4.99-.97,1.56-2.33,2.61-4.04,3.14l-.33.11c-.68.19-1.33.28-1.97.28ZM306.94,62.45c.25.82.73,1.4,1.51,1.82.79.43,1.64.5,2.62.24l.29-.1c1.03-.32,1.81-.92,2.39-1.86.57-.92.73-1.77.52-2.69-1.37-5.28-2.69-10.13-3.91-14.38-.24-.91-.76-1.52-1.64-1.96-.93-.46-1.92-.53-3.01-.22-1.01.33-1.79.93-2.33,1.82-.52.86-.64,1.69-.4,2.61l.02.1c.04.18.15.67.55,1.97.33,1.08.58,1.91.74,2.5l.05.3c.04.52-.11,1.04-.42,1.49-.4.57-1.02.86-1.66.89-2.46.09-6.09.18-11.1.28h-.05s-.05,0-.05,0c-1-.05-1.46-.62-1.64-.96-.18-.34-.41-1.05.14-1.99,3.09-5.4,5.78-10.3,7.98-14.58.48-1.05,1.44-1.65,2.63-1.59l16.44.86c.87.04,1.64-.22,2.38-.82.75-.6,1.19-1.33,1.35-2.22.15-.84,0-1.51-.44-2.1-.43-.57-1.02-.86-1.86-.9l-13.27-.7c-.86-.04-1.35-.44-1.61-.77-.26-.33-.54-.9-.39-1.75l1.23-6.99c.23-1.28,1.19-2.07,2.42-1.99l10.36.54c.82.04,1.56-.22,2.28-.8.72-.58,1.15-1.28,1.3-2.12.14-.79,0-1.43-.43-2-.41-.54-.97-.82-1.76-.86l-10.5-.56c-.81-.12-1.27-.53-1.5-.86-.24-.33-.49-.89-.35-1.72l.09-.53c.19-1.08,0-1.94-.62-2.72-.6-.77-1.38-1.16-2.45-1.21-1.12-.05-2.11.28-3.04,1.05-.94.77-1.5,1.7-1.7,2.84l-.09.53c-.22,1.28-1.2,2.06-2.49,1.99l-9.11-.48c-.81-.04-1.56.22-2.28.8-.72.58-1.15,1.28-1.29,2.12-.14.8,0,1.43.43,2,.41.54.97.82,1.76.86l9.11.48c.69.04,1.29.37,1.68.95.43.65.44,1.25.38,1.64l-1.23,6.99c-.22,1.24-1.18,1.99-2.48,1.92l-11.95-.62c-.85-.03-1.64.22-2.38.82-.75.6-1.19,1.33-1.34,2.22-.15.84,0,1.51.44,2.1.43.57,1.02.85,1.86.9l8.05.42c.65.03,1.23.37,1.6.93.42.65.42,1.43.02,2.08-3.11,5.88-6.04,11.07-8.72,15.41l-.07.11c-.87,1.18-1.92,1.3-2.47,1.27-.24-.01-.61,0-1.11,0-.57.02-1,.02-1.29,0-.91.03-1.69.33-2.39.94-.7.62-1.11,1.37-1.24,2.29-.12.83.06,1.48.56,2.03.51.56,1.12.85,2,.8,9.95.17,20.22-.03,30.56-.58,1.1-.14,2.02.52,2.3,1.67ZM269.29,40.92c-.39,0-.8.09-1.24.26-.92.36-1.6.96-2.07,1.81h0c-2.54,4.55-5.18,8.78-7.87,12.58-.73.92-1.03,1.83-.96,2.83.06.93.41,1.6,1.11,2.1l.09.07c.66.56,1.44.74,2.44.56,1.05-.19,1.85-.7,2.45-1.56,3.02-4.21,5.86-8.95,8.46-14.08.44-.89.53-1.74.26-2.58-.26-.81-.76-1.37-1.57-1.74-.36-.16-.73-.24-1.11-.24ZM287.03,38.48h0,0ZM265.37,21.68c-.06,0-.13,0-.19,0-.96.05-1.79.42-2.54,1.13-.7.67-1.07,1.43-1.15,2.32-.07.8.14,1.37.67,1.85l.07.07c2.26,2.33,3.78,3.96,4.66,4.96.51.54,1.16.81,2.03.81h0c.89,0,1.63-.32,2.32-1.01.79-.75,1.22-1.59,1.35-2.59.11-.89-.09-1.56-.63-2.12-1.18-1.24-2.71-2.79-4.56-4.61-.57-.55-1.22-.82-2.03-.82ZM306.29,21.78h0,0ZM273.29,19.23c-1.59,0-3.01-.59-4.11-1.72-1.77-1.78-2.93-2.91-3.52-3.46-1.21-1.1-1.79-2.59-1.67-4.3.12-1.65.8-3.07,2.04-4.21,1.25-1.19,2.75-1.87,4.43-1.98,1.72-.1,3.22.37,4.46,1.44.4.39,1.56,1.54,3.54,3.52,1.18,1.21,1.71,2.75,1.56,4.48-.15,1.67-.86,3.12-2.12,4.32-1.26,1.21-2.74,1.85-4.38,1.9-.08,0-.15,0-.23,0ZM270.95,6.55c-.09,0-.19,0-.29,0-.97.06-1.81.45-2.57,1.17-.69.63-1.04,1.36-1.1,2.23-.06.81.16,1.38.7,1.88h.01c.62.58,1.8,1.75,3.62,3.57.58.6,1.25.86,2.09.83.9-.03,1.69-.38,2.41-1.07.72-.69,1.12-1.49,1.2-2.43.08-.86-.15-1.53-.7-2.11-1.94-1.94-3.09-3.08-3.43-3.41-.51-.44-1.15-.67-1.95-.67Z"/>
    </g>
    <g>
      <path d="M64.7,39.82c1.19.55,1.98,1.43,2.37,2.65.38,1.22.27,2.46-.35,3.71-2.65,5.23-5.51,9.98-8.57,14.26-.83,1.2-1.97,1.93-3.41,2.18-1.45.26-2.67-.04-3.68-.89-1.06-.77-1.64-1.84-1.73-3.22-.09-1.38.32-2.65,1.23-3.8,2.65-3.72,5.25-7.87,7.78-12.44.65-1.16,1.59-1.99,2.83-2.48,1.24-.49,2.42-.48,3.53.02ZM54.96,27.73c-.88-.8-1.29-1.84-1.22-3.12.07-1.28.58-2.37,1.54-3.25,1.01-.97,2.18-1.48,3.5-1.55,1.32-.06,2.44.33,3.36,1.17,1.83,1.69,3.39,3.2,4.67,4.51.87.89,1.24,2.01,1.11,3.35-.13,1.35-.7,2.5-1.71,3.47-.97.97-2.1,1.47-3.39,1.49-1.29.02-2.33-.39-3.12-1.23-2.1-2.2-3.69-3.81-4.75-4.84ZM71.07,9.6c.87.89,1.25,1.99,1.15,3.29-.1,1.3-.67,2.44-1.73,3.4-.97.97-2.09,1.47-3.36,1.49-1.27.02-2.34-.41-3.2-1.3-1.78-1.78-2.97-2.95-3.58-3.52-.88-.8-1.28-1.83-1.19-3.09.09-1.26.61-2.33,1.56-3.21,1.01-.97,2.18-1.49,3.51-1.58,1.32-.09,2.45.27,3.38,1.08.33.37,1.49,1.52,3.46,3.44ZM75.18,30.98c-1.23-.06-2.2-.55-2.91-1.45-.71-.9-.96-1.96-.74-3.17.21-1.21.82-2.22,1.83-3.03,1.01-.81,2.13-1.19,3.36-1.12l11.22.59c.48.03.77-.2.85-.69l.64-3.63c.08-.48-.11-.74-.6-.76-1.83.04-4.66,0-8.51-.11-1.24-.02-2.22-.48-2.96-1.39s-1.03-1.95-.91-3.14c.12-1.19.67-2.22,1.64-3.08.97-.86,2.06-1.28,3.25-1.26,10.96.31,20.87-.35,29.73-1.97,1.29-.24,2.43-.04,3.42.61s1.56,1.6,1.7,2.85c.14,1.25-.19,2.42-.98,3.51-.79,1.09-1.83,1.76-3.12,2-2.8.52-6.32.98-10.57,1.38-.46.07-.73.34-.81.82l-.83,4.75c-.09.48.11.74.6.76l11.75.62c1.23.06,2.19.55,2.88,1.45.69.9.92,1.96.71,3.17-.21,1.21-.82,2.22-1.83,3.03s-2.11,1.19-3.3,1.12l-11.75-.62c-.48-.03-.77.23-.87.75l-.8,4.55c-.08.48.11.74.6.76l7.46.39c1.58.08,2.84.71,3.76,1.9.93,1.18,1.25,2.56.97,4.14l-3.01,17.15c-.25,1.45-.99,2.67-2.21,3.65-1.22.98-2.55,1.43-4,1.35l-2.64-.14c-.7-.04-1.27-.31-1.69-.82-.42-.51-.57-1.14-.44-1.89.04-.22-.05-.33-.27-.35l-17.5-.92c-.22-.01-.35.09-.39.31-.12.7-.49,1.29-1.11,1.77-.62.48-1.28.7-1.98.66l-2.51-.13c-1.41-.07-2.52-.63-3.34-1.67-.82-1.04-1.1-2.29-.84-3.74l3.04-17.28c.28-1.58,1.09-2.91,2.43-3.97s2.78-1.55,4.32-1.47l7.4.39c.48.03.77-.2.85-.69l.8-4.55c.09-.53-.1-.8-.59-.83l-11.22-.59ZM98.41,46.31l-16.64-.87c-.48-.02-.77.21-.85.69l-1.39,7.91c-.09.53.1.8.59.83l16.64.87c.22.01.42-.05.6-.2.18-.15.29-.33.33-.55l1.39-7.92c.08-.48-.14-.74-.67-.77Z" style="fill: #fff;"/>
      <path d="M119.55,63.98c-1.15-.02-2.06-.42-2.72-1.21-.66-.79-.94-1.74-.83-2.84.16-1.15.67-2.09,1.53-2.85.86-.75,1.85-1.12,2.96-1.11,1.11.01,2.71.02,4.79.02,2.09,0,3.31,0,3.66.03.53.03.86-.2.98-.68l.15-.86c.08-.48-.16-.76-.72-.84l-7.86-.41c-1.01-.05-1.8-.44-2.36-1.16-.56-.72-.75-1.58-.58-2.59.18-1.01.68-1.84,1.5-2.48.82-.64,1.72-.94,2.69-.89l7.86.41c.53.03.86-.22,1-.75l.08-.46c.03-.17-.04-.36-.2-.54-.17-.19-.34-.28-.51-.29l-2.31-.12-2.31-.12c-1.58-.08-2.84-.71-3.76-1.89-.93-1.18-1.25-2.56-.97-4.14l1.55-8.84c.28-1.58,1.08-2.91,2.4-3.97,1.32-1.06,2.77-1.55,4.36-1.47l4.62.24c.18,0,.38-.06.6-.2.22-.14.36-.35.41-.61l.08-.46c.08-.48-.16-.74-.73-.77l-8.25-.43c-1.01-.05-1.8-.45-2.36-1.19-.56-.74-.75-1.6-.58-2.59.17-.99.67-1.8,1.49-2.42.82-.62,1.71-.91,2.68-.86l8.25.43c.18,0,.38-.08.61-.27.23-.19.37-.37.4-.55l.12-.66c.08-.48-.14-.74-.67-.77-.31-.02-1.32-.01-3.03,0s-2.99.03-3.84.03c-1.06-.01-1.93-.39-2.6-1.14-.67-.74-.94-1.6-.81-2.57.09-1.02.54-1.89,1.36-2.62.82-.73,1.74-1.09,2.76-1.09,7.64,0,16-.27,25.06-.82,1.08-.08,1.98.23,2.71.91s1.06,1.54,1.01,2.58c-.05,1.04-.48,1.97-1.29,2.79-.81.82-1.73,1.25-2.76,1.29-.45.02-1.44.07-2.99.14s-2.77.13-3.66.17c-.5.06-.79.34-.88.82l-.25,1.45c-.09.53.1.83.58.9l6.6.35c1.54.08,2.5.82,2.88,2.21.06.4.34.48.82.24.79-.45,1.65-.65,2.57-.6l1.12.06c.48.03.79-.22.93-.75.69-3.42,1.21-6.15,1.57-8.17.22-1.27.85-2.33,1.89-3.16,1.03-.83,2.18-1.22,3.43-1.15,1.25.07,2.24.56,2.97,1.49.73.93.98,2.03.75,3.3-.04.22-.59,2.96-1.64,8.23-.09.48.14.74.67.77l7.72.4c1.58.08,2.84.71,3.76,1.9.93,1.18,1.25,2.56.97,4.14l-.12.66c-1.22,6.95-2.23,12.53-3.04,16.75-.81,4.22-1.66,7.97-2.54,11.25-.89,3.28-1.63,5.67-2.23,7.17-.6,1.5-1.41,2.71-2.44,3.63-1.03.92-1.96,1.44-2.8,1.55-.84.11-2.05.13-3.64.04-1.1-.06-2.63-.2-4.59-.44-1.35-.16-2.4-.76-3.15-1.79-.75-1.04-1.03-2.24-.83-3.61.17-1.23.79-2.23,1.86-3,1.07-.76,2.21-1.05,3.41-.85.43.07.94.12,1.51.15.66.03,1.24-.38,1.75-1.24.51-.86,1.18-3.05,2.02-6.58.84-3.53,1.89-8.85,3.14-15.98l.79-4.49c.08-.48-.14-.74-.67-.77l-2.84-.15c-.53-.03-.84.25-.94.82-1.98,8.24-4.09,15.05-6.32,20.44-2.23,5.38-4.84,10.09-7.81,14.1-.77,1.11-1.82,1.76-3.14,1.93-1.32.17-2.42-.16-3.29-1l-.05-.07c-.3-.33-.71-.39-1.23-.2-.24.08-.62.14-1.17.21-10.15.4-19.18.57-27.08.51ZM132.39,39.03c.48.02.79-.23.93-.75l.2-1.12c.08-.48-.14-.74-.66-.77l-1.92-.1c-.53-.03-.86.2-.99.68l-.2,1.12c-.04.22.03.41.2.58.17.17.34.25.52.26l1.91.1ZM131.12,30.31l-.19,1.06c-.03.18.04.37.2.58.16.21.33.32.51.33l1.92.1c.48.03.8-.25.94-.82l.19-1.06c.09-.53-.12-.81-.65-.83l-1.92-.1c-.18,0-.38.07-.61.24-.23.17-.36.34-.39.51ZM145.86,23.42l-.08.46c-.09.53.1.83.58.9l4.09.21c1.58.08,2.84.71,3.77,1.89.93,1.18,1.25,2.56.97,4.14l-1.55,8.84c-.28,1.58-1.08,2.91-2.4,3.97-1.32,1.06-2.77,1.55-4.36,1.47l-4.09-.21c-.49-.03-.77.23-.87.75l-.08.46c-.08.48.11.76.59.83l5.61.29c1.01.05,1.8.44,2.36,1.16.56.72.75,1.58.58,2.59-.18,1.01-.67,1.84-1.47,2.49-.8.65-1.71.94-2.72.89l-5.61-.29c-.49-.03-.77.23-.87.75l-.05.26c-.08.48.14.74.67.77,2.94-.02,5.07-.04,6.41-.06.48.03.83.07,1.05.12.51.12.88.02,1.11-.27,4.47-6.47,8.2-15.95,11.19-28.44.08-.44-.13-.67-.61-.7l-.79-.04c-1.01-.05-1.86-.39-2.52-1-.67-.61-1.05-1.41-1.15-2.39,0-.49-.24-.66-.71-.5-.66.23-1.19.34-1.59.32l-6.6-.34c-.48-.03-.77.2-.85.69ZM142.89,37.64l-.2,1.12c-.04.22,0,.41.13.57.13.16.3.25.52.26l1.92.1c.22.01.42-.05.6-.2.18-.15.29-.33.33-.55l.2-1.12c.08-.48-.14-.74-.67-.77l-1.91-.1c-.53-.03-.83.2-.92.68ZM144.06,30.98l-.18,1.06c-.03.18.01.37.13.57.12.21.29.31.51.33l1.92.1c.22.01.42-.08.61-.27.19-.19.3-.37.33-.55l.18-1.06c.03-.17-.02-.35-.14-.54-.12-.18-.29-.28-.51-.29l-1.92-.1c-.22-.01-.42.07-.61.23-.19.17-.29.34-.32.52Z" style="fill: #fff;"/>
      <path d="M202.89,62.87c-.82-.89-1.24-1.95-1.24-3.19-.02-.4,0-.78.07-1.13.15-.83.48-1.62,1.01-2.34,1.49-2.19,2.86-4.67,4.1-7.44.07-.17.08-.32.01-.43-.07-.11-.2-.15-.38-.12-.5.06-1.23.16-2.18.29-.9.08-1.58.16-2.04.23-.46.07-.77.32-.93.75-1.03,3.05-2.41,5.78-4.17,8.17-1.24,1.75-2.65,3.32-4.22,4.7-.93.75-1.9,1.1-2.92,1.04-.18,0-.35-.04-.52-.09-1.21-.2-2.19-.83-2.93-1.88-.61-.83-.82-1.77-.64-2.83.22-1.23.82-2.29,1.82-3.17,1.39-1.35,2.54-2.97,3.46-4.88.07-.13.06-.24,0-.33-.07-.09-.16-.12-.25-.08-.27.03-.54.04-.8.03-.84-.04-1.58-.35-2.24-.92-.81-.71-1.22-1.64-1.24-2.79v-.4c-.04-.27-.03-.56.02-.86.15-.88.58-1.66,1.28-2.33.87-.93,1.94-1.45,3.21-1.56.68-.05,1.33-.11,1.96-.16.46-.06.72-.32.8-.76l.59-3.36c.08-.44-.11-.67-.54-.69l-1.45-.08c-1.19-.06-2.12-.52-2.79-1.38-.67-.86-.9-1.88-.69-3.07l.24-1.38c.14-.79.53-1.45,1.18-1.97.65-.52,1.37-.76,2.16-.72.22.01.35-.09.39-.31.36-2.33.46-4.75.27-7.24-.03-.58.14-1.12.52-1.64.38-.51.87-.82,1.46-.92v-.07s-.05,0-.05,0c-.79-.04-1.43-.35-1.9-.93-.48-.58-.64-1.26-.5-2.06l.24-1.39c.21-1.19.8-2.18,1.79-2.97.98-.79,2.05-1.16,3.19-1.1l.79.04c.4.02.63-.17.7-.56l.45-2.57c.22-1.27.88-2.36,1.97-3.26,1.09-.9,2.29-1.31,3.58-1.24,1.3.07,2.34.6,3.12,1.59.78,1,1.06,2.13.83,3.41l-.46,2.64c-.06.35.08.54.44.56l.59.03c1.19.06,2.13.53,2.82,1.41.69.88.93,1.91.72,3.1l-.6,3.43c-.03.17-.14.35-.32.51-.19.17-.39.25-.61.23h-.07s.07,0,.07,0c.25.06.43.21.52.46.09.25.07.5-.07.76-.42.87-1.02,2.14-1.81,3.83-1.06,2.25-1.83,3.83-2.3,4.74-.13.21-.08.33.14.34.83.04,1.49.37,1.96.97.47.6.64,1.3.5,2.09l-.23,1.32c-.21,1.19-.8,2.17-1.78,2.94-.98.77-2.06,1.12-3.25,1.06l-.99-.05c-.4-.02-.63.19-.71.63l-.37,2.11c-.02.13,0,.26.1.37.09.12.21.16.35.12l.82-.09c.22.01.44.02.66.03.88.05,1.62.35,2.24.92.76.75,1.08,1.7.97,2.85.04.05.06.07.09.07.02,0,.06-.02.11-.06,1.86-5,3.56-11.06,5.12-18.17.02-.13-.03-.2-.16-.21-.53-.03-.95-.24-1.26-.63-.31-.39-.42-.85-.32-1.38l.87-4.95c.09-.53.38-.99.88-1.39.49-.4,1.02-.58,1.59-.55.18,0,.28-.05.3-.18.19-1.05.39-2.22.61-3.5l1.14-6.86c.19-1.05.72-1.94,1.6-2.65.89-.75,1.88-1.1,2.98-1.04s1.97.5,2.6,1.33c.63.83.85,1.77.67,2.83-.68,3.87-1.3,7.14-1.86,9.82-.04.22,0,.39.11.5.11.12.26.18.43.19l2.44.13c1.58.08,2.81.7,3.67,1.86.86,1.15,1.16,2.5.89,4.04-.54,3.08-1.65,8.88-3.32,17.4-.84,4.26-1.57,7.79-2.19,10.6-1.36,5.96-2.53,9.61-3.52,10.93-.81,1.07-1.61,1.82-2.4,2.27-.79.45-1.67.75-2.63.93-.18.03-.37.07-.55.1-.32.03-.65.03-1,.01-1.1-.06-2.06-.53-2.88-1.42-1.05-1.12-1.71-2.55-1.98-4.3,0-.22-.02-.4-.04-.54-.02-.13-.09-.2-.2-.21s-.2.03-.25.12c-.65,1.16-1.33,2.28-2.05,3.35-.62.99-1.49,1.52-2.61,1.59-.23.03-.43.04-.61.03-.88-.05-1.6-.39-2.15-1.04ZM201.84,28.2c-.5-.2-.63-.59-.4-1.15,1.13-2.87,2.08-5.66,2.87-8.37.07-.17.07-.33-.02-.47-.09-.14-.22-.21-.39-.22l-2.58-.13c-.18,0-.32.05-.43.18-.11.13-.16.26-.13.39.26,2.32.27,4.76.05,7.32-.05.53-.27,1.01-.65,1.43-.39.42-.85.69-1.41.79v.07s3.09.16,3.09.16ZM211.77,56.28c-.07.13-.07.27,0,.43.06.16.18.24.36.25.52.07,1.18.13,1.97.17.66.03,1.21-.29,1.64-.98.58-.77,1.34-3.26,2.28-7.47.94-4.21,2.42-11.68,4.43-22.4.05-.26-.05-.4-.29-.42-.24-.01-.41.11-.5.37-2.81,12.72-6.1,22.73-9.87,30.03ZM238.92,66.19c-1.11.9-2.33,1.31-3.65,1.24-1.32-.07-2.37-.6-3.15-1.6-.78-1-1.06-2.15-.82-3.47l1.7-9.69c.08-.44-.11-.67-.54-.69l-1.32-.07c-1.19-.06-2.13-.53-2.82-1.41-.69-.88-.93-1.9-.73-3.07s.8-2.13,1.78-2.9c.98-.77,2.06-1.12,3.25-1.06l1.32.07c.44.02.7-.19.78-.62l.67-3.83c.08-.44-.1-.67-.54-.69l-1.78-.09c-1.19-.06-2.13-.52-2.82-1.38s-.94-1.88-.73-3.07l.28-1.58c.12-.7.5-1.3,1.12-1.8.62-.5,1.3-.73,2.05-.69.18,0,.28-.1.32-.32.32-2.33.39-4.77.22-7.31-.08-.58.07-1.12.45-1.61.38-.49.86-.79,1.46-.89v-.07s-.12,0-.12,0c-.84-.04-1.5-.37-2-.97-.49-.6-.67-1.32-.52-2.16l.22-1.25c.21-1.19.8-2.18,1.79-2.97.98-.79,2.07-1.16,3.26-1.09l1.58.08c.44.02.7-.18.78-.62l.42-2.37c.23-1.32.9-2.43,2.02-3.32,1.11-.9,2.33-1.31,3.65-1.24,1.32.07,2.37.6,3.15,1.59.78,1,1.05,2.15.82,3.47l-.43,2.44c-.07.4.09.6.49.62l.92.05c1.19.06,2.13.53,2.82,1.41.69.88.93,1.91.72,3.1l-.66,3.76c-.05.31-.24.45-.54.44.3.06.38.22.25.48-.68,1.34-1.64,3.29-2.89,5.84-.76,1.56-1.32,2.68-1.66,3.38-.13.26-.05.4.26.41,1.01.05,1.82.46,2.42,1.22.6.76.81,1.63.64,2.6l-.1.59c-.21,1.19-.79,2.17-1.75,2.94-.96.77-2.03,1.12-3.22,1.06l-1.91-.1c-.44-.02-.7.19-.78.62l-.67,3.83c-.08.44.1.67.54.69l1.19.06c1.14.06,2.06.52,2.76,1.38.69.86.94,1.87.73,3.03-.2,1.17-.8,2.14-1.78,2.94s-2.05,1.16-3.19,1.1l-1.19-.06c-.44-.02-.7.19-.78.62l-1.7,9.7c-.23,1.32-.9,2.43-2.01,3.32ZM243.52,30.32v-.07c-.41-.11-.71-.37-.88-.78-.17-.41-.18-.83-.01-1.27,1.65-4.08,2.56-6.61,2.73-7.58.02-.13,0-.24-.07-.34-.11-.14-.25-.21-.43-.22l-3.24-.17c-.13,0-.26.05-.4.18-.13.13-.19.26-.17.39.29,2.37.35,4.72.16,7.06-.06.57-.29,1.09-.71,1.56-.41.47-.92.77-1.53.92v.07s4.54.24,4.54.24Z" style="fill: #fff;"/>
      <path d="M264.66,42.26c.65-1.16,1.59-1.99,2.83-2.48,1.24-.49,2.42-.48,3.53.02,1.19.55,1.98,1.43,2.37,2.65.39,1.22.27,2.46-.35,3.71-2.65,5.23-5.51,9.98-8.57,14.26-.83,1.2-1.97,1.93-3.42,2.18-1.44.26-2.67-.04-3.67-.89-1.06-.77-1.64-1.84-1.73-3.22-.09-1.38.32-2.65,1.23-3.8,2.66-3.77,5.25-7.91,7.78-12.44ZM261.15,28.1c-.88-.8-1.27-1.83-1.16-3.09.11-1.26.64-2.35,1.61-3.28,1.01-.97,2.18-1.48,3.5-1.55,1.32-.06,2.44.35,3.35,1.24,1.85,1.83,3.38,3.37,4.58,4.63.87.89,1.21,2.01,1.04,3.35-.17,1.34-.76,2.5-1.77,3.47-.97.97-2.1,1.45-3.39,1.45s-2.34-.44-3.17-1.33c-.85-.98-2.38-2.61-4.6-4.9ZM266.68,12.95c-.88-.8-1.28-1.83-1.19-3.09s.61-2.33,1.56-3.21c1.01-.97,2.18-1.49,3.51-1.58,1.32-.09,2.45.27,3.38,1.08.34.33,1.49,1.48,3.46,3.44.87.89,1.24,1.99,1.12,3.29-.12,1.3-.67,2.43-1.66,3.37-.99.95-2.12,1.44-3.39,1.49-1.27.04-2.34-.38-3.21-1.27-1.78-1.78-2.97-2.95-3.58-3.52ZM298.92,38.4c-2.22,4.32-4.91,9.22-8.04,14.69-.25.43-.16.66.28.68,4.95-.1,8.65-.19,11.11-.28.18,0,.32-.07.44-.24.12-.17.17-.35.16-.52-.16-.58-.41-1.41-.73-2.47-.33-1.06-.52-1.77-.59-2.13-.35-1.3-.16-2.56.56-3.76.72-1.2,1.79-2.04,3.2-2.5,1.45-.41,2.81-.31,4.08.31,1.27.62,2.08,1.58,2.42,2.89,1.24,4.33,2.55,9.14,3.93,14.45.3,1.3.07,2.58-.71,3.82-.77,1.25-1.84,2.08-3.2,2.5l-.35.11c-1.35.37-2.6.25-3.73-.36-1.14-.62-1.89-1.53-2.25-2.75-.1-.45-.33-.64-.7-.57-10.45.56-20.68.76-30.69.59-1.29.02-2.34-.41-3.14-1.3-.8-.88-1.11-1.97-.93-3.24s.76-2.35,1.73-3.2c.97-.86,2.1-1.3,3.4-1.32.26.01.67.01,1.23,0,.56-.01.97-.02,1.23,0,.44.02.83-.2,1.18-.67,2.67-4.34,5.57-9.47,8.7-15.39.12-.17.13-.34.02-.5-.11-.16-.25-.25-.42-.25l-8.06-.42c-1.28-.07-2.27-.56-2.97-1.49-.7-.92-.95-2.01-.73-3.27.22-1.25.85-2.29,1.88-3.13,1.03-.83,2.17-1.22,3.4-1.15l11.95.62c.53.03.83-.2.92-.68l1.23-6.99c.03-.17-.02-.36-.14-.54-.12-.18-.29-.28-.51-.29l-9.11-.48c-1.23-.06-2.19-.55-2.88-1.45-.68-.9-.92-1.96-.71-3.17.21-1.21.82-2.22,1.83-3.03,1.01-.81,2.11-1.19,3.3-1.12l9.11.48c.53.03.84-.22.93-.75l.09-.53c.26-1.49,1-2.74,2.22-3.74,1.22-1,2.58-1.46,4.07-1.39,1.5.08,2.68.67,3.55,1.78.87,1.11,1.18,2.41.91,3.91l-.09.53c-.08.49.11.76.59.83l10.37.54c1.23.06,2.19.55,2.88,1.45.68.9.92,1.96.71,3.17-.21,1.21-.82,2.22-1.83,3.03-1.01.81-2.11,1.19-3.29,1.13l-10.37-.54c-.48-.03-.77.23-.86.75l-1.23,6.99c-.08.48.12.74.6.76l13.27.7c1.28.07,2.27.56,2.97,1.49s.95,2.01.73,3.27c-.22,1.25-.85,2.3-1.88,3.13-1.04.83-2.17,1.22-3.4,1.15l-16.44-.86c-.57-.03-.97.22-1.2.74Z" style="fill: #fff;"/>
    </g>
  </g>
  <g>
    <g>
      <path d="M1.7,51.12h32.69c.66,0,1.2-.54,1.2-1.2V15.53c0-.66-.54-1.2-1.2-1.2H1.7c-1.07,0-1.6,1.29-.85,2.04l15.5,15.5c.47.47.47,1.22,0,1.69L.85,49.07c-.75.75-.22,2.04.85,2.04Z" style="fill: #ffb8d8;"/>
      <path d="M34.39,51.62H1.7c-.7,0-1.3-.4-1.57-1.05s-.13-1.35.37-1.85l15.5-15.5c.27-.27.27-.71,0-.99L.5,16.73c-.49-.49-.64-1.2-.37-1.85.27-.65.87-1.05,1.57-1.05h32.69c.93,0,1.69.76,1.69,1.7v34.39c0,.93-.76,1.7-1.69,1.7ZM1.7,14.84c-.43,0-.6.33-.64.43-.04.1-.15.45.15.76l15.5,15.5c.66.66.66,1.74,0,2.4L1.21,49.43c-.31.31-.19.66-.15.76.04.1.21.43.64.43h32.69c.38,0,.7-.31.7-.7V15.53c0-.38-.31-.7-.7-.7H1.7Z"/>
    </g>
    <rect x="35.09" y="3.8" width="1" height="57.85"/>
  </g>
  <g>
    <g>
      <path d="M369.4,14.34h-32.69c-.66,0-1.2.54-1.2,1.2v34.39c0,.66.54,1.2,1.2,1.2h32.69c1.07,0,1.6-1.29.85-2.04l-15.5-15.5c-.47-.47-.47-1.22,0-1.69l15.5-15.5c.75-.75.22-2.04-.85-2.04Z" style="fill: #ffb8d8;"/>
      <path d="M369.4,51.62h-32.69c-.93,0-1.69-.76-1.69-1.7V15.53c0-.93.76-1.7,1.69-1.7h32.69c.7,0,1.3.4,1.57,1.05.27.65.13,1.35-.37,1.85l-15.5,15.5c-.27.27-.27.71,0,.99l15.5,15.5c.5.49.64,1.2.37,1.85s-.87,1.05-1.57,1.05ZM336.71,14.84c-.38,0-.7.31-.7.7v34.39c0,.38.31.7.7.7h32.69c.43,0,.6-.33.64-.43.04-.1.15-.45-.15-.76l-15.5-15.5c-.66-.66-.66-1.74,0-2.4l15.5-15.5c.31-.31.19-.66.15-.76-.04-.1-.21-.43-.64-.43h-32.69Z"/>
    </g>
    <rect x="335.02" y="3.8" width="1" height="57.85"/>
  </g>
</svg>