<?xml version="1.0" encoding="UTF-8"?>
<svg id="_圖層_3" data-name="圖層 3" xmlns="http://www.w3.org/2000/svg" viewBox="0 0 388.99 379.14">
  <defs>
    <style>
      .cls-1 {
        fill: #62cbf8;
      }

      .cls-2 {
        fill: #fff;
      }
    </style>
  </defs>
  <g>
    <path class="cls-1" d="M22.5,376.39H2.75V2.75h383.49v9.9c0,200.89-162.85,363.74-363.74,363.74Z"/>
    <path d="M22.5,379.14H0V0h388.99v12.65c0,49.47-9.69,97.47-28.8,142.66-18.46,43.64-44.88,82.84-78.54,116.49-33.66,33.66-72.85,60.08-116.49,78.54-45.18,19.11-93.18,28.8-142.66,28.8ZM5.5,373.64h17c199.05,0,360.99-161.94,360.99-360.99v-7.15H5.5v368.14Z"/>
  </g>
  <g>
    <path d="M141.92,221.8h-57.78l3.3-156.75h53.78c10.51,0,20.11,1.2,28.52,3.55,8.91,2.5,16.09,6.81,21.33,12.81,5.44,6.23,8.08,14.63,7.86,24.98-.11,5.08-1.16,10.11-3.14,14.96-1.97,4.82-4.68,9.14-8.05,12.86-1.13,1.24-2.33,2.38-3.62,3.42,4.67,2.33,8.76,5.48,12.24,9.42,5.9,6.69,8.77,15.67,8.54,26.68-.23,10.85-3.29,20.03-9.09,27.28-5.68,7.11-13.38,12.44-22.87,15.84-9.14,3.28-19.58,4.95-31.02,4.95ZM94.35,211.8h47.57c10.28,0,19.58-1.47,27.64-4.36,7.72-2.77,13.92-7.04,18.44-12.68,4.46-5.57,6.72-12.52,6.9-21.24.18-8.55-1.8-15.04-6.04-19.86-4.4-4.99-9.93-8.2-16.9-9.83l-3.95-.92.17-8.25,3.2-1.18c3.56-1.31,6.49-3.27,8.96-6,2.58-2.85,4.67-6.18,6.2-9.92,1.51-3.7,2.32-7.53,2.4-11.38.17-7.89-1.6-13.84-5.4-18.19-3.94-4.51-9.49-7.79-16.5-9.76-7.53-2.11-16.21-3.18-25.81-3.18h-43.99l-2.88,136.75ZM139.8,199.22h-25.66l1.11-52.78h25.45c11.16,0,19.53,1.83,25.59,5.61,4.65,2.9,10.14,8.71,9.91,19.89-.2,9.33-3.7,16.38-10.42,20.96-6.24,4.25-14.73,6.31-25.98,6.31ZM124.35,189.22h15.44c9.04,0,15.89-1.54,20.35-4.58,3.95-2.69,5.93-6.91,6.05-12.91.15-7.04-2.9-9.76-5.2-11.2-4.36-2.72-11.19-4.09-20.3-4.09h-15.65l-.69,32.78ZM137.96,134.86h-22.46l.99-47.23h22.45c9.98,0,17.36,1.62,22.56,4.95,4.04,2.59,8.81,7.84,8.6,18.18-.15,7.33-3.03,13.3-8.53,17.75-5.3,4.28-13.02,6.36-23.61,6.36ZM125.71,124.86h12.25c8.09,0,13.92-1.39,17.32-4.14,3.2-2.58,4.73-5.82,4.82-10.18.13-6.18-2.22-8.41-3.99-9.55-3.44-2.2-9.38-3.37-17.17-3.37h-12.66l-.57,27.23Z"/>
    <path class="cls-2" d="M89.24,216.8l3.08-146.75h48.88c10.11,0,19.16,1.12,27.17,3.37,8,2.25,14.3,6.01,18.92,11.29,4.61,5.28,6.82,12.48,6.63,21.59-.09,4.49-1.02,8.88-2.77,13.17-1.75,4.29-4.13,8.09-7.12,11.39-3,3.3-6.64,5.74-10.93,7.33l-.02.79c7.94,1.85,14.45,5.64,19.51,11.39,5.07,5.74,7.5,13.5,7.29,23.27-.21,9.77-2.87,17.86-7.99,24.26-5.12,6.4-12.01,11.16-20.65,14.26-8.64,3.1-18.42,4.65-29.33,4.65h-52.67ZM119.25,194.22h20.55c10.11,0,17.83-1.81,23.16-5.45,5.33-3.63,8.08-9.27,8.24-16.93.15-7.13-2.37-12.31-7.55-15.55-5.19-3.23-12.84-4.85-22.94-4.85h-20.55l-.9,42.78ZM120.6,129.86h17.36c9.31,0,16.13-1.75,20.46-5.25,4.33-3.5,6.56-8.15,6.68-13.96.14-6.47-1.96-11.09-6.29-13.86-4.33-2.77-10.96-4.16-19.87-4.16h-17.56l-.78,37.23Z"/>
  </g>
</svg>