<?xml version="1.0" encoding="UTF-8"?>
<svg id="_圖層_3" data-name="圖層 3" xmlns="http://www.w3.org/2000/svg" viewBox="0 0 372.71 66.92">
  <defs>
    <style>
      .cls-1 {
        fill: #fff;
      }

      .cls-2 {
        fill: #bdea00;
      }

      .cls-3 {
        fill: none;
        stroke: #000;
        stroke-miterlimit: 10;
        stroke-width: 3px;
      }
    </style>
  </defs>
  <g>
    <g>
      <path class="cls-3" d="M64.7,38.12c1.19.55,1.98,1.43,2.37,2.65.38,1.22.27,2.46-.35,3.71-2.65,5.23-5.51,9.98-8.57,14.26-.83,1.2-1.97,1.93-3.41,2.18-1.45.26-2.67-.04-3.68-.89-1.06-.77-1.64-1.84-1.73-3.22-.09-1.38.32-2.65,1.23-3.8,2.65-3.72,5.25-7.87,7.78-12.44.65-1.16,1.59-1.99,2.83-2.48,1.24-.49,2.42-.48,3.53.02ZM54.96,26.03c-.88-.8-1.29-1.84-1.22-3.12.07-1.28.58-2.37,1.54-3.25,1.01-.97,2.18-1.48,3.5-1.55,1.32-.06,2.44.33,3.36,1.17,1.83,1.69,3.39,3.2,4.67,4.51.87.89,1.24,2.01,1.11,3.35-.13,1.35-.7,2.5-1.71,3.47-.97.97-2.1,1.47-3.39,1.49-1.29.02-2.33-.39-3.12-1.23-2.1-2.2-3.69-3.81-4.75-4.84ZM71.07,7.9c.87.89,1.25,1.99,1.15,3.29-.1,1.3-.67,2.44-1.73,3.4-.97.97-2.09,1.47-3.36,1.49-1.27.02-2.34-.41-3.2-1.3-1.78-1.78-2.97-2.95-3.58-3.52-.88-.8-1.28-1.83-1.19-3.09.09-1.26.61-2.33,1.56-3.21,1.01-.97,2.18-1.49,3.51-1.58,1.32-.09,2.45.27,3.38,1.08.33.37,1.49,1.52,3.46,3.44ZM75.18,29.28c-1.23-.06-2.2-.55-2.91-1.45-.71-.9-.96-1.96-.74-3.17.21-1.21.82-2.22,1.83-3.03,1.01-.81,2.13-1.19,3.36-1.12l11.22.59c.48.03.77-.2.85-.69l.64-3.63c.08-.48-.11-.74-.6-.76-1.83.04-4.66,0-8.51-.11-1.24-.02-2.22-.48-2.96-1.39s-1.03-1.95-.91-3.14c.12-1.19.67-2.22,1.64-3.08.97-.86,2.06-1.28,3.25-1.26,10.96.31,20.87-.35,29.73-1.97,1.29-.24,2.43-.04,3.42.61s1.56,1.6,1.7,2.85c.14,1.25-.19,2.42-.98,3.51-.79,1.09-1.83,1.76-3.12,2-2.8.52-6.32.98-10.57,1.38-.46.07-.73.34-.81.82l-.83,4.75c-.09.48.11.74.6.76l11.75.62c1.23.06,2.19.55,2.88,1.45.69.9.92,1.96.71,3.17-.21,1.21-.82,2.22-1.83,3.03s-2.11,1.19-3.3,1.12l-11.75-.62c-.48-.03-.77.23-.87.75l-.8,4.55c-.08.48.11.74.6.76l7.46.39c1.58.08,2.84.71,3.76,1.9.93,1.18,1.25,2.56.97,4.14l-3.01,17.15c-.25,1.45-.99,2.67-2.21,3.65-1.22.98-2.55,1.43-4,1.35l-2.64-.14c-.7-.04-1.27-.31-1.69-.82-.42-.51-.57-1.14-.44-1.89.04-.22-.05-.33-.27-.35l-17.5-.92c-.22-.01-.35.09-.39.31-.12.7-.49,1.29-1.11,1.77-.62.48-1.28.7-1.98.66l-2.51-.13c-1.41-.07-2.52-.63-3.34-1.67-.82-1.04-1.1-2.29-.84-3.74l3.04-17.28c.28-1.58,1.09-2.91,2.43-3.97s2.78-1.55,4.32-1.47l7.4.39c.48.03.77-.2.85-.69l.8-4.55c.09-.53-.1-.8-.59-.83l-11.22-.59ZM98.41,44.61l-16.64-.87c-.48-.02-.77.21-.85.69l-1.39,7.91c-.09.53.1.8.59.83l16.64.87c.22.01.42-.05.6-.2.18-.15.29-.33.33-.55l1.39-7.92c.08-.48-.14-.74-.67-.77Z"/>
      <path class="cls-3" d="M119.55,62.28c-1.15-.02-2.06-.42-2.72-1.21-.66-.79-.94-1.74-.83-2.84.16-1.15.67-2.09,1.53-2.85.86-.75,1.85-1.12,2.96-1.11,1.11.01,2.71.02,4.79.02,2.09,0,3.31,0,3.66.03.53.03.86-.2.98-.68l.15-.86c.08-.48-.16-.76-.72-.84l-7.86-.41c-1.01-.05-1.8-.44-2.36-1.16-.56-.72-.75-1.58-.58-2.59.18-1.01.68-1.84,1.5-2.48.82-.64,1.72-.94,2.69-.89l7.86.41c.53.03.86-.22,1-.75l.08-.46c.03-.17-.04-.36-.2-.54-.17-.19-.34-.28-.51-.29l-2.31-.12-2.31-.12c-1.58-.08-2.84-.71-3.76-1.89-.93-1.18-1.25-2.56-.97-4.14l1.55-8.84c.28-1.58,1.08-2.91,2.4-3.97,1.32-1.06,2.77-1.55,4.36-1.47l4.62.24c.18,0,.38-.06.6-.2.22-.14.36-.35.41-.61l.08-.46c.08-.48-.16-.74-.73-.77l-8.25-.43c-1.01-.05-1.8-.45-2.36-1.19-.56-.74-.75-1.6-.58-2.59.17-.99.67-1.8,1.49-2.42.82-.62,1.71-.91,2.68-.86l8.25.43c.18,0,.38-.08.61-.27.23-.19.37-.37.4-.55l.12-.66c.08-.48-.14-.74-.67-.77-.31-.02-1.32-.01-3.03,0s-2.99.03-3.84.03c-1.06-.01-1.93-.39-2.6-1.14-.67-.74-.94-1.6-.81-2.57.09-1.02.54-1.89,1.36-2.62.82-.73,1.74-1.09,2.76-1.09,7.64,0,16-.27,25.06-.82,1.08-.08,1.98.23,2.71.91s1.06,1.54,1.01,2.58c-.05,1.04-.48,1.97-1.29,2.79-.81.82-1.73,1.25-2.76,1.29-.45.02-1.44.07-2.99.14s-2.77.13-3.66.17c-.5.06-.79.34-.88.82l-.25,1.45c-.09.53.1.83.58.9l6.6.35c1.54.08,2.5.82,2.88,2.21.06.4.34.48.82.24.79-.45,1.65-.65,2.57-.6l1.12.06c.48.03.79-.22.93-.75.69-3.42,1.21-6.15,1.57-8.17.22-1.27.85-2.33,1.89-3.16,1.03-.83,2.18-1.22,3.43-1.15,1.25.07,2.24.56,2.97,1.49.73.93.98,2.03.75,3.3-.04.22-.59,2.96-1.64,8.23-.09.48.14.74.67.77l7.72.4c1.58.08,2.84.71,3.76,1.9.93,1.18,1.25,2.56.97,4.14l-.12.66c-1.22,6.95-2.23,12.53-3.04,16.75-.81,4.22-1.66,7.97-2.54,11.25-.89,3.28-1.63,5.67-2.23,7.17-.6,1.5-1.41,2.71-2.44,3.63-1.03.92-1.96,1.44-2.8,1.55-.84.11-2.05.13-3.64.04-1.1-.06-2.63-.2-4.59-.44-1.35-.16-2.4-.76-3.15-1.79-.75-1.04-1.03-2.24-.83-3.61.17-1.23.79-2.23,1.86-3,1.07-.76,2.21-1.05,3.41-.85.43.07.94.12,1.51.15.66.03,1.24-.38,1.75-1.24.51-.86,1.18-3.05,2.02-6.58.84-3.53,1.89-8.85,3.14-15.98l.79-4.49c.08-.48-.14-.74-.67-.77l-2.84-.15c-.53-.03-.84.25-.94.82-1.98,8.24-4.09,15.05-6.32,20.44-2.23,5.38-4.84,10.09-7.81,14.1-.77,1.11-1.82,1.76-3.14,1.93-1.32.17-2.42-.16-3.29-1l-.05-.07c-.3-.33-.71-.39-1.23-.2-.24.08-.62.14-1.17.21-10.15.4-19.18.57-27.08.51ZM132.39,37.32c.48.02.79-.23.93-.75l.2-1.12c.08-.48-.14-.74-.66-.77l-1.92-.1c-.53-.03-.86.2-.99.68l-.2,1.12c-.04.22.03.41.2.58.17.17.34.25.52.26l1.91.1ZM131.12,28.6l-.19,1.06c-.03.18.04.37.2.58.16.21.33.32.51.33l1.92.1c.48.03.8-.25.94-.82l.19-1.06c.09-.53-.12-.81-.65-.83l-1.92-.1c-.18,0-.38.07-.61.24-.23.17-.36.34-.39.51ZM145.86,21.72l-.08.46c-.09.53.1.83.58.9l4.09.21c1.58.08,2.84.71,3.77,1.89.93,1.18,1.25,2.56.97,4.14l-1.55,8.84c-.28,1.58-1.08,2.91-2.4,3.97-1.32,1.06-2.77,1.55-4.36,1.47l-4.09-.21c-.49-.03-.77.23-.87.75l-.08.46c-.08.48.11.76.59.83l5.61.29c1.01.05,1.8.44,2.36,1.16.56.72.75,1.58.58,2.59-.18,1.01-.67,1.84-1.47,2.49-.8.65-1.71.94-2.72.89l-5.61-.29c-.49-.03-.77.23-.87.75l-.05.26c-.08.48.14.74.67.77,2.94-.02,5.07-.04,6.41-.06.48.03.83.07,1.05.12.51.12.88.02,1.11-.27,4.47-6.47,8.2-15.95,11.19-28.44.08-.44-.13-.67-.61-.7l-.79-.04c-1.01-.05-1.86-.39-2.52-1-.67-.61-1.05-1.41-1.15-2.39,0-.49-.24-.66-.71-.5-.66.23-1.19.34-1.59.32l-6.6-.34c-.48-.03-.77.2-.85.69ZM142.89,35.94l-.2,1.12c-.04.22,0,.41.13.57.13.16.3.25.52.26l1.92.1c.22.01.42-.05.6-.2.18-.15.29-.33.33-.55l.2-1.12c.08-.48-.14-.74-.67-.77l-1.91-.1c-.53-.03-.83.2-.92.68ZM144.06,29.28l-.18,1.06c-.03.18.01.37.13.57.12.21.29.31.51.33l1.92.1c.22.01.42-.08.61-.27.19-.19.3-.37.33-.55l.18-1.06c.03-.17-.02-.35-.14-.54-.12-.18-.29-.28-.51-.29l-1.92-.1c-.22-.01-.42.07-.61.23-.19.17-.29.34-.32.52Z"/>
      <path class="cls-3" d="M208.2,61.25c-.14-.23-.34-.35-.6-.36l-12.02-.63c-.18,0-.28.08-.31.25-.1.57-.4,1.05-.89,1.45-.49.4-1.05.58-1.66.55l-2.18-.11c-1.23-.06-2.2-.55-2.91-1.45-.71-.9-.96-1.95-.75-3.13l2.4-13.65c.28-1.58,1.08-2.89,2.39-3.94,1.31-1.04,2.77-1.52,4.35-1.44l9.97.52c1.58.08,2.84.71,3.77,1.86.93,1.16,1.26,2.53.98,4.11l-1.56,8.9c-.02.13.02.25.14.34.12.1.25.1.4.02,2.81-1.36,4.89-3.06,6.23-5.1,1.33-2.04,2.42-4.68,3.26-7.92.08-.22,0-.33-.27-.35-.84-.04-1.5-.39-1.98-1.04-.49-.65-.66-1.39-.51-2.22l1.93-11.01c.08-.44-.04-.8-.34-1.08-.88-.8-1.89-1.65-3.02-2.55-.07-.09-.18-.11-.32-.05-.14.06-.23.15-.25.29-.26,1.5-1,2.73-2.22,3.71-1.22.98-2.57,1.43-4.07,1.35l-11.82-.62c-1.1-.06-1.97-.49-2.6-1.3-.63-.81-.86-1.75-.67-2.83.19-1.08.74-1.98,1.64-2.71.91-.73,1.91-1.06,3.01-1.01l15.38.81c.44.02.84-.13,1.21-.47.1-.08.2-.18.28-.28.08-.11.12-.23.1-.36-.02-.13-.1-.2-.23-.21l-19.54-1.02c-1.14-.06-2.04-.51-2.7-1.34s-.88-1.81-.68-2.93c.2-1.12.76-2.06,1.69-2.81.93-.75,1.97-1.09,3.11-1.04l18.22.95c1.14.06,2.05.52,2.72,1.37.67.86.9,1.88.7,3.07,0,.04.02.08.08.1.06.03.1.02.11-.03.59-.81,1.16-1.65,1.71-2.51.85-1.29,1.95-2.25,3.31-2.89.92-.44,1.82-.64,2.7-.59.44.02.87.11,1.29.27.12.05.26.03.41-.08.15-.1.24-.22.26-.35l.24-1.39c.28-1.58,1.06-2.9,2.36-3.94,1.29-1.04,2.73-1.52,4.32-1.44l8.06.42c1.67.09,3.12.65,4.33,1.69,1.22,1.04,2.04,2.37,2.46,3.99.81,2.97,1.91,5.69,3.3,8.16.54.96.71,2.01.51,3.16-.05.26-.12.53-.21.79-.48,1.44-1.36,2.55-2.65,3.32-.1.08-.2.15-.3.18-.4.25-.64.61-.73,1.09l-2,11.41c-.26,1.5-1.01,2.74-2.26,3.74-1.24,1-2.61,1.46-4.11,1.38-.44-.02-.69.16-.76.56l-1.99,11.34c-.18,1.01-.24,1.63-.19,1.85.03.09.15.14.37.15l1.32.07c.26.01.53-.35.79-1.09.19-.57.43-1.44.73-2.62.23-1.05.84-1.77,1.85-2.17.53-.24,1.04-.34,1.52-.32.44.02.89.14,1.34.34,1.21.68,2.11,1.62,2.71,2.8.45.96.59,1.94.42,2.95-.05.26-.12.55-.22.85-.9,2.62-1.92,4.58-3.03,5.9-1.6,1.78-3.83,2.59-6.69,2.45l-4.03-.21c-3.39-.18-5.55-1.13-6.49-2.87-.79-1.55-.83-4.39-.1-8.52l1.99-11.34c.08-.44-.11-.67-.54-.69h-.07c-.44-.03-.72.18-.84.62-1.52,5.6-3.43,9.94-5.75,13.01-1.51,2.01-3.35,3.75-5.52,5.24-1.46.99-3.08,1.88-4.87,2.67-.62.23-1.19.34-1.72.31-.44-.02-.85-.11-1.22-.26-.9-.45-1.55-1.15-1.96-2.1ZM194.72,37.11c-1.1-.06-1.97-.49-2.6-1.3-.64-.81-.86-1.75-.67-2.83.19-1.08.74-1.98,1.64-2.71.9-.73,1.91-1.07,3.01-1.01l13.27.69c1.06.06,1.9.49,2.54,1.3.63.81.86,1.75.67,2.83-.19,1.08-.74,1.98-1.64,2.71-.91.73-1.89,1.07-2.94,1.01l-13.27-.7ZM199.8,9.29c-1.1-.06-1.97-.49-2.6-1.3-.64-.81-.86-1.75-.67-2.83.19-1.08.73-1.97,1.64-2.68.9-.71,1.9-1.03,3-.97l12.94.68c1.06.05,1.9.48,2.54,1.26.64.79.86,1.72.68,2.8-.19,1.08-.74,1.98-1.64,2.71-.91.73-1.89,1.07-2.94,1.01l-12.94-.68ZM199.92,52.23c.44.02.7-.18.78-.62l.65-3.69c.08-.44-.11-.67-.54-.69l-2.57-.13c-.4-.02-.63.19-.71.63l-.65,3.69c-.08.44.08.67.48.69l2.57.13ZM237.45,33.16c.44.02.7-.19.78-.63l.53-3.03c.08-.44-.1-.67-.54-.69l-9.97-.52c-.4-.02-.63.19-.71.63l-.53,3.03c-.08.44.08.67.48.69l9.97.52ZM241.5,19.99c.13,0,.25-.05.37-.18.05-.04.08-.09.09-.16.01-.07,0-.12-.04-.17-.79-2.08-1.43-4.13-1.92-6.16-.11-.41-.38-.62-.82-.64l-6.8-.36c-.44-.02-.76.16-.96.55-1.22,2.11-2.47,4.06-3.76,5.86-.11.13-.13.25-.06.36.07.12.17.17.3.18l13.6.71Z"/>
      <path class="cls-3" d="M261.71,52.45c-1.37-.07-2.44-.6-3.22-1.6-.78-1-1.05-2.17-.81-3.54l6.69-38.12c.28-1.58,1.09-2.91,2.43-3.97,1.34-1.06,2.8-1.55,4.39-1.47l13.93.73c1.58.08,2.84.71,3.77,1.89.92,1.18,1.25,2.56.97,4.15l-5.91,33.64c-.28,1.58-1.09,2.91-2.43,3.97-1.34,1.06-2.78,1.55-4.32,1.47l-9.57-.5c-.26-.01-.42.11-.46.38-.16.88-.61,1.62-1.36,2.23-.75.6-1.54.88-2.38.84l-1.72-.09ZM270.31,31.54l-1.4,7.98c-.09.53.1.8.59.83l5.21.27c.18,0,.37-.07.58-.24.21-.17.33-.34.36-.51l1.4-7.98c.08-.48-.14-.74-.67-.77l-5.22-.27c-.48-.02-.77.21-.85.69ZM273.43,13.8l-1.31,7.45c-.08.48.11.76.59.83l5.21.27c.53.03.84-.22.93-.75l1.31-7.45c.08-.48-.13-.76-.65-.83l-5.22-.27c-.49.02-.78.27-.87.75ZM302.35,55.91c1.1.06,1.78-.04,2.05-.29.27-.25.52-1.04.75-2.36l1.29-7.32c.03-.17-.04-.36-.2-.54-.17-.19-.34-.28-.52-.29l-9.38-.49c-.53-.03-.88.22-1.06.74-2.41,6.13-6.01,11.33-10.8,15.61-1.15,1-2.44,1.48-3.85,1.43-1.41-.05-2.56-.59-3.45-1.61-.86-.93-1.16-2.1-.92-3.51.25-1.41.9-2.57,1.95-3.49,3.13-2.9,5.53-6.2,7.2-9.91,1.67-3.71,3.13-9.08,4.36-16.11l3.14-17.87c.28-1.58,1.08-2.91,2.4-3.97,1.32-1.06,2.77-1.55,4.36-1.47l18.55.97c1.58.08,2.84.71,3.76,1.89.93,1.18,1.25,2.56.97,4.14l-7.37,41.95c-.43,2.46-.82,4.35-1.16,5.66-.34,1.31-.71,2.47-1.11,3.47-.4,1-.96,1.66-1.68,1.98-.72.32-1.49.53-2.31.64-.82.11-1.98.13-3.47.05-.57-.03-2.57-.18-5.99-.45-1.27-.11-2.28-.64-3.02-1.59-.74-.95-1.05-2.06-.91-3.34.12-1.19.69-2.2,1.69-3.01,1.01-.81,2.08-1.17,3.22-1.06.26.01.56.04.89.08.33.04.53.06.62.07ZM307.12,37.06c.53.03.86-.2.99-.68l1.1-6.27c.04-.22-.03-.41-.2-.58-.17-.16-.35-.25-.52-.26l-8.45-.44c-.48-.03-.77.23-.87.75l-.64,3.63c-.05.31-.14.75-.26,1.32-.12.57-.21.99-.25,1.25-.09.53.1.8.59.83l8.52.45ZM301.88,14.16l-1.02,5.8c-.08.48.11.76.59.83l8.45.44c.53.03.86-.22,1-.75l1.02-5.8c.09-.48-.16-.74-.73-.77l-8.45-.44c-.48-.03-.77.2-.85.69Z"/>
    </g>
    <g>
      <path class="cls-1" d="M64.7,38.12c1.19.55,1.98,1.43,2.37,2.65.38,1.22.27,2.46-.35,3.71-2.65,5.23-5.51,9.98-8.57,14.26-.83,1.2-1.97,1.93-3.41,2.18-1.45.26-2.67-.04-3.68-.89-1.06-.77-1.64-1.84-1.73-3.22-.09-1.38.32-2.65,1.23-3.8,2.65-3.72,5.25-7.87,7.78-12.44.65-1.16,1.59-1.99,2.83-2.48,1.24-.49,2.42-.48,3.53.02ZM54.96,26.03c-.88-.8-1.29-1.84-1.22-3.12.07-1.28.58-2.37,1.54-3.25,1.01-.97,2.18-1.48,3.5-1.55,1.32-.06,2.44.33,3.36,1.17,1.83,1.69,3.39,3.2,4.67,4.51.87.89,1.24,2.01,1.11,3.35-.13,1.35-.7,2.5-1.71,3.47-.97.97-2.1,1.47-3.39,1.49-1.29.02-2.33-.39-3.12-1.23-2.1-2.2-3.69-3.81-4.75-4.84ZM71.07,7.9c.87.89,1.25,1.99,1.15,3.29-.1,1.3-.67,2.44-1.73,3.4-.97.97-2.09,1.47-3.36,1.49-1.27.02-2.34-.41-3.2-1.3-1.78-1.78-2.97-2.95-3.58-3.52-.88-.8-1.28-1.83-1.19-3.09.09-1.26.61-2.33,1.56-3.21,1.01-.97,2.18-1.49,3.51-1.58,1.32-.09,2.45.27,3.38,1.08.33.37,1.49,1.52,3.46,3.44ZM75.18,29.28c-1.23-.06-2.2-.55-2.91-1.45-.71-.9-.96-1.96-.74-3.17.21-1.21.82-2.22,1.83-3.03,1.01-.81,2.13-1.19,3.36-1.12l11.22.59c.48.03.77-.2.85-.69l.64-3.63c.08-.48-.11-.74-.6-.76-1.83.04-4.66,0-8.51-.11-1.24-.02-2.22-.48-2.96-1.39s-1.03-1.95-.91-3.14c.12-1.19.67-2.22,1.64-3.08.97-.86,2.06-1.28,3.25-1.26,10.96.31,20.87-.35,29.73-1.97,1.29-.24,2.43-.04,3.42.61s1.56,1.6,1.7,2.85c.14,1.25-.19,2.42-.98,3.51-.79,1.09-1.83,1.76-3.12,2-2.8.52-6.32.98-10.57,1.38-.46.07-.73.34-.81.82l-.83,4.75c-.09.48.11.74.6.76l11.75.62c1.23.06,2.19.55,2.88,1.45.69.9.92,1.96.71,3.17-.21,1.21-.82,2.22-1.83,3.03s-2.11,1.19-3.3,1.12l-11.75-.62c-.48-.03-.77.23-.87.75l-.8,4.55c-.08.48.11.74.6.76l7.46.39c1.58.08,2.84.71,3.76,1.9.93,1.18,1.25,2.56.97,4.14l-3.01,17.15c-.25,1.45-.99,2.67-2.21,3.65-1.22.98-2.55,1.43-4,1.35l-2.64-.14c-.7-.04-1.27-.31-1.69-.82-.42-.51-.57-1.14-.44-1.89.04-.22-.05-.33-.27-.35l-17.5-.92c-.22-.01-.35.09-.39.31-.12.7-.49,1.29-1.11,1.77-.62.48-1.28.7-1.98.66l-2.51-.13c-1.41-.07-2.52-.63-3.34-1.67-.82-1.04-1.1-2.29-.84-3.74l3.04-17.28c.28-1.58,1.09-2.91,2.43-3.97s2.78-1.55,4.32-1.47l7.4.39c.48.03.77-.2.85-.69l.8-4.55c.09-.53-.1-.8-.59-.83l-11.22-.59ZM98.41,44.61l-16.64-.87c-.48-.02-.77.21-.85.69l-1.39,7.91c-.09.53.1.8.59.83l16.64.87c.22.01.42-.05.6-.2.18-.15.29-.33.33-.55l1.39-7.92c.08-.48-.14-.74-.67-.77Z"/>
      <path class="cls-1" d="M119.55,62.28c-1.15-.02-2.06-.42-2.72-1.21-.66-.79-.94-1.74-.83-2.84.16-1.15.67-2.09,1.53-2.85.86-.75,1.85-1.12,2.96-1.11,1.11.01,2.71.02,4.79.02,2.09,0,3.31,0,3.66.03.53.03.86-.2.98-.68l.15-.86c.08-.48-.16-.76-.72-.84l-7.86-.41c-1.01-.05-1.8-.44-2.36-1.16-.56-.72-.75-1.58-.58-2.59.18-1.01.68-1.84,1.5-2.48.82-.64,1.72-.94,2.69-.89l7.86.41c.53.03.86-.22,1-.75l.08-.46c.03-.17-.04-.36-.2-.54-.17-.19-.34-.28-.51-.29l-2.31-.12-2.31-.12c-1.58-.08-2.84-.71-3.76-1.89-.93-1.18-1.25-2.56-.97-4.14l1.55-8.84c.28-1.58,1.08-2.91,2.4-3.97,1.32-1.06,2.77-1.55,4.36-1.47l4.62.24c.18,0,.38-.06.6-.2.22-.14.36-.35.41-.61l.08-.46c.08-.48-.16-.74-.73-.77l-8.25-.43c-1.01-.05-1.8-.45-2.36-1.19-.56-.74-.75-1.6-.58-2.59.17-.99.67-1.8,1.49-2.42.82-.62,1.71-.91,2.68-.86l8.25.43c.18,0,.38-.08.61-.27.23-.19.37-.37.4-.55l.12-.66c.08-.48-.14-.74-.67-.77-.31-.02-1.32-.01-3.03,0s-2.99.03-3.84.03c-1.06-.01-1.93-.39-2.6-1.14-.67-.74-.94-1.6-.81-2.57.09-1.02.54-1.89,1.36-2.62.82-.73,1.74-1.09,2.76-1.09,7.64,0,16-.27,25.06-.82,1.08-.08,1.98.23,2.71.91s1.06,1.54,1.01,2.58c-.05,1.04-.48,1.97-1.29,2.79-.81.82-1.73,1.25-2.76,1.29-.45.02-1.44.07-2.99.14s-2.77.13-3.66.17c-.5.06-.79.34-.88.82l-.25,1.45c-.09.53.1.83.58.9l6.6.35c1.54.08,2.5.82,2.88,2.21.06.4.34.48.82.24.79-.45,1.65-.65,2.57-.6l1.12.06c.48.03.79-.22.93-.75.69-3.42,1.21-6.15,1.57-8.17.22-1.27.85-2.33,1.89-3.16,1.03-.83,2.18-1.22,3.43-1.15,1.25.07,2.24.56,2.97,1.49.73.93.98,2.03.75,3.3-.04.22-.59,2.96-1.64,8.23-.09.48.14.74.67.77l7.72.4c1.58.08,2.84.71,3.76,1.9.93,1.18,1.25,2.56.97,4.14l-.12.66c-1.22,6.95-2.23,12.53-3.04,16.75-.81,4.22-1.66,7.97-2.54,11.25-.89,3.28-1.63,5.67-2.23,7.17-.6,1.5-1.41,2.71-2.44,3.63-1.03.92-1.96,1.44-2.8,1.55-.84.11-2.05.13-3.64.04-1.1-.06-2.63-.2-4.59-.44-1.35-.16-2.4-.76-3.15-1.79-.75-1.04-1.03-2.24-.83-3.61.17-1.23.79-2.23,1.86-3,1.07-.76,2.21-1.05,3.41-.85.43.07.94.12,1.51.15.66.03,1.24-.38,1.75-1.24.51-.86,1.18-3.05,2.02-6.58.84-3.53,1.89-8.85,3.14-15.98l.79-4.49c.08-.48-.14-.74-.67-.77l-2.84-.15c-.53-.03-.84.25-.94.82-1.98,8.24-4.09,15.05-6.32,20.44-2.23,5.38-4.84,10.09-7.81,14.1-.77,1.11-1.82,1.76-3.14,1.93-1.32.17-2.42-.16-3.29-1l-.05-.07c-.3-.33-.71-.39-1.23-.2-.24.08-.62.14-1.17.21-10.15.4-19.18.57-27.08.51ZM132.39,37.32c.48.02.79-.23.93-.75l.2-1.12c.08-.48-.14-.74-.66-.77l-1.92-.1c-.53-.03-.86.2-.99.68l-.2,1.12c-.04.22.03.41.2.58.17.17.34.25.52.26l1.91.1ZM131.12,28.6l-.19,1.06c-.03.18.04.37.2.58.16.21.33.32.51.33l1.92.1c.48.03.8-.25.94-.82l.19-1.06c.09-.53-.12-.81-.65-.83l-1.92-.1c-.18,0-.38.07-.61.24-.23.17-.36.34-.39.51ZM145.86,21.72l-.08.46c-.09.53.1.83.58.9l4.09.21c1.58.08,2.84.71,3.77,1.89.93,1.18,1.25,2.56.97,4.14l-1.55,8.84c-.28,1.58-1.08,2.91-2.4,3.97-1.32,1.06-2.77,1.55-4.36,1.47l-4.09-.21c-.49-.03-.77.23-.87.75l-.08.46c-.08.48.11.76.59.83l5.61.29c1.01.05,1.8.44,2.36,1.16.56.72.75,1.58.58,2.59-.18,1.01-.67,1.84-1.47,2.49-.8.65-1.71.94-2.72.89l-5.61-.29c-.49-.03-.77.23-.87.75l-.05.26c-.08.48.14.74.67.77,2.94-.02,5.07-.04,6.41-.06.48.03.83.07,1.05.12.51.12.88.02,1.11-.27,4.47-6.47,8.2-15.95,11.19-28.44.08-.44-.13-.67-.61-.7l-.79-.04c-1.01-.05-1.86-.39-2.52-1-.67-.61-1.05-1.41-1.15-2.39,0-.49-.24-.66-.71-.5-.66.23-1.19.34-1.59.32l-6.6-.34c-.48-.03-.77.2-.85.69ZM142.89,35.94l-.2,1.12c-.04.22,0,.41.13.57.13.16.3.25.52.26l1.92.1c.22.01.42-.05.6-.2.18-.15.29-.33.33-.55l.2-1.12c.08-.48-.14-.74-.67-.77l-1.91-.1c-.53-.03-.83.2-.92.68ZM144.06,29.28l-.18,1.06c-.03.18.01.37.13.57.12.21.29.31.51.33l1.92.1c.22.01.42-.08.61-.27.19-.19.3-.37.33-.55l.18-1.06c.03-.17-.02-.35-.14-.54-.12-.18-.29-.28-.51-.29l-1.92-.1c-.22-.01-.42.07-.61.23-.19.17-.29.34-.32.52Z"/>
      <path class="cls-1" d="M208.2,61.25c-.14-.23-.34-.35-.6-.36l-12.02-.63c-.18,0-.28.08-.31.25-.1.57-.4,1.05-.89,1.45-.49.4-1.05.58-1.66.55l-2.18-.11c-1.23-.06-2.2-.55-2.91-1.45-.71-.9-.96-1.95-.75-3.13l2.4-13.65c.28-1.58,1.08-2.89,2.39-3.94,1.31-1.04,2.77-1.52,4.35-1.44l9.97.52c1.58.08,2.84.71,3.77,1.86.93,1.16,1.26,2.53.98,4.11l-1.56,8.9c-.02.13.02.25.14.34.12.1.25.1.4.02,2.81-1.36,4.89-3.06,6.23-5.1,1.33-2.04,2.42-4.68,3.26-7.92.08-.22,0-.33-.27-.35-.84-.04-1.5-.39-1.98-1.04-.49-.65-.66-1.39-.51-2.22l1.93-11.01c.08-.44-.04-.8-.34-1.08-.88-.8-1.89-1.65-3.02-2.55-.07-.09-.18-.11-.32-.05-.14.06-.23.15-.25.29-.26,1.5-1,2.73-2.22,3.71-1.22.98-2.57,1.43-4.07,1.35l-11.82-.62c-1.1-.06-1.97-.49-2.6-1.3-.63-.81-.86-1.75-.67-2.83.19-1.08.74-1.98,1.64-2.71.91-.73,1.91-1.06,3.01-1.01l15.38.81c.44.02.84-.13,1.21-.47.1-.08.2-.18.28-.28.08-.11.12-.23.1-.36-.02-.13-.1-.2-.23-.21l-19.54-1.02c-1.14-.06-2.04-.51-2.7-1.34s-.88-1.81-.68-2.93c.2-1.12.76-2.06,1.69-2.81.93-.75,1.97-1.09,3.11-1.04l18.22.95c1.14.06,2.05.52,2.72,1.37.67.86.9,1.88.7,3.07,0,.04.02.08.08.1.06.03.1.02.11-.03.59-.81,1.16-1.65,1.71-2.51.85-1.29,1.95-2.25,3.31-2.89.92-.44,1.82-.64,2.7-.59.44.02.87.11,1.29.27.12.05.26.03.41-.08.15-.1.24-.22.26-.35l.24-1.39c.28-1.58,1.06-2.9,2.36-3.94,1.29-1.04,2.73-1.52,4.32-1.44l8.06.42c1.67.09,3.12.65,4.33,1.69,1.22,1.04,2.04,2.37,2.46,3.99.81,2.97,1.91,5.69,3.3,8.16.54.96.71,2.01.51,3.16-.05.26-.12.53-.21.79-.48,1.44-1.36,2.55-2.65,3.32-.1.08-.2.15-.3.18-.4.25-.64.61-.73,1.09l-2,11.41c-.26,1.5-1.01,2.74-2.26,3.74-1.24,1-2.61,1.46-4.11,1.38-.44-.02-.69.16-.76.56l-1.99,11.34c-.18,1.01-.24,1.63-.19,1.85.03.09.15.14.37.15l1.32.07c.26.01.53-.35.79-1.09.19-.57.43-1.44.73-2.62.23-1.05.84-1.77,1.85-2.17.53-.24,1.04-.34,1.52-.32.44.02.89.14,1.34.34,1.21.68,2.11,1.62,2.71,2.8.45.96.59,1.94.42,2.95-.05.26-.12.55-.22.85-.9,2.62-1.92,4.58-3.03,5.9-1.6,1.78-3.83,2.59-6.69,2.45l-4.03-.21c-3.39-.18-5.55-1.13-6.49-2.87-.79-1.55-.83-4.39-.1-8.52l1.99-11.34c.08-.44-.11-.67-.54-.69h-.07c-.44-.03-.72.18-.84.62-1.52,5.6-3.43,9.94-5.75,13.01-1.51,2.01-3.35,3.75-5.52,5.24-1.46.99-3.08,1.88-4.87,2.67-.62.23-1.19.34-1.72.31-.44-.02-.85-.11-1.22-.26-.9-.45-1.55-1.15-1.96-2.1ZM194.72,37.11c-1.1-.06-1.97-.49-2.6-1.3-.64-.81-.86-1.75-.67-2.83.19-1.08.74-1.98,1.64-2.71.9-.73,1.91-1.07,3.01-1.01l13.27.69c1.06.06,1.9.49,2.54,1.3.63.81.86,1.75.67,2.83-.19,1.08-.74,1.98-1.64,2.71-.91.73-1.89,1.07-2.94,1.01l-13.27-.7ZM199.8,9.29c-1.1-.06-1.97-.49-2.6-1.3-.64-.81-.86-1.75-.67-2.83.19-1.08.73-1.97,1.64-2.68.9-.71,1.9-1.03,3-.97l12.94.68c1.06.05,1.9.48,2.54,1.26.64.79.86,1.72.68,2.8-.19,1.08-.74,1.98-1.64,2.71-.91.73-1.89,1.07-2.94,1.01l-12.94-.68ZM199.92,52.23c.44.02.7-.18.78-.62l.65-3.69c.08-.44-.11-.67-.54-.69l-2.57-.13c-.4-.02-.63.19-.71.63l-.65,3.69c-.08.44.08.67.48.69l2.57.13ZM237.45,33.16c.44.02.7-.19.78-.63l.53-3.03c.08-.44-.1-.67-.54-.69l-9.97-.52c-.4-.02-.63.19-.71.63l-.53,3.03c-.08.44.08.67.48.69l9.97.52ZM241.5,19.99c.13,0,.25-.05.37-.18.05-.04.08-.09.09-.16.01-.07,0-.12-.04-.17-.79-2.08-1.43-4.13-1.92-6.16-.11-.41-.38-.62-.82-.64l-6.8-.36c-.44-.02-.76.16-.96.55-1.22,2.11-2.47,4.06-3.76,5.86-.11.13-.13.25-.06.36.07.12.17.17.3.18l13.6.71Z"/>
      <path class="cls-1" d="M261.71,52.45c-1.37-.07-2.44-.6-3.22-1.6-.78-1-1.05-2.17-.81-3.54l6.69-38.12c.28-1.58,1.09-2.91,2.43-3.97,1.34-1.06,2.8-1.55,4.39-1.47l13.93.73c1.58.08,2.84.71,3.77,1.89.92,1.18,1.25,2.56.97,4.15l-5.91,33.64c-.28,1.58-1.09,2.91-2.43,3.97-1.34,1.06-2.78,1.55-4.32,1.47l-9.57-.5c-.26-.01-.42.11-.46.38-.16.88-.61,1.62-1.36,2.23-.75.6-1.54.88-2.38.84l-1.72-.09ZM270.31,31.54l-1.4,7.98c-.09.53.1.8.59.83l5.21.27c.18,0,.37-.07.58-.24.21-.17.33-.34.36-.51l1.4-7.98c.08-.48-.14-.74-.67-.77l-5.22-.27c-.48-.02-.77.21-.85.69ZM273.43,13.8l-1.31,7.45c-.08.48.11.76.59.83l5.21.27c.53.03.84-.22.93-.75l1.31-7.45c.08-.48-.13-.76-.65-.83l-5.22-.27c-.49.02-.78.27-.87.75ZM302.35,55.91c1.1.06,1.78-.04,2.05-.29.27-.25.52-1.04.75-2.36l1.29-7.32c.03-.17-.04-.36-.2-.54-.17-.19-.34-.28-.52-.29l-9.38-.49c-.53-.03-.88.22-1.06.74-2.41,6.13-6.01,11.33-10.8,15.61-1.15,1-2.44,1.48-3.85,1.43-1.41-.05-2.56-.59-3.45-1.61-.86-.93-1.16-2.1-.92-3.51.25-1.41.9-2.57,1.95-3.49,3.13-2.9,5.53-6.2,7.2-9.91,1.67-3.71,3.13-9.08,4.36-16.11l3.14-17.87c.28-1.58,1.08-2.91,2.4-3.97,1.32-1.06,2.77-1.55,4.36-1.47l18.55.97c1.58.08,2.84.71,3.76,1.89.93,1.18,1.25,2.56.97,4.14l-7.37,41.95c-.43,2.46-.82,4.35-1.16,5.66-.34,1.31-.71,2.47-1.11,3.47-.4,1-.96,1.66-1.68,1.98-.72.32-1.49.53-2.31.64-.82.11-1.98.13-3.47.05-.57-.03-2.57-.18-5.99-.45-1.27-.11-2.28-.64-3.02-1.59-.74-.95-1.05-2.06-.91-3.34.12-1.19.69-2.2,1.69-3.01,1.01-.81,2.08-1.17,3.22-1.06.26.01.56.04.89.08.33.04.53.06.62.07ZM307.12,37.06c.53.03.86-.2.99-.68l1.1-6.27c.04-.22-.03-.41-.2-.58-.17-.16-.35-.25-.52-.26l-8.45-.44c-.48-.03-.77.23-.87.75l-.64,3.63c-.05.31-.14.75-.26,1.32-.12.57-.21.99-.25,1.25-.09.53.1.8.59.83l8.52.45ZM301.88,14.16l-1.02,5.8c-.08.48.11.76.59.83l8.45.44c.53.03.86-.22,1-.75l1.02-5.8c.09-.48-.16-.74-.73-.77l-8.45-.44c-.48-.03-.77.2-.85.69Z"/>
    </g>
  </g>
  <g>
    <g>
      <path class="cls-2" d="M1.7,49.42h32.69c.66,0,1.2-.54,1.2-1.2V13.83c0-.66-.54-1.2-1.2-1.2H1.7c-1.07,0-1.6,1.29-.85,2.04l15.5,15.5c.47.47.47,1.22,0,1.69L.85,47.37c-.75.75-.22,2.04.85,2.04Z"/>
      <path d="M34.39,49.91H1.7c-.7,0-1.3-.4-1.57-1.05-.27-.65-.13-1.35.37-1.85l15.5-15.5c.27-.27.27-.71,0-.99L.5,15.03c-.5-.49-.64-1.2-.37-1.85s.87-1.05,1.57-1.05h32.69c.93,0,1.69.76,1.69,1.7v34.39c0,.93-.76,1.69-1.69,1.69ZM1.7,13.14c-.43,0-.6.33-.64.43-.04.1-.15.45.15.76l15.5,15.5c.66.66.66,1.74,0,2.4L1.21,47.73c-.31.31-.19.66-.15.76.04.1.21.43.64.43h32.69c.38,0,.7-.31.7-.7V13.83c0-.38-.31-.7-.7-.7H1.7Z"/>
    </g>
    <rect x="35.09" y="2.1" width="1" height="57.85"/>
  </g>
  <g>
    <g>
      <path class="cls-2" d="M371.01,12.64h-32.69c-.66,0-1.2.54-1.2,1.2v34.39c0,.66.54,1.2,1.2,1.2h32.69c1.07,0,1.6-1.29.85-2.04l-15.5-15.5c-.47-.47-.47-1.22,0-1.69l15.5-15.5c.75-.75.22-2.04-.85-2.04Z"/>
      <path d="M371.02,49.91h-32.69c-.93,0-1.7-.76-1.7-1.69V13.83c0-.93.76-1.7,1.7-1.7h32.69c.7,0,1.3.4,1.57,1.05s.13,1.35-.37,1.85l-15.5,15.5c-.27.27-.27.71,0,.99l15.5,15.5c.49.49.63,1.2.37,1.85-.27.65-.87,1.05-1.57,1.05ZM338.32,13.14c-.38,0-.7.31-.7.7v34.39c0,.38.31.7.7.7h32.69c.43,0,.6-.33.64-.43.04-.1.15-.45-.15-.76l-15.5-15.5c-.66-.66-.66-1.74,0-2.4l15.5-15.5c.3-.31.19-.66.15-.76-.04-.1-.21-.43-.64-.43h-32.69Z"/>
    </g>
    <rect x="336.63" y="2.1" width="1" height="57.85"/>
  </g>
</svg>