<?xml version="1.0" encoding="UTF-8"?>
<svg id="_圖層_3" data-name="圖層 3" xmlns="http://www.w3.org/2000/svg" viewBox="0 0 416.74 69.97">
  <defs>
    <style>
      .cls-1 {
        fill: #fff;
      }

      .cls-2 {
        fill: #ffb8d8;
      }

      .cls-3 {
        fill: #fff922;
      }

      .cls-4 {
        fill: none;
        stroke: #000;
        stroke-miterlimit: 10;
        stroke-width: 3px;
      }
    </style>
  </defs>
  <g>
    <g>
      <path class="cls-4" d="M114.9,19.64c-.18,0-.32.06-.44.21-.12.15-.14.29-.08.43l.25.48c.6,1.36.59,2.83-.04,4.39-.63,1.56-1.69,2.68-3.19,3.36l-1.97.96c-.52.2-.81.56-.86,1.09-.09,2.3-.13,4.28-.11,5.92.01.18.09.3.23.38s.29.07.44-.01c.88-.49,1.57-.87,2.07-1.16,1-.66,2.05-.87,3.14-.63s1.88.88,2.36,1.92c.47,1.13.5,2.32.11,3.57-.4,1.24-1.17,2.21-2.31,2.91-1.4.9-2.87,1.8-4.4,2.7-.46.33-.66.74-.62,1.23.67,3.54,1.66,6.77,2.97,9.67.6,1.36.77,2.83.49,4.42-.28,1.58-1.04,2.9-2.29,3.94-1.16,1.05-2.46,1.51-3.91,1.39-1.44-.12-2.41-.81-2.9-2.08-3.16-7.31-4.5-17.52-4.02-30.63,0-.53-.25-.72-.77-.57l-.43.18c-.48.2-.76.54-.85,1.02l-4.86,27.7c-.25,1.45-.99,2.65-2.2,3.61-1.21.96-2.54,1.4-4,1.32s-2.6-.65-3.43-1.71c-.84-1.07-1.12-2.32-.87-3.77l4.25-24.21c.05-.26-.07-.36-.35-.29-.79.18-1.52.07-2.21-.35-.68-.41-1.11-1-1.29-1.77l-.34-1.48c-.08-.54-.09-.98-.03-1.33-1.22,6.68-2.26,12.03-3.12,16.04-.86,4.02-1.65,7.29-2.36,9.83-.71,2.54-1.49,4.34-2.35,5.4-.85,1.06-1.65,1.72-2.38,1.97-.73.25-1.76.34-3.08.27-.18,0-1.03-.1-2.55-.27-1.65-.22-2.92-.96-3.81-2.23-.89-1.27-1.21-2.74-.96-4.41l.28-1.98c.02-.09,0-.13-.08-.14-.07,0-.12.02-.18.06-1.1,2.21-1.96,3.82-2.59,4.86-.7,1.21-1.74,1.89-3.13,2.07-1.39.17-2.48-.25-3.28-1.27-.95-1.16-1.45-2.55-1.5-4.17-.05-1.62.32-3.17,1.11-4.63,3.47-6.87,6.56-18.03,9.27-33.46.06-.35-.06-.54-.37-.55-1.1-.06-1.97-.49-2.6-1.3-.64-.81-.86-1.74-.67-2.8l.12-.66c.22-1.27.85-2.32,1.88-3.13,1.03-.81,2.16-1.18,3.4-1.12l3.43.18c.48.03.77-.2.85-.69l.28-1.58c.25-1.45.99-2.65,2.2-3.61,1.21-.96,2.53-1.4,3.96-1.32,1.43.08,2.57.65,3.43,1.71.86,1.07,1.16,2.32.9,3.78l-.28,1.58c-.08.48.11.74.6.76l3.7.19c1.1.06,2,.45,2.69,1.17.69.73,1.06,1.62,1.09,2.69.02.13.11.22.26.25.15.03.25,0,.32-.08,2.58-2.84,4.75-5.45,6.51-7.85.84-1.24,1.94-2.12,3.29-2.62,1.36-.51,2.69-.57,4-.19l1.28.33c.84.27,1.42.83,1.74,1.69.32.86.2,1.72-.35,2.58-.13.26-.07.4.2.41l14.46.76c1.23.07,2.19.55,2.88,1.45s.92,1.96.71,3.17c-.21,1.21-.82,2.22-1.83,3.03-1.01.81-2.11,1.19-3.3,1.13l-1.65-.09ZM69.93,34.39c-.18,0-.37.07-.57.24-.21.17-.33.34-.36.51-1.76,7.76-3.74,14.2-5.93,19.33-.08.17-.08.38-.01.63.07.25.21.4.42.45,1.32.34,2.28.52,2.9.55.44.02.81-.1,1.1-.38.29-.27.66-1.1,1.1-2.47.44-1.38.93-3.45,1.46-6.21.53-2.77,1.24-6.7,2.14-11.8.09-.48-.14-.74-.67-.77l-1.58-.08ZM82.54,31.99c.42-1.88,1.63-3.11,3.64-3.67.04,0,.14-.03.28-.09.14-.06.24-.09.28-.08.14-.04.24-.12.31-.25.07-.13.04-.24-.08-.34l-2.41-1.86c-1.4-1.14-1.89-2.65-1.47-4.54.03-.18,0-.31-.1-.41-.1-.09-.21-.12-.35-.08-.43.16-.97.22-1.63.18l-8.38-.44c-.49-.03-.77.23-.87.75l-.59,3.36c-.08.48.11.76.59.83l6.07.32c1.58.08,2.84.71,3.77,1.89.93,1.18,1.25,2.56.97,4.15l-.05.26ZM110.14,19.79c.14-.04.18-.15.12-.33-.08-.05-.14-.08-.19-.08l-12.22-.64c-.48-.03-.94.17-1.37.59-2.48,2.98-4.96,5.58-7.43,7.8-.1.04-.11.11-.03.2.07.09.15.12.25.08,7.16-2.06,14.11-4.61,20.86-7.63Z"/>
      <path class="cls-4" d="M127.71,37.67c-1.23-.07-2.19-.55-2.88-1.45-.69-.9-.92-1.96-.71-3.17.21-1.21.82-2.22,1.83-3.03,1.01-.81,2.11-1.19,3.3-1.13l5.28.28c1.58.08,2.84.71,3.77,1.9.93,1.18,1.25,2.56.97,4.14l-1.31,7.45c-.02.09,0,.13.04.14s.09-.02.14-.06c2.07-4.46,4.17-12.72,6.28-24.76.02-.09,0-.16-.03-.2-.11-.14-.26-.15-.46-.02-.2.12-.32.29-.36.51-.24,1.36-.95,2.48-2.12,3.35-1.03.79-2.19,1.14-3.48,1.05-1.29-.09-2.28-.64-2.94-1.65-1.96-2.72-3.45-4.75-4.46-6.09-.73-.93-.98-2.04-.75-3.33.23-1.3.9-2.36,2.03-3.19,1.16-.78,2.39-1.12,3.71-1,1.31.11,2.33.65,3.05,1.62.68.92,1.73,2.4,3.15,4.42.07.09.19.12.35.08.16-.03.26-.14.29-.32v-.07c.22-1.19.83-2.17,1.83-2.97,1-.79,2.1-1.16,3.29-1.09l1.45.08c.4.02.63-.17.7-.56.21-1.23.83-2.25,1.84-3.07,1.01-.81,2.13-1.19,3.36-1.12l1.78.09c1.23.06,2.21.55,2.94,1.45.73.9.99,1.97.77,3.2-.07.4.09.6.49.62l2.64.14c.88.05,1.65.34,2.31.89.66.55,1.09,1.25,1.3,2.1.02.13.09.23.22.28.12.05.24.04.34-.05.72-.85,1.82-2.26,3.27-4.22.94-1.33,2.13-2.28,3.57-2.88,1.44-.59,2.83-.72,4.2-.38l2.24.52c.68.17,1.15.58,1.42,1.24.26.66.18,1.31-.24,1.95-.13.22-.08.33.14.34l4.36.23c1.23.06,2.2.55,2.91,1.45.71.9.96,1.97.74,3.2-.22,1.23-.83,2.24-1.83,3.03-1.01.79-2.12,1.15-3.36,1.09l-8.72-.46c-.48-.03-.92.17-1.3.6-.16.17-.36.4-.59.7-.23.3-.45.51-.64.63-.11.13-.16.27-.14.43.02.16.13.24.36.25l10.5.55c1.14.06,2.05.51,2.73,1.34.67.83.91,1.82.71,2.97-.52,2.95-1.79,5.36-3.81,7.25-.21.17-.52.44-.94.82-.42.38-.74.67-.96.88-.16.12-.25.31-.3.55-.04.24.02.37.2.38l.53.03c1.19.06,2.12.51,2.79,1.34s.91,1.84.7,3.03c-.21,1.19-.8,2.18-1.79,2.97-.98.79-2.05,1.16-3.19,1.1h-.26c-.35-.03-.56.16-.63.55l-.36,2.05c-.34,1.93-.61,3.39-.8,4.35-.19.97-.48,1.92-.87,2.85-.39.93-.72,1.55-.99,1.85-.28.3-.8.57-1.58.82-.78.25-1.52.36-2.23.35-.71-.01-1.77-.06-3.17-.13-.4-.02-1.78-.14-4.14-.35-1.17-.15-2.13-.67-2.86-1.55s-1.02-1.9-.87-3.04c.15-1.1.69-2,1.61-2.71.92-.71,1.93-1.01,3.03-.91l.46.02c.75.04,1.22-.05,1.41-.26.19-.21.41-1,.65-2.36l.23-1.32c.04-.22-.03-.41-.2-.58-.17-.16-.35-.25-.52-.26l-1.58-.08c-1.19-.06-2.13-.53-2.82-1.41-.69-.88-.93-1.91-.72-3.1.21-1.19.8-2.16,1.78-2.9.97-.75,2.06-1.09,3.24-1.03l1.92.1c.31.02.51-.15.62-.5l.12-.66c.12-.7.47-1.29,1.04-1.78.57-.48,1.21-.7,1.92-.67.22.01.43-.04.63-.17.4-.29.97-.72,1.7-1.31.1-.08.15-.21.13-.39-.01-.18-.08-.27-.22-.28l-4.29-.22c-1.58-.08-2.84-.72-3.76-1.93s-1.24-2.59-.96-4.18c.08-.44-.1-.83-.53-1.16l-.35-.29c-1.06-.76-1.62-1.88-1.68-3.35-.02-.4-.23-.48-.62-.23-.84.49-1.75.71-2.71.66l-7.2-.38c-.48-.03-.79.2-.92.68l-.36,2.04c-.09.48.14.74.67.77l5.48.29c1.58.08,2.84.71,3.76,1.89.93,1.18,1.25,2.56.97,4.14-.86,4.88-1.58,8.81-2.17,11.8-.59,2.99-1.2,5.62-1.82,7.89-.62,2.28-1.14,3.95-1.55,5.01-.41,1.07-.94,1.89-1.6,2.48-.66.59-1.26.91-1.8.97-.54.06-1.34.06-2.4,0-.18,0-.92-.09-2.22-.25-1.56-.22-2.8-.95-3.71-2.19-.91-1.25-1.28-2.66-1.09-4.25.02-.09-.02-.13-.11-.14-.09,0-.16.01-.21.06-.07.13-.17.32-.3.58-.13.26-.24.45-.3.58-.71,1.25-1.75,1.99-3.12,2.23-1.38.24-2.56-.09-3.56-.99-.61-.56-1.09-1.28-1.42-2.14-.08-.05-.18,0-.29.12l-.14.79c-.09.53-.04,1,.15,1.41,1.03,2.23,3.18,3.76,6.46,4.6,3.27.84,10.08,1.53,20.43,2.07l15.45.81c1.14.06,2.04.53,2.69,1.41.64.88.82,1.91.52,3.09-.26,1.23-.91,2.23-1.96,2.99-1.05.77-2.16,1.12-3.35,1.06l-14.06-.74c-8.76-.46-15.46-1.2-20.1-2.22s-8.05-2.54-10.23-4.56c-.34-.33-.74-.35-1.19-.06-1.27.91-2.9,1.96-4.88,3.14-1.19.69-2.4.88-3.63.57-1.24-.31-2.1-1.05-2.61-2.23-.45-1.22-.41-2.47.13-3.75.54-1.28,1.44-2.26,2.72-2.95l2.3-1.34c.39-.2.64-.59.74-1.16l2.51-14.31c.07-.4-.11-.63-.54-.69l-.39-.02ZM147.28,46.15c-.18.52-.04.84.43.95.47.11,1.05.19,1.76.23.4.02.7-.06.91-.25.21-.19.48-.84.81-1.95.33-1.12.7-2.7,1.1-4.77.41-2.06.96-5.1,1.66-9.1.09-.48-.11-.76-.59-.83l-.86-.04c-.53-.03-.87.24-1.01.81-1.41,6.54-2.82,11.52-4.22,14.96Z"/>
      <path class="cls-4" d="M245.05,22.07c-.92,5.23-3.45,10.12-7.6,14.68-4.14,4.56-11.73,10.65-22.75,18.28-.07.06-.11.11-.12.17,0,.06.01.09.07.09l18.49.97c1.69.09,3.02.76,4,2.01.98,1.25,1.33,2.72,1.03,4.41-.29,1.69-1.14,3.09-2.54,4.22-1.4,1.13-2.95,1.65-4.63,1.56l-32.36-1.69c-1.74-.09-3.11-.76-4.09-2.02s-1.33-2.72-1.03-4.41c.7-4.01,2.91-7.2,6.61-9.59,10.98-7.04,18.39-12.52,22.25-16.42,3.85-3.9,6.12-7.77,6.79-11.6.96-5.46-1.62-8.35-7.72-8.67-3.31-.17-7.4.73-12.27,2.7-1.63.62-3.16.6-4.57-.06-1.41-.66-2.21-1.76-2.41-3.29-.26-1.89.1-3.67,1.07-5.35.97-1.68,2.37-2.88,4.2-3.6,6.44-2.24,12.59-3.21,18.46-2.9,7.21.38,12.46,2.38,15.75,6.01,3.29,3.63,4.41,8.47,3.35,14.51Z"/>
      <path class="cls-4" d="M256.34,37.68c-1.23-.06-2.18-.55-2.85-1.45-.66-.9-.89-1.95-.68-3.17.21-1.21.81-2.22,1.8-3.03.99-.81,2.08-1.19,3.26-1.13l5.74.3c1.59.08,2.85.71,3.8,1.9.95,1.18,1.28,2.56,1.01,4.15l-2.7,15.37c-.09.53-.04,1,.15,1.41.57,1.32,1.49,2.36,2.78,3.14.17.05.32.03.45-.08.13-.1.21-.24.24-.42.42-1.62,1.49-2.67,3.22-3.16,1.3-.33,3.11-.9,5.43-1.71.09-.04.14-.09.13-.16,0-.07-.06-.1-.15-.11l-5.68-.3c-1.15-.06-2.04-.51-2.7-1.34-.65-.83-.88-1.81-.69-2.93.2-1.12.76-2.06,1.69-2.81.93-.75,1.97-1.09,3.12-1.04l3.23.17c.48.03.77-.2.85-.69l.13-.72c.09-.53-.1-.83-.58-.9l-1.98-.1c-1.06-.06-1.89-.45-2.49-1.2-.6-.74-.81-1.63-.63-2.66.18-1.03.71-1.9,1.59-2.61.88-.71,1.82-1.04,2.84-.98l2.24.12c.31.02.49-.13.54-.44,0-.04.03-.13.08-.26.04-.13.07-.22.08-.26.18-.52.03-.8-.46-.82-1.1-.06-1.89-.12-2.37-.19-2.27-.21-3.7-.65-4.27-1.32-.57-.67-.68-2-.33-3.98l.59-3.36c.28-1.58,1.08-2.91,2.4-3.97,1.32-1.06,2.77-1.55,4.36-1.47l4.69.25c.18,0,.37-.06.57-.2.2-.14.32-.33.36-.55l.09-.53c.08-.48-.13-.76-.65-.83l-7.39-.39c-1.01-.05-1.81-.45-2.39-1.19-.58-.74-.78-1.64-.59-2.69.19-1.05.69-1.91,1.51-2.55.82-.64,1.74-.94,2.75-.89l11.16.58c1.59.08,2.84.71,3.77,1.89s1.25,2.56.97,4.14l-.78,4.42c-.23,1.32-.89,2.42-1.98,3.29s-2.25,1.28-3.48,1.22v.07s.31.08.31.08c1.74.45,2.99,1.4,3.73,2.86.74,1.46.55,2.87-.58,4.23-.44.47-.91.77-1.43.92-.47.15-.66.48-.57.97,0,.44,0,.8-.05,1.06-.05.31.09.47.45.49l6.47.34c.31.02.49-.13.54-.44.06-.35.13-.64.22-.85.16-.43.04-.71-.39-.82-1.15-.28-1.85-.77-2.11-1.47-.25-.7-.24-1.84.04-3.43l.59-3.36c.28-1.58,1.08-2.91,2.4-3.97,1.32-1.06,2.77-1.55,4.35-1.47l4.76.25c.48.03.77-.23.87-.75l.09-.53c.09-.48-.11-.76-.59-.83l-7.06-.37c-1.06-.06-1.88-.45-2.46-1.19-.58-.74-.78-1.64-.59-2.69.18-1.01.69-1.85,1.54-2.51.85-.67,1.78-.97,2.79-.92l10.76.56c1.58.08,2.84.71,3.76,1.9.93,1.18,1.25,2.56.97,4.14l-.78,4.42c-.23,1.32-.89,2.42-1.98,3.29-1.09.88-2.25,1.28-3.48,1.21v.07s.31.08.31.08c1.74.45,2.99,1.4,3.73,2.86.74,1.46.55,2.87-.58,4.23-.46.6-1.1.97-1.93,1.13-.83.16-2.13.23-3.9.23l-.46-.02c-.44-.02-.66.21-.65.7l-.12.66c-.05.31.09.47.45.49l2.25.12c1.06.06,1.87.48,2.44,1.26.57.79.77,1.69.59,2.73-.18,1.03-.69,1.88-1.51,2.55-.83.67-1.77.97-2.83.92l-1.98-.1c-.22-.01-.42.08-.61.27-.19.19-.3.37-.33.55l-.13.72c-.09.48.14.74.66.77l3.1.16c1.14.06,2.04.51,2.7,1.34.65.83.88,1.81.69,2.93-.2,1.12-.76,2.06-1.69,2.81-.93.75-1.97,1.09-3.11,1.04l-2.58-.13c-.09,0-.15.02-.18.09-.04.06-.01.12.07.17.32.19.81.48,1.48.84.67.37,1.02.58,1.06.62,1.01.59,1.59,1.46,1.74,2.62.15,1.16-.15,2.26-.91,3.28,0,.04-.06.11-.17.19-.1.08-.16.15-.17.19-.28.3-.23.54.14.74.79.31,1.37.85,1.75,1.62.37.78.45,1.64.24,2.61-.26,1.23-.91,2.23-1.96,2.99-1.04.77-2.19,1.12-3.42,1.05l-13.34-.7c-8.76-.46-15.46-1.2-20.1-2.22-4.64-1.02-8.03-2.54-10.16-4.56-.34-.33-.76-.35-1.25-.07-1.27.91-2.9,1.96-4.88,3.14-1.19.69-2.4.88-3.63.57s-2.09-1.05-2.57-2.23c-.48-1.18-.46-2.42.05-3.72.52-1.3,1.41-2.3,2.69-2.99.25-.16.68-.42,1.3-.76.62-.34,1.05-.6,1.3-.76.44-.24.71-.63.8-1.16l2.47-14.05c.08-.44-.1-.69-.53-.76l-.72-.04ZM260.54,8.42c1.16-.78,2.39-1.12,3.71-1,1.31.11,2.35.66,3.11,1.63.32.46.77,1.09,1.37,1.9s1.12,1.54,1.58,2.21c.46.67.9,1.3,1.33,1.9.67,1.01.86,2.16.59,3.46-.27,1.29-.97,2.33-2.08,3.12-1.03.79-2.18,1.14-3.45,1.05-1.27-.09-2.27-.64-2.97-1.65-.96-1.34-2.47-3.37-4.53-6.09-.73-.92-.96-2.05-.71-3.37.25-1.32.94-2.37,2.05-3.15ZM280.23,22.29c-.09.48-.08.82.02,1,.1.18.37.29.81.31l1.38.07,1.39.07c.57.03.96-.03,1.16-.17.2-.14.4-.63.59-1.47.09-.53-.08-.8-.52-.83l-3.89-.21c-.49-.02-.77.21-.86.69l-.09.53ZM285.07,55.43c-1.69.76-3.28,1.45-4.76,2.08-.15.08-.12.19.07.34,3.32.31,7.45.59,12.38.85l7.53.39c.09,0,.16-.04.22-.12.06-.08.05-.15-.03-.2-1.88-1.16-3.89-2.27-6.02-3.31-.78-.39-1.3-1.01-1.57-1.85-.28-.83-.25-1.69.08-2.56.17-.48.06-.73-.33-.75l-4.56-.24c-.18,0-.32.06-.44.21-.12.15-.14.32-.09.5.16.85,0,1.73-.46,2.64s-1.14,1.58-2.02,2.02ZM288.04,40.41l-.13.73c-.08.48.14.74.67.77l5.94.31c.48.03.77-.2.85-.69l.13-.73c.09-.53-.1-.83-.57-.89l-5.94-.31c-.22-.01-.42.08-.61.27-.19.19-.3.37-.33.55ZM302.9,22.95l-.09.53c-.08.48-.08.82.03,1,.1.18.39.29.88.31l1.32.07,1.39.07c.57.03.97-.04,1.2-.2.23-.17.43-.64.62-1.43.09-.53-.1-.8-.59-.83l-3.9-.2c-.49-.03-.77.21-.85.69Z"/>
      <path class="cls-4" d="M336.09,28.12c-1.36,1.04-2.79,1.33-4.29.88s-2.41-1.49-2.71-3.09c-.36-1.95-.13-3.92.68-5.9.82-1.98,2.11-3.66,3.88-5.03l10.26-7.82c4.38-3.23,9.08-4.74,14.09-4.54l.52.03c2.09.11,3.75.96,4.97,2.54,1.22,1.59,1.64,3.43,1.28,5.52l-8.77,49.92c-.37,2.09-1.42,3.84-3.16,5.24-1.74,1.4-3.66,2.05-5.75,1.94l-.52-.03c-2.09-.11-3.75-.94-4.97-2.5s-1.65-3.38-1.28-5.47l7.02-39.99h-.09s-.09,0-.09,0l-11.05,8.3Z"/>
    </g>
    <g>
      <path class="cls-1" d="M114.9,19.64c-.18,0-.32.06-.44.21-.12.15-.14.29-.08.43l.25.48c.6,1.36.59,2.83-.04,4.39-.63,1.56-1.69,2.68-3.19,3.36l-1.97.96c-.52.2-.81.56-.86,1.09-.09,2.3-.13,4.28-.11,5.92.01.18.09.3.23.38s.29.07.44-.01c.88-.49,1.57-.87,2.07-1.16,1-.66,2.05-.87,3.14-.63s1.88.88,2.36,1.92c.47,1.13.5,2.32.11,3.57-.4,1.24-1.17,2.21-2.31,2.91-1.4.9-2.87,1.8-4.4,2.7-.46.33-.66.74-.62,1.23.67,3.54,1.66,6.77,2.97,9.67.6,1.36.77,2.83.49,4.42-.28,1.58-1.04,2.9-2.29,3.94-1.16,1.05-2.46,1.51-3.91,1.39-1.44-.12-2.41-.81-2.9-2.08-3.16-7.31-4.5-17.52-4.02-30.63,0-.53-.25-.72-.77-.57l-.43.18c-.48.2-.76.54-.85,1.02l-4.86,27.7c-.25,1.45-.99,2.65-2.2,3.61-1.21.96-2.54,1.4-4,1.32s-2.6-.65-3.43-1.71c-.84-1.07-1.12-2.32-.87-3.77l4.25-24.21c.05-.26-.07-.36-.35-.29-.79.18-1.52.07-2.21-.35-.68-.41-1.11-1-1.29-1.77l-.34-1.48c-.08-.54-.09-.98-.03-1.33-1.22,6.68-2.26,12.03-3.12,16.04-.86,4.02-1.65,7.29-2.36,9.83-.71,2.54-1.49,4.34-2.35,5.4-.85,1.06-1.65,1.72-2.38,1.97-.73.25-1.76.34-3.08.27-.18,0-1.03-.1-2.55-.27-1.65-.22-2.92-.96-3.81-2.23-.89-1.27-1.21-2.74-.96-4.41l.28-1.98c.02-.09,0-.13-.08-.14-.07,0-.12.02-.18.06-1.1,2.21-1.96,3.82-2.59,4.86-.7,1.21-1.74,1.89-3.13,2.07-1.39.17-2.48-.25-3.28-1.27-.95-1.16-1.45-2.55-1.5-4.17-.05-1.62.32-3.17,1.11-4.63,3.47-6.87,6.56-18.03,9.27-33.46.06-.35-.06-.54-.37-.55-1.1-.06-1.97-.49-2.6-1.3-.64-.81-.86-1.74-.67-2.8l.12-.66c.22-1.27.85-2.32,1.88-3.13,1.03-.81,2.16-1.18,3.4-1.12l3.43.18c.48.03.77-.2.85-.69l.28-1.58c.25-1.45.99-2.65,2.2-3.61,1.21-.96,2.53-1.4,3.96-1.32,1.43.08,2.57.65,3.43,1.71.86,1.07,1.16,2.32.9,3.78l-.28,1.58c-.08.48.11.74.6.76l3.7.19c1.1.06,2,.45,2.69,1.17.69.73,1.06,1.62,1.09,2.69.02.13.11.22.26.25.15.03.25,0,.32-.08,2.58-2.84,4.75-5.45,6.51-7.85.84-1.24,1.94-2.12,3.29-2.62,1.36-.51,2.69-.57,4-.19l1.28.33c.84.27,1.42.83,1.74,1.69.32.86.2,1.72-.35,2.58-.13.26-.07.4.2.41l14.46.76c1.23.07,2.19.55,2.88,1.45s.92,1.96.71,3.17c-.21,1.21-.82,2.22-1.83,3.03-1.01.81-2.11,1.19-3.3,1.13l-1.65-.09ZM69.93,34.39c-.18,0-.37.07-.57.24-.21.17-.33.34-.36.51-1.76,7.76-3.74,14.2-5.93,19.33-.08.17-.08.38-.01.63.07.25.21.4.42.45,1.32.34,2.28.52,2.9.55.44.02.81-.1,1.1-.38.29-.27.66-1.1,1.1-2.47.44-1.38.93-3.45,1.46-6.21.53-2.77,1.24-6.7,2.14-11.8.09-.48-.14-.74-.67-.77l-1.58-.08ZM82.54,31.99c.42-1.88,1.63-3.11,3.64-3.67.04,0,.14-.03.28-.09.14-.06.24-.09.28-.08.14-.04.24-.12.31-.25.07-.13.04-.24-.08-.34l-2.41-1.86c-1.4-1.14-1.89-2.65-1.47-4.54.03-.18,0-.31-.1-.41-.1-.09-.21-.12-.35-.08-.43.16-.97.22-1.63.18l-8.38-.44c-.49-.03-.77.23-.87.75l-.59,3.36c-.08.48.11.76.59.83l6.07.32c1.58.08,2.84.71,3.77,1.89.93,1.18,1.25,2.56.97,4.15l-.05.26ZM110.14,19.79c.14-.04.18-.15.12-.33-.08-.05-.14-.08-.19-.08l-12.22-.64c-.48-.03-.94.17-1.37.59-2.48,2.98-4.96,5.58-7.43,7.8-.1.04-.11.11-.03.2.07.09.15.12.25.08,7.16-2.06,14.11-4.61,20.86-7.63Z"/>
      <path class="cls-1" d="M127.71,37.67c-1.23-.07-2.19-.55-2.88-1.45-.69-.9-.92-1.96-.71-3.17.21-1.21.82-2.22,1.83-3.03,1.01-.81,2.11-1.19,3.3-1.13l5.28.28c1.58.08,2.84.71,3.77,1.9.93,1.18,1.25,2.56.97,4.14l-1.31,7.45c-.02.09,0,.13.04.14s.09-.02.14-.06c2.07-4.46,4.17-12.72,6.28-24.76.02-.09,0-.16-.03-.2-.11-.14-.26-.15-.46-.02-.2.12-.32.29-.36.51-.24,1.36-.95,2.48-2.12,3.35-1.03.79-2.19,1.14-3.48,1.05-1.29-.09-2.28-.64-2.94-1.65-1.96-2.72-3.45-4.75-4.46-6.09-.73-.93-.98-2.04-.75-3.33.23-1.3.9-2.36,2.03-3.19,1.16-.78,2.39-1.12,3.71-1,1.31.11,2.33.65,3.05,1.62.68.92,1.73,2.4,3.15,4.42.07.09.19.12.35.08.16-.03.26-.14.29-.32v-.07c.22-1.19.83-2.17,1.83-2.97,1-.79,2.1-1.16,3.29-1.09l1.45.08c.4.02.63-.17.7-.56.21-1.23.83-2.25,1.84-3.07,1.01-.81,2.13-1.19,3.36-1.12l1.78.09c1.23.06,2.21.55,2.94,1.45.73.9.99,1.97.77,3.2-.07.4.09.6.49.62l2.64.14c.88.05,1.65.34,2.31.89.66.55,1.09,1.25,1.3,2.1.02.13.09.23.22.28.12.05.24.04.34-.05.72-.85,1.82-2.26,3.27-4.22.94-1.33,2.13-2.28,3.57-2.88,1.44-.59,2.83-.72,4.2-.38l2.24.52c.68.17,1.15.58,1.42,1.24.26.66.18,1.31-.24,1.95-.13.22-.08.33.14.34l4.36.23c1.23.06,2.2.55,2.91,1.45.71.9.96,1.97.74,3.2-.22,1.23-.83,2.24-1.83,3.03-1.01.79-2.12,1.15-3.36,1.09l-8.72-.46c-.48-.03-.92.17-1.3.6-.16.17-.36.4-.59.7-.23.3-.45.51-.64.63-.11.13-.16.27-.14.43.02.16.13.24.36.25l10.5.55c1.14.06,2.05.51,2.73,1.34.67.83.91,1.82.71,2.97-.52,2.95-1.79,5.36-3.81,7.25-.21.17-.52.44-.94.82-.42.38-.74.67-.96.88-.16.12-.25.31-.3.55-.04.24.02.37.2.38l.53.03c1.19.06,2.12.51,2.79,1.34s.91,1.84.7,3.03c-.21,1.19-.8,2.18-1.79,2.97-.98.79-2.05,1.16-3.19,1.1h-.26c-.35-.03-.56.16-.63.55l-.36,2.05c-.34,1.93-.61,3.39-.8,4.35-.19.97-.48,1.92-.87,2.85-.39.93-.72,1.55-.99,1.85-.28.3-.8.57-1.58.82-.78.25-1.52.36-2.23.35-.71-.01-1.77-.06-3.17-.13-.4-.02-1.78-.14-4.14-.35-1.17-.15-2.13-.67-2.86-1.55s-1.02-1.9-.87-3.04c.15-1.1.69-2,1.61-2.71.92-.71,1.93-1.01,3.03-.91l.46.02c.75.04,1.22-.05,1.41-.26.19-.21.41-1,.65-2.36l.23-1.32c.04-.22-.03-.41-.2-.58-.17-.16-.35-.25-.52-.26l-1.58-.08c-1.19-.06-2.13-.53-2.82-1.41-.69-.88-.93-1.91-.72-3.1.21-1.19.8-2.16,1.78-2.9.97-.75,2.06-1.09,3.24-1.03l1.92.1c.31.02.51-.15.62-.5l.12-.66c.12-.7.47-1.29,1.04-1.78.57-.48,1.21-.7,1.92-.67.22.01.43-.04.63-.17.4-.29.97-.72,1.7-1.31.1-.08.15-.21.13-.39-.01-.18-.08-.27-.22-.28l-4.29-.22c-1.58-.08-2.84-.72-3.76-1.93s-1.24-2.59-.96-4.18c.08-.44-.1-.83-.53-1.16l-.35-.29c-1.06-.76-1.62-1.88-1.68-3.35-.02-.4-.23-.48-.62-.23-.84.49-1.75.71-2.71.66l-7.2-.38c-.48-.03-.79.2-.92.68l-.36,2.04c-.09.48.14.74.67.77l5.48.29c1.58.08,2.84.71,3.76,1.89.93,1.18,1.25,2.56.97,4.14-.86,4.88-1.58,8.81-2.17,11.8-.59,2.99-1.2,5.62-1.82,7.89-.62,2.28-1.14,3.95-1.55,5.01-.41,1.07-.94,1.89-1.6,2.48-.66.59-1.26.91-1.8.97-.54.06-1.34.06-2.4,0-.18,0-.92-.09-2.22-.25-1.56-.22-2.8-.95-3.71-2.19-.91-1.25-1.28-2.66-1.09-4.25.02-.09-.02-.13-.11-.14-.09,0-.16.01-.21.06-.07.13-.17.32-.3.58-.13.26-.24.45-.3.58-.71,1.25-1.75,1.99-3.12,2.23-1.38.24-2.56-.09-3.56-.99-.61-.56-1.09-1.28-1.42-2.14-.08-.05-.18,0-.29.12l-.14.79c-.09.53-.04,1,.15,1.41,1.03,2.23,3.18,3.76,6.46,4.6,3.27.84,10.08,1.53,20.43,2.07l15.45.81c1.14.06,2.04.53,2.69,1.41.64.88.82,1.91.52,3.09-.26,1.23-.91,2.23-1.96,2.99-1.05.77-2.16,1.12-3.35,1.06l-14.06-.74c-8.76-.46-15.46-1.2-20.1-2.22s-8.05-2.54-10.23-4.56c-.34-.33-.74-.35-1.19-.06-1.27.91-2.9,1.96-4.88,3.14-1.19.69-2.4.88-3.63.57-1.24-.31-2.1-1.05-2.61-2.23-.45-1.22-.41-2.47.13-3.75.54-1.28,1.44-2.26,2.72-2.95l2.3-1.34c.39-.2.64-.59.74-1.16l2.51-14.31c.07-.4-.11-.63-.54-.69l-.39-.02ZM147.28,46.15c-.18.52-.04.84.43.95.47.11,1.05.19,1.76.23.4.02.7-.06.91-.25.21-.19.48-.84.81-1.95.33-1.12.7-2.7,1.1-4.77.41-2.06.96-5.1,1.66-9.1.09-.48-.11-.76-.59-.83l-.86-.04c-.53-.03-.87.24-1.01.81-1.41,6.54-2.82,11.52-4.22,14.96Z"/>
      <path class="cls-3" d="M245.05,22.07c-.92,5.23-3.45,10.12-7.6,14.68-4.14,4.56-11.73,10.65-22.75,18.28-.07.06-.11.11-.12.17,0,.06.01.09.07.09l18.49.97c1.69.09,3.02.76,4,2.01.98,1.25,1.33,2.72,1.03,4.41-.29,1.69-1.14,3.09-2.54,4.22-1.4,1.13-2.95,1.65-4.63,1.56l-32.36-1.69c-1.74-.09-3.11-.76-4.09-2.02s-1.33-2.72-1.03-4.41c.7-4.01,2.91-7.2,6.61-9.59,10.98-7.04,18.39-12.52,22.25-16.42,3.85-3.9,6.12-7.77,6.79-11.6.96-5.46-1.62-8.35-7.72-8.67-3.31-.17-7.4.73-12.27,2.7-1.63.62-3.16.6-4.57-.06-1.41-.66-2.21-1.76-2.41-3.29-.26-1.89.1-3.67,1.07-5.35.97-1.68,2.37-2.88,4.2-3.6,6.44-2.24,12.59-3.21,18.46-2.9,7.21.38,12.46,2.38,15.75,6.01,3.29,3.63,4.41,8.47,3.35,14.51Z"/>
      <path class="cls-3" d="M256.34,37.68c-1.23-.06-2.18-.55-2.85-1.45-.66-.9-.89-1.95-.68-3.17.21-1.21.81-2.22,1.8-3.03.99-.81,2.08-1.19,3.26-1.13l5.74.3c1.59.08,2.85.71,3.8,1.9.95,1.18,1.28,2.56,1.01,4.15l-2.7,15.37c-.09.53-.04,1,.15,1.41.57,1.32,1.49,2.36,2.78,3.14.17.05.32.03.45-.08.13-.1.21-.24.24-.42.42-1.62,1.49-2.67,3.22-3.16,1.3-.33,3.11-.9,5.43-1.71.09-.04.14-.09.13-.16,0-.07-.06-.1-.15-.11l-5.68-.3c-1.15-.06-2.04-.51-2.7-1.34-.65-.83-.88-1.81-.69-2.93.2-1.12.76-2.06,1.69-2.81.93-.75,1.97-1.09,3.12-1.04l3.23.17c.48.03.77-.2.85-.69l.13-.72c.09-.53-.1-.83-.58-.9l-1.98-.1c-1.06-.06-1.89-.45-2.49-1.2-.6-.74-.81-1.63-.63-2.66.18-1.03.71-1.9,1.59-2.61.88-.71,1.82-1.04,2.84-.98l2.24.12c.31.02.49-.13.54-.44,0-.04.03-.13.08-.26.04-.13.07-.22.08-.26.18-.52.03-.8-.46-.82-1.1-.06-1.89-.12-2.37-.19-2.27-.21-3.7-.65-4.27-1.32-.57-.67-.68-2-.33-3.98l.59-3.36c.28-1.58,1.08-2.91,2.4-3.97,1.32-1.06,2.77-1.55,4.36-1.47l4.69.25c.18,0,.37-.06.57-.2.2-.14.32-.33.36-.55l.09-.53c.08-.48-.13-.76-.65-.83l-7.39-.39c-1.01-.05-1.81-.45-2.39-1.19-.58-.74-.78-1.64-.59-2.69.19-1.05.69-1.91,1.51-2.55.82-.64,1.74-.94,2.75-.89l11.16.58c1.59.08,2.84.71,3.77,1.89s1.25,2.56.97,4.14l-.78,4.42c-.23,1.32-.89,2.42-1.98,3.29s-2.25,1.28-3.48,1.22v.07s.31.08.31.08c1.74.45,2.99,1.4,3.73,2.86.74,1.46.55,2.87-.58,4.23-.44.47-.91.77-1.43.92-.47.15-.66.48-.57.97,0,.44,0,.8-.05,1.06-.05.31.09.47.45.49l6.47.34c.31.02.49-.13.54-.44.06-.35.13-.64.22-.85.16-.43.04-.71-.39-.82-1.15-.28-1.85-.77-2.11-1.47-.25-.7-.24-1.84.04-3.43l.59-3.36c.28-1.58,1.08-2.91,2.4-3.97,1.32-1.06,2.77-1.55,4.35-1.47l4.76.25c.48.03.77-.23.87-.75l.09-.53c.09-.48-.11-.76-.59-.83l-7.06-.37c-1.06-.06-1.88-.45-2.46-1.19-.58-.74-.78-1.64-.59-2.69.18-1.01.69-1.85,1.54-2.51.85-.67,1.78-.97,2.79-.92l10.76.56c1.58.08,2.84.71,3.76,1.9.93,1.18,1.25,2.56.97,4.14l-.78,4.42c-.23,1.32-.89,2.42-1.98,3.29-1.09.88-2.25,1.28-3.48,1.21v.07s.31.08.31.08c1.74.45,2.99,1.4,3.73,2.86.74,1.46.55,2.87-.58,4.23-.46.6-1.1.97-1.93,1.13-.83.16-2.13.23-3.9.23l-.46-.02c-.44-.02-.66.21-.65.7l-.12.66c-.05.31.09.47.45.49l2.25.12c1.06.06,1.87.48,2.44,1.26.57.79.77,1.69.59,2.73-.18,1.03-.69,1.88-1.51,2.55-.83.67-1.77.97-2.83.92l-1.98-.1c-.22-.01-.42.08-.61.27-.19.19-.3.37-.33.55l-.13.72c-.09.48.14.74.66.77l3.1.16c1.14.06,2.04.51,2.7,1.34.65.83.88,1.81.69,2.93-.2,1.12-.76,2.06-1.69,2.81-.93.75-1.97,1.09-3.11,1.04l-2.58-.13c-.09,0-.15.02-.18.09-.04.06-.01.12.07.17.32.19.81.48,1.48.84.67.37,1.02.58,1.06.62,1.01.59,1.59,1.46,1.74,2.62.15,1.16-.15,2.26-.91,3.28,0,.04-.06.11-.17.19-.1.08-.16.15-.17.19-.28.3-.23.54.14.74.79.31,1.37.85,1.75,1.62.37.78.45,1.64.24,2.61-.26,1.23-.91,2.23-1.96,2.99-1.04.77-2.19,1.12-3.42,1.05l-13.34-.7c-8.76-.46-15.46-1.2-20.1-2.22-4.64-1.02-8.03-2.54-10.16-4.56-.34-.33-.76-.35-1.25-.07-1.27.91-2.9,1.96-4.88,3.14-1.19.69-2.4.88-3.63.57s-2.09-1.05-2.57-2.23c-.48-1.18-.46-2.42.05-3.72.52-1.3,1.41-2.3,2.69-2.99.25-.16.68-.42,1.3-.76.62-.34,1.05-.6,1.3-.76.44-.24.71-.63.8-1.16l2.47-14.05c.08-.44-.1-.69-.53-.76l-.72-.04ZM260.54,8.42c1.16-.78,2.39-1.12,3.71-1,1.31.11,2.35.66,3.11,1.63.32.46.77,1.09,1.37,1.9s1.12,1.54,1.58,2.21c.46.67.9,1.3,1.33,1.9.67,1.01.86,2.16.59,3.46-.27,1.29-.97,2.33-2.08,3.12-1.03.79-2.18,1.14-3.45,1.05-1.27-.09-2.27-.64-2.97-1.65-.96-1.34-2.47-3.37-4.53-6.09-.73-.92-.96-2.05-.71-3.37.25-1.32.94-2.37,2.05-3.15ZM280.23,22.29c-.09.48-.08.82.02,1,.1.18.37.29.81.31l1.38.07,1.39.07c.57.03.96-.03,1.16-.17.2-.14.4-.63.59-1.47.09-.53-.08-.8-.52-.83l-3.89-.21c-.49-.02-.77.21-.86.69l-.09.53ZM285.07,55.43c-1.69.76-3.28,1.45-4.76,2.08-.15.08-.12.19.07.34,3.32.31,7.45.59,12.38.85l7.53.39c.09,0,.16-.04.22-.12.06-.08.05-.15-.03-.2-1.88-1.16-3.89-2.27-6.02-3.31-.78-.39-1.3-1.01-1.57-1.85-.28-.83-.25-1.69.08-2.56.17-.48.06-.73-.33-.75l-4.56-.24c-.18,0-.32.06-.44.21-.12.15-.14.32-.09.5.16.85,0,1.73-.46,2.64s-1.14,1.58-2.02,2.02ZM288.04,40.41l-.13.73c-.08.48.14.74.67.77l5.94.31c.48.03.77-.2.85-.69l.13-.73c.09-.53-.1-.83-.57-.89l-5.94-.31c-.22-.01-.42.08-.61.27-.19.19-.3.37-.33.55ZM302.9,22.95l-.09.53c-.08.48-.08.82.03,1,.1.18.39.29.88.31l1.32.07,1.39.07c.57.03.97-.04,1.2-.2.23-.17.43-.64.62-1.43.09-.53-.1-.8-.59-.83l-3.9-.2c-.49-.03-.77.21-.85.69Z"/>
      <path class="cls-3" d="M336.09,28.12c-1.36,1.04-2.79,1.33-4.29.88s-2.41-1.49-2.71-3.09c-.36-1.95-.13-3.92.68-5.9.82-1.98,2.11-3.66,3.88-5.03l10.26-7.82c4.38-3.23,9.08-4.74,14.09-4.54l.52.03c2.09.11,3.75.96,4.97,2.54,1.22,1.59,1.64,3.43,1.28,5.52l-8.77,49.92c-.37,2.09-1.42,3.84-3.16,5.24-1.74,1.4-3.66,2.05-5.75,1.94l-.52-.03c-2.09-.11-3.75-.94-4.97-2.5s-1.65-3.38-1.28-5.47l7.02-39.99h-.09s-.09,0-.09,0l-11.05,8.3Z"/>
    </g>
  </g>
  <g>
    <g>
      <path class="cls-2" d="M1.7,52.76h32.69c.66,0,1.2-.54,1.2-1.2V17.18c0-.66-.54-1.2-1.2-1.2H1.7c-1.07,0-1.6,1.29-.85,2.04l15.5,15.5c.47.47.47,1.22,0,1.69L.85,50.72c-.75.75-.22,2.04.85,2.04Z"/>
      <path d="M34.39,53.26H1.7c-.7,0-1.3-.4-1.57-1.05-.27-.65-.13-1.35.37-1.85l15.5-15.5c.27-.27.27-.71,0-.99L.5,18.38c-.49-.49-.63-1.2-.37-1.85s.87-1.05,1.57-1.05h32.69c.93,0,1.7.76,1.7,1.7v34.39c0,.93-.76,1.7-1.7,1.7ZM1.7,16.48c-.43,0-.6.33-.64.43-.04.1-.15.45.15.76l15.5,15.5c.66.66.66,1.74,0,2.4L1.21,51.07c-.3.31-.19.66-.15.76.04.1.21.43.64.43h32.69c.38,0,.7-.31.7-.7V17.18c0-.38-.31-.7-.7-.7H1.7Z"/>
    </g>
    <rect x="35.09" y="5.44" width="1" height="57.85"/>
  </g>
  <g>
    <g>
      <path class="cls-2" d="M415.04,15.98h-32.69c-.66,0-1.2.54-1.2,1.2v34.39c0,.66.54,1.2,1.2,1.2h32.69c1.07,0,1.6-1.29.85-2.04l-15.5-15.5c-.47-.47-.47-1.22,0-1.69l15.5-15.5c.75-.75.22-2.04-.85-2.04Z"/>
      <path d="M415.04,53.26h-32.69c-.93,0-1.7-.76-1.7-1.7V17.18c0-.93.76-1.7,1.7-1.7h32.69c.7,0,1.3.4,1.57,1.05.27.65.13,1.35-.37,1.85l-15.5,15.5c-.13.13-.2.31-.2.49s.07.36.2.49l15.5,15.5c.49.49.64,1.2.37,1.85-.27.65-.87,1.05-1.57,1.05ZM382.35,16.48c-.38,0-.7.31-.7.7v34.39c0,.38.31.7.7.7h32.69c.43,0,.6-.33.64-.43.04-.1.15-.45-.15-.76l-15.5-15.5c-.32-.32-.5-.74-.5-1.2,0-.45.18-.88.5-1.2l15.5-15.5c.31-.31.19-.66.15-.76-.04-.1-.21-.43-.64-.43h-32.69Z"/>
    </g>
    <rect x="380.65" y="5.44" width="1" height="57.85"/>
  </g>
</svg>