<?xml version="1.0" encoding="UTF-8"?>
<svg xmlns="http://www.w3.org/2000/svg" xmlns:xlink="http://www.w3.org/1999/xlink" viewBox="0 0 221.41 352.82">
  <defs>
    <style>
      .cls-1 {
        fill: #382902;
      }

      .cls-1, .cls-2, .cls-3, .cls-4, .cls-5, .cls-6, .cls-7, .cls-8, .cls-9, .cls-10, .cls-11, .cls-12, .cls-13, .cls-14, .cls-15, .cls-16, .cls-17, .cls-18, .cls-19, .cls-20, .cls-21, .cls-22 {
        fill-rule: evenodd;
      }

      .cls-2 {
        fill: #ffc266;
      }

      .cls-23 {
        clip-rule: evenodd;
      }

      .cls-23, .cls-6, .cls-24 {
        fill: #fdcaad;
      }

      .cls-3 {
        fill: #e07762;
      }

      .cls-4 {
        fill: #ff7664;
      }

      .cls-5 {
        fill: #ffe363;
      }

      .cls-7 {
        fill: #8c3e1f;
      }

      .cls-8 {
        fill: #fefefe;
      }

      .cls-9 {
        fill: #fff;
      }

      .cls-25 {
        fill: #fff652;
      }

      .cls-10 {
        fill: #ffb8d8;
      }

      .cls-11 {
        fill: #d66c62;
      }

      .cls-26 {
        isolation: isolate;
      }

      .cls-12 {
        fill: #fff875;
      }

      .cls-13 {
        fill: #ffde55;
      }

      .cls-14 {
        fill: #e2f24e;
      }

      .cls-15 {
        fill: #ffbd35;
      }

      .cls-16 {
        fill: #f5916a;
      }

      .cls-17 {
        fill: #ff88c4;
      }

      .cls-18 {
        fill: #c96457;
      }

      .cls-19 {
        fill: #ffce51;
      }

      .cls-27 {
        fill: #b4d300;
      }

      .cls-27, .cls-24 {
        mix-blend-mode: multiply;
      }

      .cls-20 {
        fill: #70361c;
      }

      .cls-21 {
        fill: #4c230e;
      }

      .cls-28 {
        clip-path: url(#clippath);
      }

      .cls-22 {
        fill: #2492dd;
      }
    </style>
    <clipPath id="clippath">
      <path class="cls-23" d="M184.42,99.53c-.12,5.63.46,13.85,2.64,20.5,4.46,13.66-.82,25.4-9.85,33.72-20.77,14.42-50.98,12.35-68.95-1.93-15.09-11.99-22.22-29.4-19.47-43.96,2.1-11.16,9.1-11.79,21.22-16.65,12.32-4.94,17.44-7.9,24.48-18.09,2.21-3.21,2.46-4.19,5.44-4.3,24.28-.92,36.45,13.1,44.49,30.71Z"/>
    </clipPath>
  </defs>
  <g class="cls-26">
    <g id="_圖層_3" data-name="圖層 3">
      <g>
        <ellipse class="cls-27" cx="121.4" cy="335.47" rx="89.79" ry="17.35"/>
        <g>
          <path class="cls-16" d="M166.19,206.72c-.96-4.95-1.93-9.91-2.89-14.86-3.32-17.07-27.54-16.48-26.21-2.53.38,3.98.76,7.97,1.14,11.95.91,9.52,4.14,36.68,15.62,40.24,10.64,3.3,13.85-27.08,12.35-34.79Z"/>
          <g>
            <path class="cls-5" d="M71.39,6.41c25.19-11.52,31.97-4.3,48.46-2.81,22.13,2.01,37.38-.18,52.11,30.19,19.13,39.44-24.4,10.51-55.5,24.87-31.1,14.37-64.81,53.37-78.1,26.31-16-32.58-.5-35.64,9.67-50.26,7-10.06,3.98-19.45,23.35-28.31Z"/>
            <path class="cls-19" d="M46.69,44.95c8.8-5.85,31.75-18.07,31.76-31.73,0-2.49-1.65-6.24-6.86-4.11-8.85,3.63-12.93,8.58-16.42,15.81-2.93,6.07-6.82,13.41-12.23,18.37-4.57,4.2-1.19,4.95,3.74,1.67Z"/>
            <path class="cls-15" d="M159.89,15.7c5,3.33,7.4,8.85,12.07,18.1,19.79,39.2-24.4,10.51-55.5,24.87-31.1,14.37-64.81,53.37-78.1,26.31-4.23-8.61-6.25-15.15-6.76-20.4,10.87-10.82,21.13-19.04,44.66-30.39,23.53-11.35,60.01-19.1,83.62-18.5Z"/>
          </g>
          <g>
            <path class="cls-12" d="M78.57,42.46c57.83-22.21,118.38-20.88,135.23,2.96,16.86,23.85-16.36,61.18-74.19,83.39-57.83,22.21-118.38,20.88-135.23-2.96-16.86-23.85,16.36-61.18,74.19-83.39Z"/>
            <path class="cls-19" d="M81.79,47.01c57.83-22.21,118.38-20.88,135.23,2.96,16.86,23.85-16.36,61.18-74.19,83.39-57.83,22.21-118.38,20.88-135.23-2.96-16.86-23.85,16.36-61.18,74.19-83.39Z"/>
          </g>
          <g>
            <path class="cls-17" d="M139.57,202.15c4.58-5.26,16.95-8,27.87-4.55-1.92-11.84-9.52-21.48-16.95-27.5-8.54-6.92-15.86-6.59-19.29-.64-4.53,7.86-.92,18.04,4.45,29.44.36.76,2.85,4.47,3.92,3.24Z"/>
            <path class="cls-2" d="M168.37,200.71c2.43.68,1.08-5.22-1.07-5.91-11.51-3.44-21.47-1.51-30.87,2.85-1.04.48.1,2.9.82,3.9.73,1,2.16,1.43,3.2.95,8.38-3.89,17.64-4.87,27.92-1.79Z"/>
          </g>
          <path class="cls-20" d="M139.73,217.4c11.35-15.38,22.5-41.18,3.72-47.38-2.3-.76-1.5-2.4.74-3.59,3.42-1.8,1.08-1.59,3.38-.64,22.57,9.28,9.3,39.71-3.42,51.15-2.61,2.35-1.69,3.66-3.52,3.89-1.73.22-3.37-.11-.92-3.44Z"/>
          <g>
            <path class="cls-21" d="M134.56,181.03c-16.84,24.36-15.04,50.31-38.74,64.42-4.08-.35-11.75,1.62-17.93,2.63-15.03,2.45-24.13-2.8-23.85-16.66.37-18.47-5.13-48.82,14.35-58.1,10.83-5.16,38.43-13.53,48.53-11.55,8.29,1.63,13.84,15.83,17.64,19.26Z"/>
            <path class="cls-7" d="M52.91,226.62c1.84-17.15-4.29-42.68,12.92-51.88,7.63-4.08,16.09,3.09,16.54,10.78.77,13.4-1.39,34.09-3.7,47.05-2.01,11.3-8.4,15.5-15.02,14.43-4.88-.79-12.39-4.97-10.74-20.37Z"/>
          </g>
          <g>
            <g>
              <path class="cls-6" d="M155.63,253.52c-9.63,1.49-17.06,2.64-26.69,4.12,9.78,26.34,21.9,52.03,22.59,74.83.32,10.69,8.04-.73,23.08.04-.09-26.62-10.05-52.64-18.99-79Z"/>
              <path class="cls-16" d="M130.46,261.74c.26.71,3.77,9.69,6.75,17.34,1.86-4.93,20.18-7.66,28.99,6.15-2.3-8.51-6.05-17.87-8.49-25.4l-27.25,1.92Z"/>
              <g>
                <path class="cls-9" d="M151.56,330.36c-.73-11.36-3.93-17.24-7.71-29.12-.58-1.84-1.22-2.83.86-2.67,7.87.61,17.27-1.89,24.28-4.92,1.7-.12,1.81,2.31,1.99,3.18,2.2,10.72,4.39,23.42,4.33,33.49-8.75.43-14.99-.39-23.74.04Z"/>
                <path class="cls-22" d="M146.56,302.22c7.64.4,14.75-1.91,21.71-4.42,1.45-.52,2.24.76.62,1.46-6.39,2.76-14.2,4.95-21.83,4.96-1.85,0-2.05-2.08-.5-1.99Z"/>
                <path class="cls-22" d="M147.74,305.4c7.19.38,13.89-1.8,20.44-4.16,1.36-.49,2.02.45.5,1.11-6.02,2.6-13.47,4.58-20.65,4.58-1.74,0-1.75-1.61-.28-1.53Z"/>
              </g>
            </g>
            <g>
              <path class="cls-20" d="M154.28,333.98c-1.8.24-5.96-1.03-6.37.75-.64,2.79-.82,5.31,2.77,5.62,9.82.85,25.25-.2,43.87-6.04,8.08-2.54,1.79-5.72-2.6-6.66-15.73-3.35-12.87,2.98-37.67,6.34Z"/>
              <path class="cls-21" d="M152.05,323.93c-1.81-.71-3.44-.13-3.19,3.17.29,3.81-3.65,10.17,1.98,10.73,9.39.95,24.1.07,41.77-5.55,7.67-2.44,1.6-5.68-2.61-6.66-4.97-1.15-11.3-1.03-12.08-4.66-1.09-5.03-8.22.13-10.47,1.71-5.25,3.71-10.26,3.25-15.4,1.24Z"/>
              <path class="cls-20" d="M169.97,325.69c2.3-3.09,4.6-3.59,7.17-3.89,2.73-.32,4.41,1.28,2.16,1.53-2.17.24-4.93.61-6.91,3.12-1.15,1.46-3.4.53-2.43-.77Z"/>
              <path class="cls-20" d="M173.63,326.77c2.07-3.04,4.21-3.5,6.61-3.75,2.54-.27,4.16,1.34,2.06,1.56-2.02.21-4.59.53-6.38,3-1.04,1.44-3.16.48-2.29-.8Z"/>
              <path class="cls-20" d="M177.48,327.47c2.07-3.04,4.21-3.49,6.61-3.75,2.54-.27,4.06,1.2,1.96,1.41-2.02.21-4.16.62-5.95,3.09-1.04,1.44-3.49.53-2.62-.75Z"/>
            </g>
          </g>
          <path class="cls-20" d="M61.43,330.2c-1.76-.17-5.14-2.23-6.18-.69-1.62,2.41-2.73,4.68.48,5.74,8.78,2.9,23.48,5.28,42.91,3.95,8.43-.58,3.78-4.86.06-6.66-13.34-6.47-13.03-.06-37.27-2.34Z"/>
          <path class="cls-6" d="M114.85,254.51c-9.98.15-17.68.26-27.65.4-7.51,25.09-14.24,50.95-28.04,71.7-6.47,9.73,4.13,4.41,17.75,6.99,12.63-15.28,29.64-54.09,37.95-79.09Z"/>
          <path class="cls-9" d="M59.29,325.41c6.51-10.39,9.92-21.52,13.89-32.75.61-1.74.86-2.94,2.5-2.31,6.45,2.5,15.63,4.51,23.62,4.71,1.67.1.34,1.82-.05,2.63-4.73,9.99-10.92,20.48-17.35,29.6-8.48-.7-14.13-1.17-22.61-1.87Z"/>
          <path class="cls-16" d="M86.03,258.81c-1.48,4.93-2.93,10.28-4.5,15.16h0c6.04-5.87,21.37-2.09,21.9,10.4,3.23-8,6.89-16.75,9.38-23.89l-26.79-1.66Z"/>
          <path class="cls-21" d="M63.09,320.51c-1.41-1.04-3.14-.86-4.13,2.22-1.14,3.56-7.15,8.53-2.15,10.26,8.35,2.9,22.31,5.28,40.78,3.95,8.01-.58,3.59-4.86.05-6.66-4.17-2.13-10.09-3.39-9.47-6.88.86-4.84-7.67-1.66-10.34-.69-6.25,2.26-10.72.76-14.74-2.19Z"/>
          <path class="cls-20" d="M79.04,325.99c3.28-2.34,5.6-2.29,8.09-2.01,2.65.3,3.62,2.13,1.44,1.87-2.1-.25-4.79-.51-7.56,1.37-1.61,1.09-3.35-.25-1.97-1.23Z"/>
          <path class="cls-10" d="M170.1,257.89c2.49,7.54,3.18,8.93-1.58,10.08-28.83,6.99-55.86,8.6-89.67-.73-3.94-1.09-3.96-1.46-2.32-4.78,4.27-8.65,15.15-27.87,15.96-36.46.52-5.49-3.1-11.53-3.02-17.52.09-6.59-1.59-12.33-1.7-18.93-.14-8.91,2.49-13.95,9.38-17.59,5.23-2.76,13.23-5.68,22.48-3.33,9.05,2.3,16.76,3.13,22.37,6.63,24.54,15.34,16.63,47.91,28.11,82.62Z"/>
          <path class="cls-9" d="M82.73,263.96c27.45,6.04,51.81,6.86,83.22.43,4.62-.94,5.98.47,1.13,1.78-30.28,8.19-58.83,6.28-84.86.3-6.25-1.44-5.93-3.93.5-2.51Z"/>
          <path class="cls-20" d="M82.04,327.77c3.04-2.34,5.2-2.29,7.52-2.01,2.46.3,3.36,2.13,1.33,1.87-1.95-.25-4.45-.51-7.02,1.37-1.5,1.09-3.11-.25-1.83-1.23Z"/>
          <path class="cls-20" d="M85.34,329.25c3.04-2.34,5.2-2.29,7.52-2.01,2.46.3,3.32,1.97,1.29,1.72-1.95-.25-4.09-.33-6.66,1.54-1.5,1.09-3.43-.27-2.15-1.25Z"/>
          <path class="cls-22" d="M74.87,294.24c6.4,3.2,13.89,3.85,21.36,4.27,1.55.09,1.51,1.5-.3,1.5-7.12,0-15.15-1.01-21.78-3.85-1.61-.69-.6-2.57.71-1.92Z"/>
          <path class="cls-22" d="M74.08,297.44c6.03,3.02,13.08,3.62,20.11,4.02,1.46.08,1.5,1.15-.2,1.15-6.71,0-14.3-1.06-20.54-3.73-1.51-.65-.6-2.05.63-1.43Z"/>
          <path class="cls-14" d="M122.03,165.39c-7.41-.11-11.01-1.57-13.76.09-4.92,2.96-4.16,6.3-1.26,8.82,5.98,5.18,22.58,6.3,29.22,2.98,7.49-3.75,7.37-9.6-.71-12-3.7-1.1-5.86.23-13.49.11Z"/>
          <path class="cls-13" d="M134.23,190.48c2.94,10.62,10.81,12.83,12.32,21.35,1.22,6.9,4.03.83,5.14-1.57,4.05-8.75-.12-14.25-10.87-19.77-4.6-2.36-7.46-3.14-6.59-.02Z"/>
          <path class="cls-25" d="M126.63,191.6c-6.72,7.59-1.65,14.94,3.59,20.82,2.75,3.08,4.86,6.88,5.11,11.24.36,6.14,5.77,1.76,8.32-2.8,5.79-10.31,4.53-18.08-2.58-26.21-4.13-4.72-9.32-8.84-14.45-3.05Z"/>
          <path class="cls-13" d="M143.85,205.89c-.78-6.97-4.39-12.16-8.66-17.7-.52-.68-1.62-.82-2.44-.31-.82.51-1.69.32-1.16,1,3.93,5.1,9.08,10.85,9.79,17.26.41,3.69,2.86,3.19,2.48-.25Z"/>
          <path class="cls-25" d="M137.9,187.28c-5.65,1.84-5.11-.24-10.76,1.6-1.24-.85-3.28-2.77-5.02-3.88-3.91-2.49-20.92-9.61-24.03-10.16-8.28-1.44-3.94-8.41,1-11.31,12.01-7.04,23.73-3.82,36.44-.8,11.01,2.62,16.73,8.13,12.88,9.71-8.09,3.31-4.85,13-10.52,14.84Z"/>
          <path class="cls-13" d="M131.75,184.67c.23.82-.52,1,.42.8.94-.2,4.75.99,4.52.16-.23-9.37-12.92-11.34-17.99-14.14-4.5-2.48-6.63-2.27-2.62.53,3.86,2.7,14.96,3.71,15.67,12.65Z"/>
          <path class="cls-13" d="M123.14,189.54c.85,1.85,1.28,3.11,4.15,3.69,2.92-1.14,9.4-1.27,12.22-.66,3.67.79,3.36-2.64,1.03-4.94-4.79-4.73-21.19-6.33-17.4,1.92Z"/>
          <path class="cls-16" d="M139.72,169.71c-2.45,2.11-5.07,8.82-7.69,7.92-3.03-2.48-18.48-6.07-21.39-8.79-2.96-2.76-1.89-7.13.79-7.31,5.28-.36,25.45-1.56,28.13,2.72,1.45,2.31,2.34,3.59.17,5.46Z"/>
          <g>
            <path class="cls-16" d="M87.99,212.53c2.54-3.87,5.09-7.75,7.63-11.62,8.76-13.35-15.97-23.07-24.52-12.75-2.44,2.95-4.88,5.9-7.32,8.85-5.84,7.05-21.83,27.43-12.84,34.73,8.34,6.77,33.09-13.18,37.05-19.21Z"/>
            <path class="cls-11" d="M87.99,212.53l4.65-7.08-26.55-11.23h0s-2.31,2.79-2.31,2.79c-.82.99-1.84,2.25-2.97,3.69h0c9.53,1.25,16.66,7.41,22.57,16.83h.02s1.16-1.12,1.16-1.12c1.59-1.55,2.79-2.9,3.43-3.88Z"/>
            <path class="cls-17" d="M63.99,197.14c8.52.21,19.9,6.67,24,15.39,10.65-7.28,15.14-17.05,16.06-24.85,1.06-8.97-4.36-13.46-12.78-12.59-11.11,1.15-18.91,8.65-26.73,17.9-.52.62-2.55,4.1-.56,4.15Z"/>
            <path class="cls-2" d="M62.13,199.02c-2.5-.4-.4-5.44,1.84-5.16,11.91,1.7,21.76,7.89,28.55,15.79.75.87-1.27,2.59-2.35,3.19-1.08.61-2.56.39-3.3-.48-6.05-7.05-14.1-11.82-24.74-13.34Z"/>
          </g>
          <path class="cls-20" d="M79.49,238c14.67-19.88,30.89-53.86,6.61-61.87-2.97-.98-1.94-3.11.96-4.64,4.41-2.33,6.74-1.68,9.72-.46,29.17,11.99,8.47,53.05-7.96,67.84-3.37,3.04-5.79,3.27-8.15,3.57-2.24.29-4.36-.15-1.19-4.44Z"/>
          <path class="cls-16" d="M110.92,203.2c4.28-.55,9.13-.19,13.41-.74,5.57-6.83-1.19-9.05-3.55-5.86-2.12,2.86-7.42,5.08-9.86,6.59Z"/>
          <path class="cls-6" d="M100.41,216.34c1.5-1.2,3.43.09,6.98-3.2,1.42-1.31,2.78-.39,2.8.9.03,2.58,2.99,3.74,6.39,1.66,2.61.05,4.77-.11,6.58-2.36,4.63-.14,7.28-4.22,4.17-8.04-.94-1.16-.4-1.02.73-.9,3.1.32,5.89,1.08,8.11,1.82,5.64,1.87,8.15-1.12,2.23-4.27-10.21-5.43-25.78-3.89-36.79-.78-10.58,2.99-24.99,6.28-35.65,9.43-29.74,8.78-18.99,33.15,1.05,28.19,14.96-3.71,24.06-15.01,33.4-22.45Z"/>
          <path class="cls-16" d="M116.97,204.74c4.79,1.4,6.24,4.61,5.97,8.37-.04.55.52.34.81-.67,1.19-4.19-.7-7.04-6.03-8.76-1.68-.54-2.22.63-.75,1.06Z"/>
          <path class="cls-16" d="M111.9,208.11c4.11,1.18,5.21,4.35,4.38,7.43-.16.58.74.4,1.05-1.31.66-3.55-.58-5.66-4.52-7.14-2.02-.76-2.5.57-.91,1.03Z"/>
          <path class="cls-16" d="M126.12,203.25c-1.16-1.14-2.29-1.89-3.9-2.5-1.68-.63-2.26.77-.77,1.29,1.44.5,3.19,1.09,4.39,2.15.48.43,2.03.76.28-.94Z"/>
          <path class="cls-18" d="M90.78,65.86c40.71-17.79,84.38-18.71,97.55-2.06,13.16,16.66-9.17,44.58-49.88,62.37-40.71,17.79-83.04,16.37-96.2-.28-13.16-16.66,7.82-42.24,48.53-60.04Z"/>
          <path class="cls-16" d="M156.67,54.79c16.03,9.92,29.48,22.43,27.9,41.65-.44,5.3-.13,15.57,2.49,23.58,8.03,24.56-15.46,42.93-35.54,46.3-31.43,5.27-59.49-6.96-76.5-29.51-13,1.97-26.75-5.91-26.4-17.52.3-10.14,15.64-15.43,25.2-7.84,13.46-41.05,31.99-52.93,82.85-56.66Z"/>
          <path class="cls-1" d="M105.81,162.23l-51.21,16.05c-6.99,0-17.64-53.25-16.27-66.06h0c1.85-9.76,8.2-16.42,14.88-22.7,7.94-7.46,17.6-14.64,21.84-14.64l-3.6,19.42c6.99,0,13.64,5.72,13.64,12.7l3.11,31.95c2.01,19.29,24.11,22.14,17.61,23.27Z"/>
          <g>
            <path class="cls-6" d="M184.42,99.53c-.12,5.63.46,13.85,2.64,20.5,4.46,13.66-.82,25.4-9.85,33.72-20.77,14.42-50.98,12.35-68.95-1.93-15.09-11.99-22.22-29.4-19.47-43.96,2.1-11.16,9.1-11.79,21.22-16.65,12.32-4.94,17.44-7.9,24.48-18.09,2.21-3.21,2.46-4.19,5.44-4.3,24.28-.92,36.45,13.1,44.49,30.71Z"/>
            <g class="cls-28">
              <circle class="cls-24" cx="111.43" cy="128.09" r="15.87"/>
              <circle class="cls-24" cx="192.11" cy="121.37" r="15.87"/>
            </g>
          </g>
          <path class="cls-9" d="M136.05,96.49c8.63,4.03,12.09,12.78,7.74,19.53-4.35,6.75-14.88,8.96-23.51,4.93-8.63-4.03-12.09-12.78-7.74-19.53,4.36-6.75,14.88-8.96,23.51-4.93Z"/>
          <path class="cls-21" d="M109.64,109c-4.51-18.43,28.11-24.19,35.34-5.16,1.04,2.74.67,3.19-1.21.33-9.66-14.63-34.46-8.56-32.42,5.39.58,3.96-.77,3.26-1.71-.56Z"/>
          <path class="cls-16" d="M161.7,119.11c2.66-.69,5.05.01,5.33,1.58.28,1.57-1.64,3.4-4.31,4.09-2.66.69-5.05-.01-5.33-1.58-.28-1.56,1.64-3.39,4.31-4.09Z"/>
          <g>
            <path class="cls-7" d="M131.67,101.56c6.1,2.7,8.64,9.05,5.67,14.19-2.97,5.14-10.31,7.11-16.41,4.42-6.1-2.7-8.64-9.05-5.67-14.19,2.97-5.14,10.31-7.11,16.41-4.42Z"/>
            <path class="cls-21" d="M129.73,104.93c3.89,1.72,5.51,5.77,3.62,9.05-1.89,3.28-6.58,4.54-10.47,2.82-3.89-1.72-5.51-5.77-3.62-9.05,1.89-3.28,6.58-4.54,10.47-2.82Z"/>
            <path class="cls-9" d="M118.71,102.78c1.64.73,2.32,2.43,1.52,3.81-.8,1.38-2.77,1.91-4.41,1.19-1.64-.72-2.32-2.43-1.52-3.81.8-1.38,2.77-1.91,4.41-1.19Z"/>
          </g>
          <path class="cls-3" d="M158.48,110.75c.43,1.3,2.89,3.52,4.68,3.83,9.08,1.57,8.03,8.85-.14,10.69-2.59.59-3.52-.79-.9-1.68,5.09-1.73,6.01-5.93-.52-7.05-3.01-.52-4.17-2.94-4.91-5.19-.73-2.22,1.04-2.91,1.8-.6Z"/>
          <g>
            <path class="cls-4" d="M141.93,129.99c4.95,1.27,11.01,1.72,16.79.9,4.95-.7,7.73,3.28,4.79,7.67-5.16,7.7-13.71,9.11-20.58,7.56-15.63-3.52-11.56-18.85-1-16.14Z"/>
            <path class="cls-8" d="M144.07,130.4c2.18.38,4.5.67,6.86.8.95.05,2.49-.04,4.14-.15,1.8-.12,5.25-.65,7.02.19-4.79,8.42-22.21,8.3-23.98-1.44,2.1-.46,3.98.26,5.95.61Z"/>
          </g>
          <path class="cls-1" d="M169.6,53.64c-.25-.04-.5-.12-.75-.17-41.05-9.13-106.03,16.17-126.24,48.05-1.99,3.14.21,10.96,7.42,12.97,5.9-7.85,19.69-8.32,27.1-.02,6.73,5.94,8.04-1.27,7.87-4.91-.77-15.83,9.6-19.53,19.46-22.18l67.49-8.56s15.04,5.37,12.62,17.63c0,0,26.78-35.64-14.96-42.81Z"/>
          <path class="cls-1" d="M85.1,107.01s2.07,26.2,13.21,36.71c.52.49-.04,1.33-.7,1.06-7.59-3.12-21.61-9.78-25.96-17.93"/>
          <path class="cls-9" d="M181.42,114.66c-3.05,4.48-12.23,2.14-16.7-6.82-3.33-6.67-1.95-12.65,1.47-14.65,8-4.67,19.58,15.06,15.23,21.46Z"/>
          <path class="cls-21" d="M162.22,98.11c.82-8.17,8.57-9.25,14.01-3.8,5.1,5.11,8.8,13.78,6.55,18.72-.97,2.14-2.21,3.23-1.07.45,1.74-4.23-1.66-13.39-7-17.78-4.48-3.68-10.66-3.3-11.39,3.12-.31,2.7-1.31,1.43-1.09-.71Z"/>
          <g>
            <path class="cls-7" d="M173.28,98.27c4.49,2.55,7.53,8.5,6.8,13.28-.74,4.79-4.97,6.6-9.47,4.05-4.49-2.55-7.53-8.5-6.8-13.28.74-4.79,4.97-6.6,9.46-4.05Z"/>
            <path class="cls-21" d="M172.8,101.41c2.86,1.63,4.81,5.42,4.34,8.47-.47,3.05-3.17,4.21-6.04,2.58-2.86-1.63-4.81-5.42-4.34-8.47.47-3.05,3.17-4.21,6.04-2.58Z"/>
            <path class="cls-9" d="M165.87,98.99c1.26.78,2.01,2.59,1.66,4.04-.35,1.45-1.66,2-2.92,1.23-1.26-.78-2.01-2.59-1.66-4.04.35-1.45,1.66-2,2.92-1.23Z"/>
          </g>
          <path class="cls-21" d="M112.31,90.61s13.45-7.53,25.86-1.2c-2.77.13-11.81-2.02-25.86,1.2Z"/>
          <path class="cls-21" d="M160.52,87.69s6.92-6.42,14.41-2.03c-1.55.22-6.79-1.07-14.41,2.03Z"/>
        </g>
      </g>
    </g>
  </g>
</svg>