<?xml version="1.0" encoding="UTF-8"?>
<svg id="_圖層_3" data-name="圖層 3" xmlns="http://www.w3.org/2000/svg" viewBox="0 0 376.03 68.25">
  <defs>
    <style>
      .cls-1 {
        fill: #fff;
      }

      .cls-2 {
        fill: #fff922;
      }

      .cls-3 {
        fill: none;
        stroke: #000;
        stroke-miterlimit: 10;
        stroke-width: 3px;
      }
    </style>
  </defs>
  <g>
    <g>
      <path class="cls-2" d="M1.7,54.3h32.69c.66,0,1.2-.54,1.2-1.2V18.71c0-.66-.54-1.2-1.2-1.2H1.7c-1.07,0-1.6,1.29-.85,2.04l15.5,15.5c.47.47.47,1.22,0,1.69L.85,52.25c-.75.75-.22,2.04.85,2.04Z"/>
      <path d="M34.39,54.8H1.7c-.7,0-1.3-.4-1.57-1.05s-.13-1.35.37-1.85l15.5-15.5c.27-.27.27-.71,0-.99L.5,19.91c-.49-.49-.63-1.2-.37-1.85.27-.65.87-1.05,1.57-1.05h32.69c.93,0,1.7.76,1.7,1.7v34.39c0,.93-.76,1.7-1.7,1.7ZM1.7,18.02c-.43,0-.6.33-.64.43-.04.1-.15.45.15.76l15.5,15.5c.66.66.66,1.74,0,2.4L1.21,52.61c-.3.31-.19.66-.15.76.04.1.21.43.64.43h32.69c.38,0,.7-.31.7-.7V18.71c0-.38-.31-.7-.7-.7H1.7Z"/>
    </g>
    <rect x="35.09" y="6.98" width="1" height="57.85"/>
  </g>
  <g>
    <g>
      <path class="cls-2" d="M374.34,17.52h-32.69c-.66,0-1.2.54-1.2,1.2v34.39c0,.66.54,1.2,1.2,1.2h32.69c1.07,0,1.6-1.29.85-2.04l-15.5-15.5c-.47-.47-.47-1.22,0-1.69l15.5-15.5c.75-.75.22-2.04-.85-2.04Z"/>
      <path d="M374.34,54.8h-32.69c-.93,0-1.7-.76-1.7-1.7V18.71c0-.93.76-1.7,1.7-1.7h32.69c.7,0,1.3.4,1.57,1.05.27.65.13,1.35-.37,1.85l-15.5,15.5c-.27.27-.27.71,0,.99l15.5,15.5c.49.49.63,1.2.37,1.85s-.87,1.05-1.57,1.05ZM341.64,18.02c-.38,0-.7.31-.7.7v34.39c0,.38.31.7.7.7h32.69c.43,0,.6-.33.64-.43.04-.1.15-.45-.15-.76l-15.5-15.5c-.66-.66-.66-1.74,0-2.4l15.5-15.5c.3-.31.19-.66.15-.76-.04-.1-.21-.43-.64-.43h-32.69Z"/>
    </g>
    <rect x="339.95" y="6.98" width="1" height="57.85"/>
  </g>
  <g>
    <g>
      <path class="cls-3" d="M49.77,60.23c-.26-.55-.34-1.11-.24-1.68.08-.44.24-.85.48-1.24.62-.99,1.49-1.52,2.61-1.59,7.02-.52,12.49-1.54,16.4-3.07.05-.04.08-.1.09-.16.01-.07-.03-.1-.11-.11l-14.53-.76c-1.19-.06-2.13-.53-2.82-1.41-.69-.88-.93-1.91-.72-3.1.21-1.19.8-2.18,1.79-2.97.98-.79,2.07-1.16,3.26-1.09l20.21,1.06c.4.02.62-.14.69-.5.26-1.49,1.01-2.74,2.26-3.74,1.24-1,2.61-1.46,4.11-1.38l1.52.08c.18,0,.31-.05.4-.18.09-.13.12-.26.1-.39-.52-1.36-1.32-2.86-2.41-4.52-.43-.6-.53-1.25-.29-1.95.23-.7.71-1.23,1.45-1.59.01-.09,0-.13-.04-.14l-2.18-.11c-.97-.05-1.73-.45-2.29-1.19-.56-.74-.75-1.61-.57-2.62l.14-.79c.14-.79.51-1.44,1.11-1.94.6-.5,1.29-.73,2.09-.69.04,0,.09-.03.15-.09.06-.06.07-.14.04-.23-.03-.09-.06-.18-.08-.27-.21-.59-.26-1.17-.16-1.74.08-.48.28-.96.58-1.43.67-1.03,1.61-1.58,2.82-1.65.27-.03.56-.06.88-.09.13,0,.23-.05.3-.18.07-.13.06-.24,0-.33-.3-.33-.67-.74-1.11-1.26-.15-.14-.33-.17-.52-.09-.32.03-.61.04-.87.02-.48-.03-.93-.14-1.34-.34-.65-.34-1.14-.86-1.46-1.54-.28-.46-.55-.89-.84-1.31-.04-.05-.1-.06-.19-.04-.09.02-.15.07-.16.16l-4.32,24.6c-.23,1.32-.89,2.41-1.97,3.26-1.08.85-2.27,1.25-3.57,1.18-1.3-.07-2.32-.58-3.06-1.53-.75-.95-1-2.08-.77-3.4l1.18-6.73c.08-.44-.11-.67-.54-.69l-.53-.03c-.44-.02-.7.19-.78.62-.46,1.88-1.1,3.71-1.9,5.49-.71,1.52-1.5,2.85-2.37,4-.8,1.02-1.9,1.59-3.29,1.69-.27.03-.54.04-.8.02-1.06-.06-2-.39-2.82-1.01-.84-.53-1.27-1.35-1.3-2.46,0-.31.04-.62.1-.93.13-.75.43-1.44.9-2.08,1.08-1.58,1.89-3.41,2.43-5.46.05-.26-.06-.4-.33-.42-.92-.05-1.65-.42-2.17-1.11-.52-.69-.7-1.5-.54-2.42l.12-.66c.2-1.14.76-2.09,1.67-2.84s1.94-1.1,3.08-1.04l9.97.52c.44.02.7-.19.78-.62l.13-.73c.08-.44-.11-.67-.54-.69l-5.35-.28c-1.58-.08-2.84-.7-3.77-1.86-.93-1.16-1.25-2.53-.98-4.11l.96-5.47c.22-1.23.82-2.23,1.83-3,1-.77,2.1-1.12,3.28-1.06s2.14.52,2.86,1.38c.72.86.97,1.9.75,3.13l-.45,2.57c-.08.44.1.67.54.69l1.72.09c.44.02.7-.19.78-.63l.72-4.09c.22-1.28.87-2.35,1.93-3.23,1.06-.88,2.25-1.28,3.54-1.21,1.3.07,2.33.59,3.09,1.56.76.97,1.03,2.1.81,3.37l-.32,1.85c-.03.18,0,.32.12.44.11.12.26.16.44.12,6.16-.92,11.12-2.21,14.87-3.88,2.31-1.03,4.4-1.5,6.24-1.4.66.04,1.29.13,1.88.3l2.47.73c.34.11.53.34.58.7.05.36-.08.64-.38.84-.05.04-.06.09-.02.13l5.28.28c.09,0,.2.01.33.02.28-.07.55-.1.82-.09.62.03,1.2.22,1.77.56l1.33.8c.68.39,1.07.97,1.16,1.73.04.27.04.51,0,.73-.09.53-.33,1-.72,1.43-1.52,1.56-3.19,2.99-5.01,4.26-1.92,1.32-4.03,2.45-6.33,3.4-.1.04-.14.09-.13.16.01.07.06.1.15.11l1.58.08c1.01.05,1.81.45,2.39,1.19.58.74.79,1.59.62,2.56-.05.31.05.47.32.48l4.29.23c1.01.05,1.81.45,2.39,1.19.58.74.78,1.61.61,2.59-.17.99-.68,1.82-1.5,2.48-.83.67-1.75.97-2.76.92l-4.03-.21c-.44-.02-.7.19-.78.62l-.27,1.52c-.35,1.98-.85,3.44-1.5,4.38-.72,1.07-1.83,1.81-3.32,2.22-.29.12-.57.21-.85.29-.09,0-.14.05-.16.16-.02.11.02.17.1.17,1.58.62,2.94,1.2,4.09,1.75.62.26.96.73,1.02,1.42.06.69-.16,1.31-.66,1.86,0,.04,0,.09.01.13.01.05.04.07.09.07l1.85.1c1.14.06,2.06.53,2.75,1.41.69.88.93,1.91.72,3.1-.21,1.19-.8,2.18-1.79,2.97-.98.79-2.05,1.16-3.19,1.1l-14.79-.77c-.09,0-.15.03-.18.09-.03.07-.01.12.07.17,3.25,1.99,8.43,3.33,15.55,4.01,1.09.1,1.8.65,2.11,1.64.13.5.16.96.09,1.4-.09.53-.36,1.05-.81,1.55-1.19,1.49-2.61,2.61-4.26,3.37-1.31.64-2.63.93-3.95.86-.26-.01-.53-.03-.79-.04-4.35-.76-7.97-1.77-10.86-3.03-3.71-1.62-6.63-3.85-8.75-6.71-.25-.32-.56-.34-.92-.05-2.53,2-5.79,3.62-9.78,4.88-3.86,1.22-8.43,2.09-13.72,2.61-.37.07-.75.09-1.14.07-1.1-.06-2.11-.38-3.03-.96-1.29-.78-2.25-1.87-2.89-3.28ZM93.62,45.02h.07s.01-.06.01-.06c-.8-.26-1.26-.8-1.38-1.6-.04-.27-.04-.53,0-.8.08-.48.34-.94.77-1.36l.66-.7s-.01-.07-.05-.07c-.44-.02-.67-.26-.68-.7-.05-.98-.19-2.09-.41-3.35-.08-.31-.26-.39-.56-.23l-5.16,2.46s-.05.02-.01.07c.35.02.63.16.83.41.2.25.27.56.21.91l-.73,4.16c-.06.35.11.54.5.56l5.94.31ZM92.21,32.17c.2.37.52.56.96.58,1.31.11,2.94.22,4.87.32.35.02.58-.01.68-.1.1-.08.18-.26.22-.52l.21-1.19c.08-.44-.11-.67-.54-.69l-7.06-.37c-.13,0-.23.04-.29.15-.06.11-.06.21.01.3.31.5.62,1.01.93,1.51ZM92.55,13.15c-.18.04-.29.14-.32.32-.02.13,0,.24.07.34.5.47.98,1.01,1.45,1.61.18.23.38.35.6.36.13,0,.25,0,.34-.05.28-.07.58-.12.89-.15.14-.04.23-.13.28-.29.05-.15.03-.25-.05-.3-.65-.61-1.28-1.2-1.89-1.76-.31-.24-.7-.3-1.17-.19-.05.04-.12.08-.22.12ZM99.88,23.39c.44.02.7-.19.78-.62l.18-1.05c.03-.18-.01-.31-.13-.41-.12-.1-.24-.12-.38-.09-2.3.68-4.72,1.22-7.28,1.62-.05.04-.08.08-.09.13s0,.07.05.07l6.87.36ZM101.01,11.66c-.13,0-.21.06-.23.19-.02.09.02.16.1.21.38.33.73.64,1.04.92.14.18.33.28.55.29.18,0,.34-.03.49-.11.63-.32,1.24-.62,1.82-.9.1-.04.15-.1.17-.19.02-.13-.03-.2-.16-.21l-3.76-.2Z"/>
      <path class="cls-3" d="M121.86,56.01c-1.21.29-2.26.08-3.15-.63-.9-.71-1.29-1.67-1.16-2.86.1-1.33.62-2.52,1.56-3.58.94-1.06,2.08-1.73,3.42-2.02.18-.03.46-.11.84-.22.38-.11.65-.19.84-.22.46-.11.76-.4.89-.88l4.98-28.36c.08-.44-.12-.69-.6-.76l-.66-.04c-1.23-.06-2.19-.55-2.88-1.45-.69-.9-.92-1.96-.71-3.16.21-1.21.82-2.23,1.84-3.07,1.01-.83,2.11-1.22,3.3-1.16l13.01.68c1.23.06,2.19.56,2.87,1.48.68.92.92,1.99.7,3.2-.21,1.21-.82,2.22-1.83,3.03-1.01.81-2.11,1.19-3.3,1.12l-.73-.04c-.44-.02-.73.21-.85.69l-4.32,24.6c-.03.18,0,.32.12.44.11.12.25.11.4-.01l.5-.17c1.08-.34,2-.2,2.75.44.75.64,1.04,1.46.87,2.47-.25,1.41-.84,2.68-1.77,3.8-.93,1.13-2.05,1.97-3.34,2.52-4.59,1.62-9.12,3.01-13.59,4.15ZM171.06,15.25c-.15.35-.37.85-.66,1.5-.17.48-.02.73.47.76l9.64.5c1.58.08,2.84.71,3.76,1.89.93,1.18,1.25,2.56.97,4.15l-4.24,24.14c-.28,1.58-1.08,2.91-2.4,3.97-1.32,1.06-2.77,1.55-4.36,1.47l-5.22-.27c-.09,0-.15.03-.18.09-.03.06-.03.12,0,.17,3.55,1.56,6.77,3.17,9.68,4.83,1.01.58,1.57,1.48,1.7,2.68.12,1.2-.19,2.3-.94,3.28-.81,1.07-1.85,1.73-3.12,2-1.27.27-2.41.11-3.41-.48-3.4-1.87-6.13-3.27-8.19-4.22-1.32-.6-2.1-1.62-2.36-3.05-.26-1.43.1-2.79,1.08-4.07l.68-.83c.11-.13.14-.27.08-.43-.06-.16-.18-.24-.36-.25l-9.31-.49c-.18,0-.31.06-.4.21-.09.15-.11.29-.04.43l.3.55c.66,1.32.7,2.74.12,4.27-.58,1.52-1.64,2.62-3.18,3.29-2.87,1.18-6.08,2.25-9.63,3.22-1.31.37-2.51.28-3.61-.29s-1.9-1.46-2.39-2.69c-.39-1.09-.26-2.16.36-3.21.63-1.05,1.55-1.73,2.75-2.02,4.02-1.12,7.7-2.35,11.04-3.68.15-.08.12-.19-.08-.34l-2.97-.16c-1.58-.08-2.85-.72-3.79-1.93-.94-1.2-1.28-2.57-1.01-4.11l4.24-24.14c.28-1.58,1.09-2.9,2.43-3.97s2.8-1.55,4.39-1.47l5.94.31c.48.03.83-.18,1.04-.61.28-.61.5-1.11.66-1.5.17-.48.02-.73-.47-.76l-9.44-.49c-1.19-.06-2.13-.53-2.82-1.41-.69-.88-.93-1.9-.73-3.07.2-1.17.8-2.14,1.78-2.94.98-.79,2.07-1.16,3.26-1.09l34,1.78c1.19.06,2.12.53,2.78,1.41.67.88.9,1.9.7,3.07-.21,1.17-.8,2.14-1.78,2.94-.98.79-2.05,1.16-3.19,1.1l-12.54-.66c-.48-.03-.83.18-1.04.61ZM171.07,44.81l.19-1.06c.08-.48-.16-.74-.73-.77l-17.17-.9c-.48-.03-.77.2-.85.69l-.19,1.06c-.09.48.11.74.6.76l17.17.9c.57.03.9-.2.99-.68ZM172.61,36.03l.16-.92c.08-.48-.16-.74-.73-.77l-17.17-.9c-.49-.02-.77.21-.85.69l-.16.92c-.08.48.11.76.59.83l17.17.9c.58-.01.91-.26,1-.75ZM173.56,25.7l-17.17-.9c-.49-.03-.77.23-.87.75l-.15.86c-.08.49.11.76.59.83l17.17.9c.53.03.86-.22,1-.75l.15-.86c.04-.22-.03-.41-.2-.58-.17-.16-.34-.25-.52-.26Z"/>
      <path class="cls-3" d="M198.71,28.07c-1.3.55-2.53.59-3.68.11-1.16-.48-1.9-1.34-2.21-2.58-.32-1.24-.15-2.49.5-3.77.65-1.28,1.62-2.21,2.93-2.81,7.29-3.34,13.89-7.15,19.79-11.41,3.45-2.44,7-3.58,10.66-3.44l2.25.12c3.7.19,6.81,1.69,9.34,4.48,4.39,4.85,9.5,9.26,15.33,13.25,1.12.72,1.77,1.74,1.97,3.03.19,1.3-.08,2.57-.84,3.82-.74,1.16-1.76,1.92-3.06,2.27-1.31.35-2.48.19-3.51-.48-1.32-.82-2.79-1.83-4.4-3.03-.12-.09-.26-.1-.43-.02-.17.08-.27.23-.31.45l-5.69,32.38c-.27,1.54-1.04,2.82-2.31,3.84-1.27,1.02-2.67,1.49-4.21,1.41-1.54-.08-2.75-.69-3.61-1.82-.87-1.13-1.17-2.47-.9-4.01l5.1-29.02c.28-1.58,1.08-2.9,2.4-3.97,1.32-1.06,2.77-1.55,4.36-1.47l2.05.11c.23-.03.27-.16.14-.39-4.86-3.94-9.29-8.45-13.28-13.54-.29-.37-.67-.37-1.13,0-5.69,4.58-11.6,8.54-17.74,11.85-.16.17-.14.3.06.4l3.04.16c1.58.08,2.84.71,3.76,1.89.93,1.18,1.25,2.56.97,4.15l-.15.86c-1.56,8.88-3.64,15.55-6.25,20.01-2.6,4.46-6.58,8.12-11.92,10.99-1.42.72-2.81.89-4.19.51-1.38-.38-2.42-1.19-3.14-2.43-.55-1.18-.56-2.42-.04-3.73.52-1.3,1.42-2.34,2.71-3.12,3.5-1.99,6.11-4.61,7.81-7.84,1.7-3.24,3.14-8.22,4.32-14.95l.89-5.08c.03-.17-.02-.31-.16-.41-.14-.1-.28-.1-.43-.02-2.15,1.08-4.4,2.17-6.76,3.24Z"/>
      <path class="cls-3" d="M257.29,60.61c-.81-.18-1.41-.63-1.79-1.36s-.46-1.51-.22-2.34c1.45-4.72,2.62-8.87,3.52-12.46.23-.83.71-1.52,1.43-2.06.72-.54,1.49-.76,2.32-.68.82.13,1.45.53,1.89,1.2.44.67.56,1.42.37,2.25-1.24,5.04-2.45,9.41-3.64,13.12-.23.79-.74,1.42-1.53,1.88-.79.47-1.57.62-2.34.44ZM286.88,36.67c.07.89-.22,1.69-.85,2.38-.63.7-1.38,1.12-2.25,1.25l-1.72.31c-.41.07-.79-.03-1.12-.29-.33-.26-.51-.59-.52-.99.02-.13-.05-.2-.23-.21l-2.2.02c-.48-.03-.79.22-.93.75l-3.54,20.18c-.25,1.41-.95,2.57-2.11,3.48-1.16.92-2.43,1.34-3.82,1.26-1.39-.07-2.49-.63-3.3-1.67s-1.11-2.24-.87-3.61l3.4-19.39c.08-.44-.17-.7-.73-.77l-2.14.02c-1.34.02-2.42-.43-3.26-1.34s-1.17-2.02-.98-3.35l.02-.13c.19-1.32.81-2.45,1.86-3.4,1.05-.94,2.22-1.4,3.51-1.38.44.02.83-.16,1.16-.54.06-.09.13-.17.21-.26.08-.08.15-.17.21-.25.34-.42.42-.87.23-1.32-.27-.5-.69-1.27-1.26-2.3-.58-1.03-1-1.77-1.28-2.23-1.73-3.06-1.7-6.26.08-9.58l1.27-2.33c.28-.56.75-.88,1.43-.96.68-.07,1.17.14,1.49.64.14.19.28.19.4.02.37-.6,1.32-2.21,2.85-4.84.64-1.12,1.54-1.9,2.71-2.35,1.17-.45,2.27-.47,3.31-.06,1.04.41,1.72,1.13,2.05,2.17.33,1.04.18,2.05-.43,3.04-2.46,3.86-4.51,6.97-6.17,9.33-.29.38-.32.8-.09,1.26.04,0,.06.03.05.07,0,.04,0,.09.04.14.06.14.19.22.39.25.19.03.35-.04.47-.21,2.14-2.82,3.7-4.91,4.7-6.28.76-1.03,1.73-1.72,2.93-2.08,1.2-.36,2.31-.31,3.34.14.99.45,1.58,1.2,1.77,2.26.19,1.05-.06,2.07-.77,3.05-1.86,2.48-3.56,4.72-5.11,6.72-.06.09-.06.2,0,.33.06.14.12.18.17.14,1.29-.24,2.42-.03,3.42.65.99.67,1.53,1.63,1.63,2.88.18,2.27.36,5.39.56,9.35ZM280.38,42.19c.76-.05,1.41.18,1.94.7.53.52.75,1.15.67,1.9-.42,4.64-.81,8.54-1.19,11.72-.1.79-.47,1.5-1.13,2.1-.66.61-1.39.91-2.19.92-.8,0-1.46-.28-1.98-.84-.52-.56-.74-1.26-.63-2.1.38-2.69.82-6.46,1.32-11.31.05-.79.4-1.5,1.04-2.11.64-.61,1.36-.94,2.17-.98ZM279.03,29.73c.44.02.68-.23.73-.76-.04-.27-.08-.73-.12-1.37-.04-.64-.08-1.15-.1-1.5-.02-.13-.11-.22-.26-.25-.15-.03-.28.02-.39.15l-2.63,3.19c-.24.34-.12.53.37.55h2.4ZM302.78,28.45c-3.15,3.79-6.8,6.61-10.95,8.48-.15.08-.12.19.08.34l23.17,1.21c1.58.08,2.84.71,3.76,1.89.93,1.18,1.25,2.56.97,4.14l-3.02,17.21c-.25,1.45-.99,2.67-2.21,3.65-1.22.98-2.55,1.43-4,1.35l-2.71-.14c-.71-.04-1.26-.31-1.66-.82-.4-.51-.53-1.14-.4-1.88.04-.22-.05-.33-.27-.35l-13.01-.68c-.22-.01-.35.09-.39.31-.12.7-.46,1.29-1.01,1.78s-1.2.7-1.95.66l-2.51-.13c-1.41-.07-2.49-.62-3.25-1.63-.75-1.02-1.01-2.23-.76-3.63l3.62-20.64c.12-.7.46-1.3,1.01-1.78.55-.48,1.18-.7,1.88-.67.22.01.3-.07.24-.25l-1.06-2.32c-.56-1.36-.55-2.76.04-4.19.58-1.43,1.54-2.67,2.88-3.71,3.72-2.73,6.57-6.56,8.54-11.47.17-.48.02-.73-.47-.76l-5.48-.29c-1.19-.06-2.13-.53-2.82-1.41-.69-.88-.93-1.9-.73-3.07.2-1.16.8-2.14,1.78-2.93.98-.79,2.07-1.16,3.26-1.09l26.34,1.38c1.63.08,2.91.71,3.84,1.86.93,1.16,1.23,2.53.91,4.11-1.31,6.94-2.57,12.01-3.77,15.21-1.21,3.2-2.49,5.24-3.84,6.12s-3.33,1.26-5.93,1.12c-.09,0-1.75-.13-5-.39-1.61-.17-2.88-.85-3.81-2.03-.93-1.18-1.27-2.58-1.03-4.21l.03-.2c.02-.09-.03-.16-.13-.21-.1-.05-.18-.03-.24.05ZM295.07,46.55l-1.32,7.52c-.09.53.1.8.59.83l12.15.64c.22.01.42-.05.6-.2.18-.15.29-.33.33-.55l1.32-7.52c.08-.48-.14-.74-.67-.77l-12.15-.64c-.48-.03-.77.2-.85.69ZM304.98,25.43c-.08.17-.08.34-.02.5.06.16.18.24.36.25,2.4.26,4.17.42,5.31.48.7.04,1.28-.14,1.73-.54.45-.4.92-1.38,1.42-2.96.5-1.57,1.03-3.96,1.59-7.17.08-.48-.12-.74-.6-.76l-4.03-.21c-.48-.03-.83.2-1.05.68-1.21,3.58-2.78,6.82-4.71,9.74Z"/>
    </g>
    <g>
      <path class="cls-1" d="M49.77,60.23c-.26-.55-.34-1.11-.24-1.68.08-.44.24-.85.48-1.24.62-.99,1.49-1.52,2.61-1.59,7.02-.52,12.49-1.54,16.4-3.07.05-.04.08-.1.09-.16.01-.07-.03-.1-.11-.11l-14.53-.76c-1.19-.06-2.13-.53-2.82-1.41-.69-.88-.93-1.91-.72-3.1.21-1.19.8-2.18,1.79-2.97.98-.79,2.07-1.16,3.26-1.09l20.21,1.06c.4.02.62-.14.69-.5.26-1.49,1.01-2.74,2.26-3.74,1.24-1,2.61-1.46,4.11-1.38l1.52.08c.18,0,.31-.05.4-.18.09-.13.12-.26.1-.39-.52-1.36-1.32-2.86-2.41-4.52-.43-.6-.53-1.25-.29-1.95.23-.7.71-1.23,1.45-1.59.01-.09,0-.13-.04-.14l-2.18-.11c-.97-.05-1.73-.45-2.29-1.19-.56-.74-.75-1.61-.57-2.62l.14-.79c.14-.79.51-1.44,1.11-1.94.6-.5,1.29-.73,2.09-.69.04,0,.09-.03.15-.09.06-.06.07-.14.04-.23-.03-.09-.06-.18-.08-.27-.21-.59-.26-1.17-.16-1.74.08-.48.28-.96.58-1.43.67-1.03,1.61-1.58,2.82-1.65.27-.03.56-.06.88-.09.13,0,.23-.05.3-.18.07-.13.06-.24,0-.33-.3-.33-.67-.74-1.11-1.26-.15-.14-.33-.17-.52-.09-.32.03-.61.04-.87.02-.48-.03-.93-.14-1.34-.34-.65-.34-1.14-.86-1.46-1.54-.28-.46-.55-.89-.84-1.31-.04-.05-.1-.06-.19-.04-.09.02-.15.07-.16.16l-4.32,24.6c-.23,1.32-.89,2.41-1.97,3.26-1.08.85-2.27,1.25-3.57,1.18-1.3-.07-2.32-.58-3.06-1.53-.75-.95-1-2.08-.77-3.4l1.18-6.73c.08-.44-.11-.67-.54-.69l-.53-.03c-.44-.02-.7.19-.78.62-.46,1.88-1.1,3.71-1.9,5.49-.71,1.52-1.5,2.85-2.37,4-.8,1.02-1.9,1.59-3.29,1.69-.27.03-.54.04-.8.02-1.06-.06-2-.39-2.82-1.01-.84-.53-1.27-1.35-1.3-2.46,0-.31.04-.62.1-.93.13-.75.43-1.44.9-2.08,1.08-1.58,1.89-3.41,2.43-5.46.05-.26-.06-.4-.33-.42-.92-.05-1.65-.42-2.17-1.11-.52-.69-.7-1.5-.54-2.42l.12-.66c.2-1.14.76-2.09,1.67-2.84s1.94-1.1,3.08-1.04l9.97.52c.44.02.7-.19.78-.62l.13-.73c.08-.44-.11-.67-.54-.69l-5.35-.28c-1.58-.08-2.84-.7-3.77-1.86-.93-1.16-1.25-2.53-.98-4.11l.96-5.47c.22-1.23.82-2.23,1.83-3,1-.77,2.1-1.12,3.28-1.06s2.14.52,2.86,1.38c.72.86.97,1.9.75,3.13l-.45,2.57c-.08.44.1.67.54.69l1.72.09c.44.02.7-.19.78-.63l.72-4.09c.22-1.28.87-2.35,1.93-3.23,1.06-.88,2.25-1.28,3.54-1.21,1.3.07,2.33.59,3.09,1.56.76.97,1.03,2.1.81,3.37l-.32,1.85c-.03.18,0,.32.12.44.11.12.26.16.44.12,6.16-.92,11.12-2.21,14.87-3.88,2.31-1.03,4.4-1.5,6.24-1.4.66.04,1.29.13,1.88.3l2.47.73c.34.11.53.34.58.7.05.36-.08.64-.38.84-.05.04-.06.09-.02.13l5.28.28c.09,0,.2.01.33.02.28-.07.55-.1.82-.09.62.03,1.2.22,1.77.56l1.33.8c.68.39,1.07.97,1.16,1.73.04.27.04.51,0,.73-.09.53-.33,1-.72,1.43-1.52,1.56-3.19,2.99-5.01,4.26-1.92,1.32-4.03,2.45-6.33,3.4-.1.04-.14.09-.13.16.01.07.06.1.15.11l1.58.08c1.01.05,1.81.45,2.39,1.19.58.74.79,1.59.62,2.56-.05.31.05.47.32.48l4.29.23c1.01.05,1.81.45,2.39,1.19.58.74.78,1.61.61,2.59-.17.99-.68,1.82-1.5,2.48-.83.67-1.75.97-2.76.92l-4.03-.21c-.44-.02-.7.19-.78.62l-.27,1.52c-.35,1.98-.85,3.44-1.5,4.38-.72,1.07-1.83,1.81-3.32,2.22-.29.12-.57.21-.85.29-.09,0-.14.05-.16.16-.02.11.02.17.1.17,1.58.62,2.94,1.2,4.09,1.75.62.26.96.73,1.02,1.42.06.69-.16,1.31-.66,1.86,0,.04,0,.09.01.13.01.05.04.07.09.07l1.85.1c1.14.06,2.06.53,2.75,1.41.69.88.93,1.91.72,3.1-.21,1.19-.8,2.18-1.79,2.97-.98.79-2.05,1.16-3.19,1.1l-14.79-.77c-.09,0-.15.03-.18.09-.03.07-.01.12.07.17,3.25,1.99,8.43,3.33,15.55,4.01,1.09.1,1.8.65,2.11,1.64.13.5.16.96.09,1.4-.09.53-.36,1.05-.81,1.55-1.19,1.49-2.61,2.61-4.26,3.37-1.31.64-2.63.93-3.95.86-.26-.01-.53-.03-.79-.04-4.35-.76-7.97-1.77-10.86-3.03-3.71-1.62-6.63-3.85-8.75-6.71-.25-.32-.56-.34-.92-.05-2.53,2-5.79,3.62-9.78,4.88-3.86,1.22-8.43,2.09-13.72,2.61-.37.07-.75.09-1.14.07-1.1-.06-2.11-.38-3.03-.96-1.29-.78-2.25-1.87-2.89-3.28ZM93.62,45.02h.07s.01-.06.01-.06c-.8-.26-1.26-.8-1.38-1.6-.04-.27-.04-.53,0-.8.08-.48.34-.94.77-1.36l.66-.7s-.01-.07-.05-.07c-.44-.02-.67-.26-.68-.7-.05-.98-.19-2.09-.41-3.35-.08-.31-.26-.39-.56-.23l-5.16,2.46s-.05.02-.01.07c.35.02.63.16.83.41.2.25.27.56.21.91l-.73,4.16c-.06.35.11.54.5.56l5.94.31ZM92.21,32.17c.2.37.52.56.96.58,1.31.11,2.94.22,4.87.32.35.02.58-.01.68-.1.1-.08.18-.26.22-.52l.21-1.19c.08-.44-.11-.67-.54-.69l-7.06-.37c-.13,0-.23.04-.29.15-.06.11-.06.21.01.3.31.5.62,1.01.93,1.51ZM92.55,13.15c-.18.04-.29.14-.32.32-.02.13,0,.24.07.34.5.47.98,1.01,1.45,1.61.18.23.38.35.6.36.13,0,.25,0,.34-.05.28-.07.58-.12.89-.15.14-.04.23-.13.28-.29.05-.15.03-.25-.05-.3-.65-.61-1.28-1.2-1.89-1.76-.31-.24-.7-.3-1.17-.19-.05.04-.12.08-.22.12ZM99.88,23.39c.44.02.7-.19.78-.62l.18-1.05c.03-.18-.01-.31-.13-.41-.12-.1-.24-.12-.38-.09-2.3.68-4.72,1.22-7.28,1.62-.05.04-.08.08-.09.13s0,.07.05.07l6.87.36ZM101.01,11.66c-.13,0-.21.06-.23.19-.02.09.02.16.1.21.38.33.73.64,1.04.92.14.18.33.28.55.29.18,0,.34-.03.49-.11.63-.32,1.24-.62,1.82-.9.1-.04.15-.1.17-.19.02-.13-.03-.2-.16-.21l-3.76-.2Z"/>
      <path class="cls-1" d="M121.86,56.01c-1.21.29-2.26.08-3.15-.63-.9-.71-1.29-1.67-1.16-2.86.1-1.33.62-2.52,1.56-3.58.94-1.06,2.08-1.73,3.42-2.02.18-.03.46-.11.84-.22.38-.11.65-.19.84-.22.46-.11.76-.4.89-.88l4.98-28.36c.08-.44-.12-.69-.6-.76l-.66-.04c-1.23-.06-2.19-.55-2.88-1.45-.69-.9-.92-1.96-.71-3.16.21-1.21.82-2.23,1.84-3.07,1.01-.83,2.11-1.22,3.3-1.16l13.01.68c1.23.06,2.19.56,2.87,1.48.68.92.92,1.99.7,3.2-.21,1.21-.82,2.22-1.83,3.03-1.01.81-2.11,1.19-3.3,1.12l-.73-.04c-.44-.02-.73.21-.85.69l-4.32,24.6c-.03.18,0,.32.12.44.11.12.25.11.4-.01l.5-.17c1.08-.34,2-.2,2.75.44.75.64,1.04,1.46.87,2.47-.25,1.41-.84,2.68-1.77,3.8-.93,1.13-2.05,1.97-3.34,2.52-4.59,1.62-9.12,3.01-13.59,4.15ZM171.06,15.25c-.15.35-.37.85-.66,1.5-.17.48-.02.73.47.76l9.64.5c1.58.08,2.84.71,3.76,1.89.93,1.18,1.25,2.56.97,4.15l-4.24,24.14c-.28,1.58-1.08,2.91-2.4,3.97-1.32,1.06-2.77,1.55-4.36,1.47l-5.22-.27c-.09,0-.15.03-.18.09-.03.06-.03.12,0,.17,3.55,1.56,6.77,3.17,9.68,4.83,1.01.58,1.57,1.48,1.7,2.68.12,1.2-.19,2.3-.94,3.28-.81,1.07-1.85,1.73-3.12,2-1.27.27-2.41.11-3.41-.48-3.4-1.87-6.13-3.27-8.19-4.22-1.32-.6-2.1-1.62-2.36-3.05-.26-1.43.1-2.79,1.08-4.07l.68-.83c.11-.13.14-.27.08-.43-.06-.16-.18-.24-.36-.25l-9.31-.49c-.18,0-.31.06-.4.21-.09.15-.11.29-.04.43l.3.55c.66,1.32.7,2.74.12,4.27-.58,1.52-1.64,2.62-3.18,3.29-2.87,1.18-6.08,2.25-9.63,3.22-1.31.37-2.51.28-3.61-.29s-1.9-1.46-2.39-2.69c-.39-1.09-.26-2.16.36-3.21.63-1.05,1.55-1.73,2.75-2.02,4.02-1.12,7.7-2.35,11.04-3.68.15-.08.12-.19-.08-.34l-2.97-.16c-1.58-.08-2.85-.72-3.79-1.93-.94-1.2-1.28-2.57-1.01-4.11l4.24-24.14c.28-1.58,1.09-2.9,2.43-3.97s2.8-1.55,4.39-1.47l5.94.31c.48.03.83-.18,1.04-.61.28-.61.5-1.11.66-1.5.17-.48.02-.73-.47-.76l-9.44-.49c-1.19-.06-2.13-.53-2.82-1.41-.69-.88-.93-1.9-.73-3.07.2-1.17.8-2.14,1.78-2.94.98-.79,2.07-1.16,3.26-1.09l34,1.78c1.19.06,2.12.53,2.78,1.41.67.88.9,1.9.7,3.07-.21,1.17-.8,2.14-1.78,2.94-.98.79-2.05,1.16-3.19,1.1l-12.54-.66c-.48-.03-.83.18-1.04.61ZM171.07,44.81l.19-1.06c.08-.48-.16-.74-.73-.77l-17.17-.9c-.48-.03-.77.2-.85.69l-.19,1.06c-.09.48.11.74.6.76l17.17.9c.57.03.9-.2.99-.68ZM172.61,36.03l.16-.92c.08-.48-.16-.74-.73-.77l-17.17-.9c-.49-.02-.77.21-.85.69l-.16.92c-.08.48.11.76.59.83l17.17.9c.58-.01.91-.26,1-.75ZM173.56,25.7l-17.17-.9c-.49-.03-.77.23-.87.75l-.15.86c-.08.49.11.76.59.83l17.17.9c.53.03.86-.22,1-.75l.15-.86c.04-.22-.03-.41-.2-.58-.17-.16-.34-.25-.52-.26Z"/>
      <path class="cls-1" d="M198.71,28.07c-1.3.55-2.53.59-3.68.11-1.16-.48-1.9-1.34-2.21-2.58-.32-1.24-.15-2.49.5-3.77.65-1.28,1.62-2.21,2.93-2.81,7.29-3.34,13.89-7.15,19.79-11.41,3.45-2.44,7-3.58,10.66-3.44l2.25.12c3.7.19,6.81,1.69,9.34,4.48,4.39,4.85,9.5,9.26,15.33,13.25,1.12.72,1.77,1.74,1.97,3.03.19,1.3-.08,2.57-.84,3.82-.74,1.16-1.76,1.92-3.06,2.27-1.31.35-2.48.19-3.51-.48-1.32-.82-2.79-1.83-4.4-3.03-.12-.09-.26-.1-.43-.02-.17.08-.27.23-.31.45l-5.69,32.38c-.27,1.54-1.04,2.82-2.31,3.84-1.27,1.02-2.67,1.49-4.21,1.41-1.54-.08-2.75-.69-3.61-1.82-.87-1.13-1.17-2.47-.9-4.01l5.1-29.02c.28-1.58,1.08-2.9,2.4-3.97,1.32-1.06,2.77-1.55,4.36-1.47l2.05.11c.23-.03.27-.16.14-.39-4.86-3.94-9.29-8.45-13.28-13.54-.29-.37-.67-.37-1.13,0-5.69,4.58-11.6,8.54-17.74,11.85-.16.17-.14.3.06.4l3.04.16c1.58.08,2.84.71,3.76,1.89.93,1.18,1.25,2.56.97,4.15l-.15.86c-1.56,8.88-3.64,15.55-6.25,20.01-2.6,4.46-6.58,8.12-11.92,10.99-1.42.72-2.81.89-4.19.51-1.38-.38-2.42-1.19-3.14-2.43-.55-1.18-.56-2.42-.04-3.73.52-1.3,1.42-2.34,2.71-3.12,3.5-1.99,6.11-4.61,7.81-7.84,1.7-3.24,3.14-8.22,4.32-14.95l.89-5.08c.03-.17-.02-.31-.16-.41-.14-.1-.28-.1-.43-.02-2.15,1.08-4.4,2.17-6.76,3.24Z"/>
      <path class="cls-1" d="M257.29,60.61c-.81-.18-1.41-.63-1.79-1.36s-.46-1.51-.22-2.34c1.45-4.72,2.62-8.87,3.52-12.46.23-.83.71-1.52,1.43-2.06.72-.54,1.49-.76,2.32-.68.82.13,1.45.53,1.89,1.2.44.67.56,1.42.37,2.25-1.24,5.04-2.45,9.41-3.64,13.12-.23.79-.74,1.42-1.53,1.88-.79.47-1.57.62-2.34.44ZM286.88,36.67c.07.89-.22,1.69-.85,2.38-.63.7-1.38,1.12-2.25,1.25l-1.72.31c-.41.07-.79-.03-1.12-.29-.33-.26-.51-.59-.52-.99.02-.13-.05-.2-.23-.21l-2.2.02c-.48-.03-.79.22-.93.75l-3.54,20.18c-.25,1.41-.95,2.57-2.11,3.48-1.16.92-2.43,1.34-3.82,1.26-1.39-.07-2.49-.63-3.3-1.67s-1.11-2.24-.87-3.61l3.4-19.39c.08-.44-.17-.7-.73-.77l-2.14.02c-1.34.02-2.42-.43-3.26-1.34s-1.17-2.02-.98-3.35l.02-.13c.19-1.32.81-2.45,1.86-3.4,1.05-.94,2.22-1.4,3.51-1.38.44.02.83-.16,1.16-.54.06-.09.13-.17.21-.26.08-.08.15-.17.21-.25.34-.42.42-.87.23-1.32-.27-.5-.69-1.27-1.26-2.3-.58-1.03-1-1.77-1.28-2.23-1.73-3.06-1.7-6.26.08-9.58l1.27-2.33c.28-.56.75-.88,1.43-.96.68-.07,1.17.14,1.49.64.14.19.28.19.4.02.37-.6,1.32-2.21,2.85-4.84.64-1.12,1.54-1.9,2.71-2.35,1.17-.45,2.27-.47,3.31-.06,1.04.41,1.72,1.13,2.05,2.17.33,1.04.18,2.05-.43,3.04-2.46,3.86-4.51,6.97-6.17,9.33-.29.38-.32.8-.09,1.26.04,0,.06.03.05.07,0,.04,0,.09.04.14.06.14.19.22.39.25.19.03.35-.04.47-.21,2.14-2.82,3.7-4.91,4.7-6.28.76-1.03,1.73-1.72,2.93-2.08,1.2-.36,2.31-.31,3.34.14.99.45,1.58,1.2,1.77,2.26.19,1.05-.06,2.07-.77,3.05-1.86,2.48-3.56,4.72-5.11,6.72-.06.09-.06.2,0,.33.06.14.12.18.17.14,1.29-.24,2.42-.03,3.42.65.99.67,1.53,1.63,1.63,2.88.18,2.27.36,5.39.56,9.35ZM280.38,42.19c.76-.05,1.41.18,1.94.7.53.52.75,1.15.67,1.9-.42,4.64-.81,8.54-1.19,11.72-.1.79-.47,1.5-1.13,2.1-.66.61-1.39.91-2.19.92-.8,0-1.46-.28-1.98-.84-.52-.56-.74-1.26-.63-2.1.38-2.69.82-6.46,1.32-11.31.05-.79.4-1.5,1.04-2.11.64-.61,1.36-.94,2.17-.98ZM279.03,29.73c.44.02.68-.23.73-.76-.04-.27-.08-.73-.12-1.37-.04-.64-.08-1.15-.1-1.5-.02-.13-.11-.22-.26-.25-.15-.03-.28.02-.39.15l-2.63,3.19c-.24.34-.12.53.37.55h2.4ZM302.78,28.45c-3.15,3.79-6.8,6.61-10.95,8.48-.15.08-.12.19.08.34l23.17,1.21c1.58.08,2.84.71,3.76,1.89.93,1.18,1.25,2.56.97,4.14l-3.02,17.21c-.25,1.45-.99,2.67-2.21,3.65-1.22.98-2.55,1.43-4,1.35l-2.71-.14c-.71-.04-1.26-.31-1.66-.82-.4-.51-.53-1.14-.4-1.88.04-.22-.05-.33-.27-.35l-13.01-.68c-.22-.01-.35.09-.39.31-.12.7-.46,1.29-1.01,1.78s-1.2.7-1.95.66l-2.51-.13c-1.41-.07-2.49-.62-3.25-1.63-.75-1.02-1.01-2.23-.76-3.63l3.62-20.64c.12-.7.46-1.3,1.01-1.78.55-.48,1.18-.7,1.88-.67.22.01.3-.07.24-.25l-1.06-2.32c-.56-1.36-.55-2.76.04-4.19.58-1.43,1.54-2.67,2.88-3.71,3.72-2.73,6.57-6.56,8.54-11.47.17-.48.02-.73-.47-.76l-5.48-.29c-1.19-.06-2.13-.53-2.82-1.41-.69-.88-.93-1.9-.73-3.07.2-1.16.8-2.14,1.78-2.93.98-.79,2.07-1.16,3.26-1.09l26.34,1.38c1.63.08,2.91.71,3.84,1.86.93,1.16,1.23,2.53.91,4.11-1.31,6.94-2.57,12.01-3.77,15.21-1.21,3.2-2.49,5.24-3.84,6.12s-3.33,1.26-5.93,1.12c-.09,0-1.75-.13-5-.39-1.61-.17-2.88-.85-3.81-2.03-.93-1.18-1.27-2.58-1.03-4.21l.03-.2c.02-.09-.03-.16-.13-.21-.1-.05-.18-.03-.24.05ZM295.07,46.55l-1.32,7.52c-.09.53.1.8.59.83l12.15.64c.22.01.42-.05.6-.2.18-.15.29-.33.33-.55l1.32-7.52c.08-.48-.14-.74-.67-.77l-12.15-.64c-.48-.03-.77.2-.85.69ZM304.98,25.43c-.08.17-.08.34-.02.5.06.16.18.24.36.25,2.4.26,4.17.42,5.31.48.7.04,1.28-.14,1.73-.54.45-.4.92-1.38,1.42-2.96.5-1.57,1.03-3.96,1.59-7.17.08-.48-.12-.74-.6-.76l-4.03-.21c-.48-.03-.83.2-1.05.68-1.21,3.58-2.78,6.82-4.71,9.74Z"/>
    </g>
  </g>
</svg>