<?xml version="1.0" encoding="UTF-8"?>
<svg id="_圖層_3" data-name="圖層 3" xmlns="http://www.w3.org/2000/svg" viewBox="0 0 304.8 67.99">
  <defs>
    <style>
      .cls-1 {
        fill: #fff;
      }

      .cls-2 {
        fill: #63ccf9;
      }
    </style>
  </defs>
  <g>
    <g>
      <path d="M99.33,67.3c-.15,0-.31,0-.46-.01-1.05-.05-2.06-.33-3.02-.82-2.21-1.04-4.72-2.14-7.42-3.26-1.11.74-2.26,1.46-3.42,2.12l-.13.07c-1.37.61-2.73.89-4.01.82-.62-.03-1.23-.15-1.82-.35-1.73-.5-3.24-1.58-4.45-3.18l-.06-.08c-.17-.26-.34-.5-.51-.72-1.24.97-2.64,1.53-4.21,1.67-.41.04-.76.04-1.09.03-1.48-.08-2.84-.57-4.02-1.47-.32-.25-.65-.5-1-.74-1.87,1.15-3.89,2.21-6.01,3.14-1.1.45-2.2.64-3.29.59-.66-.04-1.32-.19-1.96-.46-1.58-.55-2.9-1.59-3.85-3.07l-.06-.1c-.53-.98-.7-2.03-.51-3.12.07-.38.16-.75.28-1.12l.07-.17c.67-1.46,1.84-2.48,3.37-2.94,2.77-.91,5.16-2.05,7.14-3.4-.77-.4-1.46-.98-2.04-1.72-1.18-1.5-1.6-3.26-1.25-5.23l1.15-6.54c-.39-.08-.77-.21-1.12-.41-.9-.49-1.55-1.23-1.93-2.21-.26-.7-.53-1.38-.8-2.03-.42-.87-.55-1.8-.38-2.76.08-.46.26-.95.53-1.47.73-1.46,1.94-2.42,3.48-2.77,5.38-1.33,10.35-3.06,14.83-5.16-.25-.11-.49-.23-.73-.37-1.36-.73-2.42-1.77-3.14-3.08-.41.45-.84.88-1.27,1.28-1.31,1.28-2.9,1.99-4.73,2.07-.3.04-.56.05-.81.04-1.57-.08-2.94-.62-4.08-1.59-1.28-1.04-1.92-2.49-1.81-4.17l.11-.69c.24-1.34.91-2.54,2-3.56,2.1-1.94,4.08-4.18,5.88-6.66,1.11-1.44,2.48-2.48,4.12-3.12,1.05-.43,2.1-.63,3.11-.57.61.03,1.24.15,1.86.35l1.96.64c1.2.44,1.99,1.23,2.35,2.33.12.36.21.82.18,1.35l7.42.39c1.44.08,2.66.7,3.52,1.8.23.29.42.6.57.92.84-.83,1.66-1.73,2.42-2.68,1.2-1.41,2.63-2.43,4.29-3.07,1-.46,2.09-.69,3.17-.63.62.03,1.23.15,1.82.35l1.99.63c1.2.44,2,1.24,2.38,2.34.16.51.22.97.19,1.41l11.6.61c1.48.08,2.73.71,3.61,1.83.88,1.12,1.2,2.5.94,3.98-.25,1.44-.97,2.65-2.14,3.58-1.17.94-2.51,1.38-3.92,1.31l-3.1-.16c0,.24-.02.49-.06.74-.09.5-.27,1.02-.54,1.54-.83,1.39-2.04,2.23-3.56,2.52l-.63.15c-.73.18-1.47.25-2.18.21-.97-.05-1.95-.29-2.9-.72-1.58-.8-2.79-1.95-3.65-3.44-.32-.6-.64-1.18-.98-1.76l-.29-.02c-.61.64-1.23,1.24-1.84,1.8,4.81,4.11,10.86,7.38,18.04,9.74,1.59.56,2.59,1.77,2.83,3.44.08.55.08,1.1,0,1.61-.16.92-.58,1.79-1.26,2.59-.67.73-1.29,1.47-1.9,2.25-.65.8-1.44,1.35-2.36,1.67-.47.16-.93.25-1.39.25l-1.2,6.86c-.34,1.95-1.33,3.59-2.93,4.88-1.61,1.29-3.38,1.9-5.31,1.8l-1.26-.07c-.08.15-.17.3-.26.46,2.4.88,4.85,1.84,7.29,2.85,1.62.66,2.6,1.97,2.76,3.67.04.51.02.97-.06,1.39-.19,1.1-.76,2.12-1.69,3.02-1.33,1.25-2.93,2.07-4.77,2.45-.58.1-1.13.15-1.67.15ZM88.37,60.15c.31,0,.63.06.95.18,2.87,1.19,5.5,2.34,7.85,3.45.63.32,1.23.48,1.86.52.45.02.94,0,1.42-.09,1.25-.26,2.33-.8,3.25-1.67.45-.44.72-.89.8-1.36.03-.18.04-.4.02-.63-.05-.57-.31-.9-.91-1.15-2.78-1.15-5.57-2.23-8.3-3.21-.87-.32-1.18-.92-1.29-1.25-.14-.4-.2-1.04.27-1.78.35-.51.63-.97.87-1.44.58-.98,1.45-1.46,2.45-1.42l1.52.08c1.19.06,2.24-.31,3.27-1.14,1.04-.83,1.65-1.83,1.86-3.06l1.42-8.11c.09-.52.38-.94.8-1.2.42-.25.93-.31,1.43-.15l.15.06c.15.07.38.13.77-.01.4-.14.73-.37,1.01-.71.63-.81,1.31-1.61,1.99-2.36.29-.35.49-.73.56-1.13.03-.19.03-.41,0-.65-.08-.58-.31-.85-.82-1.04-7.99-2.63-14.71-6.37-19.94-11.11-.42-.37-.67-.88-.68-1.43,0-.4.12-1.01.74-1.58.85-.72,1.67-1.5,2.5-2.34.62-.65,1.41-.97,2.3-.92l.39.02c.92.05,1.68.47,2.15,1.19.45.75.84,1.45,1.19,2.12.54.93,1.31,1.66,2.32,2.18.54.24,1.16.4,1.76.43.43.03.87-.02,1.33-.13l.71-.17c.75-.14,1.21-.46,1.56-1.04.09-.17.17-.4.21-.6.03-.15.04-.35-.11-.64-.38-.6-.37-1.33.04-1.91.34-.5.95-.8,1.6-.75l4.74.25c.69.05,1.29-.17,1.89-.65.6-.48.94-1.04,1.06-1.77.12-.66.01-1.16-.34-1.61-.35-.44-.78-.66-1.41-.69l-13.34-.7c-.95-.05-1.35-.66-1.48-.92-.26-.54-.2-1.18.18-1.71.11-.16.18-.31.2-.44,0-.03.01-.12-.04-.3-.06-.16-.17-.32-.5-.44l-1.96-.62c-.36-.12-.7-.19-1.04-.21-.6-.03-1.2.1-1.86.4-1.29.5-2.28,1.21-3.14,2.21-1.39,1.74-2.97,3.35-4.65,4.74-.63.5-1.47.49-2.07,0-.47-.38-.7-.95-.61-1.53.11-.63,0-1.08-.33-1.51-.33-.42-.74-.62-1.32-.65l-9.11-.48c-.95-.05-1.35-.66-1.47-.92-.26-.54-.2-1.18.17-1.71.23-.37.16-.58.13-.68-.05-.15-.13-.31-.48-.44l-1.9-.62c-.37-.12-.74-.19-1.1-.21-.56-.03-1.18.09-1.83.36-1.16.46-2.08,1.16-2.84,2.14-1.9,2.6-4.01,4.99-6.24,7.05-.61.57-.96,1.18-1.09,1.88l-.08.44c-.03.67.2,1.16.74,1.6.66.57,1.41.85,2.31.9.09,0,.2,0,.32-.02h.15c1.1-.05,2.03-.46,2.83-1.25.77-.73,1.5-1.51,2.19-2.36l.22-.22c.39-.31.87-.46,1.4-.44.7.04,1.3.44,1.61,1.07.13.32.23.59.33.89.42,1.05,1.14,1.83,2.19,2.4.6.35,1.17.52,1.78.55.49.02.99-.03,1.48-.17l1.13-.27.4-.33.86.28c.08.03.16.07.23.11-.15-.67-.41-1.46-.75-2.35-.17-.33-.23-.71-.16-1.09.07-.37.25-.71.51-.96.41-.43.93-.64,1.5-.61l4.29.22c.71.04,1.37.26,1.96.65.83.63,1.47,1.13,2.02,1.56l.27.27c.29.38.41.85.33,1.31-.15.84-.88,1.4-1.78,1.36l-2.64-.14c-.96-.04-1.96.24-2.98.91l-.38.31-.64.04c-.28-.01-.55-.1-.77-.25l.1.59-.5.62c-.15.16-.33.29-.52.38-5.91,3.44-12.84,6.16-20.6,8.07-.7.16-1.16.54-1.5,1.22-.18.35-.23.54-.25.63-.06.34-.02.64.14.94l.04.1c.29.69.57,1.41.85,2.15.11.29.29.49.56.64.16.09.39.18.78.08.56-.18,1.14-.09,1.57.26.23.18.74.71.57,1.65l-1.42,8.12c-.2,1.12.01,2.03.66,2.86.64.82,1.44,1.22,2.5,1.28.8.04,1.45.59,1.62,1.36.15.67-.1,1.36-.65,1.79-2.5,2.21-5.9,4.05-10.03,5.41-.72.22-1.19.62-1.51,1.26-.06.21-.11.42-.15.63-.07.4-.01.76.17,1.13.58.89,1.36,1.49,2.36,1.84.41.17.74.25,1.06.26.66.04,1.3-.08,1.96-.35,2.06-.9,4.04-1.95,5.87-3.09.93-.57,1.97-.54,2.77.07.45.32.92.66,1.37,1.01.69.53,1.47.81,2.35.85.2.01.42,0,.66-.02,1.19-.11,2.2-.58,3.08-1.44.57-.6,1.21-.72,1.61-.68,0,0,.02,0,.02,0l-.29-.39.52-.69c-.92-.73-2.08-1.55-3.48-2.46-.75-.51-.92-1.14-.95-1.48-.04-.41.03-1.02.59-1.64l1.28-1.56c.53-.78,1.35-1.19,2.25-1.16,1.17.07,2.21-.29,3.19-1.08.99-.79,1.56-1.75,1.77-2.93l.82-4.68c.21-1.17,0-2.11-.67-2.96-.66-.84-1.51-1.26-2.66-1.32l-12.69-.66-.51-.56c-.29-.36-.4-.81-.33-1.28.08-.43.29-.78.62-1.05l.22-.18.27-.09c2.77-.9,5.54-1.92,8.23-3.02.48-.23,1.16-.27,1.83.27l.69.56-.15.87c-.06.34,0,.59.17.83.12.16.29.31.71.33l15.91.83c.38.03.67-.09.98-.35.33-.27.51-.56.57-.91.1-.57.44-1.04.95-1.27.51-.23,1.09-.18,1.6.12,2.17,1.29,4.53,2.56,7,3.77l.32.16.22.29c.29.38.4.85.32,1.3-.15.83-.88,1.38-1.71,1.35l-12.41-.65c-1.22-.06-2.31.31-3.34,1.14-1.04.83-1.64,1.83-1.86,3.06l-.92,5.21c-.17.98,0,1.76.55,2.44.55.69,1.25,1.03,2.19,1.08.7.04,1.31.46,1.57,1.1.22.54.18,1.11-.08,1.63l-.18.28c-3.98,4.74-7.7,7.03-11.3,6.93.32.38.64.81.95,1.28.81,1.06,1.77,1.74,2.93,2.08.39.13.73.2,1.07.22.78.04,1.65-.14,2.56-.54,1.07-.61,2.13-1.27,3.16-1.96.49-.38,1.05-.57,1.62-.57ZM74.76,61.25h0s0,0,0,0ZM63.4,61.14s.01,0,.02.01c0,0-.01,0-.02-.01ZM74.95,57.75s0,0,0,0c0,0,0,0,0,0ZM73.55,53c1.34.9,2.46,1.73,3.33,2.46.34.28.59.63.73,1.01,1.9-.46,3.97-1.88,6.19-4.24-.87-.37-1.62-.94-2.25-1.73-.39-.49-.7-1.01-.91-1.56-.39.5-.85.97-1.38,1.39-1.48,1.2-3.15,1.79-4.96,1.75l-.74.91ZM85.9,52.7h0,0ZM60.74,49.28s-.04.04-.06.05c.02-.02.04-.04.06-.05ZM81.53,35.43s.08.1.12.15c.42.53.74,1.09.97,1.68.44-.61.97-1.17,1.6-1.68,0,0,0,0,0,0l-2.69-.14ZM102,34.43h0,0ZM95.3,34.08l.55.03c-.14-.08-.27-.15-.41-.23-.05.07-.09.14-.14.2ZM94.15,33.13s0,0,.01,0c0,0,0,0-.01,0ZM71.58,32.84l.56.03c-.03-.07-.06-.14-.09-.21-.16.06-.31.12-.47.18ZM96.11,32.21s0,0,0,0c0,0,0,0,0,0ZM93.61,17.54s.01.01.02.02c0,0-.01-.01-.02-.02ZM109.47,17.19s0,0,.01,0h-.01ZM78.9,15.59h0,0ZM103.41,8.1h0s0,0,0,0ZM75.75,6.53s-.03.04-.04.07c.01-.02.03-.04.04-.07ZM95.12,46.19s-.09,0-.14,0l-2.51-.13c-.83-.04-1.31-.43-1.56-.75-.25-.32-.53-.87-.38-1.7l.13-.72c.21-1.18,1.13-1.9,2.33-1.86l2.51.13c.83.04,1.3.43,1.56.75.25.32.53.88.38,1.7l-.13.72c-.2,1.13-1.07,1.87-2.19,1.87ZM70.03,44.88s-.09,0-.14,0h0l-2.31-.12c-.83-.04-1.31-.43-1.56-.75-.25-.32-.53-.88-.38-1.7l.13-.72c.21-1.19,1.12-1.92,2.33-1.86l2.31.12c.83.04,1.31.43,1.56.75.25.32.53.88.38,1.7l-.13.72c-.2,1.15-1.06,1.87-2.19,1.87ZM68.59,42.82h0ZM87.86,28.84s-.06,0-.1,0l-6.6-.34c-.92-.05-1.6-.74-1.62-1.64-.02-.68.34-1.29.93-1.59,1.12-.66,2.17-1.3,3.12-1.92.97-.73,2.15-.63,2.97.26.71.71,1.54,1.46,2.43,2.18l.24.25c.3.39.42.86.33,1.32-.16.88-.85,1.48-1.7,1.48Z"/>
      <path d="M169.8,67.99c-.94,0-2.16-.04-3.62-.12l-5.18-.41c-1.69-.15-3.07-.89-4.1-2.19-1.02-1.3-1.42-2.84-1.17-4.58.23-1.63,1.03-2.98,2.37-4.01,1.33-1.02,2.82-1.47,4.42-1.33,2.25.21,3.42.31,3.52.32.42.02.71.02.9,0,.07-.26.18-.69.31-1.42l7.71-43.93c.31-1.73,1.17-3.17,2.57-4.27,1.4-1.1,2.98-1.62,4.68-1.52,1.76.09,3.24.84,4.29,2.17,1.05,1.34,1.43,2.91,1.12,4.66l-7.65,43.6c-.37,2.12-.69,3.73-.97,4.92-.29,1.24-.68,2.43-1.16,3.53-.53,1.21-1.06,2.07-1.64,2.63-.61.6-1.49,1.07-2.67,1.42-1.07.32-2.16.49-3.25.51-.16,0-.32,0-.5,0ZM161.26,64.48l5.12.4c1.63.08,2.94.12,3.87.11.82-.01,1.64-.14,2.44-.39.92-.28,1.29-.55,1.43-.69.16-.16.51-.59.99-1.69.41-.93.74-1.95.99-3.01.26-1.12.58-2.72.93-4.76l7.65-43.6c.16-.9,0-1.63-.53-2.29-.51-.65-1.17-.98-2.08-1.03-.99-.05-1.85.24-2.67.88-.82.64-1.3,1.44-1.47,2.44l-7.71,43.92c-.37,2.1-.72,2.79-1.16,3.21-.59.57-1.48.76-3.19.67-.07,0-1.26-.11-3.6-.32-.84-.07-1.6.16-2.33.72-.72.55-1.11,1.2-1.23,2.05-.13.92.05,1.65.56,2.31.5.64,1.14.98,1.99,1.05ZM166.84,56.01h0ZM121.06,64.45c-1.61,0-2.97-.55-4.05-1.64-1.14-1.15-1.62-2.65-1.38-4.34.16-1.56.87-2.94,2.1-4.05,1.22-1.1,2.66-1.68,4.27-1.71,1.54-.04,3.89-.17,6.96-.38l.8-4.53-4.84-.25c-1.62-.08-2.97-.78-3.9-2-.91-1.2-1.25-2.66-.98-4.23.27-1.52,1.03-2.81,2.27-3.84,1.26-1.04,2.67-1.53,4.26-1.44l5.25.27c.31-1.09.89-2.05,1.72-2.88-2.26.14-4.4.24-6.4.31-1.7.05-3.13-.56-4.18-1.71-1.04-1.15-1.51-2.62-1.33-4.27l.11-.63c.18-1.37.85-2.58,1.96-3.56,1.03-.9,2.22-1.41,3.53-1.5,1.18-2.17,2.46-4.59,3.81-7.21l-.9-.05c-1.65-.08-3.04-.78-4.01-2.02-.96-1.23-1.32-2.73-1.04-4.35.28-1.57,1.07-2.9,2.37-3.94,1.3-1.05,2.77-1.54,4.38-1.45l25.22,1.32c1.66.09,3.04.79,3.99,2.04.78,1.03,1.14,2.2,1.09,3.49.42-.69.97-1.3,1.65-1.84,1.37-1.08,2.92-1.59,4.61-1.5,1.76.09,3.19.81,4.25,2.12,1.05,1.3,1.45,2.88,1.15,4.57l-5.88,33.51c-.29,1.68-1.15,3.1-2.55,4.23h0c-1.41,1.13-2.95,1.65-4.67,1.57-1.75-.09-3.21-.85-4.23-2.18-1.02-1.33-1.38-2.9-1.08-4.64l.13-.73c-.41.92-1.04,1.72-1.89,2.41-1.27,1.03-2.69,1.5-4.21,1.43l-6.14-.32-.49,2.81c2.33-.21,4.81-.51,7.42-.9,1.63-.23,3.05.24,4.11,1.36,1.06,1.12,1.46,2.55,1.18,4.16-.27,1.56-1.02,2.91-2.21,4.01-1.19,1.09-2.59,1.75-4.17,1.94-10.21,1.37-19.6,2.23-27.89,2.55h-.03s-.09,0-.13,0ZM126.23,39.03c-.74,0-1.4.25-2.02.76-.68.56-1.08,1.23-1.23,2.04-.13.75,0,1.36.41,1.9.4.53.92.78,1.67.82l5.81.3c.86.04,1.35.44,1.61.77.26.33.54.9.39,1.75l-1.03,5.87c-.2,1.15-1.04,1.91-2.25,2.05-3.4.24-5.85.37-7.52.42-.9.02-1.66.33-2.33.94-.67.61-1.04,1.32-1.13,2.18-.11.82.05,1.38.53,1.87.52.52,1.14.8,1.98.75,8.19-.32,17.48-1.17,27.61-2.53.98-.12,1.79-.5,2.52-1.17.71-.66,1.14-1.42,1.29-2.33.15-.86-.14-1.3-.41-1.58-.28-.29-.68-.57-1.51-.46-3.09.46-6.03.8-8.74,1.01-.65.09-1.28-.13-1.74-.62-.46-.49-.64-1.13-.52-1.82l.8-4.55c.22-1.23,1.16-2,2.41-1.93l6.74.35c.77.04,1.48-.21,2.17-.77.7-.56,1.11-1.22,1.25-2.03.13-.75,0-1.35-.41-1.9-.4-.53-.92-.78-1.67-.82l-6.86-.36c-.8-.04-1.27-.42-1.51-.74-.25-.31-.51-.85-.38-1.65.15-.86,0-1.54-.48-2.15-.47-.6-1.09-.91-1.93-.95l-1.25-.07c-.91-.05-1.72.23-2.49.85-.78.62-1.23,1.37-1.39,2.29-.2,1.14-1.1,1.86-2.26,1.8l-5.94-.31c-.06,0-.12,0-.18,0ZM168.02,9.54c-.87,0-1.65.28-2.38.86-.79.62-1.25,1.39-1.42,2.34l-5.88,33.5c-.16.91,0,1.64.5,2.3.49.64,1.13.96,2.01,1.01.93.06,1.81-.25,2.63-.91.83-.67,1.31-1.46,1.48-2.41l5.88-33.51c.15-.85-.02-1.54-.53-2.17-.52-.64-1.17-.96-2.07-1.01-.07,0-.14,0-.21,0ZM145.2,37.02l5.86.31c1.62.09,2.97.78,3.9,2,.62.82.98,1.76,1.05,2.77l1.11-6.33c-.08.04-.16.08-.25.11-1.64.67-3.2.73-4.68.18-1.53-.56-2.64-1.67-3.21-3.2l-.08-.29c-.01-.06-.04-.13-.07-.22-.02-.05-.04-.1-.05-.14-1.92.19-3.78.36-5.59.52.3.25.58.53.83.85.79,1.02,1.19,2.17,1.18,3.44ZM132.5,36.35h0,0ZM151.83,31.91c.27.66.72,1.08,1.4,1.33.77.28,1.58.24,2.47-.13.88-.39,1.53-1.01,1.94-1.88.4-.84.45-1.6.16-2.41-1.93-4.98-3.86-9.33-5.71-12.91-.15.12-.31.21-.49.27l-1.6.69c-1.08.4-1.74,1.01-2.17,1.97-.42.94-.44,1.77-.07,2.61.28.58.22,1.29-.18,1.86-.31.45-.8.76-1.37.86l-.15.02-6.37.52c-.81.11-1.54-.28-1.91-1-.29-.54-.31-1.18-.05-1.78l.07-.14c1.23-2.17,2.68-4.8,4.29-7.8.54-.99,1.46-1.52,2.51-1.46l6.54.34c.48.03.9.25,1.2.62l.09.11c.39-.4.93-.61,1.48-.58l1.59.08c.83.04,1.56-.22,2.28-.8.72-.58,1.15-1.28,1.29-2.12.14-.8,0-1.43-.43-2-.41-.54-.97-.82-1.76-.86l-25.22-1.32c-.86-.04-1.62.21-2.34.79-.72.58-1.15,1.28-1.29,2.12-.14.79,0,1.42.45,1.98.44.56,1.01.84,1.81.88l2.51.13c1.02.05,1.48.62,1.67.95.23.42.4,1.1-.1,2.01-1.66,3.27-3.25,6.29-4.7,8.94l-.13.2c-.52.67-1.22,1.01-1.99,1-.7.03-1.32.29-1.88.78-.57.5-.88,1.05-.97,1.76l-.09.53c-.07.79.11,1.39.57,1.9.47.52,1.08.75,1.88.73,6.09-.21,13.46-.74,21.88-1.57,1.24-.13,2.29.55,2.61,1.75l.03.16c.01.06.04.14.07.23.08.22.14.42.18.6ZM155.56,16.13c1.18,2.38,2.38,5.07,3.6,8.03l1.94-11.06c-.38.58-.86,1.1-1.44,1.57-1.24,1-2.65,1.45-4.11,1.46ZM145.01,22.66s.01.04.02.05c0-.02-.02-.04-.02-.05ZM144.67,15.56c-1.2,2.23-2.3,4.25-3.3,6.02l3.22-.27c-.23-1.21-.06-2.44.49-3.68.34-.76.79-1.43,1.33-1.98l-1.75-.09Z"/>
      <path d="M195.03,66.04c-.07,0-.14,0-.21,0l-2.84-.15c-1.88-.1-3.44-.89-4.51-2.29-1.08-1.41-1.46-3.03-1.15-4.81l8.77-49.93c.34-1.95,1.34-3.59,2.98-4.88,1.63-1.29,3.46-1.9,5.4-1.79l48.66,2.55c1.61.08,2.95.75,3.86,1.91.91,1.16,1.25,2.61.97,4.18-.27,1.53-1.04,2.81-2.28,3.81-1.25,1.01-2.64,1.49-4.17,1.4l-4.55-.24c.58.38,1.09.87,1.55,1.46,1.18,1.54,1.61,3.32,1.26,5.28l-.85,4.81c-.34,1.94-1.33,3.58-2.93,4.88-.61.49-1.25.88-1.91,1.17l1.19.06c2.03.11,3.67.94,4.87,2.47,1.2,1.52,1.62,3.32,1.27,5.33l-1.28,7.32c-.34,1.95-1.33,3.59-2.93,4.88-.61.49-1.25.88-1.92,1.18,1.46.14,2.69.8,3.58,1.93.93,1.19,1.27,2.66.99,4.25-.27,1.56-1.03,2.83-2.26,3.79-1.22.96-2.63,1.39-4.18,1.32l-43.75-2.29c-.25.59-.65,1.1-1.16,1.52-.72.58-1.57.88-2.47.88ZM203.04,5.17c-1.12,0-2.14.38-3.12,1.15-1.05.83-1.67,1.83-1.88,3.05l-8.77,49.93c-.17.95.01,1.74.57,2.47.54.71,1.27,1.07,2.28,1.12h0l2.84.15c.23,0,.44-.05.64-.22.21-.17.32-.35.36-.61.17-1,1.01-1.68,1.96-1.62l44.63,2.34c.82.05,1.53-.18,2.17-.68.64-.5,1.01-1.12,1.15-1.95.13-.76,0-1.36-.4-1.88-.4-.52-.9-.76-1.62-.8l-44.11-2.31c-.65-.03-1.24-.34-1.65-.87-.4-.51-.57-1.12-.47-1.72l7.06-40.17c.31-1.17,1.28-1.87,2.51-1.79l43.45,2.28c.77.04,1.47-.2,2.13-.74.67-.54,1.07-1.19,1.21-2,.13-.74.01-1.32-.38-1.81-.24-.3-.67-.72-1.66-.77l-48.66-2.55c-.09,0-.18,0-.26,0ZM220.78,53.41l7.12.37c-.62-.39-1.18-.91-1.66-1.54-.67-.87-1.09-1.81-1.28-2.83-.51,1.07-1.27,2.01-2.28,2.82-.61.49-1.25.88-1.91,1.17ZM200.75,52.36l3.57.19c-.62-.39-1.18-.91-1.66-1.54-.61-.8-1.02-1.66-1.23-2.58l-.69,3.93ZM199.91,52.31h0,0ZM234.15,35.95c-1.11,0-2.11.38-3.07,1.15-1.04.83-1.65,1.83-1.86,3.06l-1.29,7.32c-.2,1.13.02,2.07.69,2.94.66.86,1.5,1.28,2.65,1.34h0l9.71.51c1.23.07,2.31-.31,3.34-1.14,1.04-.83,1.64-1.83,1.86-3.06l1.28-7.32c.21-1.17,0-2.11-.67-2.96-.66-.84-1.51-1.26-2.66-1.32l-9.71-.51c-.09,0-.18,0-.27,0ZM210.58,34.72c-1.11,0-2.12.38-3.07,1.15-1.04.83-1.65,1.84-1.86,3.06l-1.29,7.32c-.2,1.13.02,2.07.69,2.94.66.86,1.5,1.28,2.65,1.34l9.77.51c1.22.06,2.3-.31,3.34-1.14,1.04-.83,1.64-1.83,1.86-3.06l1.29-7.32c.21-1.17,0-2.11-.67-2.96-.66-.84-1.51-1.26-2.66-1.32l-9.77-.51c-.09,0-.18,0-.26,0ZM224,33.22c.61.39,1.16.88,1.63,1.49.68.87,1.11,1.82,1.29,2.85.51-1.06,1.27-2,2.27-2.8.61-.49,1.24-.88,1.91-1.17l-7.1-.37ZM207.53,13.78l-3.86,21.96c.49-.82,1.14-1.56,1.95-2.21,1.61-1.3,3.42-1.91,5.37-1.8l1.88.1c-.61-.39-1.16-.88-1.63-1.49-1.2-1.53-1.62-3.32-1.27-5.33l.84-4.81c.34-1.94,1.33-3.58,2.93-4.88.57-.46,1.16-.83,1.78-1.11l-8-.42ZM218.71,16.51c-1.11,0-2.12.38-3.07,1.15-1.04.83-1.64,1.84-1.86,3.06l-.84,4.81c-.21,1.17,0,2.11.67,2.96.66.84,1.51,1.26,2.66,1.32l23.5,1.23c1.22.06,2.31-.31,3.34-1.14,1.04-.83,1.64-1.83,1.86-3.06h0s.85-4.82.85-4.82c.2-1.13-.02-2.07-.69-2.94-.66-.86-1.5-1.28-2.65-1.34l-23.51-1.23c-.09,0-.18,0-.26,0ZM238.44,48.41c-.05,0-.1,0-.15,0l-3.1-.16c-.94-.05-1.46-.47-1.74-.81-.37-.46-.51-1.07-.39-1.72l.65-3.69c.21-1.19,1.14-1.96,2.44-1.99h.06s3.3.18,3.3.18c.81.12,1.26.53,1.5.86.24.33.49.89.35,1.71l-.65,3.69c-.21,1.18-1.08,1.93-2.26,1.93ZM236.01,46.24h0ZM237.74,45.96h0s0,0,0,0ZM238.45,45.41h0,0ZM236.18,45.29l1.67.09.39-2.23-1.67-.09-.39,2.23ZM215.73,47.22c-.05,0-.1,0-.16,0l-3.1-.16c-.94-.05-1.46-.47-1.73-.81-.37-.46-.51-1.07-.4-1.72l.67-3.81c.32-1.22,1.26-1.93,2.53-1.87l3.23.17c.86.12,1.33.54,1.57.88.24.33.5.89.36,1.7l-.65,3.7c-.21,1.18-1.11,1.92-2.32,1.92ZM215.1,44.77h0s0,0,0,0ZM213.46,44.1l1.74.09.39-2.23-1.74-.09-.39,2.23ZM235.91,27.18c-.05,0-.11,0-.16,0l-13.47-.71c-.86-.04-1.35-.44-1.61-.77-.26-.33-.54-.9-.39-1.75l.22-1.25c.22-1.28,1.18-2.06,2.42-1.99l13.47.7c.61.03,1.17.34,1.58.86.41.52.57,1.13.47,1.73l-.22,1.26c-.21,1.19-1.11,1.93-2.32,1.93ZM235.28,24.73h0s0,0,0,0ZM222.77,23.7h0,0Z"/>
    </g>
    <g>
      <path class="cls-1" d="M74.54,60.19c-.25-.33-.54-.32-.87.02-1.12,1.09-2.46,1.71-3.99,1.85-.32.03-.61.04-.87.02-1.19-.06-2.25-.45-3.19-1.17-.43-.33-.88-.67-1.36-1-.31-.24-.67-.23-1.07.01-1.9,1.19-3.93,2.26-6.09,3.21-.86.35-1.73.51-2.61.46-.48-.03-.97-.14-1.47-.34-1.34-.47-2.39-1.3-3.16-2.5-.37-.68-.49-1.4-.36-2.15.05-.31.13-.62.23-.92.5-1.08,1.31-1.79,2.44-2.14,3.96-1.3,7.15-3.02,9.57-5.16.1-.08.14-.18.12-.29-.02-.11-.1-.17-.24-.18-1.5-.08-2.7-.7-3.61-1.85-.91-1.16-1.23-2.5-.96-4.04l1.42-8.11c.04-.22-.04-.29-.23-.21-.7.19-1.34.12-1.93-.2-.59-.32-1-.79-1.25-1.43-.27-.72-.55-1.43-.83-2.11-.3-.59-.39-1.22-.27-1.88.05-.31.18-.66.38-1.04.54-1.08,1.37-1.75,2.48-2,7.71-1.9,14.48-4.57,20.33-7.99.04,0,.06-.03.05-.1-.01-.07-.04-.08-.09-.04l-1.39.33c-.65.19-1.31.26-1.97.23-.84-.04-1.64-.29-2.4-.73-1.38-.74-2.35-1.81-2.9-3.21-.09-.27-.18-.52-.27-.75-.07-.14-.17-.21-.33-.22-.16,0-.28.03-.39.11-.74.89-1.5,1.72-2.3,2.48-1.07,1.05-2.35,1.61-3.82,1.67-.23.03-.43.04-.61.03-1.23-.06-2.29-.47-3.18-1.23-.93-.76-1.36-1.74-1.29-2.93.03-.17.06-.35.09-.53.18-1.01.69-1.92,1.54-2.71,2.17-2.02,4.2-4.31,6.07-6.87.92-1.19,2.07-2.07,3.46-2.61.86-.35,1.69-.51,2.48-.47.48.03.98.12,1.48.28l1.96.63c.71.26,1.17.72,1.39,1.37.22.66.11,1.33-.32,2.01-.12.17-.07.26.15.27l9.11.48c1.01.05,1.82.46,2.42,1.23.6.76.81,1.65.63,2.66,0,.04.02.09.08.14.06.05.11.05.17,0,1.61-1.34,3.1-2.86,4.46-4.56,1.01-1.19,2.23-2.06,3.66-2.6.87-.4,1.72-.58,2.56-.53.48.03.96.12,1.42.27l2.02.64c.71.26,1.18.73,1.42,1.41.11.36.14.7.09,1-.06.35-.21.7-.45,1.04-.12.17-.07.26.15.27l13.34.7c1.06.06,1.89.48,2.51,1.26.62.79.83,1.72.64,2.8-.19,1.08-.72,1.97-1.6,2.68-.88.71-1.85,1.03-2.91.98l-4.75-.25c-.13,0-.23.03-.29.12-.06.09-.05.17.02.27.3.55.41,1.11.31,1.68-.06.35-.19.72-.4,1.11-.57.95-1.4,1.53-2.5,1.73l-.7.16c-.6.15-1.19.2-1.76.17-.79-.04-1.58-.24-2.36-.59-1.26-.64-2.25-1.58-2.97-2.82-.33-.64-.71-1.3-1.12-1.99-.21-.32-.54-.49-.98-.52l-.4-.02c-.44-.02-.82.13-1.15.47-.87.89-1.72,1.69-2.55,2.4-.32.29-.34.56-.07.79,5.1,4.62,11.57,8.22,19.42,10.8,1.05.37,1.65,1.11,1.81,2.22.06.4.06.78,0,1.13-.12.66-.42,1.29-.93,1.88-.66.72-1.3,1.49-1.94,2.29-.45.55-1.01.95-1.67,1.18-.66.23-1.28.22-1.86-.03-.17-.05-.27,0-.3.18l-1.42,8.11c-.28,1.58-1.08,2.91-2.4,3.97-1.32,1.06-2.75,1.55-4.29,1.47l-1.52-.08c-.44-.02-.79.18-1.04.61-.27.52-.58,1.04-.94,1.55-.25.39-.16.66.26.81,2.76.99,5.54,2.07,8.36,3.23,1.12.46,1.73,1.27,1.84,2.43.03.36.01.69-.04,1-.14.79-.56,1.52-1.25,2.2-1.12,1.05-2.46,1.73-4.02,2.05-.59.1-1.18.14-1.75.11-.84-.04-1.64-.26-2.42-.66-2.34-1.1-4.92-2.23-7.73-3.4-.42-.16-.81-.09-1.17.2-1.11.74-2.23,1.44-3.37,2.09-1.16.52-2.26.75-3.32.69-.49-.03-.96-.12-1.42-.27-1.48-.43-2.72-1.32-3.73-2.66-.42-.64-.84-1.17-1.25-1.6ZM71.78,52.79c-.33.34-.31.63.05.87,1.72,1.11,3.08,2.09,4.08,2.94.23.19.34.42.31.68-.03.27-.15.53-.37.78l.05.07c3.17.17,6.61-1.96,10.32-6.38.07-.13.08-.25.03-.37-.05-.11-.14-.17-.27-.18-1.37-.07-2.46-.62-3.28-1.64-.82-1.02-1.11-2.23-.86-3.64l.92-5.21c.28-1.58,1.08-2.91,2.4-3.97s2.77-1.55,4.36-1.47l12.41.65c.09,0,.14-.04.16-.12,0-.04,0-.09-.04-.14-2.54-1.24-4.91-2.52-7.12-3.83-.16-.1-.26-.06-.29.12-.12.7-.49,1.31-1.08,1.81-.6.5-1.27.73-2.02.69l-15.91-.83c-.79-.04-1.41-.35-1.84-.93-.43-.58-.58-1.24-.45-1.99-.12-.09-.2-.12-.25-.08-2.78,1.14-5.58,2.17-8.4,3.09-.05.04-.08.09-.09.13-.01.09.02.13.11.14l12.02.63c1.58.08,2.84.71,3.76,1.89.93,1.18,1.25,2.56.97,4.14l-.82,4.68c-.27,1.54-1.04,2.82-2.31,3.84-1.27,1.02-2.67,1.49-4.21,1.41-.4-.02-.72.16-.96.55-.45.55-.91,1.11-1.36,1.66ZM69.97,43.38c.44.02.7-.19.78-.62l.13-.73c.08-.44-.11-.67-.54-.69l-2.31-.12c-.44-.02-.7.19-.78.62l-.13.73c-.08.44.1.67.54.69l2.31.12ZM78.97,14.09c-.13,0-.25.05-.37.18-.05.04-.08.09-.09.16-.01.07,0,.12.04.17.43,1.09.73,2.04.9,2.84.03.09.06.14.11.14l.08-.06c1.31-.86,2.62-1.26,3.94-1.19l2.64.14c.13,0,.21-.03.22-.12,0-.04,0-.09-.04-.14-.55-.43-1.19-.93-1.94-1.5-.36-.24-.76-.37-1.2-.4l-4.29-.22ZM87.84,27.34c.13,0,.21-.08.24-.25,0-.04,0-.09-.04-.14-.93-.76-1.8-1.54-2.59-2.33-.3-.33-.63-.34-.99-.05-1,.66-2.1,1.33-3.29,2.02-.1.04-.14.12-.14.23,0,.11.07.17.2.18l6.6.34ZM95.06,44.69c.44.02.7-.19.78-.62l.13-.73c.08-.44-.11-.67-.54-.69l-2.51-.13c-.44-.02-.7.19-.78.62l-.13.72c-.08.44.1.67.54.69l2.51.13Z"/>
      <path class="cls-1" d="M121.16,62.95c-1.25.02-2.28-.38-3.09-1.19-.81-.82-1.13-1.85-.96-3.08.13-1.23.67-2.28,1.62-3.14.95-.86,2.05-1.3,3.3-1.33,1.65-.05,4.12-.18,7.4-.41.54-.06.86-.33.94-.82l1.03-5.87c.08-.48-.12-.74-.6-.76l-5.81-.3c-1.19-.06-2.12-.53-2.79-1.41-.67-.88-.9-1.9-.69-3.06.21-1.16.79-2.14,1.75-2.94.96-.79,2.04-1.16,3.22-1.1l5.94.31c.4.02.63-.17.7-.56.22-1.27.87-2.34,1.93-3.19,1.06-.85,2.23-1.25,3.5-1.18l1.25.07c1.28.07,2.29.58,3.03,1.52.74.95,1,2.06.78,3.34-.07.4.09.6.49.62l6.87.36c1.19.06,2.12.53,2.79,1.41.67.88.9,1.9.69,3.07-.21,1.17-.8,2.14-1.78,2.93-.98.79-2.05,1.16-3.19,1.1l-6.73-.35c-.49-.02-.77.21-.85.69l-.8,4.55c-.04.22,0,.4.14.54.13.14.29.19.47.16,2.7-.21,5.6-.55,8.71-1.01,1.14-.16,2.08.14,2.81.91.73.77,1,1.73.79,2.87-.22,1.23-.8,2.29-1.76,3.17-.96.88-2.07,1.4-3.34,1.56-10.24,1.37-19.49,2.22-27.77,2.54ZM128.35,23.12c1.44-2.63,3-5.61,4.7-8.94.26-.47.15-.72-.33-.75l-2.51-.13c-1.23-.06-2.2-.55-2.91-1.45s-.96-1.96-.74-3.17c.21-1.21.82-2.22,1.83-3.03s2.13-1.19,3.36-1.12l25.22,1.32c1.23.06,2.19.55,2.88,1.45.69.9.92,1.96.71,3.17-.21,1.21-.82,2.22-1.83,3.03-1.01.81-2.11,1.19-3.3,1.12l-1.58-.08c-.18,0-.31.06-.4.21-.09.15-.11.29-.04.43,1.89,3.65,3.83,8.03,5.82,13.15.42,1.18.34,2.36-.22,3.55-.56,1.19-1.47,2.06-2.73,2.62-1.25.51-2.43.56-3.56.15-1.13-.41-1.9-1.19-2.32-2.32-.02-.13-.07-.3-.14-.51-.08-.21-.12-.37-.14-.51-.13-.5-.47-.71-1.02-.65-8.5.84-15.83,1.37-22,1.58-1.25.02-2.25-.38-3.02-1.22-.76-.84-1.08-1.88-.95-3.11l.09-.53c.14-1.06.63-1.95,1.47-2.69.84-.73,1.79-1.12,2.87-1.15.31.02.58-.12.81-.42ZM139.11,22.56c-.08.17-.07.34.01.5.08.16.22.22.4.19l6.42-.53c.18-.03.32-.12.41-.25.09-.13.1-.26.04-.4-.54-1.23-.52-2.5.07-3.82.59-1.32,1.57-2.24,2.95-2.74l1.66-.71c.14-.04.18-.15.12-.33-.04-.04-.08-.07-.12-.07l-6.54-.34c-.49-.02-.86.2-1.12.67-1.65,3.07-3.08,5.67-4.31,7.83ZM164.41,49.81c-1.11.9-2.33,1.31-3.65,1.24s-2.36-.6-3.12-1.59c-.76-.99-1.02-2.15-.79-3.47l5.88-33.51c.23-1.32.89-2.4,1.97-3.26,1.08-.85,2.28-1.25,3.61-1.18,1.32.07,2.37.59,3.16,1.56.78.97,1.06,2.1.84,3.37l-5.88,33.5c-.23,1.32-.9,2.43-2.02,3.32ZM161.14,65.98c-1.27-.11-2.28-.65-3.05-1.62-.76-.97-1.05-2.12-.86-3.44.17-1.23.77-2.25,1.8-3.03,1.03-.79,2.15-1.13,3.38-1.02,2.32.21,3.5.32,3.54.32,1.14.06,1.84-.03,2.08-.26.24-.23.48-1.03.72-2.39l7.71-43.93c.24-1.36.91-2.48,2.02-3.36,1.11-.87,2.33-1.28,3.68-1.21,1.34.07,2.4.6,3.18,1.6.78,1,1.05,2.15.82,3.47l-7.65,43.6c-.36,2.07-.68,3.68-.95,4.84-.27,1.16-.63,2.25-1.07,3.27-.45,1.02-.88,1.74-1.31,2.16-.43.42-1.11.77-2.05,1.06-.94.28-1.89.43-2.84.45-.96.02-2.29-.02-4.01-.11l-5.13-.4Z"/>
      <path class="cls-1" d="M192.06,64.39c-1.45-.08-2.59-.65-3.4-1.71-.81-1.06-1.1-2.28-.86-3.64l8.77-49.93c.28-1.58,1.09-2.9,2.43-3.97s2.8-1.55,4.39-1.47l48.66,2.55c1.19.06,2.11.51,2.76,1.34.65.83.88,1.83.67,3-.21,1.17-.79,2.13-1.74,2.9-.96.77-2.01,1.13-3.15,1.07l-43.45-2.28c-.53-.03-.86.2-.99.68l-7.03,40.04c-.03.18.03.36.17.54.14.19.33.28.55.29l44.11,2.31c1.14.06,2.05.52,2.72,1.37.67.86.9,1.88.7,3.07-.21,1.19-.78,2.14-1.71,2.87-.93.73-1.98,1.06-3.17,1l-44.63-2.34c-.22-.01-.35.11-.4.38-.11.62-.41,1.12-.9,1.52-.49.4-1.05.58-1.66.54l-2.84-.15ZM210.92,33.23l9.77.51c1.58.08,2.84.71,3.77,1.9.93,1.18,1.25,2.56.97,4.14l-1.29,7.32c-.28,1.58-1.08,2.91-2.4,3.97s-2.77,1.55-4.36,1.47l-6.87-.36-2.91-.15c-1.58-.08-2.84-.72-3.76-1.93-.92-1.2-1.25-2.57-.98-4.11l1.29-7.32c.28-1.58,1.08-2.9,2.4-3.97,1.32-1.06,2.77-1.55,4.35-1.47ZM246.44,27.1c-.28,1.58-1.08,2.91-2.4,3.97-1.32,1.06-2.77,1.55-4.36,1.47l-19.21-1.01-4.29-.22c-1.58-.08-2.84-.71-3.77-1.89-.92-1.18-1.25-2.56-.97-4.14l.84-4.81c.28-1.58,1.08-2.91,2.4-3.97s2.77-1.55,4.36-1.47l23.51,1.23c1.58.08,2.84.73,3.76,1.93s1.25,2.57.98,4.11l-.85,4.81ZM216.57,45.04l.65-3.69c.08-.48-.13-.76-.65-.83l-3.1-.16c-.53-.03-.86.22-1,.75l-.65,3.69c-.08.48.16.74.73.77l3.1.16c.53.03.83-.2.92-.68ZM236.75,24.99l.22-1.25c.03-.17-.03-.36-.17-.54-.15-.18-.31-.28-.48-.29l-13.47-.7c-.49-.03-.77.23-.87.75l-.22,1.25c-.08.49.12.74.6.76l13.47.71c.53.03.83-.2.92-.68ZM231.19,53.26c-1.58-.08-2.84-.72-3.76-1.93-.92-1.2-1.25-2.57-.98-4.11l1.29-7.32c.28-1.58,1.08-2.91,2.4-3.97,1.32-1.06,2.77-1.55,4.35-1.47l9.71.51c1.58.08,2.84.71,3.77,1.89.93,1.18,1.25,2.56.97,4.14l-1.28,7.32c-.28,1.58-1.08,2.91-2.4,3.97-1.32,1.06-2.77,1.55-4.36,1.47l-7.66-.4-2.05-.11ZM235.18,42.28l-.65,3.69c-.09.48.16.74.73.77l3.1.16c.48.03.77-.2.85-.69l.65-3.69c.08-.48-.11-.76-.59-.83l-3.1-.16c-.58.01-.91.26-1,.75Z"/>
    </g>
  </g>
  <g>
    <g>
      <path class="cls-2" d="M1.7,51.2h32.69c.66,0,1.2-.54,1.2-1.2V15.62c0-.66-.54-1.2-1.2-1.2H1.7c-1.07,0-1.6,1.29-.85,2.04l15.5,15.5c.47.47.47,1.22,0,1.69L.85,49.16c-.75.75-.22,2.04.85,2.04Z"/>
      <path d="M34.39,51.7H1.7c-.7,0-1.3-.4-1.57-1.05s-.13-1.35.37-1.85l15.5-15.5c.27-.27.27-.71,0-.99L.5,16.82c-.49-.49-.63-1.2-.37-1.85.27-.65.87-1.05,1.57-1.05h32.69c.93,0,1.7.76,1.7,1.7v34.39c0,.93-.76,1.7-1.7,1.7ZM1.7,14.92c-.43,0-.6.33-.64.43-.04.1-.15.45.15.76l15.5,15.5c.66.66.66,1.74,0,2.4L1.21,49.51c-.3.31-.19.66-.15.76.04.1.21.43.64.43h32.69c.38,0,.7-.31.7-.7V15.62c0-.38-.31-.7-.7-.7H1.7Z"/>
    </g>
    <rect x="35.09" y="3.89" width="1" height="57.85"/>
  </g>
  <g>
    <g>
      <path class="cls-2" d="M303.1,14.42h-32.69c-.66,0-1.2.54-1.2,1.2v34.39c0,.66.54,1.2,1.2,1.2h32.69c1.07,0,1.6-1.29.85-2.04l-15.5-15.5c-.47-.47-.47-1.22,0-1.69l15.5-15.5c.75-.75.22-2.04-.85-2.04Z"/>
      <path d="M303.1,51.7h-32.69c-.93,0-1.7-.76-1.7-1.7V15.62c0-.93.76-1.7,1.7-1.7h32.69c.7,0,1.3.4,1.57,1.05.27.65.13,1.35-.37,1.85l-15.5,15.5c-.27.27-.27.71,0,.99l15.5,15.5c.49.49.63,1.2.37,1.85s-.87,1.05-1.57,1.05ZM270.41,14.92c-.38,0-.7.31-.7.7v34.39c0,.38.31.7.7.7h32.69c.43,0,.6-.33.64-.43.04-.1.15-.45-.15-.76l-15.5-15.5c-.66-.66-.66-1.74,0-2.4l15.5-15.5c.3-.31.19-.66.15-.76-.04-.1-.21-.43-.64-.43h-32.69Z"/>
    </g>
    <rect x="268.71" y="3.89" width="1" height="57.85"/>
  </g>
</svg>