<?xml version="1.0" encoding="utf-8"?>
<!-- Generator: Adobe Illustrator 16.0.0, SVG Export Plug-In . SVG Version: 6.00 Build 0)  -->
<!DOCTYPE svg PUBLIC "-//W3C//DTD SVG 1.1//EN" "http://www.w3.org/Graphics/SVG/1.1/DTD/svg11.dtd">
<svg version="1.1" id="圖層_1" xmlns="http://www.w3.org/2000/svg" xmlns:xlink="http://www.w3.org/1999/xlink" x="0px" y="0px"
	 width="157.546px" height="157.547px" viewBox="0 0 157.546 157.547" enable-background="new 0 0 157.546 157.547"
	 xml:space="preserve">
<g>
	<defs>
		<rect id="SVGID_1_" width="157.546" height="157.547"/>
	</defs>
	<clipPath id="SVGID_2_">
		<use xlink:href="#SVGID_1_"  overflow="visible"/>
	</clipPath>
	<path clip-path="url(#SVGID_2_)" fill="#FFC02A" d="M157.546,78.773c0,43.505-35.268,78.773-78.772,78.773
		C35.267,157.547,0,122.278,0,78.773S35.267,0,78.773,0C122.278,0,157.546,35.269,157.546,78.773"/>
	<path clip-path="url(#SVGID_2_)" fill="#FFFFFF" d="M117.043,78.773c0,20.946-16.977,37.925-37.919,37.925
		c-20.942,0-37.919-16.979-37.919-37.925s16.977-37.925,37.919-37.925C100.066,40.848,117.043,57.827,117.043,78.773
		 M110.879,78.773c0-17.541-14.217-31.76-31.755-31.76c-17.537,0-31.754,14.219-31.754,31.76c0,17.54,14.217,31.76,31.754,31.76
		C96.662,110.533,110.879,96.313,110.879,78.773"/>
	<path clip-path="url(#SVGID_2_)" fill="#FFFFFF" d="M93.228,65.837c2.627-0.382,4.478,2.37,3.146,4.644L75.367,91.404
		c-0.975,0.438-2.12,0.606-3.021-0.095L61.773,80.627c-1.164-2.215,0.786-4.891,3.251-4.456c2.068,0.365,8.324,8.208,8.933,8.208
		l17.852-17.873C92.19,66.173,92.729,65.909,93.228,65.837"/>
</g>
</svg>
