<?xml version="1.0" encoding="utf-8"?>
<!-- Generator: Adobe Illustrator 16.0.0, SVG Export Plug-In . SVG Version: 6.00 Build 0)  -->
<!DOCTYPE svg PUBLIC "-//W3C//DTD SVG 1.1//EN" "http://www.w3.org/Graphics/SVG/1.1/DTD/svg11.dtd">
<svg version="1.1" id="圖層_1" xmlns="http://www.w3.org/2000/svg" xmlns:xlink="http://www.w3.org/1999/xlink" x="0px" y="0px"
	 width="157.546px" height="157.547px" viewBox="0 0 157.546 157.547" enable-background="new 0 0 157.546 157.547"
	 xml:space="preserve">
<g>
	<defs>
		<rect id="SVGID_1_" width="157.546" height="157.547"/>
	</defs>
	<clipPath id="SVGID_2_">
		<use xlink:href="#SVGID_1_"  overflow="visible"/>
	</clipPath>
	<path clip-path="url(#SVGID_2_)" fill="#FFC02A" d="M157.546,78.773c0,43.505-35.268,78.773-78.772,78.773
		C35.267,157.547,0,122.278,0,78.773S35.267,0,78.773,0C122.278,0,157.546,35.269,157.546,78.773"/>
	<path clip-path="url(#SVGID_2_)" fill="#FFFFFF" d="M121.395,123.377H35.769V37.703h85.625V123.377z M40.008,58.081h77.148V41.969
		H40.008V58.081z M40.008,119.137h77.148V62.744H40.008V119.137z"/>
	<path clip-path="url(#SVGID_2_)" fill="#FFFFFF" d="M75.929,67.086c13.51-2.124,21.436,13.941,11.14,23.007
		c6.049,2.98,11.334,7.415,13.572,13.977c1.008,2.953,3.032,9.706-1.904,9.575c-12.912-0.854-27.128,1.069-39.881-0.004
		c-5.066-0.426-3.76-4.102-2.793-7.913c1.892-7.456,7.34-12.351,14.034-15.635C61.521,83.495,65.413,68.74,75.929,67.086
		 M87.224,80.066c0-4.807-3.896-8.704-8.702-8.704s-8.702,3.897-8.702,8.704c0,4.808,3.896,8.704,8.702,8.704
		S87.224,84.874,87.224,80.066 M97.233,108.961c-3.712-20.746-33.704-20.765-37.302,0H97.233z"/>
	<rect x="95.591" y="51.416" clip-path="url(#SVGID_2_)" fill="#FFC02A" width="44.671" height="17.408"/>
	
		<rect x="95.591" y="51.416" clip-path="url(#SVGID_2_)" fill="none" stroke="#FFFFFF" stroke-width="3" stroke-miterlimit="10" width="44.671" height="17.408"/>
	<path clip-path="url(#SVGID_2_)" fill="#FFFFFF" d="M107.405,60.12c0,1.535-1.243,2.779-2.777,2.779
		c-1.533,0-2.776-1.244-2.776-2.779c0-1.535,1.243-2.779,2.776-2.779C106.162,57.341,107.405,58.585,107.405,60.12"/>
	<path clip-path="url(#SVGID_2_)" fill="#FFFFFF" d="M116.222,60.12c0,1.535-1.243,2.779-2.776,2.779
		c-1.534,0-2.777-1.244-2.777-2.779c0-1.535,1.243-2.779,2.777-2.779C114.979,57.341,116.222,58.585,116.222,60.12"/>
	<path clip-path="url(#SVGID_2_)" fill="#FFFFFF" d="M125.832,60.12c0,1.535-1.243,2.779-2.777,2.779
		c-1.533,0-2.776-1.244-2.776-2.779c0-1.535,1.243-2.779,2.776-2.779C124.589,57.341,125.832,58.585,125.832,60.12"/>
	<path clip-path="url(#SVGID_2_)" fill="#FFFFFF" d="M135.001,60.12c0,1.535-1.243,2.779-2.776,2.779
		c-1.534,0-2.777-1.244-2.777-2.779c0-1.535,1.243-2.779,2.777-2.779C133.758,57.341,135.001,58.585,135.001,60.12"/>
</g>
</svg>
