<?xml version="1.0" encoding="utf-8"?>
<!-- Generator: Adobe Illustrator 16.0.0, SVG Export Plug-In . SVG Version: 6.00 Build 0)  -->
<!DOCTYPE svg PUBLIC "-//W3C//DTD SVG 1.1//EN" "http://www.w3.org/Graphics/SVG/1.1/DTD/svg11.dtd">
<svg version="1.1" id="圖層_1" xmlns="http://www.w3.org/2000/svg" xmlns:xlink="http://www.w3.org/1999/xlink" x="0px" y="0px"
	 width="157.546px" height="157.547px" viewBox="0 0 157.546 157.547" enable-background="new 0 0 157.546 157.547"
	 xml:space="preserve">
<g>
	<defs>
		<rect id="SVGID_1_" width="157.546" height="157.547"/>
	</defs>
	<clipPath id="SVGID_2_">
		<use xlink:href="#SVGID_1_"  overflow="visible"/>
	</clipPath>
	<path clip-path="url(#SVGID_2_)" fill="#FFC02A" d="M157.546,78.773c0,43.505-35.268,78.773-78.772,78.773
		C35.267,157.547,0,122.278,0,78.773S35.267,0,78.773,0C122.278,0,157.546,35.269,157.546,78.773"/>
	<path clip-path="url(#SVGID_2_)" fill="#FFFFFF" d="M54.626,58.464c-0.025-2.482,0.026-4.975,0.019-7.461
		c-0.002-0.834-0.424-1.612-0.395-2.369c0.092-2.368,2.248-4.064,4.137-5.128c9.139-5.15,29.37-4.889,39.164-1.557
		c3.671,1.249,7.382,3.197,7.844,7.458c0.715,6.6-0.533,14.402-0.003,21.132c5.686,0.479,11.667,0.797,17.03,2.911
		c2.619,1.033,5.98,2.648,6.352,5.73c0.63,5.248,0.51,18.391,0.009,23.774c-0.15,1.604-0.711,2.656-1.894,3.743
		c-7.642,7.022-38.168,6.959-46.04,0.23c-1.042-0.892-2.115-3.356-2.317-3.405c-1.221-0.293-3.659,0.148-5.165,0.012
		c-1.887-0.17-5.804-1.285-7.24-1.186c-0.668,0.046-6.305,3.582-8.273,4.212c-22.043,7.052-40.993-17.523-28.539-36.958
		c2.99-4.665,7.716-8.012,12.831-10.002c2.366-0.92,4.702-1.137,7.211-1.137C49.708,58.464,54.626,58.457,54.626,58.464
		 M59.11,49.562c0.831,1.432,9.55,3.362,11.483,3.619c6.943,0.925,23.078,0.879,28.89-3.236c2.126-1.505,0.126-2.286-1.633-3.063
		c-8.434-3.725-24.706-3.648-33.458-0.998C63.258,46.228,58.119,47.855,59.11,49.562 M100.959,54.441
		c-13.144,5.019-28.631,4.88-41.898,0.402l-0.02,4.966c4.024,1.849,6.205,3.924,10.75,4.637c6.324,0.994,24.765,0.98,29.765-3.161
		C101.739,59.477,100.783,56.935,100.959,54.441 M70.527,83.028c0-11.204-9.093-20.287-20.31-20.287s-20.311,9.083-20.311,20.287
		c0,11.205,9.094,20.288,20.311,20.288S70.527,94.233,70.527,83.028 M100.94,70.519l0.017-4.81
		c-9.285,4.167-20.242,4.446-30.214,3.223c0.883,0.843,2.962,6.957,3.291,7.175c0.141,0.094,2.903,0.484,3.35,0.493
		c2.954,0.062,3.317-1.385,5.577-2.51C88.373,71.396,95.049,71.239,100.94,70.519 M82.882,80.552
		c0.334,0.575,5.104,2.308,6.079,2.577c8.342,2.3,22.516,2.224,30.742-0.511c4.603-1.528,6.725-2.833,0.996-5.032
		c-7.97-3.06-23.281-3.066-31.509-0.897C87.944,77.018,81.792,78.675,82.882,80.552 M78.398,81.003l-3.623-0.402
		c0.393,2.428-0.148,4.81-0.005,7.246l3.628-0.003V81.003z M82.83,85.831v5.837c0,0.227,1.585,1.104,1.931,1.29
		c7.594,4.122,29.684,4.148,37.305,0.069c0.482-0.259,2.265-1.379,2.265-1.763V85.43C111.595,90.727,95.821,90.146,82.83,85.831
		 M78.398,92.271c-1.77,0.005-3.53,0.163-5.231-0.404c-0.503,2.585-2.28,4.66-3.633,6.84l8.864,0.406V92.271z M124.33,97.101
		c-12.42,4.425-26.688,4.67-39.297,0.818c-1.243-0.381-2.236-1.778-2.218,0.197c0.013,1.4,0.348,4.803,1.244,5.604
		c5.879,5.256,32.845,4.816,39.195,0.154c0.262-0.19,1.075-0.762,1.075-0.938V97.101z"/>
	<path clip-path="url(#SVGID_2_)" fill="#FFFFFF" d="M52.684,69.258c0.104,0.122,1.325,0.276,1.929,0.69
		c2.647,1.816,5.864,9.025,1.423,9.011c-3.217-0.01-1.348-5.018-4.859-5.578c-5.034-0.804-6.109,5.555-1.49,6.719
		c0.988,0.249,1.971,0.131,3.148,0.479c5.247,1.548,6.939,8.258,3.574,12.466c-0.992,1.241-3.613,2.316-3.731,2.51
		c-0.571,0.933,0.636,3.981-2.657,3.941c-2.698-0.032-1.441-3.45-1.884-3.964c-0.058-0.068-1.191-0.222-1.702-0.506
		c-5.011-2.784-5.56-11.24-0.762-8.901c1.397,0.682,0.815,2.834,1.873,4.164c2.228,2.799,7.044,0.389,6.021-3.17
		c-0.879-3.057-3.529-2.266-5.877-3.011c-6.314-2.005-7.203-10.324-1.911-14.158c0.631-0.458,1.943-0.591,2.213-1.009
		c0.587-0.907-0.403-2.609,2.044-2.827C52.896,65.86,52.127,68.609,52.684,69.258"/>
</g>
</svg>
