<?xml version="1.0" encoding="utf-8"?>
<!-- Generator: Adobe Illustrator 16.0.0, SVG Export Plug-In . SVG Version: 6.00 Build 0)  -->
<!DOCTYPE svg PUBLIC "-//W3C//DTD SVG 1.1//EN" "http://www.w3.org/Graphics/SVG/1.1/DTD/svg11.dtd">
<svg version="1.1" id="圖層_1" xmlns="http://www.w3.org/2000/svg" xmlns:xlink="http://www.w3.org/1999/xlink" x="0px" y="0px"
	 width="157.546px" height="157.547px" viewBox="0 0 157.546 157.547" enable-background="new 0 0 157.546 157.547"
	 xml:space="preserve">
<g>
	<defs>
		<rect id="SVGID_1_" width="157.546" height="157.547"/>
	</defs>
	<clipPath id="SVGID_2_">
		<use xlink:href="#SVGID_1_"  overflow="visible"/>
	</clipPath>
	<path clip-path="url(#SVGID_2_)" fill="#FFC02A" d="M157.546,78.773c0,43.505-35.268,78.773-78.772,78.773
		C35.267,157.547,0,122.278,0,78.773S35.267,0,78.773,0C122.278,0,157.546,35.269,157.546,78.773"/>
	<path clip-path="url(#SVGID_2_)" fill="#FFFFFF" d="M65.222,49.165l-2.785-1.872c-9.518-7.857-0.499-21.248,11.178-13.782
		c4.642,2.968,7.13,7.577,10.233,11.928c2.004-5.668,8.907-13.465,15.135-14.112c9.646-1.002,12.645,10.496,5.542,15.966
		l-2.784,1.868c3.043,0.015,6.095-0.014,9.143,0.02c0.651,0.008,1.281-0.326,1.848-0.313c2.454,0.055,5.436,0.636,6.274,3.337
		c0.508,1.637,0.505,12.275,0.158,14.193c-0.516,2.857-3.265,3.011-3.265,3.254v20.115c6.816-5.265,14.193,2.772,10.003,9.441
		c-7.36,4.955-14.796,9.87-22.331,14.554c-3.409,2.119-8.138,5.852-12.066,6.191c-10.342,0.892-21.949-0.691-32.428-0.018
		c-2.594,0.077-7.275-2.876-9.393-2.905c-0.716-0.011-1.154,0.979-1.873,1.336c-1.362,0.675-10.663,0.693-12.594,0.465
		c-1.786-0.213-3.3-1.335-3.548-3.159c0.704-8.436-0.876-18.219-0.007-26.488c0.218-2.076,1.467-3.274,3.555-3.522
		c1.841-0.22,11.437-0.198,12.631,0.426c0.542,0.284,1.112,1.274,1.528,1.321c0.276,0.03,3.89-1.404,3.939-1.611l0.007-15.914
		c-2.209-0.847-3.168-2.106-3.392-4.5c-0.219-2.335-0.356-10.984,0.093-12.973c0.185-0.822,2.424-3.245,3.089-3.245H65.222z
		 M80.87,48.79c-1.513-5.116-8.419-14.365-14.25-14.062c-3.218,0.168-5.387,3.393-4.4,6.452C64.219,47.377,75.352,48.47,80.87,48.79
		 M86.091,48.79c5.52-0.32,16.651-1.413,18.65-7.61c0.986-3.059-1.182-6.284-4.4-6.452C94.59,34.429,87.489,43.658,86.091,48.79
		 M75.656,52.517H54.23c-0.065,0-0.658,0.575-0.74,0.751c-0.351,0.751-0.355,11.895,0,12.654c0.082,0.176,0.675,0.75,0.74,0.75
		h27.388V52.89c-4.276,1.332-6.039,6.111-8.933,9.136c-0.933,0.975-3.548,3.596-4.682,1.293c-0.906-1.842,1.075-2.361,1.888-3.342
		C71.894,57.561,73.636,54.918,75.656,52.517 M85.344,66.672h29.623c0.065,0,0.658-0.574,0.74-0.75
		c0.351-0.751,0.354-11.895,0-12.654c-0.082-0.176-0.675-0.751-0.74-0.751H91.306c2.071,2.36,3.765,5.046,5.766,7.46
		c0.812,0.981,2.794,1.5,1.887,3.342c-1.134,2.303-3.749-0.318-4.681-1.293c-2.875-3.004-4.7-7.91-8.934-9.136V66.672z
		 M81.618,70.025H56.652v14.527c2.388-1.066,4.246-1.418,6.789-0.641c2.257,0.689,10.198,5.855,11.283,5.855h6.894V70.025z
		 M112.545,70.025H85.344v19.742h5.775c0.522,0,2.846,1.407,3.316,1.9c2.568,2.687,2.178,6.846-0.521,9.271
		c1.411,0.114,2.638-0.59,3.86-1.166c4.607-2.17,9.084-5.354,13.777-7.459l0.993-0.869V70.025z M71.648,101.404
		c1.289-1.286,13.119,0.219,15.949-0.632c0.461-0.138,3.489-2.05,3.895-2.438c1.596-1.535,1.631-3.73-0.458-4.755
		c-3.169-1.558-13.175,0.309-17.343-0.543c-3.381-0.692-8.687-5.504-11.998-5.884c-3.605-0.414-8.014,2.77-11.517,3.693
		l-0.192,22.725c3.481,0.61,6.695,2.694,10.215,3.011c9.949,0.892,21.176-0.626,31.261-0.027
		c10.849-5.245,20.569-12.783,30.895-19.03c2.985-1.514,0.588-6.716-2.454-5.814c-7.109,3.095-14.012,8.332-21,11.423
		c-4.374,1.935-20.265,2.195-25.259,1.501C71.881,104.389,70.107,102.94,71.648,101.404 M46.591,89.021H35.04v26.447h11.551V89.021z
		"/>
	<path clip-path="url(#SVGID_2_)" fill="none" stroke="#FFFFFF" stroke-width="0.554" stroke-miterlimit="10" d="M65.222,49.165
		l-2.785-1.872c-9.518-7.857-0.499-21.248,11.178-13.782c4.642,2.968,7.13,7.577,10.233,11.928
		c2.004-5.668,8.907-13.465,15.135-14.112c9.646-1.002,12.645,10.496,5.542,15.966l-2.784,1.868c3.043,0.015,6.095-0.014,9.143,0.02
		c0.651,0.008,1.281-0.326,1.848-0.313c2.454,0.055,5.436,0.636,6.274,3.337c0.508,1.637,0.505,12.275,0.158,14.193
		c-0.516,2.857-3.265,3.011-3.265,3.254v20.115c6.816-5.265,14.193,2.772,10.003,9.441c-7.36,4.955-14.796,9.87-22.331,14.554
		c-3.409,2.119-8.138,5.852-12.066,6.191c-10.342,0.892-21.949-0.691-32.428-0.018c-2.594,0.077-7.275-2.876-9.393-2.905
		c-0.716-0.011-1.154,0.979-1.873,1.336c-1.362,0.675-10.663,0.693-12.594,0.465c-1.786-0.213-3.3-1.335-3.548-3.159
		c0.704-8.436-0.876-18.219-0.007-26.488c0.218-2.076,1.467-3.274,3.555-3.522c1.841-0.22,11.437-0.198,12.631,0.426
		c0.542,0.284,1.112,1.274,1.528,1.321c0.276,0.03,3.89-1.404,3.939-1.611l0.007-15.914c-2.209-0.847-3.168-2.106-3.392-4.5
		c-0.219-2.335-0.356-10.984,0.093-12.973c0.185-0.822,2.424-3.245,3.089-3.245H65.222z M80.87,48.79
		c-1.513-5.116-8.419-14.365-14.25-14.062c-3.218,0.168-5.387,3.393-4.4,6.452C64.219,47.377,75.352,48.47,80.87,48.79z
		 M86.091,48.79c5.52-0.32,16.651-1.413,18.65-7.61c0.986-3.059-1.182-6.284-4.4-6.452C94.59,34.429,87.489,43.658,86.091,48.79z
		 M75.656,52.517H54.23c-0.065,0-0.658,0.575-0.74,0.751c-0.351,0.751-0.355,11.895,0,12.654c0.082,0.176,0.675,0.75,0.74,0.75
		h27.388V52.89c-4.276,1.332-6.039,6.111-8.933,9.136c-0.933,0.975-3.548,3.596-4.682,1.293c-0.906-1.842,1.075-2.361,1.888-3.342
		C71.894,57.561,73.636,54.918,75.656,52.517z M85.344,66.672h29.623c0.065,0,0.658-0.574,0.74-0.75
		c0.351-0.751,0.354-11.895,0-12.654c-0.082-0.176-0.675-0.751-0.74-0.751H91.306c2.071,2.36,3.765,5.046,5.766,7.46
		c0.812,0.981,2.794,1.5,1.887,3.342c-1.134,2.303-3.749-0.318-4.681-1.293c-2.875-3.004-4.7-7.91-8.934-9.136V66.672z
		 M81.618,70.025H56.652v14.527c2.388-1.066,4.246-1.418,6.789-0.641c2.257,0.689,10.198,5.855,11.283,5.855h6.894V70.025z
		 M112.545,70.025H85.344v19.742h5.775c0.522,0,2.846,1.407,3.316,1.9c2.568,2.687,2.178,6.846-0.521,9.271
		c1.411,0.114,2.638-0.59,3.86-1.166c4.607-2.17,9.084-5.354,13.777-7.459l0.993-0.869V70.025z M71.648,101.404
		c1.289-1.286,13.119,0.219,15.949-0.632c0.461-0.138,3.489-2.05,3.895-2.438c1.596-1.535,1.631-3.73-0.458-4.755
		c-3.169-1.558-13.175,0.309-17.343-0.543c-3.381-0.692-8.687-5.504-11.998-5.884c-3.605-0.414-8.014,2.77-11.517,3.693
		l-0.192,22.725c3.481,0.61,6.695,2.694,10.215,3.011c9.949,0.892,21.176-0.626,31.261-0.027
		c10.849-5.245,20.569-12.783,30.895-19.03c2.985-1.514,0.588-6.716-2.454-5.814c-7.109,3.095-14.012,8.332-21,11.423
		c-4.374,1.935-20.265,2.195-25.259,1.501C71.881,104.389,70.107,102.94,71.648,101.404z M46.591,89.021H35.04v26.447h11.551V89.021
		z"/>
</g>
</svg>
