<?xml version="1.0" encoding="UTF-8"?>
<svg id="_分離模式" data-name="分離模式" xmlns="http://www.w3.org/2000/svg" viewBox="0 0 22.23 41.1">
  <defs>
    <style>
      .cls-1 {
        fill: #fff;
      }

      .cls-2 {
        fill: #c6810d;
      }
    </style>
  </defs>
  <path class="cls-1" d="M2.59,39.8c-.19,0-.37-.04-.55-.12-.46-.21-.75-.67-.75-1.17v-8.75c0-.41.2-.8.53-1.04l7.01-5.16,3.91-3.03-3.93-2.99L1.83,12.38c-.33-.25-.53-.63-.53-1.04V2.59c0-.5.29-.96.75-1.17.18-.08.36-.12.55-.12.3,0,.59.1.83.3l17.04,14.19c.3.25.47.61.47,1v7.53c0,.38-.17.75-.47,1L3.42,39.5c-.24.2-.53.3-.83.3Z"/>
  <path class="cls-2" d="M2.59,2.59l17.04,14.19v7.52L2.59,38.51v-8.75l7.01-5.16,5.08-3.94v-.29l-5.08-3.87-7.01-5.16V2.59M2.59,0c-.37,0-.75.08-1.1.25C.58.67,0,1.59,0,2.59v8.74c0,.82.39,1.6,1.06,2.09l7.01,5.16,2.55,1.94-2.58,2-6.98,5.14c-.66.49-1.06,1.26-1.06,2.09v8.75c0,1.01.58,1.92,1.49,2.35.35.16.73.25,1.1.25.6,0,1.19-.21,1.66-.6l17.04-14.19c.59-.49.93-1.22.93-1.99v-7.52c0-.77-.34-1.5-.93-1.99L4.25.6c-.48-.4-1.07-.6-1.66-.6h0Z"/>
</svg>