<?xml version="1.0" encoding="UTF-8"?>
<svg id="_分離模式" data-name="分離模式" xmlns="http://www.w3.org/2000/svg" viewBox="0 0 157.55 157.55">
  <defs>
    <style>
      .cls-1 {
        fill: #fff;
      }

      .cls-2 {
        fill: #ffac3d;
      }
    </style>
  </defs>
  <circle class="cls-2" cx="78.77" cy="78.77" r="78.77" transform="translate(-11.51 144.04) rotate(-80.87)"/>
  <g>
    <path class="cls-1" d="M54.63,58.46c-.03-2.48.03-4.97.02-7.46,0-.83-.42-1.61-.39-2.37.09-2.37,2.25-4.06,4.14-5.13,9.14-5.15,29.37-4.89,39.16-1.56,3.67,1.25,7.38,3.2,7.84,7.46.72,6.6-.53,14.4,0,21.13,5.69.48,11.67.8,17.03,2.91,2.62,1.03,5.98,2.65,6.35,5.73.63,5.25.51,18.39,0,23.78-.15,1.6-.71,2.66-1.89,3.74-7.64,7.02-38.17,6.96-46.04.23-1.04-.89-2.11-3.36-2.32-3.4-1.22-.29-3.66.15-5.17.01-1.89-.17-5.8-1.29-7.24-1.19-.67.05-6.31,3.58-8.27,4.21-22.04,7.05-40.99-17.52-28.54-36.96,2.99-4.66,7.72-8.01,12.83-10,2.37-.92,4.7-1.14,7.21-1.14.35,0,5.27,0,5.27,0ZM59.11,49.56c.83,1.43,9.55,3.36,11.48,3.62,6.94.92,23.08.88,28.89-3.24,2.13-1.51.13-2.29-1.63-3.06-8.43-3.73-24.71-3.65-33.46-1-1.13.34-6.27,1.97-5.28,3.68ZM100.96,54.44c-13.14,5.02-28.63,4.88-41.9.4l-.02,4.97c4.02,1.85,6.21,3.92,10.75,4.64,6.32.99,24.76.98,29.76-3.16,2.18-1.81,1.23-4.35,1.4-6.84ZM70.53,83.03c0-11.2-9.09-20.29-20.31-20.29s-20.31,9.08-20.31,20.29,9.09,20.29,20.31,20.29,20.31-9.08,20.31-20.29ZM100.94,70.52l.02-4.81c-9.29,4.17-20.24,4.45-30.21,3.22.88.84,2.96,6.96,3.29,7.17.14.09,2.9.48,3.35.49,2.95.06,3.32-1.38,5.58-2.51,5.41-2.69,12.09-2.85,17.98-3.57ZM82.88,80.55c.33.58,5.1,2.31,6.08,2.58,8.34,2.3,22.51,2.22,30.74-.51,4.6-1.53,6.72-2.83,1-5.03-7.97-3.06-23.28-3.07-31.51-.9-1.25.33-7.4,1.99-6.31,3.86ZM78.4,81l-3.62-.4c.39,2.43-.15,4.81,0,7.25h3.63v-6.84ZM82.83,85.83v5.84c0,.23,1.59,1.1,1.93,1.29,7.59,4.12,29.68,4.15,37.3.07.48-.26,2.26-1.38,2.26-1.76v-5.84c-12.74,5.3-28.51,4.72-41.5.4ZM78.4,92.27c-1.77,0-3.53.16-5.23-.4-.5,2.59-2.28,4.66-3.63,6.84l8.86.41v-6.84ZM124.33,97.1c-12.42,4.42-26.69,4.67-39.3.82-1.24-.38-2.24-1.78-2.22.2.01,1.4.35,4.8,1.24,5.6,5.88,5.26,32.85,4.82,39.2.15.26-.19,1.07-.76,1.07-.94v-5.84Z"/>
    <path class="cls-1" d="M52.68,69.26c.1.12,1.33.28,1.93.69,2.65,1.82,5.86,9.03,1.42,9.01-3.22-.01-1.35-5.02-4.86-5.58-5.03-.8-6.11,5.56-1.49,6.72.99.25,1.97.13,3.15.48,5.25,1.55,6.94,8.26,3.57,12.47-.99,1.24-3.61,2.32-3.73,2.51-.57.93.64,3.98-2.66,3.94-2.7-.03-1.44-3.45-1.88-3.96-.06-.07-1.19-.22-1.7-.51-5.01-2.78-5.56-11.24-.76-8.9,1.4.68.81,2.83,1.87,4.16,2.23,2.8,7.04.39,6.02-3.17-.88-3.06-3.53-2.27-5.88-3.01-6.31-2-7.2-10.32-1.91-14.16.63-.46,1.94-.59,2.21-1.01.59-.91-.4-2.61,2.04-2.83,2.86-.25,2.09,2.49,2.65,3.14Z"/>
  </g>
</svg>