<?xml version="1.0" encoding="UTF-8"?>
<svg id="_分離模式" data-name="分離模式" xmlns="http://www.w3.org/2000/svg" viewBox="0 0 157.55 157.55">
  <defs>
    <style>
      .cls-1 {
        fill: #fff;
      }

      .cls-2 {
        fill: #ffac3d;
      }
    </style>
  </defs>
  <circle class="cls-2" cx="78.77" cy="78.77" r="78.77" transform="translate(-11.51 144.04) rotate(-80.87)"/>
  <g>
    <g>
      <path class="cls-1" d="M121.4,37.7v85.67H35.77V37.7h85.63ZM40.01,41.97v16.11h77.15v-16.11H40.01ZM40.01,62.74v56.39h77.15v-56.39H40.01Z"/>
      <path class="cls-1" d="M75.93,67.09c13.51-2.12,21.44,13.94,11.14,23.01,6.05,2.98,11.33,7.41,13.57,13.98,1.01,2.95,3.03,9.71-1.9,9.58-12.91-.85-27.13,1.07-39.88,0-5.07-.43-3.76-4.1-2.79-7.91,1.89-7.46,7.34-12.35,14.03-15.63-8.58-6.6-4.68-21.35,5.83-23.01ZM87.22,80.07c0-4.81-3.9-8.7-8.7-8.7s-8.7,3.9-8.7,8.7,3.9,8.7,8.7,8.7,8.7-3.9,8.7-8.7ZM97.23,108.96c-3.71-20.75-33.7-20.76-37.3,0h37.3Z"/>
    </g>
    <g>
      <g>
        <rect class="cls-2" x="95.59" y="51.42" width="44.67" height="17.41"/>
        <path class="cls-1" d="M141.76,70.32h-47.67v-20.41h47.67v20.41ZM97.09,67.32h41.67v-14.41h-41.67v14.41Z"/>
      </g>
      <circle class="cls-1" cx="104.63" cy="60.12" r="2.78"/>
      <circle class="cls-1" cx="113.44" cy="60.12" r="2.78"/>
      <circle class="cls-1" cx="123.05" cy="60.12" r="2.78"/>
      <circle class="cls-1" cx="132.22" cy="60.12" r="2.78"/>
    </g>
  </g>
</svg>