<?xml version="1.0" encoding="UTF-8"?>
<svg id="_分離模式" data-name="分離模式" xmlns="http://www.w3.org/2000/svg" viewBox="0 0 157.55 157.55">
  <defs>
    <style>
      .cls-1 {
        fill: #fff;
      }

      .cls-2 {
        fill: #ffac3d;
      }
    </style>
  </defs>
  <circle class="cls-2" cx="78.77" cy="78.77" r="78.77" transform="translate(-11.51 144.04) rotate(-80.87)"/>
  <g>
    <path class="cls-1" d="M65.22,49.16l-2.79-1.87c-9.52-7.86-.5-21.25,11.18-13.78,4.64,2.97,7.13,7.58,10.23,11.93,2-5.67,8.91-13.47,15.13-14.11,9.65-1,12.64,10.5,5.54,15.97l-2.78,1.87c3.04.01,6.1-.01,9.14.02.65,0,1.28-.33,1.85-.31,2.46.06,5.44.64,6.27,3.34.51,1.64.51,12.27.16,14.19-.52,2.86-3.27,3.01-3.27,3.25v20.11c6.82-5.27,14.19,2.77,10,9.44-7.36,4.95-14.8,9.87-22.33,14.55-3.41,2.12-8.14,5.85-12.07,6.19-10.34.89-21.95-.69-32.43-.02-2.59.08-7.28-2.88-9.39-2.91-.72-.01-1.15.98-1.87,1.34-1.36.68-10.66.69-12.59.46-1.79-.21-3.3-1.33-3.55-3.16.7-8.44-.88-18.22,0-26.49.22-2.08,1.47-3.27,3.56-3.52,1.84-.22,11.44-.2,12.63.43.54.28,1.11,1.27,1.53,1.32.28.03,3.89-1.4,3.94-1.61v-15.91c-2.2-.85-3.16-2.11-3.39-4.5-.22-2.34-.36-10.98.09-12.97.19-.82,2.42-3.24,3.09-3.24h12.11ZM80.87,48.79c-1.51-5.12-8.42-14.37-14.25-14.06-3.22.17-5.39,3.39-4.4,6.45,2,6.2,13.13,7.29,18.65,7.61ZM86.09,48.79c5.52-.32,16.65-1.41,18.65-7.61.99-3.06-1.18-6.28-4.4-6.45-5.75-.3-12.85,8.93-14.25,14.06ZM75.66,52.52h-21.43c-.06,0-.66.57-.74.75-.35.75-.36,11.89,0,12.65.08.18.68.75.74.75h27.39v-13.78c-4.28,1.33-6.04,6.11-8.93,9.14-.93.97-3.55,3.6-4.68,1.29-.91-1.84,1.07-2.36,1.89-3.34,2-2.42,3.75-5.06,5.76-7.46ZM85.34,66.67h29.62c.06,0,.66-.57.74-.75.35-.75.36-11.89,0-12.65-.08-.18-.68-.75-.74-.75h-23.66c2.07,2.36,3.76,5.05,5.76,7.46.81.98,2.79,1.5,1.89,3.34-1.13,2.3-3.75-.32-4.68-1.29-2.87-3-4.7-7.91-8.93-9.14v13.78ZM81.62,70.02h-24.97v14.53c2.39-1.07,4.25-1.42,6.79-.64,2.26.69,10.2,5.86,11.28,5.86h6.89v-19.74ZM112.55,70.02h-27.2v19.74h5.78c.52,0,2.85,1.41,3.32,1.9,2.57,2.69,2.18,6.85-.52,9.27,1.41.11,2.64-.59,3.86-1.17,4.61-2.17,9.08-5.35,13.78-7.46l.99-.87v-21.42ZM71.65,101.4c1.29-1.29,13.12.22,15.95-.63.46-.14,3.49-2.05,3.89-2.44,1.6-1.53,1.63-3.73-.46-4.76-3.17-1.56-13.17.31-17.34-.54-3.38-.69-8.69-5.5-12-5.88-3.61-.41-8.01,2.77-11.52,3.69l-.19,22.72c3.48.61,6.7,2.7,10.22,3.01,9.95.89,21.18-.63,31.26-.03,10.85-5.25,20.57-12.78,30.89-19.03,2.99-1.51.59-6.72-2.46-5.81-7.11,3.1-14.01,8.33-21,11.42-4.37,1.93-20.26,2.2-25.26,1.5-1.76-.24-3.53-1.69-1.99-3.23ZM46.59,89.02h-11.55v26.45h11.55v-26.45Z"/>
    <path class="cls-1" d="M84.14,120.51c-3.18,0-6.4-.12-9.57-.23-5.16-.19-10.49-.38-15.48-.06-.04,0-.07,0-.11,0-1.46,0-3.4-.81-5.29-1.6-1.59-.66-3.09-1.29-4.01-1.3h0c-.29,0-.56.27-.87.59-.26.27-.53.54-.87.71-1.48.74-10.9.71-12.75.49-2.06-.25-3.54-1.58-3.79-3.4.34-4.12.14-8.56-.05-12.86-.2-4.62-.41-9.39.04-13.69.23-2.2,1.54-3.5,3.8-3.77,1.65-.19,11.49-.22,12.79.46.3.15.57.46.84.75.18.2.48.53.6.54.35-.04,3.13-1.16,3.64-1.47v-15.59c-2.18-.88-3.17-2.25-3.39-4.66-.22-2.3-.36-11.03.1-13.06.18-.82,2.48-3.46,3.36-3.46h11.2l-2.03-1.37c-5.12-4.23-4.87-9.68-2.48-12.96,2.52-3.46,7.82-5.21,13.96-1.28,3.79,2.42,6.1,5.83,8.55,9.45.48.71.96,1.42,1.46,2.13,2.13-5.37,8.84-13.14,15.18-13.8,4.25-.44,7.66,1.46,9.11,5.1,1.58,3.95.19,8.62-3.38,11.36l-2.05,1.38c.96,0,1.92,0,2.88,0,1.79,0,3.58,0,5.36.02.32-.02.61-.08.91-.16.31-.08.66-.15.94-.16,3.63.08,5.83,1.27,6.53,3.53.54,1.73.5,12.49.17,14.32-.42,2.36-2.28,3-3.07,3.28-.06.02-.14.05-.19.07v19.43c2.93-2.01,6.32-1.89,8.78.34,2.25,2.04,3.58,5.98,1.18,9.79l-.08.08c-6.07,4.09-14.1,9.44-22.34,14.56-.7.43-1.45.93-2.23,1.46-3.17,2.11-6.76,4.5-9.96,4.78-2.4.21-4.88.28-7.39.28ZM65,119.49c3.18,0,6.42.12,9.59.23,5.65.21,11.5.42,16.89-.05,3.05-.26,6.58-2.61,9.7-4.69.79-.53,1.55-1.03,2.25-1.46,8.21-5.1,16.21-10.43,22.27-14.52,2.19-3.53.96-7.16-1.11-9.04-1.89-1.71-5.12-2.61-8.52.02l-.45.34v-20.68c0-.25.22-.33.57-.45.76-.26,2.34-.82,2.7-2.85.35-1.93.32-12.54-.15-14.06-.62-2.01-2.65-3.07-6.02-3.14-.23-.03-.51.07-.79.14-.33.09-.68.16-1.05.17-1.79-.02-3.57-.02-5.35-.02-1.26,0-2.53,0-3.79,0h-.9s3.53-2.38,3.53-2.38c3.35-2.58,4.67-6.99,3.18-10.71-1.35-3.39-4.55-5.18-8.54-4.75-6.32.66-13.05,8.69-14.9,13.93l-.18.5-.31-.43c-.61-.85-1.19-1.71-1.77-2.56-2.42-3.57-4.7-6.93-8.39-9.29-5.84-3.73-10.84-2.12-13.21,1.14-2.25,3.08-2.46,8.21,2.36,12.2l3.52,2.36h-13.02c-.46,0-2.64,2.22-2.82,3.03-.45,1.99-.3,10.61-.09,12.89.21,2.29,1.09,3.45,3.21,4.27l.18.07v16.11c-.14.58-4.2,1.89-4.25,1.89h0c-.33-.04-.61-.35-.94-.72-.22-.24-.47-.52-.68-.63-1.06-.55-10.49-.63-12.47-.4-1.99.24-3.11,1.34-3.31,3.28-.45,4.26-.24,9.01-.04,13.61.19,4.32.39,8.78.04,12.87.21,1.5,1.51,2.65,3.3,2.86,1.89.23,11.15.2,12.44-.44.26-.13.49-.37.72-.6.36-.38.74-.76,1.27-.76h.02c1.03.01,2.58.66,4.22,1.35,1.88.79,3.8,1.6,5.16,1.56,1.93-.12,3.92-.17,5.93-.17ZM67.51,117.14c-2.5,0-4.96-.08-7.34-.29-1.96-.18-3.83-.89-5.65-1.58-1.49-.57-3.03-1.16-4.59-1.43l-.23-.04.2-23.17.21-.05c1.25-.33,2.61-.95,4.06-1.61,2.55-1.16,5.19-2.37,7.56-2.09,1.79.21,4.12,1.65,6.37,3.04,2.01,1.24,4.08,2.53,5.65,2.85,1.8.37,4.83.21,7.75.06,3.84-.2,7.82-.4,9.66.5.98.48,1.6,1.25,1.74,2.17.16,1.03-.28,2.14-1.21,3.04-.41.4-3.48,2.35-4.01,2.5-1.34.4-4.45.3-7.75.19-3.33-.11-7.47-.24-8.09.37-.45.44-.6.89-.46,1.32.23.68,1.19,1.29,2.29,1.44,5.21.73,20.85.4,25.11-1.48,3.43-1.52,6.9-3.59,10.27-5.6,3.5-2.09,7.11-4.25,10.73-5.82,1.77-.53,3.3.76,3.92,2.29.56,1.41.4,3.2-1.22,4.02-3.67,2.22-7.34,4.66-10.9,7.02-6.4,4.25-13.02,8.64-20,12.02l-.07.03h-.07c-4.7-.29-9.75-.1-14.62.08-3.08.11-6.22.23-9.31.23ZM50.26,113.34c1.53.3,3.02.87,4.46,1.42,1.78.68,3.62,1.38,5.5,1.55,5.28.48,11.03.26,16.58.06,4.87-.18,9.89-.36,14.6-.09,6.93-3.36,13.51-7.72,19.87-11.95,3.56-2.36,7.24-4.8,10.94-7.04,1.42-.72,1.41-2.24.98-3.33-.52-1.3-1.79-2.4-3.21-1.98-3.56,1.55-7.16,3.7-10.64,5.78-3.38,2.02-6.87,4.1-10.33,5.63-4.33,1.92-20.16,2.25-25.41,1.52-1.08-.15-2.39-.78-2.74-1.82-.15-.44-.17-1.13.59-1.88h0c.73-.73,3.69-.69,8.5-.53,3.11.1,6.32.21,7.57-.17.39-.12,3.4-2,3.78-2.37.8-.77,1.18-1.7,1.05-2.55-.12-.74-.61-1.35-1.44-1.75-1.71-.84-5.61-.64-9.38-.45-3.1.16-6.02.31-7.89-.07-1.66-.34-3.78-1.65-5.83-2.92-2.2-1.36-4.48-2.77-6.14-2.96-2.22-.26-4.79.92-7.27,2.05-1.39.63-2.7,1.23-3.94,1.58l-.19,22.28ZM46.87,115.75h-12.11v-27h12.11v27ZM35.32,115.19h11v-25.89h-11v25.89ZM94.22,101.23c-.11,0-.22,0-.33-.01l-.64-.05.48-.43c1.3-1.17,2.09-2.82,2.16-4.53.06-1.62-.52-3.17-1.65-4.34-.49-.51-2.73-1.81-3.12-1.81h-6.05v-20.3h27.76v21.82l-1.16,1c-2.45,1.1-4.88,2.52-7.24,3.89-2.13,1.24-4.34,2.53-6.54,3.57l-.45.21c-1.01.49-2.05.99-3.22.99ZM85.62,89.49h5.5c.66,0,3.06,1.51,3.52,1.99,1.23,1.29,1.87,2.97,1.8,4.75-.06,1.63-.73,3.21-1.84,4.43.91-.09,1.77-.51,2.61-.91l.45-.22c2.18-1.03,4.37-2.31,6.49-3.54,2.35-1.37,4.79-2.79,7.25-3.9l.87-.76v-21.01h-26.65v19.19ZM81.89,90.04h-7.17c-.59,0-2.43-1.04-5.39-2.74-2.29-1.31-4.88-2.8-5.97-3.13-2.58-.79-4.37-.37-6.6.63l-.39.17v-15.23h25.52v20.3ZM60.84,83.22c.83,0,1.71.13,2.68.43,1.15.35,3.66,1.79,6.09,3.18,2.07,1.19,4.64,2.66,5.12,2.66h6.62v-19.19h-24.41v13.83c1.32-.56,2.55-.91,3.91-.91ZM114.97,66.95h-29.9v-14.43l.35.1c2.96.86,4.76,3.43,6.51,5.92.84,1.2,1.63,2.33,2.55,3.29,1.46,1.52,2.58,2.23,3.37,2.12.36-.06.64-.3.87-.75.53-1.07-.02-1.55-.95-2.25-.32-.24-.66-.5-.91-.79-.91-1.09-1.76-2.26-2.59-3.38-1-1.37-2.04-2.78-3.17-4.07l-.4-.46h24.27c.28,0,.93.79.99.91.39.84.39,12.04,0,12.89-.06.12-.71.91-.99.91ZM85.62,66.39h29.27c.15-.12.51-.49.57-.59.32-.75.32-11.67,0-12.42-.05-.1-.42-.47-.57-.59h-22.98c.99,1.18,1.91,2.43,2.81,3.65.82,1.12,1.67,2.28,2.57,3.36.21.25.5.47.81.7.83.62,1.87,1.4,1.11,2.94-.3.62-.74.97-1.28,1.06-1.47.24-3.26-1.66-3.85-2.28-.94-.99-1.79-2.19-2.6-3.35-1.62-2.31-3.29-4.69-5.85-5.59v13.12ZM81.89,66.95h-27.67c-.28,0-.93-.79-.99-.91-.39-.84-.39-12.04,0-12.89.06-.12.71-.91.99-.91h22.02l-.38.46c-1.04,1.23-2.02,2.55-2.97,3.83-.89,1.2-1.82,2.45-2.79,3.62-.25.3-.58.55-.91.79-.93.7-1.47,1.18-.95,2.25.22.45.51.7.87.75.79.12,1.91-.59,3.37-2.12.92-.96,1.75-2.14,2.55-3.28,1.73-2.46,3.52-5,6.5-5.93l.36-.11v14.44ZM54.31,66.39h27.03v-13.12c-2.59.96-4.25,3.32-5.85,5.59-.81,1.16-1.66,2.35-2.61,3.35-.59.62-2.37,2.52-3.85,2.28-.54-.08-.98-.44-1.28-1.06-.76-1.54.28-2.31,1.11-2.94.31-.23.61-.46.81-.7.96-1.16,1.88-2.4,2.78-3.6.84-1.13,1.7-2.29,2.61-3.41h-20.76c-.15.12-.51.49-.57.59-.32.75-.32,11.67,0,12.42.05.1.42.47.57.59ZM81.25,49.09l-.39-.02c-11.08-.64-17.44-3.27-18.9-7.8-.5-1.56-.25-3.23.68-4.58.92-1.33,2.37-2.15,3.97-2.23,5.97-.31,12.99,9.06,14.53,14.26l.11.38ZM66.91,35c-.09,0-.18,0-.27,0-1.43.08-2.72.8-3.54,1.99-.83,1.21-1.06,2.71-.61,4.1,1.37,4.24,7.42,6.73,18,7.4-1.68-5.03-8.06-13.49-13.58-13.49ZM85.72,49.09l.1-.37c1.36-4.99,8.24-14.27,14.24-14.27.1,0,.2,0,.3,0,1.6.08,3.05.9,3.97,2.23.93,1.35,1.18,3.02.68,4.58-1.46,4.54-7.82,7.16-18.9,7.8l-.38.02ZM100.06,35c-5.51,0-12.07,8.68-13.59,13.49,10.58-.67,16.64-3.15,18.01-7.4.45-1.39.23-2.88-.61-4.1-.82-1.19-2.11-1.92-3.54-1.99-.09,0-.18,0-.27,0Z"/>
  </g>
</svg>