<?xml version="1.0" encoding="UTF-8"?>
<svg id="_分離模式" data-name="分離模式" xmlns="http://www.w3.org/2000/svg" viewBox="0 0 157.55 157.55">
  <defs>
    <style>
      .cls-1 {
        fill: #fff;
      }

      .cls-2 {
        fill: #ffac3d;
      }
    </style>
  </defs>
  <circle class="cls-2" cx="78.77" cy="78.77" r="78.77" transform="translate(-11.51 144.04) rotate(-80.87)"/>
  <g>
    <path class="cls-1" d="M117.04,78.77c0,20.95-16.98,37.93-37.92,37.93s-37.92-16.98-37.92-37.93,16.98-37.93,37.92-37.93,37.92,16.98,37.92,37.93ZM110.88,78.77c0-17.54-14.22-31.76-31.75-31.76s-31.75,14.22-31.75,31.76,14.22,31.76,31.75,31.76,31.75-14.22,31.75-31.76Z"/>
    <path class="cls-1" d="M93.23,65.84c2.63-.38,4.48,2.37,3.14,4.64l-21.01,20.92c-.98.44-2.12.61-3.02-.09l-10.57-10.68c-1.16-2.21.79-4.89,3.25-4.46,2.07.36,8.32,8.21,8.93,8.21l17.85-17.87c.38-.33.92-.6,1.42-.67Z"/>
  </g>
</svg>