<?xml version="1.0" encoding="UTF-8"?>
<svg id="_圖層_3" data-name="圖層 3" xmlns="http://www.w3.org/2000/svg" viewBox="0 0 563.99 367.37">
  <g>
    <path d="M2.91,306.25c1.41-.3,3-.66,4.78-1.08,1.78-.42,3.66-.88,5.64-1.37,1.98-.49,3.94-1,5.88-1.5l.63,5.03c-2.67.72-5.37,1.45-8.11,2.18s-5.23,1.4-7.48,2l-1.35-5.25ZM3.67,291.78h15.49v5.17H3.67v-5.17ZM9.33,283.3h5.34v36.24c0,1.32-.14,2.34-.43,3.08-.28.73-.82,1.31-1.59,1.73-.75.42-1.68.69-2.78.81-1.11.12-2.46.18-4.04.18-.12-.69-.32-1.52-.61-2.49-.28-.97-.61-1.8-.97-2.49.87.03,1.71.04,2.54.04h1.68c.3,0,.52-.07.65-.2.13-.13.2-.35.2-.65v-36.24ZM20.96,283.3h5.34v11.77c0,.87.15,1.49.45,1.86.3.37.96.56,1.98.56h10.19c.9,0,1.93-.04,3.1-.11,1.17-.08,2.07-.17,2.69-.29.09.69.18,1.47.27,2.33s.18,1.62.27,2.25c-.57.15-1.44.25-2.6.31-1.17.06-2.32.09-3.46.09h-10.42c-1.98,0-3.53-.23-4.67-.7-1.14-.46-1.95-1.22-2.42-2.27-.48-1.05-.72-2.44-.72-4.18v-11.63ZM21.36,304.9h21.96v20.39h-5.34v-15.99h-11.5v16.17h-5.12v-20.57ZM23.7,288.15h20.07v4.63h-20.07v-4.63ZM23.88,319.22h15.9v4.31h-15.9v-4.31ZM24.06,312.08h15.72v4.18h-15.72v-4.18Z" style="fill: #4a4542;"/>
    <path d="M64.97,304.36l5.48.54c-.6,4.58-1.62,8.62-3.05,12.1-1.44,3.49-3.43,6.34-5.97,8.56-.27-.33-.67-.73-1.21-1.19-.54-.46-1.09-.92-1.66-1.37-.57-.45-1.06-.79-1.48-1.03,2.43-1.8,4.25-4.21,5.48-7.25,1.23-3.04,2.04-6.49,2.42-10.35ZM59.09,288.06h38.58v11.32h-5.52v-6.2h-27.75v6.2h-5.3v-11.32ZM69.33,309.93c.69,2.04,1.59,3.69,2.72,4.96s2.42,2.24,3.91,2.9c1.48.66,3.11,1.1,4.87,1.33s3.64.34,5.61.34h4.69c1,0,2.02,0,3.05-.02s2.01-.02,2.92-.02,1.67-.01,2.27-.04c-.27.42-.53.96-.79,1.62-.25.66-.49,1.33-.7,2.02-.21.69-.36,1.3-.45,1.84h-11.27c-2.61,0-5-.18-7.19-.54-2.19-.36-4.15-1.01-5.91-1.95-1.75-.94-3.31-2.3-4.67-4.06-1.36-1.77-2.52-4.06-3.48-6.87l4.4-1.48ZM65.91,297.13h24.83v5.12h-24.83v-5.12ZM74.27,284.33l5.39-1.48c.54.96,1.05,2.01,1.55,3.14.49,1.14.85,2.14,1.06,3.01l-5.7,1.71c-.15-.84-.44-1.86-.88-3.05-.43-1.2-.91-2.31-1.42-3.32ZM75.52,299.87h5.61v21.69l-5.61-.67v-21.02ZM78.35,307.64h15.13v5.08h-15.13v-5.08Z" style="fill: #4a4542;"/>
    <path d="M129.05,288.19h5.66v8.31c0,1.86-.13,3.83-.38,5.91-.25,2.08-.76,4.18-1.53,6.31-.76,2.13-1.88,4.21-3.35,6.24-1.47,2.04-3.41,3.93-5.82,5.68-2.41,1.75-5.41,3.29-9,4.6-.24-.42-.56-.93-.96-1.53s-.84-1.17-1.3-1.73-.89-1.01-1.28-1.37c3.23-1.11,5.93-2.42,8.11-3.95,2.17-1.53,3.91-3.15,5.21-4.87,1.3-1.72,2.29-3.47,2.96-5.25.67-1.78,1.12-3.54,1.35-5.28.22-1.74.34-3.35.34-4.85v-8.22ZM112.66,299.87h39.16v5.52h-39.16v-5.52ZM114.32,286.31h35.75v5.57h-35.75v-5.57ZM135.03,302.74c1.41,4.28,3.66,7.93,6.76,10.93s7.1,5.16,12.01,6.44c-.42.39-.87.88-1.35,1.48-.48.6-.93,1.21-1.35,1.82-.42.61-.76,1.19-1.03,1.73-3.47-1.14-6.49-2.68-9.05-4.63-2.56-1.95-4.74-4.3-6.53-7.07-1.8-2.77-3.31-5.91-4.54-9.41l5.07-1.3Z" style="fill: #4a4542;"/>
    <path d="M181.46,309.48h4.22v2.2c0,.96-.13,1.95-.4,2.99s-.76,2.07-1.48,3.1c-.72,1.03-1.77,2.03-3.17,2.99-1.39.96-3.22,1.84-5.48,2.65-2.26.81-5.05,1.5-8.38,2.07-.18-.51-.49-1.11-.92-1.8s-.83-1.24-1.19-1.66c3.02-.48,5.55-1.04,7.57-1.68,2.02-.64,3.64-1.33,4.87-2.07,1.23-.73,2.16-1.5,2.78-2.29s1.05-1.56,1.26-2.31c.21-.75.31-1.45.31-2.11v-2.07ZM165.12,290.66h4.45v.27h15.09v-.27h5.03v3.86h-5.03v-.31h-15.09v.31h-4.45v-3.86ZM165.61,310.74h23.8v3.64h-23.8v-3.64ZM167.5,300.77h20.39v7.99h-20.39v-7.99ZM167.9,317.83c.78-.93,1.58-2,2.4-3.23.82-1.23,1.62-2.5,2.38-3.82.76-1.32,1.4-2.56,1.91-3.73l4.22.94c-.6,1.26-1.28,2.55-2.04,3.88s-1.54,2.6-2.33,3.79c-.79,1.2-1.55,2.25-2.27,3.14l-4.27-.99ZM167.9,317.83l3.37-2.74c1.92.42,3.91.97,5.97,1.66,2.07.69,4.04,1.42,5.93,2.2,1.89.78,3.52,1.51,4.89,2.2l-3.37,3.05c-1.32-.75-2.92-1.53-4.8-2.33s-3.87-1.57-5.95-2.29c-2.08-.72-4.09-1.3-6.04-1.75ZM168.26,285.99h19.04v13.47h-19.04v-13.47ZM171.9,303.78v1.98h11.32v-1.98h-11.32ZM172.25,289.36v6.69h10.78v-6.69h-10.78ZM175.49,283.3h4.04v24.03h-4.04v-24.03ZM199.78,294.66l4.54.36c-.51,5.18-1.38,9.72-2.6,13.61-1.23,3.89-2.97,7.24-5.23,10.04-2.26,2.8-5.25,5.13-8.96,6.98-.12-.33-.33-.75-.63-1.26-.3-.51-.63-1.02-.99-1.53-.36-.51-.67-.91-.94-1.21,3.38-1.53,6.09-3.51,8.13-5.95,2.04-2.44,3.56-5.4,4.58-8.89,1.02-3.49,1.72-7.54,2.11-12.15ZM193.36,283.3l4.45.81c-.51,2.87-1.13,5.73-1.86,8.58-.73,2.84-1.54,5.53-2.42,8.06-.88,2.53-1.86,4.77-2.94,6.71-.24-.3-.58-.67-1.01-1.1-.43-.43-.87-.86-1.3-1.28-.43-.42-.83-.75-1.19-.99,1.02-1.71,1.92-3.68,2.69-5.93.78-2.25,1.47-4.64,2.07-7.18s1.11-5.1,1.53-7.68ZM194.98,295.96c.54,3.74,1.31,7.27,2.31,10.58,1,3.31,2.36,6.23,4.06,8.76,1.71,2.53,3.85,4.51,6.42,5.95-.36.3-.76.69-1.19,1.17-.43.48-.85.98-1.24,1.5-.39.52-.72,1.01-.99,1.46-2.67-1.77-4.87-4.08-6.6-6.94-1.74-2.86-3.11-6.14-4.13-9.86-1.02-3.71-1.83-7.74-2.43-12.08l3.77-.54ZM192.37,291.65h14.86v4.67h-14.86v-4.67Z" style="fill: #4a4542;"/>
    <path d="M225.16,283.97h5.3c0,4.43-.07,8.66-.2,12.69s-.44,7.81-.92,11.34c-.48,3.53-1.26,6.77-2.36,9.72-1.09,2.95-2.61,5.55-4.56,7.79-.27-.45-.63-.93-1.08-1.44s-.93-.99-1.44-1.44c-.51-.45-.99-.81-1.44-1.08,1.41-1.59,2.54-3.38,3.39-5.37.85-1.99,1.51-4.17,1.98-6.53.46-2.37.79-4.9.97-7.61.18-2.71.28-5.58.31-8.62.03-3.04.04-6.19.04-9.45ZM219.81,291.38h16.44v5.25h-16.44v-5.25ZM234.95,291.38h5.21v1.53c0,.39-.02.7-.04.94-.09,4.79-.19,8.87-.29,12.24-.11,3.37-.22,6.13-.36,8.29-.13,2.16-.32,3.85-.56,5.08s-.54,2.09-.9,2.6c-.51.75-1.03,1.29-1.57,1.62s-1.18.57-1.93.72c-.66.15-1.47.23-2.43.25-.96.01-1.96,0-3.01-.07-.03-.78-.18-1.68-.45-2.72-.27-1.03-.63-1.92-1.08-2.67.9.06,1.72.1,2.47.13.75.03,1.33.04,1.75.04.33,0,.61-.06.85-.18.24-.12.46-.34.67-.67.24-.33.45-1.02.63-2.07s.33-2.58.45-4.58c.12-2.01.22-4.59.31-7.75.09-3.16.18-7.01.27-11.56v-1.17ZM242.67,288.46h16.35v35.79h-5.39v-30.58h-5.79v30.9h-5.17v-36.11ZM245.1,316.26h11.5v5.16h-11.5v-5.16Z" style="fill: #4a4542;"/>
    <path d="M278.1,287.56l5.03.76c-.45,3.23-1.02,6.4-1.71,9.5-.69,3.1-1.56,6-2.63,8.71-1.06,2.71-2.34,5.08-3.84,7.12-.15-.42-.4-.95-.74-1.59-.34-.64-.71-1.29-1.1-1.95-.39-.66-.75-1.18-1.08-1.57,1.17-1.65,2.14-3.58,2.92-5.82.78-2.23,1.41-4.63,1.91-7.21.49-2.57.91-5.22,1.24-7.95ZM273.21,284.96h17.11v4.9h-17.11v-4.9ZM276.13,299.28h4.62v24.25h-4.62v-24.25ZM278.46,299.28h10.55v20.75h-10.55v-4.62h5.88v-11.45h-5.88v-4.67ZM291.13,311.68l3.91.99c-.21,1.98-.54,3.94-.99,5.91s-1.18,3.6-2.2,4.92l-3.68-2.07c.87-1.14,1.53-2.59,2-4.36.46-1.77.79-3.56.97-5.39ZM291.76,284.96h21.83v4.63h-16.93v18.64h-4.89v-23.26ZM291.76,305.75h19.4v4.67h-19.4v-4.67ZM294.32,292.05h17.96v4.18h-17.96v-4.18ZM294.32,298.84h17.96v4.18h-17.96v-4.18ZM295.53,313.57l3.5-.49c.27,1.29.48,2.69.63,4.22.15,1.53.21,2.84.18,3.95l-3.73.58c.06-1.14.04-2.48-.07-4.02-.1-1.54-.28-2.96-.52-4.24ZM300.24,313.3l3.23-.9c.42,1.08.8,2.25,1.15,3.5.34,1.26.58,2.35.7,3.28l-3.41.94c-.12-.9-.34-1.99-.65-3.28-.31-1.29-.65-2.47-1.01-3.55ZM301.05,287.43h4.76v20.16h-4.76v-20.16ZM309.54,305.75h4.94c-.03.99-.06,1.65-.09,1.98-.12,3.44-.28,6.26-.47,8.44-.2,2.19-.42,3.87-.67,5.05-.25,1.18-.58,2.03-.97,2.54-.42.54-.88.93-1.37,1.17-.49.24-1.07.4-1.73.49-.57.09-1.29.14-2.16.16-.87.01-1.8,0-2.78-.02-.03-.72-.17-1.51-.4-2.38-.24-.87-.55-1.62-.94-2.25.81.09,1.56.15,2.25.18.69.03,1.2.04,1.53.04s.59-.04.79-.13c.19-.09.4-.24.61-.45.27-.3.49-.94.67-1.91s.34-2.43.47-4.38c.13-1.95.25-4.52.34-7.72v-.81ZM304.69,312.44l2.69-1.08c.57.78,1.08,1.65,1.55,2.63.46.97.8,1.8,1.01,2.49l-2.83,1.26c-.21-.72-.54-1.58-.99-2.58s-.93-1.91-1.44-2.72Z" style="fill: #4a4542;"/>
    <path d="M334.6,304.72h1.62l.81-.13,2.25.9c-.66,4.94-1.8,9.09-3.44,12.46-1.63,3.37-3.65,5.93-6.04,7.7-.21-.36-.53-.78-.97-1.26-.43-.48-.88-.94-1.33-1.37-.45-.43-.85-.76-1.21-.97,2.21-1.53,4.03-3.69,5.43-6.49,1.41-2.8,2.36-6.14,2.87-10.04v-.81ZM328.09,309.57c-.09-.39-.24-.86-.45-1.42-.21-.55-.43-1.11-.67-1.66-.24-.55-.43-.98-.58-1.28.36-.09.73-.24,1.12-.45.39-.21.79-.54,1.21-.99.33-.33.79-.88,1.37-1.66.58-.78,1.23-1.65,1.93-2.63.7-.97,1.37-1.92,2-2.85s1.12-1.71,1.48-2.34v-.18l1.39-.54,3.28,1.44c-.54.78-1.15,1.68-1.84,2.72-.69,1.03-1.43,2.09-2.22,3.17-.79,1.08-1.57,2.13-2.31,3.14-.75,1.02-1.44,1.89-2.07,2.61-.72.36-1.33.7-1.82,1.01-.49.31-.92.64-1.28.97-.36.33-.54.64-.54.94ZM327.23,293.81h9.48v4.27h-9.48v-4.27ZM328.09,309.57v-3.86l1.93-.99h6.65l-.04,4.18h-5.75c-.54,0-1.08.06-1.64.18-.55.12-.94.29-1.15.49ZM328.31,285.72l4.09-2.42c1.02,1.08,2.05,2.25,3.1,3.53,1.05,1.27,1.87,2.37,2.47,3.3l-4.22,2.87c-.36-.63-.85-1.37-1.46-2.22-.61-.85-1.27-1.72-1.95-2.61-.69-.88-1.36-1.7-2.02-2.45ZM336.35,313.3c.84,2.01,1.97,3.5,3.39,4.47,1.42.97,3.17,1.6,5.25,1.89,2.08.28,4.48.44,7.21.47,1.59,0,3.4-.03,5.43-.09,2.04-.06,4.09-.14,6.17-.25,2.08-.11,3.97-.25,5.68-.43-.24.36-.47.84-.7,1.44-.22.6-.43,1.21-.61,1.84-.18.63-.31,1.2-.4,1.71-1.56.06-3.21.13-4.96.2-1.75.07-3.53.13-5.34.16-1.81.03-3.6.04-5.37.04-2.63,0-4.97-.13-7.01-.38-2.04-.25-3.83-.72-5.37-1.39-1.54-.67-2.88-1.67-4.02-2.99-1.14-1.32-2.13-3.07-2.96-5.25l3.59-1.44ZM351.26,293.58h5.34v6.02c0,1.44-.17,2.98-.49,4.62-.33,1.65-.94,3.32-1.84,5.03-.9,1.71-2.19,3.37-3.88,4.98-1.69,1.62-3.93,3.13-6.71,4.54-.36-.6-.91-1.26-1.64-2-.73-.73-1.42-1.34-2.04-1.82,2.63-1.11,4.72-2.33,6.24-3.68,1.53-1.35,2.65-2.72,3.37-4.11.72-1.39,1.17-2.75,1.37-4.06.19-1.32.29-2.51.29-3.59v-5.93ZM340.66,300.77h26.95v4.9h-26.95v-4.9ZM341.87,290.98h24.61v4.89h-24.61v-4.89ZM343.71,285l4.54-1.75c.69,1.05,1.43,2.21,2.22,3.48.79,1.27,1.42,2.34,1.86,3.21l-4.85,2.02c-.24-.6-.58-1.29-1.01-2.09-.43-.79-.9-1.62-1.39-2.49s-.95-1.66-1.37-2.38ZM351.17,307.1l3.5-3.23c1.02.84,2.12,1.75,3.32,2.74,1.2.99,2.42,1.98,3.66,2.99,1.24,1,2.4,1.97,3.48,2.9,1.08.93,1.98,1.77,2.69,2.51l-3.73,3.77c-.69-.78-1.55-1.65-2.58-2.63-1.03-.97-2.15-1.98-3.35-3.03-1.2-1.05-2.4-2.09-3.62-3.12-1.21-1.03-2.34-2-3.39-2.9ZM359.21,283.3l5.39,1.57c-.54,1.08-1.12,2.15-1.73,3.21-.61,1.06-1.21,2.08-1.77,3.05-.57.97-1.12,1.83-1.66,2.58l-4.27-1.48c.48-.81.97-1.74,1.48-2.78s.99-2.11,1.44-3.19.82-2.07,1.12-2.96Z" style="fill: #4a4542;"/>
    <path d="M392.98,311.9c-.9-1.11-1.9-2.25-3.01-3.44-1.11-1.18-2.23-2.33-3.37-3.46s-2.23-2.12-3.28-2.99l4.67-4.09c1.08.87,2.22,1.89,3.44,3.08,1.21,1.18,2.39,2.37,3.53,3.57,1.14,1.2,2.08,2.26,2.83,3.19l-4.81,4.13Z" style="fill: #4a4542;"/>
    <path d="M411.57,306.29c2-.42,4.4-.97,7.18-1.64,2.79-.67,5.57-1.37,8.35-2.09l.63,4.85c-2.54.72-5.11,1.44-7.7,2.16-2.59.72-4.96,1.36-7.12,1.93l-1.35-5.21ZM412.29,291.78h14.91v4.99h-14.91v-4.99ZM417.72,283.3h5.16v36.56c0,1.29-.13,2.29-.4,3.01-.27.72-.78,1.27-1.53,1.66-.75.39-1.68.65-2.78.79-1.11.13-2.44.2-4,.2-.09-.69-.28-1.5-.56-2.43-.29-.93-.59-1.75-.92-2.47.87.03,1.71.05,2.52.07.81.02,1.36.02,1.66.02s.52-.07.65-.2.2-.35.2-.65v-36.56ZM428.28,293.36h25.01v31.75h-5.34v-26.63h-14.55v26.95h-5.12v-32.06ZM431.47,304.99h17.96v5.03h-17.96v-5.03ZM431.65,316.98h17.92v5.17h-17.92v-5.17ZM437.98,283.39h5.12v36.73h-5.12v-36.73Z" style="fill: #4a4542;"/>
    <path d="M466.9,285.59h19.36v4.45h-19.36v-4.45ZM467.35,308.85h35.3v4.31h-35.3v-4.31ZM469.01,307.59h5.16v17.78h-5.16v-17.78ZM471.88,292.59h30.4v14.42h-30.4v-14.42ZM476.06,316.93c1.65-.06,3.53-.13,5.66-.22,2.12-.09,4.38-.19,6.76-.29,2.38-.1,4.75-.22,7.12-.34l-.04,4.18c-2.25.15-4.51.3-6.8.45-2.29.15-4.48.29-6.56.43s-3.99.25-5.73.34l-.4-4.54ZM476.28,283.3h5.25v8.62h-5.25v-8.62ZM477.05,296.1v2.02h19.85v-2.02h-19.85ZM477.05,301.44v2.02h19.85v-2.02h-19.85ZM484.32,294.39h5.16v24.03h-5.16v-24.03ZM487.74,285.59h19.36v4.45h-19.36v-4.45ZM491.73,314.1l3.95-.99c.51.87.99,1.8,1.44,2.81s.85,1.99,1.19,2.96c.34.97.58,1.85.7,2.63l-4.22,1.12c-.12-.78-.33-1.66-.63-2.65-.3-.99-.66-1.99-1.08-3.01-.42-1.02-.87-1.98-1.35-2.87ZM492.23,283.3h5.25v8.62h-5.25v-8.62ZM500.27,308.85h5.21v11.86c0,1.05-.11,1.89-.34,2.54s-.68,1.15-1.37,1.5c-.69.36-1.5.58-2.42.65-.93.07-2.01.11-3.23.11-.09-.66-.28-1.39-.56-2.2-.29-.81-.58-1.53-.88-2.16.63.03,1.24.04,1.82.04h1.15c.24,0,.4-.04.49-.11.09-.07.13-.23.13-.47v-11.77Z" style="fill: #4a4542;"/>
    <path d="M531.12,302.83h5.79c-.18,2.46-.48,4.79-.9,7.01-.42,2.22-1.09,4.29-2.02,6.22-.93,1.93-2.26,3.68-4,5.25-1.74,1.57-4.01,2.93-6.83,4.06-.3-.69-.78-1.46-1.44-2.31-.66-.85-1.29-1.55-1.89-2.09,2.45-.9,4.4-1.98,5.84-3.26,1.44-1.27,2.53-2.68,3.28-4.22.75-1.54,1.26-3.22,1.53-5.03.27-1.81.48-3.69.63-5.64ZM520.83,298.7h40.28v5.21h-40.28v-5.21ZM524.92,286.49h32.06v5.16h-32.06v-5.16ZM543.65,302.11h5.57v15.58c0,.87.1,1.42.29,1.64s.67.34,1.42.34h4.09c.51,0,.89-.19,1.14-.56.25-.37.44-1.11.56-2.2.12-1.09.21-2.72.27-4.87.39.3.88.6,1.48.9s1.21.57,1.84.81c.63.24,1.18.42,1.66.54-.18,2.69-.49,4.8-.92,6.31-.43,1.51-1.09,2.58-1.95,3.19s-2.07.92-3.59.92h-5.48c-1.68,0-2.98-.22-3.91-.65-.93-.43-1.57-1.16-1.93-2.18s-.54-2.39-.54-4.13v-15.63Z" style="fill: #4a4542;"/>
  </g>
  <g>
    <g>
      <g>
        <path d="M22.89,171.89h5.43l2.71-.37,7.28,2.96c-1.73,13.82-4.81,25.48-9.25,34.98-4.44,9.5-9.99,16.72-16.66,21.65-.74-1.15-1.81-2.51-3.21-4.07-1.4-1.56-2.86-3.06-4.38-4.5-1.52-1.44-2.86-2.53-4.01-3.27,6.09-4.11,10.98-9.97,14.68-17.58,3.7-7.61,6.17-16.67,7.4-27.2v-2.59ZM6.36,187.56c-.25-1.23-.72-2.75-1.42-4.56-.7-1.81-1.42-3.6-2.16-5.37s-1.36-3.15-1.85-4.13c1.07-.25,2.14-.66,3.21-1.23,1.07-.57,2.22-1.52,3.45-2.84.9-.82,2.14-2.26,3.7-4.32,1.56-2.05,3.27-4.4,5.12-7.03,1.85-2.63,3.62-5.2,5.3-7.71,1.68-2.51,3.06-4.63,4.13-6.35v-.49l4.32-1.73,10.61,4.69c-1.4,2.14-3.04,4.61-4.94,7.4-1.89,2.8-3.89,5.68-5.98,8.64-2.1,2.96-4.18,5.82-6.23,8.57-2.06,2.76-3.95,5.12-5.67,7.09-2.3,1.23-4.24,2.34-5.8,3.33-1.56.99-2.92,2.02-4.07,3.08-1.15,1.07-1.73,2.06-1.73,2.96ZM3.77,142.41h25.66v14.06H3.77v-14.06ZM6.36,187.56v-12.58l5.8-3.08h17.52l-.12,13.69h-15.42c-1.4,0-2.9.19-4.5.55-1.6.37-2.69.84-3.27,1.42ZM30.54,194.34c2.06,5.59,4.91,9.73,8.57,12.4,3.66,2.67,8.18,4.4,13.57,5.18,5.39.78,11.58,1.21,18.57,1.29,4.44,0,9.58-.1,15.42-.31,5.84-.2,11.78-.47,17.83-.8,6.05-.33,11.54-.74,16.47-1.23-.82,1.15-1.6,2.72-2.34,4.69s-1.4,4.01-1.97,6.11c-.58,2.1-1.03,3.97-1.36,5.61-4.52.25-9.25.47-14.19.68-4.93.2-9.95.35-15.05.43-5.1.08-10.16.12-15.17.12-7.16,0-13.49-.37-19-1.11-5.51-.74-10.34-2.12-14.5-4.13-4.15-2.02-7.77-4.97-10.86-8.88-3.08-3.91-5.74-9.07-7.96-15.48l11.97-4.56ZM68.91,142.04h17.76v16.28c0,3.95-.47,8.18-1.42,12.71-.95,4.52-2.67,9.15-5.18,13.88-2.51,4.73-6.05,9.31-10.61,13.75-4.56,4.44-10.51,8.55-17.83,12.34-1.23-1.89-3.06-4.05-5.49-6.48-2.43-2.43-4.71-4.42-6.85-5.98,6.91-2.96,12.36-6.21,16.35-9.75,3.99-3.53,6.93-7.13,8.82-10.79,1.89-3.66,3.1-7.2,3.64-10.61.53-3.41.8-6.52.8-9.31v-16.04ZM41.52,160.42h73.4v16.28H41.52v-16.28ZM44.6,133.28h67.24v16.16H44.6v-16.16ZM48.92,118.84l15.17-5.8c1.81,2.8,3.8,5.92,5.98,9.38,2.18,3.45,3.89,6.38,5.12,8.76l-16.04,6.66c-.66-1.64-1.58-3.56-2.78-5.74-1.19-2.18-2.45-4.44-3.76-6.78-1.32-2.34-2.55-4.5-3.7-6.48ZM69.28,178.92l11.47-10.73c2.63,2.3,5.55,4.79,8.76,7.46,3.21,2.67,6.48,5.39,9.81,8.14,3.33,2.76,6.46,5.41,9.38,7.96,2.92,2.55,5.37,4.81,7.34,6.78l-12.46,12.58c-1.81-2.14-4.09-4.54-6.85-7.22-2.76-2.67-5.74-5.45-8.94-8.33-3.21-2.88-6.41-5.76-9.62-8.64-3.21-2.88-6.17-5.55-8.88-8.02ZM90.12,113.29l18.01,5.18c-1.56,2.96-3.17,5.88-4.81,8.76-1.65,2.88-3.23,5.61-4.75,8.2-1.52,2.59-2.98,4.87-4.38,6.85l-14.19-4.81c1.23-2.22,2.49-4.73,3.76-7.53,1.27-2.79,2.47-5.65,3.58-8.57,1.11-2.92,2.04-5.61,2.78-8.08Z" style="fill: #4a4542;"/>
        <path d="M168.46,113.41l17.15,1.36c-.99,12.34-2.45,24.2-4.38,35.59-1.93,11.39-4.4,21.88-7.4,31.46-3,9.58-6.77,17.91-11.29,24.98-.99-.9-2.39-2.01-4.19-3.33-1.81-1.32-3.68-2.61-5.61-3.89-1.93-1.27-3.6-2.28-5-3.02,4.36-6.09,7.94-13.47,10.73-22.15,2.8-8.68,4.97-18.22,6.54-28.62,1.56-10.4,2.71-21.2,3.45-32.39ZM153.29,129.82h54.53v17.15h-54.53v-17.15ZM168.84,225.43c-.25-1.07-.66-2.49-1.23-4.26-.58-1.77-1.21-3.62-1.91-5.55-.7-1.93-1.38-3.56-2.04-4.87,1.4-.49,2.63-1.52,3.7-3.08,1.07-1.56,2.22-3.62,3.46-6.17.66-1.23,1.54-3.29,2.65-6.17,1.11-2.88,2.3-6.31,3.58-10.3,1.27-3.99,2.51-8.24,3.7-12.77,1.19-4.52,2.2-9.05,3.02-13.57l16.9,3.33c-1.73,6.58-3.81,13.18-6.23,19.8-2.43,6.62-5,12.91-7.71,18.88-2.71,5.96-5.43,11.33-8.14,16.1v.37c-1.97,1.15-3.6,2.18-4.87,3.08-1.28.9-2.41,1.81-3.39,2.71-.99.9-1.48,1.73-1.48,2.47ZM168.84,225.43l-.86-12.83,6.54-4.81,24.92-3.21c.25,2.14.62,4.55,1.11,7.22.49,2.67.94,4.87,1.36,6.6-6.25.99-11.37,1.83-15.36,2.53-3.99.7-7.14,1.29-9.44,1.79-2.3.49-4.07.97-5.3,1.42-1.23.45-2.22.88-2.96,1.29ZM189.93,184.97l13.08-4.56c1.4,4.44,2.78,9.13,4.13,14.06,1.36,4.94,2.59,9.77,3.7,14.5,1.11,4.73,1.95,8.99,2.53,12.77l-14.06,5.18c-.41-3.78-1.13-8.1-2.16-12.96-1.03-4.85-2.18-9.81-3.46-14.87-1.28-5.06-2.53-9.76-3.76-14.13ZM218.18,114.03l15.05,4.19c-1.97,6.25-4.36,12.52-7.16,18.81-2.8,6.29-5.84,12.21-9.13,17.76-3.29,5.55-6.75,10.43-10.36,14.62-.58-1.15-1.42-2.67-2.53-4.56-1.11-1.89-2.28-3.76-3.52-5.61-1.23-1.85-2.34-3.35-3.33-4.5,4.36-4.94,8.39-11.02,12.09-18.26,3.7-7.24,6.66-14.72,8.88-22.45ZM228.92,136.11h36.39v15.54h-36.39v79.08h-15.67v-82.66l10.98-11.97h4.69ZM216.7,209.15h49.35v16.16h-49.35v-16.16ZM217.94,160.79h46.63v14.93h-46.63v-14.93ZM217.94,184.85h46.63v14.93h-46.63v-14.93ZM234.22,119.71l15.3-4.69c1.31,2.55,2.63,5.39,3.95,8.51,1.32,3.13,2.34,5.84,3.08,8.14l-15.79,5.55c-.57-2.38-1.5-5.22-2.77-8.51-1.28-3.29-2.53-6.29-3.76-9ZM238.04,143.64h15.79v73.28h-15.79v-73.28Z" style="fill: #ed2239;"/>
        <path d="M320.08,113.91l13.82,8.02c-3.46,6.99-7.55,13.65-12.27,19.99-4.73,6.33-9.64,11.72-14.74,16.16-1.23-1.64-2.96-3.54-5.18-5.68-2.22-2.14-4.24-3.86-6.04-5.18,3.29-2.71,6.43-5.88,9.44-9.5,3-3.62,5.8-7.48,8.39-11.6,2.59-4.11,4.79-8.18,6.6-12.21ZM314.16,160.17l12.09,6.91c-1.4,3.87-3.21,7.88-5.43,12.03-2.22,4.15-4.61,8.14-7.16,11.97-2.55,3.82-5.14,7.14-7.77,9.93-1.07-2.05-2.51-4.48-4.32-7.28-1.81-2.8-3.54-5.02-5.18-6.66,2.3-1.97,4.58-4.44,6.85-7.4,2.26-2.96,4.36-6.15,6.29-9.56,1.93-3.41,3.47-6.72,4.63-9.93ZM297.88,122.3l11.97-8.26c6,6.99,10.4,14,13.2,21.03,2.79,7.03,4.63,14.27,5.49,21.71.86,7.45,1.3,15.28,1.3,23.5,0,5.59-.15,11.18-.43,16.78-.29,5.59-.86,10.69-1.73,15.3-.86,4.61-2.2,8.22-4.01,10.86-1.81,2.47-4.15,4.03-7.03,4.69-1.81.49-3.81.82-5.98.99-2.18.16-4.46.2-6.85.12-.08-2.71-.41-5.49-.99-8.33-.58-2.84-1.48-5.41-2.71-7.71,1.89.08,3.49.12,4.81.12s2.38-.04,3.21-.12c1.48-.08,2.55-.66,3.21-1.73.57-.74,1.03-2.1,1.36-4.07.33-1.97.6-4.38.8-7.22.2-2.84.35-5.98.43-9.44.08-3.45.12-6.99.12-10.61,0-7.73-.37-14.89-1.11-21.47-.74-6.58-2.26-12.83-4.56-18.75-2.3-5.92-5.8-11.72-10.49-17.4ZM331.93,129.58h13.94v99.43h-13.94v-99.43ZM340.56,113.91l15.91,2.59c-1.32,4.03-2.59,7.96-3.82,11.78-1.23,3.82-2.39,7.09-3.45,9.81l-13.32-2.59c.66-2.05,1.27-4.34,1.85-6.85.57-2.51,1.13-5.06,1.67-7.65.53-2.59.93-4.95,1.17-7.09ZM338.59,129.58h24.8v41.45h-24.8v-14.93h10.86v-11.6h-10.86v-14.93ZM339.21,176.95h24.8v43.8h-24.8v-14.93h10.86v-13.94h-10.86v-14.93ZM365.61,118.6h48.98v15.05h-48.98v-15.05ZM366.47,145h40.96v14.93h-28.25v54.65h-12.71v-69.58ZM382.39,122.17h14.19v108.32h-14.19v-108.32ZM399.78,145h13.2v55.02c0,2.55-.25,4.79-.74,6.72-.49,1.93-1.48,3.48-2.96,4.63-1.48,1.15-3.02,1.91-4.63,2.28-1.6.37-3.48.55-5.61.55-.25-1.89-.82-4.15-1.73-6.78-.91-2.63-1.85-4.85-2.84-6.66.9.08,1.75.12,2.53.12h1.79c.66,0,.99-.41.99-1.23v-54.65Z" style="fill: #ed2239;"/>
        <path d="M451.97,120.94l12.21-5.18c1.4,2.06,2.77,4.3,4.13,6.72,1.36,2.43,2.32,4.55,2.9,6.35l-12.95,5.8c-.49-1.89-1.34-4.13-2.53-6.72-1.19-2.59-2.45-4.91-3.76-6.97ZM452.46,132.17h46.76v10.12h-34.3v35.65h-12.46v-45.77ZM459.62,183.37h82.78v14.8h-65.39v27.02h-17.39v-41.82ZM466.77,145l8.27,1.73c-.49,3.78-1.17,7.63-2.03,11.54-.86,3.91-1.87,7.22-3.02,9.93-.82-.57-1.97-1.25-3.46-2.03-1.48-.78-2.76-1.38-3.82-1.79,1.15-2.71,2.04-5.78,2.65-9.19.62-3.41,1.09-6.81,1.42-10.18ZM472.57,113.54h15.42v25.41h-2.34v37.87h-10.73v-37.87h-2.34v-25.41ZM485.03,146.72l7.03-2.1c1.15,3.37,2.14,7.03,2.96,10.98.82,3.95,1.36,7.36,1.6,10.24l-7.4,2.34c-.17-2.88-.64-6.33-1.42-10.36-.78-4.03-1.71-7.73-2.77-11.1ZM496.75,115.63l14.43,4.81c-1.97,2.55-3.78,5.04-5.43,7.46-1.65,2.43-3.17,4.46-4.56,6.11l-10.24-4.19c1.07-2.06,2.16-4.42,3.27-7.09,1.11-2.67,1.95-5.04,2.53-7.09ZM495.27,177.32h17.76v53.3h-17.76v-53.3ZM495.89,132.17h12.58v42.81h-12.58v-42.81ZM521.18,113.54l14.68,3.08c-1.97,6.91-4.77,13.34-8.39,19.31-3.62,5.96-7.81,10.88-12.58,14.74-.66-.99-1.63-2.18-2.9-3.58-1.28-1.4-2.59-2.82-3.95-4.26-1.36-1.44-2.57-2.57-3.64-3.39,4.03-2.96,7.48-6.7,10.36-11.23,2.88-4.52,5.02-9.42,6.42-14.68ZM541.41,132.17l15.54,2.1c-3.13,11.1-8.1,20.19-14.93,27.26-6.83,7.07-15.59,12.58-26.28,16.53-.41-1.15-1.11-2.57-2.1-4.26-.99-1.68-2.03-3.37-3.15-5.06-1.11-1.68-2.12-3.02-3.02-4.01,9.05-2.72,16.45-6.72,22.21-12.03,5.76-5.3,9.66-12.15,11.72-20.54ZM527.22,133.65c2.06,5.26,4.81,10.1,8.27,14.5,3.45,4.4,7.57,8.25,12.34,11.54,4.77,3.29,10.16,5.84,16.16,7.65-1.56,1.4-3.27,3.31-5.12,5.74-1.85,2.43-3.27,4.59-4.26,6.48-9.87-3.7-18.07-9.21-24.61-16.53-6.54-7.32-11.66-16.04-15.36-26.15l12.58-3.21ZM533.88,183.37h17.64v25.91c0,3.78-.52,6.74-1.54,8.88-1.03,2.14-2.94,3.78-5.74,4.94-2.8,1.15-5.94,1.83-9.44,2.03-3.5.2-7.42.31-11.78.31-.49-2.22-1.3-4.73-2.41-7.52-1.11-2.8-2.24-5.18-3.39-7.16,1.64.08,3.46.15,5.43.19,1.97.04,3.76.06,5.37.06h3.27c.9-.08,1.56-.25,1.97-.49.41-.25.62-.74.62-1.48v-25.66ZM522.53,124.76h38.98v13.2h-38.98v-13.2Z" style="fill: #ed2239;"/>
      </g>
      <path d="M34.11,119.5v.94c0,4.61-4.47,11.09-10.1,14.5l-1.17.71c-5.86,3.56-10.8,2.54-10.8-2.37v-1c0-4.91,4.94-11.67,10.8-14.91l1.17-.65c5.63-3.12,10.1-1.83,10.1,2.78Z" style="fill: #ed2239;"/>
    </g>
    <g>
      <path d="M0,67.5L18.03,9.36h16.7l18.03,58.14h-14.67l-7.26-29.03c-.78-2.91-1.55-6.01-2.3-9.29-.76-3.28-1.52-6.4-2.3-9.36h-.31c-.68,3.02-1.4,6.15-2.19,9.4-.78,3.25-1.54,6.33-2.26,9.25l-7.26,29.03H0ZM12.25,54.16v-10.77h28.09v10.77H12.25Z" style="fill: #4a4542;"/>
      <path d="M74.45,67.5V9.36h20.45c4.27,0,8.16.59,11.67,1.76s6.32,3.14,8.43,5.89c2.11,2.76,3.16,6.53,3.16,11.31s-1.05,8.34-3.16,11.28c-2.11,2.94-4.9,5.11-8.39,6.52-3.49,1.41-7.28,2.11-11.39,2.11h-6.79v19.28h-13.97ZM88.42,37.23h6.09c3.38,0,5.9-.77,7.57-2.3,1.66-1.53,2.5-3.73,2.5-6.59s-.9-4.95-2.69-6.13c-1.79-1.17-4.38-1.76-7.76-1.76h-5.7v16.78Z" style="fill: #4a4542;"/>
      <path d="M143.67,67.5V9.36h20.45c4.27,0,8.16.59,11.67,1.76,3.51,1.17,6.32,3.14,8.43,5.89,2.11,2.76,3.16,6.53,3.16,11.31s-1.05,8.34-3.16,11.28c-2.11,2.94-4.9,5.11-8.39,6.52-3.49,1.41-7.28,2.11-11.39,2.11h-6.79v19.28h-13.97ZM157.64,37.23h6.09c3.38,0,5.9-.77,7.57-2.3,1.66-1.53,2.5-3.73,2.5-6.59s-.9-4.95-2.69-6.13c-1.79-1.17-4.38-1.76-7.76-1.76h-5.7v16.78Z" style="fill: #4a4542;"/>
      <path d="M238.49,9.52h12.02v15.06c0,3.23-.23,6.66-.7,10.3-.47,3.64-1.38,7.33-2.73,11.08-1.35,3.75-3.33,7.39-5.93,10.92-2.6,3.54-6,6.8-10.18,9.79-4.19,2.99-9.4,5.55-15.65,7.69-.47-.94-1.13-2.03-1.99-3.28-.86-1.25-1.77-2.47-2.73-3.67-.96-1.2-1.86-2.16-2.69-2.89,5.46-1.72,10.03-3.81,13.7-6.28,3.67-2.47,6.62-5.15,8.86-8.04,2.24-2.89,3.94-5.84,5.11-8.86,1.17-3.02,1.95-5.98,2.34-8.9.39-2.91.59-5.59.59-8.04v-14.9ZM211.02,28.8h68.21v11.71h-68.21v-11.71ZM214.06,5.54h62.2v11.71h-62.2V5.54ZM250.9,35.04c2.44,6.97,6.31,12.92,11.59,17.83,5.28,4.92,12.19,8.44,20.72,10.57-.89.83-1.82,1.87-2.81,3.12-.99,1.25-1.93,2.54-2.81,3.86-.89,1.33-1.61,2.54-2.18,3.63-6.19-1.98-11.51-4.63-15.96-7.96-4.45-3.33-8.22-7.37-11.31-12.13-3.1-4.76-5.74-10.18-7.92-16.27l10.69-2.65Z" style="fill: #4a4542;"/>
      <path d="M332.14,9.52h12.02v15.06c0,3.23-.23,6.66-.7,10.3-.47,3.64-1.38,7.33-2.73,11.08-1.35,3.75-3.33,7.39-5.93,10.92-2.6,3.54-6,6.8-10.18,9.79-4.19,2.99-9.4,5.55-15.65,7.69-.47-.94-1.13-2.03-1.99-3.28-.86-1.25-1.77-2.47-2.73-3.67-.96-1.2-1.86-2.16-2.69-2.89,5.46-1.72,10.03-3.81,13.7-6.28,3.67-2.47,6.62-5.15,8.86-8.04,2.24-2.89,3.94-5.84,5.11-8.86,1.17-3.02,1.95-5.98,2.34-8.9s.59-5.59.59-8.04v-14.9ZM304.67,28.8h68.21v11.71h-68.21v-11.71ZM307.71,5.54h62.2v11.71h-62.2V5.54ZM344.54,35.04c2.44,6.97,6.31,12.92,11.59,17.83s12.19,8.44,20.72,10.57c-.89.83-1.82,1.87-2.81,3.12-.99,1.25-1.93,2.54-2.81,3.86-.89,1.33-1.61,2.54-2.18,3.63-6.19-1.98-11.51-4.63-15.96-7.96-4.45-3.33-8.22-7.37-11.31-12.13-3.1-4.76-5.74-10.18-7.92-16.27l10.69-2.65Z" style="fill: #4a4542;"/>
      <path d="M406.74,0l10.54,2.81c-1.56,3.85-3.55,7.62-5.97,11.31-2.42,3.7-4.83,6.76-7.22,9.21-.68-.62-1.57-1.31-2.69-2.07-1.12-.75-2.26-1.5-3.43-2.22-1.17-.73-2.2-1.33-3.08-1.8,2.44-2.03,4.72-4.6,6.83-7.73,2.11-3.12,3.78-6.29,5.03-9.52ZM412.6,55.88l9.91,2.34c-1.4,2.55-3.19,4.87-5.34,6.94-2.16,2.08-4.57,3.91-7.22,5.5-2.65,1.59-5.46,2.93-8.43,4.02-.42-.73-1.01-1.6-1.79-2.61-.78-1.02-1.59-2.02-2.42-3.01-.83-.99-1.59-1.77-2.26-2.34,3.85-1.04,7.38-2.47,10.57-4.29,3.2-1.82,5.53-4.01,6.98-6.55ZM430.78,14.83l8.9,4.68c-3.07,3.02-6.63,5.72-10.69,8.12-4.06,2.39-8.35,4.5-12.88,6.32-4.53,1.82-9.08,3.38-13.66,4.68-.62-1.35-1.52-2.85-2.69-4.49-1.17-1.64-2.35-3.08-3.55-4.33,4.21-.88,8.51-2.04,12.88-3.47,4.37-1.43,8.45-3.12,12.25-5.07,3.8-1.95,6.95-4.1,9.44-6.44ZM404.48,39.33h26.38v17.17h-26.38v-17.17ZM408.3,5.07h24.27v8.19h-24.27V5.07ZM411.27,65.32l6.48-6.55c1.51.68,3.09,1.46,4.76,2.34,1.67.89,3.28,1.77,4.84,2.65,1.56.89,2.89,1.69,3.98,2.42l-6.56,7.41c-1.09-.78-2.42-1.67-3.98-2.65-1.56-.99-3.17-1.98-4.84-2.97-1.67-.99-3.23-1.87-4.68-2.65ZM411.89,15.45l8.51-4.6c.83,1.04,1.68,2.21,2.54,3.51.86,1.3,1.47,2.45,1.83,3.43l-8.98,5.07c-.31-1.04-.86-2.25-1.64-3.63-.78-1.38-1.54-2.64-2.26-3.78ZM413.61,46.36v3.12h7.57v-3.12h-7.57ZM418.45,30.12h25.36v7.33h-25.36v-7.33ZM443.27,56.34l9.99,1.64c-.99,2.71-2.34,5.13-4.06,7.26-1.72,2.14-3.72,4.01-6.01,5.62-2.29,1.61-4.81,2.97-7.57,4.06-.42-.68-1.03-1.48-1.83-2.42-.81-.94-1.65-1.86-2.54-2.77-.89-.91-1.67-1.63-2.34-2.15,3.54-1.09,6.57-2.56,9.09-4.41,2.52-1.85,4.28-4.12,5.27-6.83ZM437.72,20.6c1.66,1.09,3.65,2.11,5.97,3.04,2.31.94,4.86,1.77,7.65,2.5,2.78.73,5.7,1.37,8.74,1.91,3.04.55,6.1.98,9.17,1.29-.73.68-1.52,1.56-2.38,2.65-.86,1.09-1.67,2.2-2.42,3.32-.76,1.12-1.37,2.12-1.83,3-3.12-.52-6.22-1.22-9.29-2.11-3.07-.88-6.05-1.92-8.94-3.12-2.89-1.2-5.58-2.54-8.08-4.02-2.5-1.48-4.73-3.08-6.71-4.8l8.12-3.67ZM439.91.16l10.69,2.65c-1.09,3.02-2.55,5.96-4.37,8.82-1.82,2.86-3.69,5.23-5.62,7.1-.68-.62-1.57-1.31-2.69-2.07-1.12-.75-2.26-1.51-3.43-2.26-1.17-.75-2.17-1.34-3-1.76,1.82-1.51,3.47-3.4,4.95-5.66,1.48-2.26,2.64-4.54,3.47-6.83ZM433.67,39.33h26.61v17.17h-26.61v-17.17ZM440.61,5.07h28.17v8.19h-28.17V5.07ZM441,66.96l6.55-7.18c2.29.57,4.67,1.25,7.14,2.03,2.47.78,4.89,1.57,7.26,2.38,2.37.81,4.43,1.55,6.2,2.22l-6.63,7.88c-1.67-.78-3.67-1.61-6.01-2.5-2.34-.89-4.79-1.76-7.34-2.61-2.55-.86-4.94-1.6-7.18-2.22ZM442.8,46.36v3.12h7.8v-3.12h-7.8ZM446.47,15.69l8.74-4.45c1.14,1.2,2.34,2.58,3.59,4.14,1.25,1.56,2.18,2.94,2.81,4.14l-9.29,4.92c-.52-1.2-1.35-2.63-2.5-4.29-1.15-1.66-2.26-3.15-3.36-4.45Z" style="fill: #4a4542;"/>
      <path d="M490.63,62.2c3.49-.47,7.49-1.04,12.02-1.72,4.53-.68,9.29-1.42,14.28-2.22,5-.81,9.94-1.6,14.83-2.38l.62,9.68c-4.58.83-9.2,1.68-13.85,2.54-4.66.86-9.16,1.67-13.5,2.42-4.34.75-8.34,1.44-11.98,2.07l-2.42-10.38ZM491.49,5.07h41.13v9.68h-41.13V5.07ZM496.25,35.12c-.21-.73-.52-1.7-.94-2.93-.42-1.22-.86-2.5-1.33-3.82-.47-1.33-.91-2.46-1.33-3.39.62-.21,1.25-.6,1.87-1.17.62-.57,1.22-1.28,1.79-2.11.36-.57.92-1.55,1.68-2.93.75-1.38,1.53-3.02,2.34-4.92.81-1.9,1.5-3.86,2.07-5.89l11,3.98c-.89,2.03-1.96,4.12-3.24,6.28-1.28,2.16-2.61,4.23-4.02,6.2-1.4,1.98-2.76,3.72-4.06,5.23v.16c-1.2.73-2.17,1.37-2.93,1.91-.75.55-1.43,1.13-2.03,1.76-.6.62-.9,1.17-.9,1.64ZM493.21,41.05h37.62v9.76h-37.62v-9.76ZM496.25,35.12l-.23-7.8,4.92-3.12,22.24-1.09c.62,1.46,1.38,3.01,2.26,4.64.88,1.64,1.64,3.03,2.26,4.17-4.94.36-9.13.68-12.56.94-3.43.26-6.24.48-8.43.66-2.18.18-3.95.35-5.31.51-1.35.16-2.41.31-3.16.47-.76.16-1.42.36-1.99.62ZM506.94,34.88h10.69v32.31h-10.69v-32.31ZM513.73,17.95l8.04-4.84c1.35,1.72,2.72,3.58,4.1,5.58,1.38,2,2.65,3.98,3.82,5.93,1.17,1.95,2.07,3.73,2.69,5.34l-8.66,5.54c-.52-1.61-1.33-3.43-2.42-5.46-1.09-2.03-2.3-4.1-3.63-6.2-1.33-2.11-2.64-4.07-3.94-5.89ZM534.88,8.35h10.46v47.45h-10.46V8.35ZM549.56,1.4h11.08v60.32c0,2.76-.3,4.92-.9,6.48-.6,1.56-1.73,2.78-3.39,3.67-1.67.83-3.67,1.39-6.01,1.68-2.34.29-5.1.43-8.27.43-.21-1.51-.7-3.3-1.48-5.38-.78-2.08-1.56-3.85-2.34-5.31,1.98.05,3.88.09,5.7.12,1.82.03,3.07.04,3.75.04.73,0,1.22-.13,1.48-.39.26-.26.39-.73.39-1.41V1.4Z" style="fill: #4a4542;"/>
    </g>
  </g>
  <g>
    <line x1="2.22" y1="265.33" x2="562.81" y2="265.33" style="fill: none; stroke: #4a4542; stroke-miterlimit: 10; stroke-width: 1.35px;"/>
    <line x1="2.22" y1="344.88" x2="562.81" y2="344.88" style="fill: none; stroke: #4a4542; stroke-miterlimit: 10; stroke-width: 1.35px;"/>
  </g>
</svg>